<?xml version="1.0" encoding="utf-8" standalone="no"?>
<!DOCTYPE svg PUBLIC "-//W3C//DTD SVG 1.1//EN"
  "http://www.w3.org/Graphics/SVG/1.1/DTD/svg11.dtd">
<!-- Created with matplotlib (https://matplotlib.org/) -->
<svg height="345.6pt" version="1.1" viewBox="0 0 460.8 345.6" width="460.8pt" xmlns="http://www.w3.org/2000/svg" xmlns:xlink="http://www.w3.org/1999/xlink">
 <metadata>
  <rdf:RDF xmlns:cc="http://creativecommons.org/ns#" xmlns:dc="http://purl.org/dc/elements/1.1/" xmlns:rdf="http://www.w3.org/1999/02/22-rdf-syntax-ns#">
   <cc:Work>
    <dc:type rdf:resource="http://purl.org/dc/dcmitype/StillImage"/>
    <dc:date>2021-11-28T11:28:46.500932</dc:date>
    <dc:format>image/svg+xml</dc:format>
    <dc:creator>
     <cc:Agent>
      <dc:title>Matplotlib v3.3.2, https://matplotlib.org/</dc:title>
     </cc:Agent>
    </dc:creator>
   </cc:Work>
  </rdf:RDF>
 </metadata>
 <defs>
  <style type="text/css">*{stroke-linecap:butt;stroke-linejoin:round;}</style>
 </defs>
 <g id="figure_1">
  <g id="patch_1">
   <path d="M 0 345.6 
L 460.8 345.6 
L 460.8 0 
L 0 0 
z
" style="fill:#ffffff;"/>
  </g>
  <g id="axes_1">
   <g id="patch_2">
    <path d="M 57.6 307.584 
L 414.72 307.584 
L 414.72 41.472 
L 57.6 41.472 
z
" style="fill:#ffffff;"/>
   </g>
   <g id="matplotlib.axis_1">
    <g id="xtick_1">
     <g id="line2d_1">
      <path clip-path="url(#pa87931529d)" d="M 73.832727 307.584 
L 73.832727 41.472 
" style="fill:none;stroke:#b0b0b0;stroke-linecap:square;stroke-width:0.8;"/>
     </g>
     <g id="line2d_2">
      <defs>
       <path d="M 0 0 
L 0 3.5 
" id="m97289a6385" style="stroke:#000000;stroke-width:0.8;"/>
      </defs>
      <g>
       <use style="stroke:#000000;stroke-width:0.8;" x="73.832727" xlink:href="#m97289a6385" y="307.584"/>
      </g>
     </g>
     <g id="text_1">
      <!-- 5 -->
      <g transform="translate(70.651477 322.182437)scale(0.1 -0.1)">
       <defs>
        <path d="M 10.796875 72.90625 
L 49.515625 72.90625 
L 49.515625 64.59375 
L 19.828125 64.59375 
L 19.828125 46.734375 
Q 21.96875 47.46875 24.109375 47.828125 
Q 26.265625 48.1875 28.421875 48.1875 
Q 40.625 48.1875 47.75 41.5 
Q 54.890625 34.8125 54.890625 23.390625 
Q 54.890625 11.625 47.5625 5.09375 
Q 40.234375 -1.421875 26.90625 -1.421875 
Q 22.3125 -1.421875 17.546875 -0.640625 
Q 12.796875 0.140625 7.71875 1.703125 
L 7.71875 11.625 
Q 12.109375 9.234375 16.796875 8.0625 
Q 21.484375 6.890625 26.703125 6.890625 
Q 35.15625 6.890625 40.078125 11.328125 
Q 45.015625 15.765625 45.015625 23.390625 
Q 45.015625 31 40.078125 35.4375 
Q 35.15625 39.890625 26.703125 39.890625 
Q 22.75 39.890625 18.8125 39.015625 
Q 14.890625 38.140625 10.796875 36.28125 
z
" id="DejaVuSans-53"/>
       </defs>
       <use xlink:href="#DejaVuSans-53"/>
      </g>
     </g>
    </g>
    <g id="xtick_2">
     <g id="line2d_3">
      <path clip-path="url(#pa87931529d)" d="M 118.196562 307.584 
L 118.196562 41.472 
" style="fill:none;stroke:#b0b0b0;stroke-linecap:square;stroke-width:0.8;"/>
     </g>
     <g id="line2d_4">
      <g>
       <use style="stroke:#000000;stroke-width:0.8;" x="118.196562" xlink:href="#m97289a6385" y="307.584"/>
      </g>
     </g>
     <g id="text_2">
      <!-- 10 -->
      <g transform="translate(111.834062 322.182437)scale(0.1 -0.1)">
       <defs>
        <path d="M 12.40625 8.296875 
L 28.515625 8.296875 
L 28.515625 63.921875 
L 10.984375 60.40625 
L 10.984375 69.390625 
L 28.421875 72.90625 
L 38.28125 72.90625 
L 38.28125 8.296875 
L 54.390625 8.296875 
L 54.390625 0 
L 12.40625 0 
z
" id="DejaVuSans-49"/>
        <path d="M 31.78125 66.40625 
Q 24.171875 66.40625 20.328125 58.90625 
Q 16.5 51.421875 16.5 36.375 
Q 16.5 21.390625 20.328125 13.890625 
Q 24.171875 6.390625 31.78125 6.390625 
Q 39.453125 6.390625 43.28125 13.890625 
Q 47.125 21.390625 47.125 36.375 
Q 47.125 51.421875 43.28125 58.90625 
Q 39.453125 66.40625 31.78125 66.40625 
z
M 31.78125 74.21875 
Q 44.046875 74.21875 50.515625 64.515625 
Q 56.984375 54.828125 56.984375 36.375 
Q 56.984375 17.96875 50.515625 8.265625 
Q 44.046875 -1.421875 31.78125 -1.421875 
Q 19.53125 -1.421875 13.0625 8.265625 
Q 6.59375 17.96875 6.59375 36.375 
Q 6.59375 54.828125 13.0625 64.515625 
Q 19.53125 74.21875 31.78125 74.21875 
z
" id="DejaVuSans-48"/>
       </defs>
       <use xlink:href="#DejaVuSans-49"/>
       <use x="63.623047" xlink:href="#DejaVuSans-48"/>
      </g>
     </g>
    </g>
    <g id="xtick_3">
     <g id="line2d_5">
      <path clip-path="url(#pa87931529d)" d="M 162.560398 307.584 
L 162.560398 41.472 
" style="fill:none;stroke:#b0b0b0;stroke-linecap:square;stroke-width:0.8;"/>
     </g>
     <g id="line2d_6">
      <g>
       <use style="stroke:#000000;stroke-width:0.8;" x="162.560398" xlink:href="#m97289a6385" y="307.584"/>
      </g>
     </g>
     <g id="text_3">
      <!-- 15 -->
      <g transform="translate(156.197898 322.182437)scale(0.1 -0.1)">
       <use xlink:href="#DejaVuSans-49"/>
       <use x="63.623047" xlink:href="#DejaVuSans-53"/>
      </g>
     </g>
    </g>
    <g id="xtick_4">
     <g id="line2d_7">
      <path clip-path="url(#pa87931529d)" d="M 206.924233 307.584 
L 206.924233 41.472 
" style="fill:none;stroke:#b0b0b0;stroke-linecap:square;stroke-width:0.8;"/>
     </g>
     <g id="line2d_8">
      <g>
       <use style="stroke:#000000;stroke-width:0.8;" x="206.924233" xlink:href="#m97289a6385" y="307.584"/>
      </g>
     </g>
     <g id="text_4">
      <!-- 20 -->
      <g transform="translate(200.561733 322.182437)scale(0.1 -0.1)">
       <defs>
        <path d="M 19.1875 8.296875 
L 53.609375 8.296875 
L 53.609375 0 
L 7.328125 0 
L 7.328125 8.296875 
Q 12.9375 14.109375 22.625 23.890625 
Q 32.328125 33.6875 34.8125 36.53125 
Q 39.546875 41.84375 41.421875 45.53125 
Q 43.3125 49.21875 43.3125 52.78125 
Q 43.3125 58.59375 39.234375 62.25 
Q 35.15625 65.921875 28.609375 65.921875 
Q 23.96875 65.921875 18.8125 64.3125 
Q 13.671875 62.703125 7.8125 59.421875 
L 7.8125 69.390625 
Q 13.765625 71.78125 18.9375 73 
Q 24.125 74.21875 28.421875 74.21875 
Q 39.75 74.21875 46.484375 68.546875 
Q 53.21875 62.890625 53.21875 53.421875 
Q 53.21875 48.921875 51.53125 44.890625 
Q 49.859375 40.875 45.40625 35.40625 
Q 44.1875 33.984375 37.640625 27.21875 
Q 31.109375 20.453125 19.1875 8.296875 
z
" id="DejaVuSans-50"/>
       </defs>
       <use xlink:href="#DejaVuSans-50"/>
       <use x="63.623047" xlink:href="#DejaVuSans-48"/>
      </g>
     </g>
    </g>
    <g id="xtick_5">
     <g id="line2d_9">
      <path clip-path="url(#pa87931529d)" d="M 251.288068 307.584 
L 251.288068 41.472 
" style="fill:none;stroke:#b0b0b0;stroke-linecap:square;stroke-width:0.8;"/>
     </g>
     <g id="line2d_10">
      <g>
       <use style="stroke:#000000;stroke-width:0.8;" x="251.288068" xlink:href="#m97289a6385" y="307.584"/>
      </g>
     </g>
     <g id="text_5">
      <!-- 25 -->
      <g transform="translate(244.925568 322.182437)scale(0.1 -0.1)">
       <use xlink:href="#DejaVuSans-50"/>
       <use x="63.623047" xlink:href="#DejaVuSans-53"/>
      </g>
     </g>
    </g>
    <g id="xtick_6">
     <g id="line2d_11">
      <path clip-path="url(#pa87931529d)" d="M 295.651903 307.584 
L 295.651903 41.472 
" style="fill:none;stroke:#b0b0b0;stroke-linecap:square;stroke-width:0.8;"/>
     </g>
     <g id="line2d_12">
      <g>
       <use style="stroke:#000000;stroke-width:0.8;" x="295.651903" xlink:href="#m97289a6385" y="307.584"/>
      </g>
     </g>
     <g id="text_6">
      <!-- 30 -->
      <g transform="translate(289.289403 322.182437)scale(0.1 -0.1)">
       <defs>
        <path d="M 40.578125 39.3125 
Q 47.65625 37.796875 51.625 33 
Q 55.609375 28.21875 55.609375 21.1875 
Q 55.609375 10.40625 48.1875 4.484375 
Q 40.765625 -1.421875 27.09375 -1.421875 
Q 22.515625 -1.421875 17.65625 -0.515625 
Q 12.796875 0.390625 7.625 2.203125 
L 7.625 11.71875 
Q 11.71875 9.328125 16.59375 8.109375 
Q 21.484375 6.890625 26.8125 6.890625 
Q 36.078125 6.890625 40.9375 10.546875 
Q 45.796875 14.203125 45.796875 21.1875 
Q 45.796875 27.640625 41.28125 31.265625 
Q 36.765625 34.90625 28.71875 34.90625 
L 20.21875 34.90625 
L 20.21875 43.015625 
L 29.109375 43.015625 
Q 36.375 43.015625 40.234375 45.921875 
Q 44.09375 48.828125 44.09375 54.296875 
Q 44.09375 59.90625 40.109375 62.90625 
Q 36.140625 65.921875 28.71875 65.921875 
Q 24.65625 65.921875 20.015625 65.03125 
Q 15.375 64.15625 9.8125 62.3125 
L 9.8125 71.09375 
Q 15.4375 72.65625 20.34375 73.4375 
Q 25.25 74.21875 29.59375 74.21875 
Q 40.828125 74.21875 47.359375 69.109375 
Q 53.90625 64.015625 53.90625 55.328125 
Q 53.90625 49.265625 50.4375 45.09375 
Q 46.96875 40.921875 40.578125 39.3125 
z
" id="DejaVuSans-51"/>
       </defs>
       <use xlink:href="#DejaVuSans-51"/>
       <use x="63.623047" xlink:href="#DejaVuSans-48"/>
      </g>
     </g>
    </g>
    <g id="xtick_7">
     <g id="line2d_13">
      <path clip-path="url(#pa87931529d)" d="M 340.015738 307.584 
L 340.015738 41.472 
" style="fill:none;stroke:#b0b0b0;stroke-linecap:square;stroke-width:0.8;"/>
     </g>
     <g id="line2d_14">
      <g>
       <use style="stroke:#000000;stroke-width:0.8;" x="340.015738" xlink:href="#m97289a6385" y="307.584"/>
      </g>
     </g>
     <g id="text_7">
      <!-- 35 -->
      <g transform="translate(333.653238 322.182437)scale(0.1 -0.1)">
       <use xlink:href="#DejaVuSans-51"/>
       <use x="63.623047" xlink:href="#DejaVuSans-53"/>
      </g>
     </g>
    </g>
    <g id="xtick_8">
     <g id="line2d_15">
      <path clip-path="url(#pa87931529d)" d="M 384.379573 307.584 
L 384.379573 41.472 
" style="fill:none;stroke:#b0b0b0;stroke-linecap:square;stroke-width:0.8;"/>
     </g>
     <g id="line2d_16">
      <g>
       <use style="stroke:#000000;stroke-width:0.8;" x="384.379573" xlink:href="#m97289a6385" y="307.584"/>
      </g>
     </g>
     <g id="text_8">
      <!-- 40 -->
      <g transform="translate(378.017073 322.182437)scale(0.1 -0.1)">
       <defs>
        <path d="M 37.796875 64.3125 
L 12.890625 25.390625 
L 37.796875 25.390625 
z
M 35.203125 72.90625 
L 47.609375 72.90625 
L 47.609375 25.390625 
L 58.015625 25.390625 
L 58.015625 17.1875 
L 47.609375 17.1875 
L 47.609375 0 
L 37.796875 0 
L 37.796875 17.1875 
L 4.890625 17.1875 
L 4.890625 26.703125 
z
" id="DejaVuSans-52"/>
       </defs>
       <use xlink:href="#DejaVuSans-52"/>
       <use x="63.623047" xlink:href="#DejaVuSans-48"/>
      </g>
     </g>
    </g>
    <g id="text_9">
     <!-- Diameter [mm] -->
     <g transform="translate(197.586562 335.860562)scale(0.1 -0.1)">
      <defs>
       <path d="M 19.671875 64.796875 
L 19.671875 8.109375 
L 31.59375 8.109375 
Q 46.6875 8.109375 53.6875 14.9375 
Q 60.6875 21.78125 60.6875 36.53125 
Q 60.6875 51.171875 53.6875 57.984375 
Q 46.6875 64.796875 31.59375 64.796875 
z
M 9.8125 72.90625 
L 30.078125 72.90625 
Q 51.265625 72.90625 61.171875 64.09375 
Q 71.09375 55.28125 71.09375 36.53125 
Q 71.09375 17.671875 61.125 8.828125 
Q 51.171875 0 30.078125 0 
L 9.8125 0 
z
" id="DejaVuSans-68"/>
       <path d="M 9.421875 54.6875 
L 18.40625 54.6875 
L 18.40625 0 
L 9.421875 0 
z
M 9.421875 75.984375 
L 18.40625 75.984375 
L 18.40625 64.59375 
L 9.421875 64.59375 
z
" id="DejaVuSans-105"/>
       <path d="M 34.28125 27.484375 
Q 23.390625 27.484375 19.1875 25 
Q 14.984375 22.515625 14.984375 16.5 
Q 14.984375 11.71875 18.140625 8.90625 
Q 21.296875 6.109375 26.703125 6.109375 
Q 34.1875 6.109375 38.703125 11.40625 
Q 43.21875 16.703125 43.21875 25.484375 
L 43.21875 27.484375 
z
M 52.203125 31.203125 
L 52.203125 0 
L 43.21875 0 
L 43.21875 8.296875 
Q 40.140625 3.328125 35.546875 0.953125 
Q 30.953125 -1.421875 24.3125 -1.421875 
Q 15.921875 -1.421875 10.953125 3.296875 
Q 6 8.015625 6 15.921875 
Q 6 25.140625 12.171875 29.828125 
Q 18.359375 34.515625 30.609375 34.515625 
L 43.21875 34.515625 
L 43.21875 35.40625 
Q 43.21875 41.609375 39.140625 45 
Q 35.0625 48.390625 27.6875 48.390625 
Q 23 48.390625 18.546875 47.265625 
Q 14.109375 46.140625 10.015625 43.890625 
L 10.015625 52.203125 
Q 14.9375 54.109375 19.578125 55.046875 
Q 24.21875 56 28.609375 56 
Q 40.484375 56 46.34375 49.84375 
Q 52.203125 43.703125 52.203125 31.203125 
z
" id="DejaVuSans-97"/>
       <path d="M 52 44.1875 
Q 55.375 50.25 60.0625 53.125 
Q 64.75 56 71.09375 56 
Q 79.640625 56 84.28125 50.015625 
Q 88.921875 44.046875 88.921875 33.015625 
L 88.921875 0 
L 79.890625 0 
L 79.890625 32.71875 
Q 79.890625 40.578125 77.09375 44.375 
Q 74.3125 48.1875 68.609375 48.1875 
Q 61.625 48.1875 57.5625 43.546875 
Q 53.515625 38.921875 53.515625 30.90625 
L 53.515625 0 
L 44.484375 0 
L 44.484375 32.71875 
Q 44.484375 40.625 41.703125 44.40625 
Q 38.921875 48.1875 33.109375 48.1875 
Q 26.21875 48.1875 22.15625 43.53125 
Q 18.109375 38.875 18.109375 30.90625 
L 18.109375 0 
L 9.078125 0 
L 9.078125 54.6875 
L 18.109375 54.6875 
L 18.109375 46.1875 
Q 21.1875 51.21875 25.484375 53.609375 
Q 29.78125 56 35.6875 56 
Q 41.65625 56 45.828125 52.96875 
Q 50 49.953125 52 44.1875 
z
" id="DejaVuSans-109"/>
       <path d="M 56.203125 29.59375 
L 56.203125 25.203125 
L 14.890625 25.203125 
Q 15.484375 15.921875 20.484375 11.0625 
Q 25.484375 6.203125 34.421875 6.203125 
Q 39.59375 6.203125 44.453125 7.46875 
Q 49.3125 8.734375 54.109375 11.28125 
L 54.109375 2.78125 
Q 49.265625 0.734375 44.1875 -0.34375 
Q 39.109375 -1.421875 33.890625 -1.421875 
Q 20.796875 -1.421875 13.15625 6.1875 
Q 5.515625 13.8125 5.515625 26.8125 
Q 5.515625 40.234375 12.765625 48.109375 
Q 20.015625 56 32.328125 56 
Q 43.359375 56 49.78125 48.890625 
Q 56.203125 41.796875 56.203125 29.59375 
z
M 47.21875 32.234375 
Q 47.125 39.59375 43.09375 43.984375 
Q 39.0625 48.390625 32.421875 48.390625 
Q 24.90625 48.390625 20.390625 44.140625 
Q 15.875 39.890625 15.1875 32.171875 
z
" id="DejaVuSans-101"/>
       <path d="M 18.3125 70.21875 
L 18.3125 54.6875 
L 36.8125 54.6875 
L 36.8125 47.703125 
L 18.3125 47.703125 
L 18.3125 18.015625 
Q 18.3125 11.328125 20.140625 9.421875 
Q 21.96875 7.515625 27.59375 7.515625 
L 36.8125 7.515625 
L 36.8125 0 
L 27.59375 0 
Q 17.1875 0 13.234375 3.875 
Q 9.28125 7.765625 9.28125 18.015625 
L 9.28125 47.703125 
L 2.6875 47.703125 
L 2.6875 54.6875 
L 9.28125 54.6875 
L 9.28125 70.21875 
z
" id="DejaVuSans-116"/>
       <path d="M 41.109375 46.296875 
Q 39.59375 47.171875 37.8125 47.578125 
Q 36.03125 48 33.890625 48 
Q 26.265625 48 22.1875 43.046875 
Q 18.109375 38.09375 18.109375 28.8125 
L 18.109375 0 
L 9.078125 0 
L 9.078125 54.6875 
L 18.109375 54.6875 
L 18.109375 46.1875 
Q 20.953125 51.171875 25.484375 53.578125 
Q 30.03125 56 36.53125 56 
Q 37.453125 56 38.578125 55.875 
Q 39.703125 55.765625 41.0625 55.515625 
z
" id="DejaVuSans-114"/>
       <path id="DejaVuSans-32"/>
       <path d="M 8.59375 75.984375 
L 29.296875 75.984375 
L 29.296875 69 
L 17.578125 69 
L 17.578125 -6.203125 
L 29.296875 -6.203125 
L 29.296875 -13.1875 
L 8.59375 -13.1875 
z
" id="DejaVuSans-91"/>
       <path d="M 30.421875 75.984375 
L 30.421875 -13.1875 
L 9.71875 -13.1875 
L 9.71875 -6.203125 
L 21.390625 -6.203125 
L 21.390625 69 
L 9.71875 69 
L 9.71875 75.984375 
z
" id="DejaVuSans-93"/>
      </defs>
      <use xlink:href="#DejaVuSans-68"/>
      <use x="77.001953" xlink:href="#DejaVuSans-105"/>
      <use x="104.785156" xlink:href="#DejaVuSans-97"/>
      <use x="166.064453" xlink:href="#DejaVuSans-109"/>
      <use x="263.476562" xlink:href="#DejaVuSans-101"/>
      <use x="325" xlink:href="#DejaVuSans-116"/>
      <use x="364.208984" xlink:href="#DejaVuSans-101"/>
      <use x="425.732422" xlink:href="#DejaVuSans-114"/>
      <use x="466.845703" xlink:href="#DejaVuSans-32"/>
      <use x="498.632812" xlink:href="#DejaVuSans-91"/>
      <use x="537.646484" xlink:href="#DejaVuSans-109"/>
      <use x="635.058594" xlink:href="#DejaVuSans-109"/>
      <use x="732.470703" xlink:href="#DejaVuSans-93"/>
     </g>
    </g>
   </g>
   <g id="matplotlib.axis_2">
    <g id="ytick_1">
     <g id="line2d_17">
      <path clip-path="url(#pa87931529d)" d="M 57.6 301.854316 
L 414.72 301.854316 
" style="fill:none;stroke:#b0b0b0;stroke-linecap:square;stroke-width:0.8;"/>
     </g>
     <g id="line2d_18">
      <defs>
       <path d="M 0 0 
L -3.5 0 
" id="md2c50483ca" style="stroke:#000000;stroke-width:0.8;"/>
      </defs>
      <g>
       <use style="stroke:#000000;stroke-width:0.8;" x="57.6" xlink:href="#md2c50483ca" y="301.854316"/>
      </g>
     </g>
     <g id="text_10">
      <!-- 0.6 -->
      <g transform="translate(34.696875 305.653535)scale(0.1 -0.1)">
       <defs>
        <path d="M 10.6875 12.40625 
L 21 12.40625 
L 21 0 
L 10.6875 0 
z
" id="DejaVuSans-46"/>
        <path d="M 33.015625 40.375 
Q 26.375 40.375 22.484375 35.828125 
Q 18.609375 31.296875 18.609375 23.390625 
Q 18.609375 15.53125 22.484375 10.953125 
Q 26.375 6.390625 33.015625 6.390625 
Q 39.65625 6.390625 43.53125 10.953125 
Q 47.40625 15.53125 47.40625 23.390625 
Q 47.40625 31.296875 43.53125 35.828125 
Q 39.65625 40.375 33.015625 40.375 
z
M 52.59375 71.296875 
L 52.59375 62.3125 
Q 48.875 64.0625 45.09375 64.984375 
Q 41.3125 65.921875 37.59375 65.921875 
Q 27.828125 65.921875 22.671875 59.328125 
Q 17.53125 52.734375 16.796875 39.40625 
Q 19.671875 43.65625 24.015625 45.921875 
Q 28.375 48.1875 33.59375 48.1875 
Q 44.578125 48.1875 50.953125 41.515625 
Q 57.328125 34.859375 57.328125 23.390625 
Q 57.328125 12.15625 50.6875 5.359375 
Q 44.046875 -1.421875 33.015625 -1.421875 
Q 20.359375 -1.421875 13.671875 8.265625 
Q 6.984375 17.96875 6.984375 36.375 
Q 6.984375 53.65625 15.1875 63.9375 
Q 23.390625 74.21875 37.203125 74.21875 
Q 40.921875 74.21875 44.703125 73.484375 
Q 48.484375 72.75 52.59375 71.296875 
z
" id="DejaVuSans-54"/>
       </defs>
       <use xlink:href="#DejaVuSans-48"/>
       <use x="63.623047" xlink:href="#DejaVuSans-46"/>
       <use x="95.410156" xlink:href="#DejaVuSans-54"/>
      </g>
     </g>
    </g>
    <g id="ytick_2">
     <g id="line2d_19">
      <path clip-path="url(#pa87931529d)" d="M 57.6 259.412211 
L 414.72 259.412211 
" style="fill:none;stroke:#b0b0b0;stroke-linecap:square;stroke-width:0.8;"/>
     </g>
     <g id="line2d_20">
      <g>
       <use style="stroke:#000000;stroke-width:0.8;" x="57.6" xlink:href="#md2c50483ca" y="259.412211"/>
      </g>
     </g>
     <g id="text_11">
      <!-- 0.8 -->
      <g transform="translate(34.696875 263.211429)scale(0.1 -0.1)">
       <defs>
        <path d="M 31.78125 34.625 
Q 24.75 34.625 20.71875 30.859375 
Q 16.703125 27.09375 16.703125 20.515625 
Q 16.703125 13.921875 20.71875 10.15625 
Q 24.75 6.390625 31.78125 6.390625 
Q 38.8125 6.390625 42.859375 10.171875 
Q 46.921875 13.96875 46.921875 20.515625 
Q 46.921875 27.09375 42.890625 30.859375 
Q 38.875 34.625 31.78125 34.625 
z
M 21.921875 38.8125 
Q 15.578125 40.375 12.03125 44.71875 
Q 8.5 49.078125 8.5 55.328125 
Q 8.5 64.0625 14.71875 69.140625 
Q 20.953125 74.21875 31.78125 74.21875 
Q 42.671875 74.21875 48.875 69.140625 
Q 55.078125 64.0625 55.078125 55.328125 
Q 55.078125 49.078125 51.53125 44.71875 
Q 48 40.375 41.703125 38.8125 
Q 48.828125 37.15625 52.796875 32.3125 
Q 56.78125 27.484375 56.78125 20.515625 
Q 56.78125 9.90625 50.3125 4.234375 
Q 43.84375 -1.421875 31.78125 -1.421875 
Q 19.734375 -1.421875 13.25 4.234375 
Q 6.78125 9.90625 6.78125 20.515625 
Q 6.78125 27.484375 10.78125 32.3125 
Q 14.796875 37.15625 21.921875 38.8125 
z
M 18.3125 54.390625 
Q 18.3125 48.734375 21.84375 45.5625 
Q 25.390625 42.390625 31.78125 42.390625 
Q 38.140625 42.390625 41.71875 45.5625 
Q 45.3125 48.734375 45.3125 54.390625 
Q 45.3125 60.0625 41.71875 63.234375 
Q 38.140625 66.40625 31.78125 66.40625 
Q 25.390625 66.40625 21.84375 63.234375 
Q 18.3125 60.0625 18.3125 54.390625 
z
" id="DejaVuSans-56"/>
       </defs>
       <use xlink:href="#DejaVuSans-48"/>
       <use x="63.623047" xlink:href="#DejaVuSans-46"/>
       <use x="95.410156" xlink:href="#DejaVuSans-56"/>
      </g>
     </g>
    </g>
    <g id="ytick_3">
     <g id="line2d_21">
      <path clip-path="url(#pa87931529d)" d="M 57.6 216.970105 
L 414.72 216.970105 
" style="fill:none;stroke:#b0b0b0;stroke-linecap:square;stroke-width:0.8;"/>
     </g>
     <g id="line2d_22">
      <g>
       <use style="stroke:#000000;stroke-width:0.8;" x="57.6" xlink:href="#md2c50483ca" y="216.970105"/>
      </g>
     </g>
     <g id="text_12">
      <!-- 1.0 -->
      <g transform="translate(34.696875 220.769324)scale(0.1 -0.1)">
       <use xlink:href="#DejaVuSans-49"/>
       <use x="63.623047" xlink:href="#DejaVuSans-46"/>
       <use x="95.410156" xlink:href="#DejaVuSans-48"/>
      </g>
     </g>
    </g>
    <g id="ytick_4">
     <g id="line2d_23">
      <path clip-path="url(#pa87931529d)" d="M 57.6 174.528 
L 414.72 174.528 
" style="fill:none;stroke:#b0b0b0;stroke-linecap:square;stroke-width:0.8;"/>
     </g>
     <g id="line2d_24">
      <g>
       <use style="stroke:#000000;stroke-width:0.8;" x="57.6" xlink:href="#md2c50483ca" y="174.528"/>
      </g>
     </g>
     <g id="text_13">
      <!-- 1.2 -->
      <g transform="translate(34.696875 178.327219)scale(0.1 -0.1)">
       <use xlink:href="#DejaVuSans-49"/>
       <use x="63.623047" xlink:href="#DejaVuSans-46"/>
       <use x="95.410156" xlink:href="#DejaVuSans-50"/>
      </g>
     </g>
    </g>
    <g id="ytick_5">
     <g id="line2d_25">
      <path clip-path="url(#pa87931529d)" d="M 57.6 132.085895 
L 414.72 132.085895 
" style="fill:none;stroke:#b0b0b0;stroke-linecap:square;stroke-width:0.8;"/>
     </g>
     <g id="line2d_26">
      <g>
       <use style="stroke:#000000;stroke-width:0.8;" x="57.6" xlink:href="#md2c50483ca" y="132.085895"/>
      </g>
     </g>
     <g id="text_14">
      <!-- 1.4 -->
      <g transform="translate(34.696875 135.885113)scale(0.1 -0.1)">
       <use xlink:href="#DejaVuSans-49"/>
       <use x="63.623047" xlink:href="#DejaVuSans-46"/>
       <use x="95.410156" xlink:href="#DejaVuSans-52"/>
      </g>
     </g>
    </g>
    <g id="ytick_6">
     <g id="line2d_27">
      <path clip-path="url(#pa87931529d)" d="M 57.6 89.643789 
L 414.72 89.643789 
" style="fill:none;stroke:#b0b0b0;stroke-linecap:square;stroke-width:0.8;"/>
     </g>
     <g id="line2d_28">
      <g>
       <use style="stroke:#000000;stroke-width:0.8;" x="57.6" xlink:href="#md2c50483ca" y="89.643789"/>
      </g>
     </g>
     <g id="text_15">
      <!-- 1.6 -->
      <g transform="translate(34.696875 93.443008)scale(0.1 -0.1)">
       <use xlink:href="#DejaVuSans-49"/>
       <use x="63.623047" xlink:href="#DejaVuSans-46"/>
       <use x="95.410156" xlink:href="#DejaVuSans-54"/>
      </g>
     </g>
    </g>
    <g id="ytick_7">
     <g id="line2d_29">
      <path clip-path="url(#pa87931529d)" d="M 57.6 47.201684 
L 414.72 47.201684 
" style="fill:none;stroke:#b0b0b0;stroke-linecap:square;stroke-width:0.8;"/>
     </g>
     <g id="line2d_30">
      <g>
       <use style="stroke:#000000;stroke-width:0.8;" x="57.6" xlink:href="#md2c50483ca" y="47.201684"/>
      </g>
     </g>
     <g id="text_16">
      <!-- 1.8 -->
      <g transform="translate(34.696875 51.000903)scale(0.1 -0.1)">
       <use xlink:href="#DejaVuSans-49"/>
       <use x="63.623047" xlink:href="#DejaVuSans-46"/>
       <use x="95.410156" xlink:href="#DejaVuSans-56"/>
      </g>
     </g>
    </g>
    <g id="text_17">
     <!-- Thickness [mm] -->
     <g transform="translate(28.617187 214.470188)rotate(-90)scale(0.1 -0.1)">
      <defs>
       <path d="M -0.296875 72.90625 
L 61.375 72.90625 
L 61.375 64.59375 
L 35.5 64.59375 
L 35.5 0 
L 25.59375 0 
L 25.59375 64.59375 
L -0.296875 64.59375 
z
" id="DejaVuSans-84"/>
       <path d="M 54.890625 33.015625 
L 54.890625 0 
L 45.90625 0 
L 45.90625 32.71875 
Q 45.90625 40.484375 42.875 44.328125 
Q 39.84375 48.1875 33.796875 48.1875 
Q 26.515625 48.1875 22.3125 43.546875 
Q 18.109375 38.921875 18.109375 30.90625 
L 18.109375 0 
L 9.078125 0 
L 9.078125 75.984375 
L 18.109375 75.984375 
L 18.109375 46.1875 
Q 21.34375 51.125 25.703125 53.5625 
Q 30.078125 56 35.796875 56 
Q 45.21875 56 50.046875 50.171875 
Q 54.890625 44.34375 54.890625 33.015625 
z
" id="DejaVuSans-104"/>
       <path d="M 48.78125 52.59375 
L 48.78125 44.1875 
Q 44.96875 46.296875 41.140625 47.34375 
Q 37.3125 48.390625 33.40625 48.390625 
Q 24.65625 48.390625 19.8125 42.84375 
Q 14.984375 37.3125 14.984375 27.296875 
Q 14.984375 17.28125 19.8125 11.734375 
Q 24.65625 6.203125 33.40625 6.203125 
Q 37.3125 6.203125 41.140625 7.25 
Q 44.96875 8.296875 48.78125 10.40625 
L 48.78125 2.09375 
Q 45.015625 0.34375 40.984375 -0.53125 
Q 36.96875 -1.421875 32.421875 -1.421875 
Q 20.0625 -1.421875 12.78125 6.34375 
Q 5.515625 14.109375 5.515625 27.296875 
Q 5.515625 40.671875 12.859375 48.328125 
Q 20.21875 56 33.015625 56 
Q 37.15625 56 41.109375 55.140625 
Q 45.0625 54.296875 48.78125 52.59375 
z
" id="DejaVuSans-99"/>
       <path d="M 9.078125 75.984375 
L 18.109375 75.984375 
L 18.109375 31.109375 
L 44.921875 54.6875 
L 56.390625 54.6875 
L 27.390625 29.109375 
L 57.625 0 
L 45.90625 0 
L 18.109375 26.703125 
L 18.109375 0 
L 9.078125 0 
z
" id="DejaVuSans-107"/>
       <path d="M 54.890625 33.015625 
L 54.890625 0 
L 45.90625 0 
L 45.90625 32.71875 
Q 45.90625 40.484375 42.875 44.328125 
Q 39.84375 48.1875 33.796875 48.1875 
Q 26.515625 48.1875 22.3125 43.546875 
Q 18.109375 38.921875 18.109375 30.90625 
L 18.109375 0 
L 9.078125 0 
L 9.078125 54.6875 
L 18.109375 54.6875 
L 18.109375 46.1875 
Q 21.34375 51.125 25.703125 53.5625 
Q 30.078125 56 35.796875 56 
Q 45.21875 56 50.046875 50.171875 
Q 54.890625 44.34375 54.890625 33.015625 
z
" id="DejaVuSans-110"/>
       <path d="M 44.28125 53.078125 
L 44.28125 44.578125 
Q 40.484375 46.53125 36.375 47.5 
Q 32.28125 48.484375 27.875 48.484375 
Q 21.1875 48.484375 17.84375 46.4375 
Q 14.5 44.390625 14.5 40.28125 
Q 14.5 37.15625 16.890625 35.375 
Q 19.28125 33.59375 26.515625 31.984375 
L 29.59375 31.296875 
Q 39.15625 29.25 43.1875 25.515625 
Q 47.21875 21.78125 47.21875 15.09375 
Q 47.21875 7.46875 41.1875 3.015625 
Q 35.15625 -1.421875 24.609375 -1.421875 
Q 20.21875 -1.421875 15.453125 -0.5625 
Q 10.6875 0.296875 5.421875 2 
L 5.421875 11.28125 
Q 10.40625 8.6875 15.234375 7.390625 
Q 20.0625 6.109375 24.8125 6.109375 
Q 31.15625 6.109375 34.5625 8.28125 
Q 37.984375 10.453125 37.984375 14.40625 
Q 37.984375 18.0625 35.515625 20.015625 
Q 33.0625 21.96875 24.703125 23.78125 
L 21.578125 24.515625 
Q 13.234375 26.265625 9.515625 29.90625 
Q 5.8125 33.546875 5.8125 39.890625 
Q 5.8125 47.609375 11.28125 51.796875 
Q 16.75 56 26.8125 56 
Q 31.78125 56 36.171875 55.265625 
Q 40.578125 54.546875 44.28125 53.078125 
z
" id="DejaVuSans-115"/>
      </defs>
      <use xlink:href="#DejaVuSans-84"/>
      <use x="61.083984" xlink:href="#DejaVuSans-104"/>
      <use x="124.462891" xlink:href="#DejaVuSans-105"/>
      <use x="152.246094" xlink:href="#DejaVuSans-99"/>
      <use x="207.226562" xlink:href="#DejaVuSans-107"/>
      <use x="265.136719" xlink:href="#DejaVuSans-110"/>
      <use x="328.515625" xlink:href="#DejaVuSans-101"/>
      <use x="390.039062" xlink:href="#DejaVuSans-115"/>
      <use x="442.138672" xlink:href="#DejaVuSans-115"/>
      <use x="494.238281" xlink:href="#DejaVuSans-32"/>
      <use x="526.025391" xlink:href="#DejaVuSans-91"/>
      <use x="565.039062" xlink:href="#DejaVuSans-109"/>
      <use x="662.451172" xlink:href="#DejaVuSans-109"/>
      <use x="759.863281" xlink:href="#DejaVuSans-93"/>
     </g>
    </g>
   </g>
   <g id="line2d_31">
    <path clip-path="url(#pa87931529d)" d="M 398.487273 53.568 
L 398.398545 53.568 
L 398.398545 55.690105 
L 398.309817 55.690105 
L 398.043634 59.934316 
L 398.043634 59.934316 
L 397.954907 59.934316 
L 397.954907 62.056421 
L 397.866179 62.056421 
L 397.599996 66.300632 
L 397.599996 66.300632 
L 397.511268 66.300632 
L 397.511268 68.422737 
L 397.422541 68.422737 
L 397.333813 68.422737 
L 397.333813 70.544842 
L 397.245085 70.544842 
L 396.978902 74.789053 
L 396.978902 74.789053 
L 396.890175 74.789053 
L 396.890175 74.789053 
L 396.623992 79.033263 
L 396.623992 79.033263 
L 396.535264 79.033263 
L 396.535264 81.155368 
L 396.446536 81.155368 
L 396.357809 81.155368 
L 396.357809 83.277474 
L 396.269081 83.277474 
L 396.180353 83.277474 
L 396.180353 85.399579 
L 396.091626 85.399579 
L 395.825443 89.643789 
L 395.825443 89.643789 
L 395.736715 89.643789 
L 395.736715 89.643789 
L 395.470532 93.888 
L 395.470532 93.888 
L 395.293077 93.888 
L 395.293077 96.010105 
L 395.204349 96.010105 
L 395.115621 96.010105 
L 395.115621 98.132211 
L 395.026894 98.132211 
L 394.938166 98.132211 
L 394.938166 100.254316 
L 394.849438 100.254316 
L 394.760711 100.254316 
L 394.760711 102.376421 
L 394.671983 102.376421 
L 394.583255 102.376421 
L 394.583255 104.498526 
L 394.494528 104.498526 
L 394.4058 104.498526 
L 394.4058 104.498526 
L 394.4058 106.620632 
L 394.317072 106.620632 
L 394.228345 106.620632 
L 394.228345 106.620632 
L 394.228345 108.742737 
L 394.139617 108.742737 
L 393.962162 108.742737 
L 393.962162 110.864842 
L 393.873434 110.864842 
L 393.784706 110.864842 
L 393.784706 112.986947 
L 393.695979 112.986947 
L 393.607251 112.986947 
L 393.607251 112.986947 
L 393.341068 117.231158 
L 393.341068 117.231158 
L 393.163613 117.231158 
L 393.163613 119.353263 
L 393.074885 119.353263 
L 392.986157 119.353263 
L 392.986157 119.353263 
L 392.808702 121.475368 
L 392.808702 121.475368 
L 392.719974 121.475368 
L 392.719974 123.597474 
L 392.631246 123.597474 
L 392.542519 123.597474 
L 392.542519 123.597474 
L 392.276336 127.841684 
L 392.276336 127.841684 
L 392.09888 127.841684 
L 392.09888 127.841684 
L 391.921425 129.963789 
L 391.921425 129.963789 
L 391.832697 129.963789 
L 391.832697 132.085895 
L 391.74397 132.085895 
L 391.655242 132.085895 
L 391.655242 132.085895 
L 391.477787 134.208 
L 391.477787 134.208 
L 391.389059 134.208 
L 391.389059 136.330105 
L 391.300331 136.330105 
L 391.122876 136.330105 
L 391.122876 138.452211 
L 391.034148 138.452211 
L 390.945421 138.452211 
L 390.945421 138.452211 
L 390.945421 140.574316 
L 390.856693 140.574316 
L 390.679238 140.574316 
L 390.679238 140.574316 
L 390.679238 142.696421 
L 390.59051 142.696421 
L 390.413055 142.696421 
L 390.413055 144.818526 
L 390.324327 144.818526 
L 390.235599 144.818526 
L 390.235599 144.818526 
L 390.058144 146.940632 
L 390.058144 146.940632 
L 389.969416 146.940632 
L 389.969416 146.940632 
L 389.791961 149.062737 
L 389.791961 149.062737 
L 389.703233 149.062737 
L 389.703233 149.062737 
L 389.525778 151.184842 
L 389.525778 151.184842 
L 389.348323 151.184842 
L 389.348323 153.306947 
L 389.259595 153.306947 
L 389.170867 153.306947 
L 389.170867 153.306947 
L 388.993412 155.429053 
L 388.993412 155.429053 
L 388.904684 155.429053 
L 388.904684 155.429053 
L 388.727229 157.551158 
L 388.727229 157.551158 
L 388.549774 157.551158 
L 388.549774 159.673263 
L 388.461046 159.673263 
L 388.283591 159.673263 
L 388.283591 161.795368 
L 388.194863 161.795368 
L 388.017408 161.795368 
L 388.017408 163.917474 
L 387.92868 163.917474 
L 387.751225 163.917474 
L 387.751225 163.917474 
L 387.573769 166.039579 
L 387.573769 166.039579 
L 387.396314 166.039579 
L 387.396314 168.161684 
L 387.307586 168.161684 
L 387.130131 168.161684 
L 387.130131 170.283789 
L 387.041403 170.283789 
L 386.863948 170.283789 
L 386.863948 170.283789 
L 386.686493 172.405895 
L 386.686493 172.405895 
L 386.509037 172.405895 
L 386.509037 172.405895 
L 386.509037 174.528 
L 386.42031 174.528 
L 386.242854 174.528 
L 386.242854 174.528 
L 386.065399 176.650105 
L 386.065399 176.650105 
L 385.887944 176.650105 
L 385.887944 176.650105 
L 385.887944 178.772211 
L 385.799216 178.772211 
L 385.533033 178.772211 
L 385.533033 180.894316 
L 385.444305 180.894316 
L 385.178122 180.894316 
L 385.178122 183.016421 
L 385.089395 183.016421 
L 384.911939 183.016421 
L 384.911939 183.016421 
L 384.734484 185.138526 
L 384.734484 185.138526 
L 384.557028 185.138526 
L 384.557028 185.138526 
L 384.557028 187.260632 
L 384.468301 187.260632 
L 384.202118 187.260632 
L 384.202118 189.382737 
L 384.11339 189.382737 
L 383.847207 189.382737 
L 383.847207 191.504842 
L 383.758479 191.504842 
L 383.492296 191.504842 
L 383.492296 191.504842 
L 383.492296 193.626947 
L 383.403569 193.626947 
L 383.137386 193.626947 
L 383.137386 193.626947 
L 382.95993 195.749053 
L 382.95993 195.749053 
L 382.782475 195.749053 
L 382.782475 195.749053 
L 382.60502 197.871158 
L 382.60502 197.871158 
L 382.338837 197.871158 
L 382.338837 199.993263 
L 382.250109 199.993263 
L 381.983926 199.993263 
L 381.983926 199.993263 
L 381.806471 202.115368 
L 381.806471 202.115368 
L 381.540288 202.115368 
L 381.540288 204.237474 
L 381.45156 204.237474 
L 381.185377 204.237474 
L 381.185377 204.237474 
L 381.007922 206.359579 
L 381.007922 206.359579 
L 380.741739 206.359579 
L 380.741739 208.481684 
L 380.653011 208.481684 
L 380.386828 208.481684 
L 380.386828 208.481684 
L 380.209373 210.603789 
L 380.209373 210.603789 
L 379.94319 210.603789 
L 379.94319 210.603789 
L 379.765734 212.725895 
L 379.765734 212.725895 
L 379.499551 212.725895 
L 379.499551 212.725895 
L 379.322096 214.848 
L 379.322096 214.848 
L 379.055913 214.848 
L 379.055913 214.848 
L 378.878458 216.970105 
L 378.878458 216.970105 
L 378.612275 216.970105 
L 378.612275 216.970105 
L 378.434819 219.092211 
L 378.434819 219.092211 
L 378.079909 219.092211 
L 378.079909 221.214316 
L 377.991181 221.214316 
L 377.63627 221.214316 
L 377.63627 223.336421 
L 377.547543 223.336421 
L 377.192632 223.336421 
L 377.192632 223.336421 
L 377.015177 225.458526 
L 377.015177 225.458526 
L 376.660266 225.458526 
L 376.660266 225.458526 
L 376.660266 227.580632 
L 376.571538 227.580632 
L 376.1279 227.580632 
L 376.1279 229.702737 
L 376.039172 229.702737 
L 375.684261 229.702737 
L 375.684261 229.702737 
L 375.506806 231.824842 
L 375.506806 231.824842 
L 375.151895 231.824842 
L 375.151895 231.824842 
L 374.97444 233.946947 
L 374.97444 233.946947 
L 374.619529 233.946947 
L 374.619529 233.946947 
L 374.442074 236.069053 
L 374.442074 236.069053 
L 373.998436 236.069053 
L 373.998436 238.191158 
L 373.909708 238.191158 
L 373.46607 238.191158 
L 373.46607 240.313263 
L 373.377342 240.313263 
L 372.933704 240.313263 
L 372.933704 240.313263 
L 372.756248 242.435368 
L 372.756248 242.435368 
L 372.31261 242.435368 
L 372.31261 242.435368 
L 372.135155 244.557474 
L 372.135155 244.557474 
L 371.691516 244.557474 
L 371.691516 246.679579 
L 371.602789 246.679579 
L 371.070423 246.679579 
L 371.070423 248.801684 
L 370.981695 248.801684 
L 370.449329 248.801684 
L 370.449329 250.923789 
L 370.360601 250.923789 
L 369.828235 250.923789 
L 369.828235 250.923789 
L 369.65078 253.045895 
L 369.65078 253.045895 
L 369.118414 253.045895 
L 369.118414 255.168 
L 369.029686 255.168 
L 368.49732 255.168 
L 368.49732 255.168 
L 368.319865 257.290105 
L 368.319865 257.290105 
L 367.787499 257.290105 
L 367.787499 257.290105 
L 367.610043 259.412211 
L 367.610043 259.412211 
L 367.077677 259.412211 
L 367.077677 259.412211 
L 366.900222 261.534316 
L 366.900222 261.534316 
L 366.367856 261.534316 
L 366.367856 261.534316 
L 366.190401 263.656421 
L 366.190401 263.656421 
L 365.569307 263.656421 
L 365.569307 263.656421 
L 365.391852 265.778526 
L 365.391852 265.778526 
L 364.770758 265.778526 
L 364.770758 265.778526 
L 364.593303 267.900632 
L 364.593303 267.900632 
L 363.883481 267.900632 
L 363.883481 267.900632 
L 363.706026 270.022737 
L 363.706026 270.022737 
L 362.907477 270.022737 
L 362.907477 270.022737 
L 362.730022 272.144842 
L 362.730022 272.144842 
L 361.931473 272.144842 
L 361.931473 272.144842 
L 361.931473 274.266947 
L 361.842745 274.266947 
L 360.955468 274.266947 
L 360.955468 276.389053 
L 360.866741 276.389053 
L 359.979464 276.389053 
L 359.979464 276.389053 
L 359.802008 278.511158 
L 359.802008 278.511158 
L 358.914732 278.511158 
L 358.914732 278.511158 
L 358.914732 280.633263 
L 358.826004 280.633263 
L 357.85 280.633263 
L 357.85 280.633263 
L 357.672544 282.755368 
L 357.672544 282.755368 
L 356.69654 282.755368 
L 356.69654 282.755368 
L 356.69654 284.877474 
L 356.607812 284.877474 
L 355.54308 284.877474 
L 355.54308 284.877474 
L 355.54308 286.999579 
L 355.454353 286.999579 
L 354.389621 286.999579 
L 354.389621 286.999579 
L 354.212165 289.121684 
L 354.212165 289.121684 
L 353.147433 289.121684 
L 353.147433 289.121684 
L 353.147433 291.243789 
L 353.058706 291.243789 
L 351.816518 291.243789 
L 351.816518 293.365895 
L 351.727791 293.365895 
L 350.574331 293.365895 
L 350.574331 293.365895 
L 350.574331 295.488 
L 350.485603 295.488 
L 78.180383 295.488 
L 78.180383 293.365895 
L 78.091655 293.365895 
L 77.825472 293.365895 
L 77.825472 293.365895 
L 77.648017 291.243789 
L 77.648017 291.243789 
L 77.470562 291.243789 
L 77.470562 291.243789 
L 77.293106 289.121684 
L 77.293106 289.121684 
L 77.115651 289.121684 
L 77.115651 289.121684 
L 77.115651 286.999579 
L 77.026923 286.999579 
L 76.849468 286.999579 
L 76.849468 286.999579 
L 76.672013 284.877474 
L 76.672013 284.877474 
L 76.494557 284.877474 
L 76.494557 282.755368 
L 76.40583 282.755368 
L 76.228374 282.755368 
L 76.228374 282.755368 
L 76.228374 280.633263 
L 76.139647 280.633263 
L 75.962191 280.633263 
L 75.962191 278.511158 
L 75.873464 278.511158 
L 75.784736 278.511158 
L 75.784736 278.511158 
L 75.607281 276.389053 
L 75.607281 276.389053 
L 75.518553 276.389053 
L 75.518553 276.389053 
L 75.518553 274.266947 
L 75.429825 274.266947 
L 75.341098 274.266947 
L 75.341098 274.266947 
L 75.341098 272.144842 
L 75.25237 272.144842 
L 75.163642 272.144842 
L 75.163642 272.144842 
L 74.897459 267.900632 
L 74.897459 267.900632 
L 74.808732 267.900632 
L 74.808732 267.900632 
L 74.542549 263.656421 
L 74.542549 263.656421 
L 74.453821 263.656421 
L 74.453821 261.534316 
L 74.365093 261.534316 
L 73.921455 253.045895 
L 73.921455 253.045895 
L 73.832727 253.045895 
L 73.832727 253.045895 
" style="fill:none;stroke:#1f77b4;stroke-linecap:square;stroke-width:1.5;"/>
   </g>
   <g id="patch_3">
    <path d="M 57.6 307.584 
L 57.6 41.472 
" style="fill:none;stroke:#000000;stroke-linecap:square;stroke-linejoin:miter;stroke-width:0.8;"/>
   </g>
   <g id="patch_4">
    <path d="M 414.72 307.584 
L 414.72 41.472 
" style="fill:none;stroke:#000000;stroke-linecap:square;stroke-linejoin:miter;stroke-width:0.8;"/>
   </g>
   <g id="patch_5">
    <path d="M 57.6 307.584 
L 414.72 307.584 
" style="fill:none;stroke:#000000;stroke-linecap:square;stroke-linejoin:miter;stroke-width:0.8;"/>
   </g>
   <g id="patch_6">
    <path d="M 57.6 41.472 
L 414.72 41.472 
" style="fill:none;stroke:#000000;stroke-linecap:square;stroke-linejoin:miter;stroke-width:0.8;"/>
   </g>
   <g id="legend_1">
    <g id="patch_7">
     <path d="M 64.6 64.150125 
L 193.353125 64.150125 
Q 195.353125 64.150125 195.353125 62.150125 
L 195.353125 48.472 
Q 195.353125 46.472 193.353125 46.472 
L 64.6 46.472 
Q 62.6 46.472 62.6 48.472 
L 62.6 62.150125 
Q 62.6 64.150125 64.6 64.150125 
z
" style="fill:#ffffff;opacity:0.8;stroke:#cccccc;stroke-linejoin:miter;"/>
    </g>
    <g id="line2d_32">
     <path d="M 66.6 54.570438 
L 86.6 54.570438 
" style="fill:none;stroke:#1f77b4;stroke-linecap:square;stroke-width:1.5;"/>
    </g>
    <g id="line2d_33"/>
    <g id="text_18">
     <!-- Minimum thickness -->
     <g transform="translate(94.6 58.070438)scale(0.1 -0.1)">
      <defs>
       <path d="M 9.8125 72.90625 
L 24.515625 72.90625 
L 43.109375 23.296875 
L 61.8125 72.90625 
L 76.515625 72.90625 
L 76.515625 0 
L 66.890625 0 
L 66.890625 64.015625 
L 48.09375 14.015625 
L 38.1875 14.015625 
L 19.390625 64.015625 
L 19.390625 0 
L 9.8125 0 
z
" id="DejaVuSans-77"/>
       <path d="M 8.5 21.578125 
L 8.5 54.6875 
L 17.484375 54.6875 
L 17.484375 21.921875 
Q 17.484375 14.15625 20.5 10.265625 
Q 23.53125 6.390625 29.59375 6.390625 
Q 36.859375 6.390625 41.078125 11.03125 
Q 45.3125 15.671875 45.3125 23.6875 
L 45.3125 54.6875 
L 54.296875 54.6875 
L 54.296875 0 
L 45.3125 0 
L 45.3125 8.40625 
Q 42.046875 3.421875 37.71875 1 
Q 33.40625 -1.421875 27.6875 -1.421875 
Q 18.265625 -1.421875 13.375 4.4375 
Q 8.5 10.296875 8.5 21.578125 
z
M 31.109375 56 
z
" id="DejaVuSans-117"/>
      </defs>
      <use xlink:href="#DejaVuSans-77"/>
      <use x="86.279297" xlink:href="#DejaVuSans-105"/>
      <use x="114.0625" xlink:href="#DejaVuSans-110"/>
      <use x="177.441406" xlink:href="#DejaVuSans-105"/>
      <use x="205.224609" xlink:href="#DejaVuSans-109"/>
      <use x="302.636719" xlink:href="#DejaVuSans-117"/>
      <use x="366.015625" xlink:href="#DejaVuSans-109"/>
      <use x="463.427734" xlink:href="#DejaVuSans-32"/>
      <use x="495.214844" xlink:href="#DejaVuSans-116"/>
      <use x="534.423828" xlink:href="#DejaVuSans-104"/>
      <use x="597.802734" xlink:href="#DejaVuSans-105"/>
      <use x="625.585938" xlink:href="#DejaVuSans-99"/>
      <use x="680.566406" xlink:href="#DejaVuSans-107"/>
      <use x="738.476562" xlink:href="#DejaVuSans-110"/>
      <use x="801.855469" xlink:href="#DejaVuSans-101"/>
      <use x="863.378906" xlink:href="#DejaVuSans-115"/>
      <use x="915.478516" xlink:href="#DejaVuSans-115"/>
     </g>
    </g>
   </g>
  </g>
 </g>
 <defs>
  <clipPath id="pa87931529d">
   <rect height="266.112" width="357.12" x="57.6" y="41.472"/>
  </clipPath>
 </defs>
</svg>
