<?xml version="1.0" encoding="utf-8" standalone="no"?>
<!DOCTYPE svg PUBLIC "-//W3C//DTD SVG 1.1//EN"
  "http://www.w3.org/Graphics/SVG/1.1/DTD/svg11.dtd">
<!-- Created with matplotlib (https://matplotlib.org/) -->
<svg height="345.6pt" version="1.1" viewBox="0 0 460.8 345.6" width="460.8pt" xmlns="http://www.w3.org/2000/svg" xmlns:xlink="http://www.w3.org/1999/xlink">
 <metadata>
  <rdf:RDF xmlns:cc="http://creativecommons.org/ns#" xmlns:dc="http://purl.org/dc/elements/1.1/" xmlns:rdf="http://www.w3.org/1999/02/22-rdf-syntax-ns#">
   <cc:Work>
    <dc:type rdf:resource="http://purl.org/dc/dcmitype/StillImage"/>
    <dc:date>2021-12-13T13:56:04.193252</dc:date>
    <dc:format>image/svg+xml</dc:format>
    <dc:creator>
     <cc:Agent>
      <dc:title>Matplotlib v3.3.4, https://matplotlib.org/</dc:title>
     </cc:Agent>
    </dc:creator>
   </cc:Work>
  </rdf:RDF>
 </metadata>
 <defs>
  <style type="text/css">*{stroke-linecap:butt;stroke-linejoin:round;}</style>
 </defs>
 <g id="figure_1">
  <g id="patch_1">
   <path d="M 0 345.6 
L 460.8 345.6 
L 460.8 0 
L 0 0 
z
" style="fill:#ffffff;"/>
  </g>
  <g id="axes_1">
   <g id="patch_2">
    <path d="M 67.862 303.64 
L 435.825 303.64 
L 435.825 26.88 
L 67.862 26.88 
z
" style="fill:#ffffff;"/>
   </g>
   <g id="matplotlib.axis_1">
    <g id="xtick_1">
     <g id="line2d_1">
      <defs>
       <path d="M 0 0 
L 0 3.5 
" id="mf7e3c2225e" style="stroke:#000000;stroke-width:0.8;"/>
      </defs>
      <g>
       <use style="stroke:#000000;stroke-width:0.8;" x="67.862" xlink:href="#mf7e3c2225e" y="303.64"/>
      </g>
     </g>
     <g id="text_1">
      <!-- 0.000 -->
      <g transform="translate(53.547938 318.238437)scale(0.1 -0.1)">
       <defs>
        <path d="M 31.78125 66.40625 
Q 24.171875 66.40625 20.328125 58.90625 
Q 16.5 51.421875 16.5 36.375 
Q 16.5 21.390625 20.328125 13.890625 
Q 24.171875 6.390625 31.78125 6.390625 
Q 39.453125 6.390625 43.28125 13.890625 
Q 47.125 21.390625 47.125 36.375 
Q 47.125 51.421875 43.28125 58.90625 
Q 39.453125 66.40625 31.78125 66.40625 
z
M 31.78125 74.21875 
Q 44.046875 74.21875 50.515625 64.515625 
Q 56.984375 54.828125 56.984375 36.375 
Q 56.984375 17.96875 50.515625 8.265625 
Q 44.046875 -1.421875 31.78125 -1.421875 
Q 19.53125 -1.421875 13.0625 8.265625 
Q 6.59375 17.96875 6.59375 36.375 
Q 6.59375 54.828125 13.0625 64.515625 
Q 19.53125 74.21875 31.78125 74.21875 
z
" id="DejaVuSans-48"/>
        <path d="M 10.6875 12.40625 
L 21 12.40625 
L 21 0 
L 10.6875 0 
z
" id="DejaVuSans-46"/>
       </defs>
       <use xlink:href="#DejaVuSans-48"/>
       <use x="63.623047" xlink:href="#DejaVuSans-46"/>
       <use x="95.410156" xlink:href="#DejaVuSans-48"/>
       <use x="159.033203" xlink:href="#DejaVuSans-48"/>
       <use x="222.65625" xlink:href="#DejaVuSans-48"/>
      </g>
     </g>
    </g>
    <g id="xtick_2">
     <g id="line2d_2">
      <g>
       <use style="stroke:#000000;stroke-width:0.8;" x="113.857375" xlink:href="#mf7e3c2225e" y="303.64"/>
      </g>
     </g>
     <g id="text_2">
      <!-- 0.025 -->
      <g transform="translate(99.543312 318.238437)scale(0.1 -0.1)">
       <defs>
        <path d="M 19.1875 8.296875 
L 53.609375 8.296875 
L 53.609375 0 
L 7.328125 0 
L 7.328125 8.296875 
Q 12.9375 14.109375 22.625 23.890625 
Q 32.328125 33.6875 34.8125 36.53125 
Q 39.546875 41.84375 41.421875 45.53125 
Q 43.3125 49.21875 43.3125 52.78125 
Q 43.3125 58.59375 39.234375 62.25 
Q 35.15625 65.921875 28.609375 65.921875 
Q 23.96875 65.921875 18.8125 64.3125 
Q 13.671875 62.703125 7.8125 59.421875 
L 7.8125 69.390625 
Q 13.765625 71.78125 18.9375 73 
Q 24.125 74.21875 28.421875 74.21875 
Q 39.75 74.21875 46.484375 68.546875 
Q 53.21875 62.890625 53.21875 53.421875 
Q 53.21875 48.921875 51.53125 44.890625 
Q 49.859375 40.875 45.40625 35.40625 
Q 44.1875 33.984375 37.640625 27.21875 
Q 31.109375 20.453125 19.1875 8.296875 
z
" id="DejaVuSans-50"/>
        <path d="M 10.796875 72.90625 
L 49.515625 72.90625 
L 49.515625 64.59375 
L 19.828125 64.59375 
L 19.828125 46.734375 
Q 21.96875 47.46875 24.109375 47.828125 
Q 26.265625 48.1875 28.421875 48.1875 
Q 40.625 48.1875 47.75 41.5 
Q 54.890625 34.8125 54.890625 23.390625 
Q 54.890625 11.625 47.5625 5.09375 
Q 40.234375 -1.421875 26.90625 -1.421875 
Q 22.3125 -1.421875 17.546875 -0.640625 
Q 12.796875 0.140625 7.71875 1.703125 
L 7.71875 11.625 
Q 12.109375 9.234375 16.796875 8.0625 
Q 21.484375 6.890625 26.703125 6.890625 
Q 35.15625 6.890625 40.078125 11.328125 
Q 45.015625 15.765625 45.015625 23.390625 
Q 45.015625 31 40.078125 35.4375 
Q 35.15625 39.890625 26.703125 39.890625 
Q 22.75 39.890625 18.8125 39.015625 
Q 14.890625 38.140625 10.796875 36.28125 
z
" id="DejaVuSans-53"/>
       </defs>
       <use xlink:href="#DejaVuSans-48"/>
       <use x="63.623047" xlink:href="#DejaVuSans-46"/>
       <use x="95.410156" xlink:href="#DejaVuSans-48"/>
       <use x="159.033203" xlink:href="#DejaVuSans-50"/>
       <use x="222.65625" xlink:href="#DejaVuSans-53"/>
      </g>
     </g>
    </g>
    <g id="xtick_3">
     <g id="line2d_3">
      <g>
       <use style="stroke:#000000;stroke-width:0.8;" x="159.85275" xlink:href="#mf7e3c2225e" y="303.64"/>
      </g>
     </g>
     <g id="text_3">
      <!-- 0.050 -->
      <g transform="translate(145.538688 318.238437)scale(0.1 -0.1)">
       <use xlink:href="#DejaVuSans-48"/>
       <use x="63.623047" xlink:href="#DejaVuSans-46"/>
       <use x="95.410156" xlink:href="#DejaVuSans-48"/>
       <use x="159.033203" xlink:href="#DejaVuSans-53"/>
       <use x="222.65625" xlink:href="#DejaVuSans-48"/>
      </g>
     </g>
    </g>
    <g id="xtick_4">
     <g id="line2d_4">
      <g>
       <use style="stroke:#000000;stroke-width:0.8;" x="205.848125" xlink:href="#mf7e3c2225e" y="303.64"/>
      </g>
     </g>
     <g id="text_4">
      <!-- 0.075 -->
      <g transform="translate(191.534063 318.238437)scale(0.1 -0.1)">
       <defs>
        <path d="M 8.203125 72.90625 
L 55.078125 72.90625 
L 55.078125 68.703125 
L 28.609375 0 
L 18.3125 0 
L 43.21875 64.59375 
L 8.203125 64.59375 
z
" id="DejaVuSans-55"/>
       </defs>
       <use xlink:href="#DejaVuSans-48"/>
       <use x="63.623047" xlink:href="#DejaVuSans-46"/>
       <use x="95.410156" xlink:href="#DejaVuSans-48"/>
       <use x="159.033203" xlink:href="#DejaVuSans-55"/>
       <use x="222.65625" xlink:href="#DejaVuSans-53"/>
      </g>
     </g>
    </g>
    <g id="xtick_5">
     <g id="line2d_5">
      <g>
       <use style="stroke:#000000;stroke-width:0.8;" x="251.8435" xlink:href="#mf7e3c2225e" y="303.64"/>
      </g>
     </g>
     <g id="text_5">
      <!-- 0.100 -->
      <g transform="translate(237.529438 318.238437)scale(0.1 -0.1)">
       <defs>
        <path d="M 12.40625 8.296875 
L 28.515625 8.296875 
L 28.515625 63.921875 
L 10.984375 60.40625 
L 10.984375 69.390625 
L 28.421875 72.90625 
L 38.28125 72.90625 
L 38.28125 8.296875 
L 54.390625 8.296875 
L 54.390625 0 
L 12.40625 0 
z
" id="DejaVuSans-49"/>
       </defs>
       <use xlink:href="#DejaVuSans-48"/>
       <use x="63.623047" xlink:href="#DejaVuSans-46"/>
       <use x="95.410156" xlink:href="#DejaVuSans-49"/>
       <use x="159.033203" xlink:href="#DejaVuSans-48"/>
       <use x="222.65625" xlink:href="#DejaVuSans-48"/>
      </g>
     </g>
    </g>
    <g id="xtick_6">
     <g id="line2d_6">
      <g>
       <use style="stroke:#000000;stroke-width:0.8;" x="297.838875" xlink:href="#mf7e3c2225e" y="303.64"/>
      </g>
     </g>
     <g id="text_6">
      <!-- 0.125 -->
      <g transform="translate(283.524812 318.238437)scale(0.1 -0.1)">
       <use xlink:href="#DejaVuSans-48"/>
       <use x="63.623047" xlink:href="#DejaVuSans-46"/>
       <use x="95.410156" xlink:href="#DejaVuSans-49"/>
       <use x="159.033203" xlink:href="#DejaVuSans-50"/>
       <use x="222.65625" xlink:href="#DejaVuSans-53"/>
      </g>
     </g>
    </g>
    <g id="xtick_7">
     <g id="line2d_7">
      <g>
       <use style="stroke:#000000;stroke-width:0.8;" x="343.83425" xlink:href="#mf7e3c2225e" y="303.64"/>
      </g>
     </g>
     <g id="text_7">
      <!-- 0.150 -->
      <g transform="translate(329.520188 318.238437)scale(0.1 -0.1)">
       <use xlink:href="#DejaVuSans-48"/>
       <use x="63.623047" xlink:href="#DejaVuSans-46"/>
       <use x="95.410156" xlink:href="#DejaVuSans-49"/>
       <use x="159.033203" xlink:href="#DejaVuSans-53"/>
       <use x="222.65625" xlink:href="#DejaVuSans-48"/>
      </g>
     </g>
    </g>
    <g id="xtick_8">
     <g id="line2d_8">
      <g>
       <use style="stroke:#000000;stroke-width:0.8;" x="389.829625" xlink:href="#mf7e3c2225e" y="303.64"/>
      </g>
     </g>
     <g id="text_8">
      <!-- 0.175 -->
      <g transform="translate(375.515563 318.238437)scale(0.1 -0.1)">
       <use xlink:href="#DejaVuSans-48"/>
       <use x="63.623047" xlink:href="#DejaVuSans-46"/>
       <use x="95.410156" xlink:href="#DejaVuSans-49"/>
       <use x="159.033203" xlink:href="#DejaVuSans-55"/>
       <use x="222.65625" xlink:href="#DejaVuSans-53"/>
      </g>
     </g>
    </g>
    <g id="xtick_9">
     <g id="line2d_9">
      <g>
       <use style="stroke:#000000;stroke-width:0.8;" x="435.825" xlink:href="#mf7e3c2225e" y="303.64"/>
      </g>
     </g>
     <g id="text_9">
      <!-- 0.200 -->
      <g transform="translate(421.510938 318.238437)scale(0.1 -0.1)">
       <use xlink:href="#DejaVuSans-48"/>
       <use x="63.623047" xlink:href="#DejaVuSans-46"/>
       <use x="95.410156" xlink:href="#DejaVuSans-50"/>
       <use x="159.033203" xlink:href="#DejaVuSans-48"/>
       <use x="222.65625" xlink:href="#DejaVuSans-48"/>
      </g>
     </g>
    </g>
    <g id="text_10">
     <!-- Time -->
     <g transform="translate(239.609906 331.916562)scale(0.1 -0.1)">
      <defs>
       <path d="M -0.296875 72.90625 
L 61.375 72.90625 
L 61.375 64.59375 
L 35.5 64.59375 
L 35.5 0 
L 25.59375 0 
L 25.59375 64.59375 
L -0.296875 64.59375 
z
" id="DejaVuSans-84"/>
       <path d="M 9.421875 54.6875 
L 18.40625 54.6875 
L 18.40625 0 
L 9.421875 0 
z
M 9.421875 75.984375 
L 18.40625 75.984375 
L 18.40625 64.59375 
L 9.421875 64.59375 
z
" id="DejaVuSans-105"/>
       <path d="M 52 44.1875 
Q 55.375 50.25 60.0625 53.125 
Q 64.75 56 71.09375 56 
Q 79.640625 56 84.28125 50.015625 
Q 88.921875 44.046875 88.921875 33.015625 
L 88.921875 0 
L 79.890625 0 
L 79.890625 32.71875 
Q 79.890625 40.578125 77.09375 44.375 
Q 74.3125 48.1875 68.609375 48.1875 
Q 61.625 48.1875 57.5625 43.546875 
Q 53.515625 38.921875 53.515625 30.90625 
L 53.515625 0 
L 44.484375 0 
L 44.484375 32.71875 
Q 44.484375 40.625 41.703125 44.40625 
Q 38.921875 48.1875 33.109375 48.1875 
Q 26.21875 48.1875 22.15625 43.53125 
Q 18.109375 38.875 18.109375 30.90625 
L 18.109375 0 
L 9.078125 0 
L 9.078125 54.6875 
L 18.109375 54.6875 
L 18.109375 46.1875 
Q 21.1875 51.21875 25.484375 53.609375 
Q 29.78125 56 35.6875 56 
Q 41.65625 56 45.828125 52.96875 
Q 50 49.953125 52 44.1875 
z
" id="DejaVuSans-109"/>
       <path d="M 56.203125 29.59375 
L 56.203125 25.203125 
L 14.890625 25.203125 
Q 15.484375 15.921875 20.484375 11.0625 
Q 25.484375 6.203125 34.421875 6.203125 
Q 39.59375 6.203125 44.453125 7.46875 
Q 49.3125 8.734375 54.109375 11.28125 
L 54.109375 2.78125 
Q 49.265625 0.734375 44.1875 -0.34375 
Q 39.109375 -1.421875 33.890625 -1.421875 
Q 20.796875 -1.421875 13.15625 6.1875 
Q 5.515625 13.8125 5.515625 26.8125 
Q 5.515625 40.234375 12.765625 48.109375 
Q 20.015625 56 32.328125 56 
Q 43.359375 56 49.78125 48.890625 
Q 56.203125 41.796875 56.203125 29.59375 
z
M 47.21875 32.234375 
Q 47.125 39.59375 43.09375 43.984375 
Q 39.0625 48.390625 32.421875 48.390625 
Q 24.90625 48.390625 20.390625 44.140625 
Q 15.875 39.890625 15.1875 32.171875 
z
" id="DejaVuSans-101"/>
      </defs>
      <use xlink:href="#DejaVuSans-84"/>
      <use x="57.958984" xlink:href="#DejaVuSans-105"/>
      <use x="85.742188" xlink:href="#DejaVuSans-109"/>
      <use x="183.154297" xlink:href="#DejaVuSans-101"/>
     </g>
    </g>
   </g>
   <g id="matplotlib.axis_2">
    <g id="ytick_1">
     <g id="line2d_10">
      <defs>
       <path d="M 0 0 
L -3.5 0 
" id="m4dabef6f40" style="stroke:#000000;stroke-width:0.8;"/>
      </defs>
      <g>
       <use style="stroke:#000000;stroke-width:0.8;" x="67.862" xlink:href="#m4dabef6f40" y="301.073806"/>
      </g>
     </g>
     <g id="text_11">
      <!-- −1.00 -->
      <g transform="translate(30.216688 304.873025)scale(0.1 -0.1)">
       <defs>
        <path d="M 10.59375 35.5 
L 73.1875 35.5 
L 73.1875 27.203125 
L 10.59375 27.203125 
z
" id="DejaVuSans-8722"/>
       </defs>
       <use xlink:href="#DejaVuSans-8722"/>
       <use x="83.789062" xlink:href="#DejaVuSans-49"/>
       <use x="147.412109" xlink:href="#DejaVuSans-46"/>
       <use x="179.199219" xlink:href="#DejaVuSans-48"/>
       <use x="242.822266" xlink:href="#DejaVuSans-48"/>
      </g>
     </g>
    </g>
    <g id="ytick_2">
     <g id="line2d_11">
      <g>
       <use style="stroke:#000000;stroke-width:0.8;" x="67.862" xlink:href="#m4dabef6f40" y="267.120439"/>
      </g>
     </g>
     <g id="text_12">
      <!-- −0.75 -->
      <g transform="translate(30.216688 270.919657)scale(0.1 -0.1)">
       <use xlink:href="#DejaVuSans-8722"/>
       <use x="83.789062" xlink:href="#DejaVuSans-48"/>
       <use x="147.412109" xlink:href="#DejaVuSans-46"/>
       <use x="179.199219" xlink:href="#DejaVuSans-55"/>
       <use x="242.822266" xlink:href="#DejaVuSans-53"/>
      </g>
     </g>
    </g>
    <g id="ytick_3">
     <g id="line2d_12">
      <g>
       <use style="stroke:#000000;stroke-width:0.8;" x="67.862" xlink:href="#m4dabef6f40" y="233.167071"/>
      </g>
     </g>
     <g id="text_13">
      <!-- −0.50 -->
      <g transform="translate(30.216688 236.96629)scale(0.1 -0.1)">
       <use xlink:href="#DejaVuSans-8722"/>
       <use x="83.789062" xlink:href="#DejaVuSans-48"/>
       <use x="147.412109" xlink:href="#DejaVuSans-46"/>
       <use x="179.199219" xlink:href="#DejaVuSans-53"/>
       <use x="242.822266" xlink:href="#DejaVuSans-48"/>
      </g>
     </g>
    </g>
    <g id="ytick_4">
     <g id="line2d_13">
      <g>
       <use style="stroke:#000000;stroke-width:0.8;" x="67.862" xlink:href="#m4dabef6f40" y="199.213703"/>
      </g>
     </g>
     <g id="text_14">
      <!-- −0.25 -->
      <g transform="translate(30.216688 203.012922)scale(0.1 -0.1)">
       <use xlink:href="#DejaVuSans-8722"/>
       <use x="83.789062" xlink:href="#DejaVuSans-48"/>
       <use x="147.412109" xlink:href="#DejaVuSans-46"/>
       <use x="179.199219" xlink:href="#DejaVuSans-50"/>
       <use x="242.822266" xlink:href="#DejaVuSans-53"/>
      </g>
     </g>
    </g>
    <g id="ytick_5">
     <g id="line2d_14">
      <g>
       <use style="stroke:#000000;stroke-width:0.8;" x="67.862" xlink:href="#m4dabef6f40" y="165.260336"/>
      </g>
     </g>
     <g id="text_15">
      <!-- 0.00 -->
      <g transform="translate(38.596375 169.059555)scale(0.1 -0.1)">
       <use xlink:href="#DejaVuSans-48"/>
       <use x="63.623047" xlink:href="#DejaVuSans-46"/>
       <use x="95.410156" xlink:href="#DejaVuSans-48"/>
       <use x="159.033203" xlink:href="#DejaVuSans-48"/>
      </g>
     </g>
    </g>
    <g id="ytick_6">
     <g id="line2d_15">
      <g>
       <use style="stroke:#000000;stroke-width:0.8;" x="67.862" xlink:href="#m4dabef6f40" y="131.306968"/>
      </g>
     </g>
     <g id="text_16">
      <!-- 0.25 -->
      <g transform="translate(38.596375 135.106187)scale(0.1 -0.1)">
       <use xlink:href="#DejaVuSans-48"/>
       <use x="63.623047" xlink:href="#DejaVuSans-46"/>
       <use x="95.410156" xlink:href="#DejaVuSans-50"/>
       <use x="159.033203" xlink:href="#DejaVuSans-53"/>
      </g>
     </g>
    </g>
    <g id="ytick_7">
     <g id="line2d_16">
      <g>
       <use style="stroke:#000000;stroke-width:0.8;" x="67.862" xlink:href="#m4dabef6f40" y="97.353601"/>
      </g>
     </g>
     <g id="text_17">
      <!-- 0.50 -->
      <g transform="translate(38.596375 101.152819)scale(0.1 -0.1)">
       <use xlink:href="#DejaVuSans-48"/>
       <use x="63.623047" xlink:href="#DejaVuSans-46"/>
       <use x="95.410156" xlink:href="#DejaVuSans-53"/>
       <use x="159.033203" xlink:href="#DejaVuSans-48"/>
      </g>
     </g>
    </g>
    <g id="ytick_8">
     <g id="line2d_17">
      <g>
       <use style="stroke:#000000;stroke-width:0.8;" x="67.862" xlink:href="#m4dabef6f40" y="63.400233"/>
      </g>
     </g>
     <g id="text_18">
      <!-- 0.75 -->
      <g transform="translate(38.596375 67.199452)scale(0.1 -0.1)">
       <use xlink:href="#DejaVuSans-48"/>
       <use x="63.623047" xlink:href="#DejaVuSans-46"/>
       <use x="95.410156" xlink:href="#DejaVuSans-55"/>
       <use x="159.033203" xlink:href="#DejaVuSans-53"/>
      </g>
     </g>
    </g>
    <g id="ytick_9">
     <g id="line2d_18">
      <g>
       <use style="stroke:#000000;stroke-width:0.8;" x="67.862" xlink:href="#m4dabef6f40" y="29.446865"/>
      </g>
     </g>
     <g id="text_19">
      <!-- 1.00 -->
      <g transform="translate(38.596375 33.246084)scale(0.1 -0.1)">
       <use xlink:href="#DejaVuSans-49"/>
       <use x="63.623047" xlink:href="#DejaVuSans-46"/>
       <use x="95.410156" xlink:href="#DejaVuSans-48"/>
       <use x="159.033203" xlink:href="#DejaVuSans-48"/>
      </g>
     </g>
    </g>
    <g id="text_20">
     <!-- Displacement x $\mathregular{10^4}$ -->
     <g transform="translate(24.116688 214.56)rotate(-90)scale(0.1 -0.1)">
      <defs>
       <path d="M 19.671875 64.796875 
L 19.671875 8.109375 
L 31.59375 8.109375 
Q 46.6875 8.109375 53.6875 14.9375 
Q 60.6875 21.78125 60.6875 36.53125 
Q 60.6875 51.171875 53.6875 57.984375 
Q 46.6875 64.796875 31.59375 64.796875 
z
M 9.8125 72.90625 
L 30.078125 72.90625 
Q 51.265625 72.90625 61.171875 64.09375 
Q 71.09375 55.28125 71.09375 36.53125 
Q 71.09375 17.671875 61.125 8.828125 
Q 51.171875 0 30.078125 0 
L 9.8125 0 
z
" id="DejaVuSans-68"/>
       <path d="M 44.28125 53.078125 
L 44.28125 44.578125 
Q 40.484375 46.53125 36.375 47.5 
Q 32.28125 48.484375 27.875 48.484375 
Q 21.1875 48.484375 17.84375 46.4375 
Q 14.5 44.390625 14.5 40.28125 
Q 14.5 37.15625 16.890625 35.375 
Q 19.28125 33.59375 26.515625 31.984375 
L 29.59375 31.296875 
Q 39.15625 29.25 43.1875 25.515625 
Q 47.21875 21.78125 47.21875 15.09375 
Q 47.21875 7.46875 41.1875 3.015625 
Q 35.15625 -1.421875 24.609375 -1.421875 
Q 20.21875 -1.421875 15.453125 -0.5625 
Q 10.6875 0.296875 5.421875 2 
L 5.421875 11.28125 
Q 10.40625 8.6875 15.234375 7.390625 
Q 20.0625 6.109375 24.8125 6.109375 
Q 31.15625 6.109375 34.5625 8.28125 
Q 37.984375 10.453125 37.984375 14.40625 
Q 37.984375 18.0625 35.515625 20.015625 
Q 33.0625 21.96875 24.703125 23.78125 
L 21.578125 24.515625 
Q 13.234375 26.265625 9.515625 29.90625 
Q 5.8125 33.546875 5.8125 39.890625 
Q 5.8125 47.609375 11.28125 51.796875 
Q 16.75 56 26.8125 56 
Q 31.78125 56 36.171875 55.265625 
Q 40.578125 54.546875 44.28125 53.078125 
z
" id="DejaVuSans-115"/>
       <path d="M 18.109375 8.203125 
L 18.109375 -20.796875 
L 9.078125 -20.796875 
L 9.078125 54.6875 
L 18.109375 54.6875 
L 18.109375 46.390625 
Q 20.953125 51.265625 25.265625 53.625 
Q 29.59375 56 35.59375 56 
Q 45.5625 56 51.78125 48.09375 
Q 58.015625 40.1875 58.015625 27.296875 
Q 58.015625 14.40625 51.78125 6.484375 
Q 45.5625 -1.421875 35.59375 -1.421875 
Q 29.59375 -1.421875 25.265625 0.953125 
Q 20.953125 3.328125 18.109375 8.203125 
z
M 48.6875 27.296875 
Q 48.6875 37.203125 44.609375 42.84375 
Q 40.53125 48.484375 33.40625 48.484375 
Q 26.265625 48.484375 22.1875 42.84375 
Q 18.109375 37.203125 18.109375 27.296875 
Q 18.109375 17.390625 22.1875 11.75 
Q 26.265625 6.109375 33.40625 6.109375 
Q 40.53125 6.109375 44.609375 11.75 
Q 48.6875 17.390625 48.6875 27.296875 
z
" id="DejaVuSans-112"/>
       <path d="M 9.421875 75.984375 
L 18.40625 75.984375 
L 18.40625 0 
L 9.421875 0 
z
" id="DejaVuSans-108"/>
       <path d="M 34.28125 27.484375 
Q 23.390625 27.484375 19.1875 25 
Q 14.984375 22.515625 14.984375 16.5 
Q 14.984375 11.71875 18.140625 8.90625 
Q 21.296875 6.109375 26.703125 6.109375 
Q 34.1875 6.109375 38.703125 11.40625 
Q 43.21875 16.703125 43.21875 25.484375 
L 43.21875 27.484375 
z
M 52.203125 31.203125 
L 52.203125 0 
L 43.21875 0 
L 43.21875 8.296875 
Q 40.140625 3.328125 35.546875 0.953125 
Q 30.953125 -1.421875 24.3125 -1.421875 
Q 15.921875 -1.421875 10.953125 3.296875 
Q 6 8.015625 6 15.921875 
Q 6 25.140625 12.171875 29.828125 
Q 18.359375 34.515625 30.609375 34.515625 
L 43.21875 34.515625 
L 43.21875 35.40625 
Q 43.21875 41.609375 39.140625 45 
Q 35.0625 48.390625 27.6875 48.390625 
Q 23 48.390625 18.546875 47.265625 
Q 14.109375 46.140625 10.015625 43.890625 
L 10.015625 52.203125 
Q 14.9375 54.109375 19.578125 55.046875 
Q 24.21875 56 28.609375 56 
Q 40.484375 56 46.34375 49.84375 
Q 52.203125 43.703125 52.203125 31.203125 
z
" id="DejaVuSans-97"/>
       <path d="M 48.78125 52.59375 
L 48.78125 44.1875 
Q 44.96875 46.296875 41.140625 47.34375 
Q 37.3125 48.390625 33.40625 48.390625 
Q 24.65625 48.390625 19.8125 42.84375 
Q 14.984375 37.3125 14.984375 27.296875 
Q 14.984375 17.28125 19.8125 11.734375 
Q 24.65625 6.203125 33.40625 6.203125 
Q 37.3125 6.203125 41.140625 7.25 
Q 44.96875 8.296875 48.78125 10.40625 
L 48.78125 2.09375 
Q 45.015625 0.34375 40.984375 -0.53125 
Q 36.96875 -1.421875 32.421875 -1.421875 
Q 20.0625 -1.421875 12.78125 6.34375 
Q 5.515625 14.109375 5.515625 27.296875 
Q 5.515625 40.671875 12.859375 48.328125 
Q 20.21875 56 33.015625 56 
Q 37.15625 56 41.109375 55.140625 
Q 45.0625 54.296875 48.78125 52.59375 
z
" id="DejaVuSans-99"/>
       <path d="M 54.890625 33.015625 
L 54.890625 0 
L 45.90625 0 
L 45.90625 32.71875 
Q 45.90625 40.484375 42.875 44.328125 
Q 39.84375 48.1875 33.796875 48.1875 
Q 26.515625 48.1875 22.3125 43.546875 
Q 18.109375 38.921875 18.109375 30.90625 
L 18.109375 0 
L 9.078125 0 
L 9.078125 54.6875 
L 18.109375 54.6875 
L 18.109375 46.1875 
Q 21.34375 51.125 25.703125 53.5625 
Q 30.078125 56 35.796875 56 
Q 45.21875 56 50.046875 50.171875 
Q 54.890625 44.34375 54.890625 33.015625 
z
" id="DejaVuSans-110"/>
       <path d="M 18.3125 70.21875 
L 18.3125 54.6875 
L 36.8125 54.6875 
L 36.8125 47.703125 
L 18.3125 47.703125 
L 18.3125 18.015625 
Q 18.3125 11.328125 20.140625 9.421875 
Q 21.96875 7.515625 27.59375 7.515625 
L 36.8125 7.515625 
L 36.8125 0 
L 27.59375 0 
Q 17.1875 0 13.234375 3.875 
Q 9.28125 7.765625 9.28125 18.015625 
L 9.28125 47.703125 
L 2.6875 47.703125 
L 2.6875 54.6875 
L 9.28125 54.6875 
L 9.28125 70.21875 
z
" id="DejaVuSans-116"/>
       <path id="DejaVuSans-32"/>
       <path d="M 54.890625 54.6875 
L 35.109375 28.078125 
L 55.90625 0 
L 45.3125 0 
L 29.390625 21.484375 
L 13.484375 0 
L 2.875 0 
L 24.125 28.609375 
L 4.6875 54.6875 
L 15.28125 54.6875 
L 29.78125 35.203125 
L 44.28125 54.6875 
z
" id="DejaVuSans-120"/>
       <path d="M 37.796875 64.3125 
L 12.890625 25.390625 
L 37.796875 25.390625 
z
M 35.203125 72.90625 
L 47.609375 72.90625 
L 47.609375 25.390625 
L 58.015625 25.390625 
L 58.015625 17.1875 
L 47.609375 17.1875 
L 47.609375 0 
L 37.796875 0 
L 37.796875 17.1875 
L 4.890625 17.1875 
L 4.890625 26.703125 
z
" id="DejaVuSans-52"/>
      </defs>
      <use transform="translate(0 0.684375)" xlink:href="#DejaVuSans-68"/>
      <use transform="translate(77.001953 0.684375)" xlink:href="#DejaVuSans-105"/>
      <use transform="translate(104.785156 0.684375)" xlink:href="#DejaVuSans-115"/>
      <use transform="translate(156.884766 0.684375)" xlink:href="#DejaVuSans-112"/>
      <use transform="translate(220.361328 0.684375)" xlink:href="#DejaVuSans-108"/>
      <use transform="translate(248.144531 0.684375)" xlink:href="#DejaVuSans-97"/>
      <use transform="translate(309.423828 0.684375)" xlink:href="#DejaVuSans-99"/>
      <use transform="translate(364.404297 0.684375)" xlink:href="#DejaVuSans-101"/>
      <use transform="translate(425.927734 0.684375)" xlink:href="#DejaVuSans-109"/>
      <use transform="translate(523.339844 0.684375)" xlink:href="#DejaVuSans-101"/>
      <use transform="translate(584.863281 0.684375)" xlink:href="#DejaVuSans-110"/>
      <use transform="translate(648.242188 0.684375)" xlink:href="#DejaVuSans-116"/>
      <use transform="translate(687.451172 0.684375)" xlink:href="#DejaVuSans-32"/>
      <use transform="translate(719.238281 0.684375)" xlink:href="#DejaVuSans-120"/>
      <use transform="translate(778.417969 0.684375)" xlink:href="#DejaVuSans-32"/>
      <use transform="translate(810.205078 0.684375)" xlink:href="#DejaVuSans-49"/>
      <use transform="translate(873.828125 0.684375)" xlink:href="#DejaVuSans-48"/>
      <use transform="translate(938.408203 38.965625)scale(0.7)" xlink:href="#DejaVuSans-52"/>
     </g>
    </g>
   </g>
   <g id="line2d_19">
    <path clip-path="url(#pd64e2a2665)" d="M 67.862 165.260336 
L 68.671519 165.153847 
L 69.131472 164.85233 
L 69.573028 164.270252 
L 70.032982 163.262436 
L 70.54813 161.540297 
L 71.118473 158.784461 
L 71.762408 154.481405 
L 72.498334 147.929341 
L 73.344649 138.269535 
L 74.393343 123.532766 
L 75.975584 97.653151 
L 77.90739 66.83217 
L 78.864094 54.915536 
L 79.60002 48.287447 
L 80.170362 44.976062 
L 80.59352 43.650087 
L 80.88789 43.323204 
L 81.09027 43.388435 
L 81.311048 43.732161 
L 81.623816 44.708931 
L 82.028575 46.825232 
L 82.525326 50.719099 
L 83.132464 57.346385 
L 83.886789 68.217267 
L 84.825094 85.196167 
L 86.149761 113.668986 
L 89.24065 181.441765 
L 90.307743 199.427761 
L 91.190854 210.807264 
L 91.92678 217.686497 
L 92.570715 221.78888 
L 93.104262 223.91337 
L 93.545817 224.87418 
L 93.895382 225.174047 
L 94.171354 225.15299 
L 94.484123 224.884863 
L 94.888882 224.207527 
L 95.459225 222.764464 
L 96.471123 219.461691 
L 97.611809 215.968579 
L 98.218947 214.747569 
L 98.660503 214.28968 
L 98.99167 214.223975 
L 99.304438 214.399096 
L 99.654003 214.881147 
L 100.077161 215.880782 
L 100.592309 217.71436 
L 101.236244 220.917645 
L 102.045763 226.19813 
L 103.223244 235.559552 
L 105.118254 250.553809 
L 105.872578 254.832138 
L 106.424522 256.854816 
L 106.829282 257.616731 
L 107.105254 257.747534 
L 107.326032 257.610804 
L 107.602004 257.124682 
L 107.951569 255.986203 
L 108.393124 253.681808 
L 108.926671 249.571063 
L 109.552208 242.889333 
L 110.306532 232.233998 
L 111.208041 216.102662 
L 112.367125 191.018645 
L 114.666894 134.918405 
L 116.175542 101.257011 
L 117.205838 82.862151 
L 118.033755 71.719937 
L 118.714487 65.26617 
L 119.266431 61.886225 
L 119.707987 60.36848 
L 120.039153 59.903937 
L 120.259931 59.904817 
L 120.499107 60.17672 
L 120.811876 60.940364 
L 121.235033 62.664672 
L 121.786978 65.989688 
L 122.504505 71.830839 
L 123.516404 82.108822 
L 126.5337 113.94413 
L 127.416812 120.458755 
L 128.134339 124.244186 
L 128.741478 126.366329 
L 129.256627 127.430156 
L 129.679784 127.846511 
L 130.047747 127.915389 
L 130.434108 127.741064 
L 130.930858 127.232569 
L 131.813969 125.926385 
L 132.641886 124.851112 
L 133.10184 124.57861 
L 133.451405 124.619482 
L 133.782571 124.904513 
L 134.150534 125.550019 
L 134.573692 126.780738 
L 135.070442 128.974569 
L 135.640785 132.592545 
L 136.28472 138.190044 
L 137.039044 146.846678 
L 137.922155 159.765192 
L 139.007646 179.200948 
L 140.626683 212.768003 
L 142.74247 255.771494 
L 143.772767 272.355465 
L 144.563887 281.863009 
L 145.207823 287.156156 
L 145.704573 289.619196 
L 146.072536 290.503789 
L 146.311712 290.645858 
L 146.514091 290.499944 
L 146.771665 289.963683 
L 147.12123 288.616518 
L 147.562786 285.923465 
L 148.11473 281.081409 
L 148.81386 272.813029 
L 149.696971 259.523733 
L 150.966444 236.654659 
L 153.946944 181.879286 
L 154.995638 167.105097 
L 155.87875 157.594716 
L 156.633074 151.6864 
L 157.295407 148.100171 
L 157.884148 146.036448 
L 158.399296 144.967809 
L 158.85925 144.483312 
L 159.300805 144.333748 
L 159.815954 144.415073 
L 161.214213 144.761378 
L 161.618972 144.564948 
L 162.023732 144.105551 
L 162.465287 143.232851 
L 162.962037 141.706341 
L 163.513982 139.246944 
L 164.157917 135.279013 
L 164.893843 129.259269 
L 165.776954 120.061293 
L 166.91764 105.629866 
L 170.229307 62.151934 
L 171.002029 55.454837 
L 171.59077 52.049594 
L 172.032325 50.596903 
L 172.345094 50.18137 
L 172.547473 50.194082 
L 172.768251 50.465936 
L 173.062622 51.253821 
L 173.448983 53.034736 
L 173.927335 56.418159 
L 174.516076 62.345118 
L 175.215205 71.788938 
L 176.079918 86.705235 
L 177.202205 110.274755 
L 179.281196 159.824198 
L 180.918632 196.293083 
L 182.004123 215.845525 
L 182.887234 228.022013 
L 183.62316 235.357735 
L 184.248697 239.564595 
L 184.763845 241.680737 
L 185.168604 242.541032 
L 185.462975 242.753818 
L 185.720549 242.674602 
L 186.014919 242.303188 
L 186.40128 241.404999 
L 186.916429 239.589296 
L 187.652355 236.081948 
L 190.688049 220.542877 
L 191.27679 218.995642 
L 191.718346 218.370101 
L 192.067911 218.217854 
L 192.362281 218.327812 
L 192.693448 218.709325 
L 193.116605 219.581047 
L 193.650152 221.249756 
L 194.349281 224.250954 
L 195.397976 229.880335 
L 197.035411 238.570004 
L 197.716143 241.023133 
L 198.194495 242.013918 
L 198.525661 242.269034 
L 198.764837 242.209292 
L 199.022411 241.89951 
L 199.353578 241.104645 
L 199.758337 239.49174 
L 200.255087 236.496068 
L 200.843828 231.438691 
L 201.52456 223.529037 
L 202.334078 211.338818 
L 203.30918 193.06978 
L 204.615449 164.025242 
L 208.037505 85.868752 
L 209.031005 69.163942 
L 209.822125 59.327135 
L 210.466061 53.847162 
L 210.981209 51.158835 
L 211.36757 50.133616 
L 211.643542 49.913693 
L 211.845922 50.018359 
L 212.103496 50.469385 
L 212.453061 51.632141 
L 212.894616 53.958936 
L 213.464959 58.257025 
L 214.200885 65.637948 
L 215.212783 78.264139 
L 218.92921 126.949993 
L 219.830719 134.882513 
L 220.585043 139.698589 
L 221.247377 142.587134 
L 221.817719 144.163575 
L 222.314469 144.949629 
L 222.756025 145.277599 
L 223.215979 145.343735 
L 223.841516 145.172767 
L 224.761423 144.936592 
L 225.184581 145.058981 
L 225.570942 145.403887 
L 225.975701 146.075291 
L 226.435655 147.307094 
L 226.950803 149.381126 
L 227.539544 152.771536 
L 228.201877 158.007974 
L 228.956201 165.884667 
L 229.839313 177.628652 
L 230.924803 195.288187 
L 232.599035 226.740633 
L 234.512443 261.554951 
L 235.505943 275.806028 
L 236.260267 283.780108 
L 236.867406 288.073764 
L 237.32736 289.952801 
L 237.658526 290.542084 
L 237.879304 290.57377 
L 238.081684 290.347557 
L 238.357656 289.645641 
L 238.725619 288.008354 
L 239.185573 284.856484 
L 239.774314 279.107235 
L 240.491841 269.713642 
L 241.393351 254.768832 
L 242.662823 229.589265 
L 245.882499 164.112181 
L 246.931194 147.950677 
L 247.795907 137.764685 
L 248.550231 131.313415 
L 249.194166 127.538905 
L 249.746111 125.46665 
L 250.224463 124.437093 
L 250.629222 124.043307 
L 250.978787 123.998959 
L 251.34675 124.192706 
L 251.8435 124.742077 
L 252.892195 126.354258 
L 253.609722 127.235326 
L 254.069676 127.481106 
L 254.419241 127.431237 
L 254.768806 127.137797 
L 255.155167 126.494444 
L 255.615121 125.2498 
L 256.148667 123.11047 
L 256.774204 119.62492 
L 257.528528 114.065428 
L 258.466834 105.365249 
L 259.957084 89.112385 
L 261.576121 72.151369 
L 262.422436 65.455672 
L 263.047973 62.090593 
L 263.507927 60.658242 
L 263.839094 60.232986 
L 264.059872 60.247832 
L 264.280649 60.509785 
L 264.57502 61.253689 
L 264.961381 62.931018 
L 265.439733 66.129919 
L 266.010075 71.570706 
L 266.690807 80.32073 
L 267.518724 94.02569 
L 268.567418 115.428388 
L 270.112863 152.187981 
L 272.541419 209.58193 
L 273.645308 230.4134 
L 274.528419 243.205166 
L 275.264345 250.894923 
L 275.871484 255.141426 
L 276.368234 257.227181 
L 276.754595 258.019479 
L 277.030567 258.162154 
L 277.251345 258.034481 
L 277.527317 257.587909 
L 277.89528 256.529503 
L 278.39203 254.349101 
L 279.054364 250.331314 
L 280.011068 242.995766 
L 282.605207 222.437964 
L 283.414725 218.021233 
L 284.058661 215.631379 
L 284.573809 214.481221 
L 284.978568 214.04838 
L 285.309735 213.989288 
L 285.622503 214.162126 
L 286.008865 214.655326 
L 286.524013 215.72508 
L 287.259939 217.844745 
L 289.191744 223.67017 
L 289.688495 224.447426 
L 290.038059 224.649957 
L 290.314032 224.572504 
L 290.608402 224.232193 
L 290.957967 223.449659 
L 291.381124 221.903628 
L 291.877874 219.184434 
L 292.466615 214.61576 
L 293.147347 207.447849 
L 293.938467 196.597913 
L 294.876773 180.492093 
L 296.091051 155.513497 
L 300.101847 69.650478 
L 300.984959 56.79741 
L 301.702486 49.308937 
L 302.272829 45.426355 
L 302.714385 43.724847 
L 303.027153 43.212818 
L 303.247931 43.195249 
L 303.468709 43.458917 
L 303.763079 44.240404 
L 304.14944 45.990256 
L 304.64619 49.386886 
L 305.271728 55.339702 
L 306.081246 65.396115 
L 307.185135 82.191163 
L 310.772774 138.94754 
L 311.729478 149.699673 
L 312.538997 156.509589 
L 313.256525 160.797441 
L 313.882062 163.305136 
L 314.434006 164.698056 
L 314.949154 165.43737 
L 315.427506 165.762536 
L 315.997849 165.869644 
L 317.138534 166.014513 
L 317.58009 166.344142 
L 318.021646 166.974809 
L 318.481599 168.045537 
L 318.996747 169.850457 
L 319.56709 172.708996 
L 320.211025 177.135304 
L 320.946951 183.827024 
L 321.811664 193.865705 
L 322.878757 209.052428 
L 324.589785 237.149242 
L 326.319211 264.304098 
L 327.275915 276.01318 
L 327.993443 282.324099 
L 328.545387 285.455837 
L 328.968545 286.746308 
L 329.244517 287.044413 
L 329.446897 286.984128 
L 329.667674 286.646132 
L 329.980443 285.677917 
L 330.385202 283.573078 
L 330.881952 279.693145 
L 331.489091 273.081356 
L 332.243415 262.225028 
L 333.181721 245.253118 
L 334.48799 217.180907 
L 337.634073 148.129146 
L 338.701166 130.209633 
L 339.565879 119.104658 
L 340.301805 112.235382 
L 340.94574 108.146865 
L 341.479287 106.037425 
L 341.920842 105.091449 
L 342.270407 104.804816 
L 342.546379 104.837226 
L 342.859148 105.119166 
L 343.263907 105.815827 
L 343.83425 107.288781 
L 344.846148 110.651699 
L 346.005232 114.269096 
L 346.612371 115.516243 
L 347.053926 115.991217 
L 347.385093 116.069004 
L 347.697861 115.904942 
L 348.047426 115.435097 
L 348.470584 114.450424 
L 348.985732 112.636049 
L 349.611269 109.563536 
L 350.40239 104.483578 
L 351.561473 95.395716 
L 353.493279 80.247285 
L 354.247603 76.024451 
L 354.799547 74.040068 
L 355.204307 73.304846 
L 355.480279 73.191519 
L 355.701057 73.341787 
L 355.977029 73.844256 
L 356.326594 75.00249 
L 356.768149 77.330249 
L 357.301696 81.466745 
L 357.927233 88.175026 
L 358.681557 98.856886 
L 359.583066 115.011669 
L 360.74215 140.112084 
L 363.078715 197.08206 
L 364.568965 230.183224 
L 365.599261 248.452451 
L 366.427178 259.474433 
L 367.10791 265.820788 
L 367.659854 269.110443 
L 368.10141 270.555194 
L 368.414178 270.95715 
L 368.634956 270.940474 
L 368.874132 270.651112 
L 369.186901 269.864129 
L 369.610058 268.107396 
L 370.162003 264.738793 
L 370.87953 258.839188 
L 371.891429 248.476379 
L 374.927123 216.230545 
L 375.810235 209.686819 
L 376.527763 205.883128 
L 377.134901 203.747223 
L 377.65005 202.671714 
L 378.073207 202.245106 
L 378.44117 202.166467 
L 378.827531 202.32941 
L 379.305883 202.798621 
L 380.152198 204.008354 
L 381.016911 205.107108 
L 381.476865 205.365277 
L 381.82643 205.315089 
L 382.157596 205.022511 
L 382.525559 204.370099 
L 382.948717 203.133384 
L 383.445467 200.9352 
L 384.01581 197.315824 
L 384.659745 191.721378 
L 385.414069 183.074534 
L 386.29718 170.175856 
L 387.382671 150.776418 
L 389.020106 116.892615 
L 391.099097 74.748656 
L 392.129394 58.166805 
L 392.920514 48.64936 
L 393.564449 43.343063 
L 394.061199 40.868081 
L 394.429162 39.974257 
L 394.668338 39.826228 
L 394.870718 39.967221 
L 395.128292 40.497491 
L 395.477857 41.837238 
L 395.919413 44.522559 
L 396.471357 49.358397 
L 397.170487 57.625959 
L 398.053598 70.927971 
L 399.304672 93.49414 
L 402.340367 149.442203 
L 403.389062 164.197456 
L 404.272173 173.677026 
L 405.026497 179.552769 
L 405.68883 183.108509 
L 406.277571 185.145426 
L 406.792719 186.191879 
L 407.252673 186.658159 
L 407.67583 186.791259 
L 408.190979 186.701313 
L 409.607636 186.319876 
L 410.012396 186.511552 
L 410.417155 186.967423 
L 410.85871 187.837317 
L 411.35546 189.361404 
L 411.907405 191.818119 
L 412.55134 195.781445 
L 413.287266 201.7916 
L 414.170377 210.968066 
L 415.311063 225.348587 
L 418.567535 267.929575 
L 419.358656 274.802457 
L 419.947397 278.209095 
L 420.388952 279.66733 
L 420.701721 280.088793 
L 420.922498 280.068821 
L 421.143276 279.780026 
L 421.437647 278.969959 
L 421.824008 277.160692 
L 422.30236 273.743478 
L 422.891101 267.777128 
L 423.608628 258.007099 
L 424.473341 242.973203 
L 425.595629 219.288063 
L 427.785008 167.031142 
L 429.367249 132.148893 
L 430.434342 113.208656 
L 431.299055 101.486709 
L 432.034981 94.302729 
L 432.64212 90.321017 
L 433.157268 88.269193 
L 433.562028 87.459024 
L 433.856398 87.282128 
L 434.095574 87.376505 
L 434.389944 87.764409 
L 434.776305 88.68539 
L 435.309852 90.610677 
L 435.843398 93.123248 
L 435.843398 93.123248 
" style="fill:none;stroke:#1f77b4;stroke-linecap:square;stroke-width:1.5;"/>
   </g>
   <g id="patch_3">
    <path d="M 67.862 303.64 
L 67.862 26.88 
" style="fill:none;stroke:#000000;stroke-linecap:square;stroke-linejoin:miter;stroke-width:0.8;"/>
   </g>
   <g id="patch_4">
    <path d="M 435.825 303.64 
L 435.825 26.88 
" style="fill:none;stroke:#000000;stroke-linecap:square;stroke-linejoin:miter;stroke-width:0.8;"/>
   </g>
   <g id="patch_5">
    <path d="M 67.862 303.64 
L 435.825 303.64 
" style="fill:none;stroke:#000000;stroke-linecap:square;stroke-linejoin:miter;stroke-width:0.8;"/>
   </g>
   <g id="patch_6">
    <path d="M 67.862 26.88 
L 435.825 26.88 
" style="fill:none;stroke:#000000;stroke-linecap:square;stroke-linejoin:miter;stroke-width:0.8;"/>
   </g>
   <g id="text_21">
    <!-- Displacement vs Time -->
    <g transform="translate(185.425375 20.88)scale(0.12 -0.12)">
     <defs>
      <path d="M 2.984375 54.6875 
L 12.5 54.6875 
L 29.59375 8.796875 
L 46.6875 54.6875 
L 56.203125 54.6875 
L 35.6875 0 
L 23.484375 0 
z
" id="DejaVuSans-118"/>
     </defs>
     <use xlink:href="#DejaVuSans-68"/>
     <use x="77.001953" xlink:href="#DejaVuSans-105"/>
     <use x="104.785156" xlink:href="#DejaVuSans-115"/>
     <use x="156.884766" xlink:href="#DejaVuSans-112"/>
     <use x="220.361328" xlink:href="#DejaVuSans-108"/>
     <use x="248.144531" xlink:href="#DejaVuSans-97"/>
     <use x="309.423828" xlink:href="#DejaVuSans-99"/>
     <use x="364.404297" xlink:href="#DejaVuSans-101"/>
     <use x="425.927734" xlink:href="#DejaVuSans-109"/>
     <use x="523.339844" xlink:href="#DejaVuSans-101"/>
     <use x="584.863281" xlink:href="#DejaVuSans-110"/>
     <use x="648.242188" xlink:href="#DejaVuSans-116"/>
     <use x="687.451172" xlink:href="#DejaVuSans-32"/>
     <use x="719.238281" xlink:href="#DejaVuSans-118"/>
     <use x="778.417969" xlink:href="#DejaVuSans-115"/>
     <use x="830.517578" xlink:href="#DejaVuSans-32"/>
     <use x="862.304688" xlink:href="#DejaVuSans-84"/>
     <use x="920.263672" xlink:href="#DejaVuSans-105"/>
     <use x="948.046875" xlink:href="#DejaVuSans-109"/>
     <use x="1045.458984" xlink:href="#DejaVuSans-101"/>
    </g>
   </g>
  </g>
 </g>
 <defs>
  <clipPath id="pd64e2a2665">
   <rect height="276.76" width="367.963" x="67.862" y="26.88"/>
  </clipPath>
 </defs>
</svg>
