<?xml version="1.0" encoding="utf-8" standalone="no"?>
<!DOCTYPE svg PUBLIC "-//W3C//DTD SVG 1.1//EN"
  "http://www.w3.org/Graphics/SVG/1.1/DTD/svg11.dtd">
<svg xmlns:xlink="http://www.w3.org/1999/xlink" width="460.8pt" height="345.6pt" viewBox="0 0 460.8 345.6" xmlns="http://www.w3.org/2000/svg" version="1.1">
 <metadata>
  <rdf:RDF xmlns:dc="http://purl.org/dc/elements/1.1/" xmlns:cc="http://creativecommons.org/ns#" xmlns:rdf="http://www.w3.org/1999/02/22-rdf-syntax-ns#">
   <cc:Work>
    <dc:type rdf:resource="http://purl.org/dc/dcmitype/StillImage"/>
    <dc:date>2021-12-19T21:25:02.588937</dc:date>
    <dc:format>image/svg+xml</dc:format>
    <dc:creator>
     <cc:Agent>
      <dc:title>Matplotlib v3.5.0, https://matplotlib.org/</dc:title>
     </cc:Agent>
    </dc:creator>
   </cc:Work>
  </rdf:RDF>
 </metadata>
 <defs>
  <style type="text/css">*{stroke-linejoin: round; stroke-linecap: butt}</style>
 </defs>
 <g id="figure_1">
  <g id="patch_1">
   <path d="M 0 345.6 
L 460.8 345.6 
L 460.8 0 
L 0 0 
z
" style="fill: #ffffff"/>
  </g>
  <g id="axes_1">
   <g id="patch_2">
    <path d="M 61.562 303.64 
L 435.825 303.64 
L 435.825 26.88 
L 61.562 26.88 
z
" style="fill: #ffffff"/>
   </g>
   <g id="matplotlib.axis_1">
    <g id="xtick_1">
     <g id="line2d_1">
      <defs>
       <path id="maff8ca75c1" d="M 0 0 
L 0 3.5 
" style="stroke: #000000; stroke-width: 0.8"/>
      </defs>
      <g>
       <use xlink:href="#maff8ca75c1" x="61.562" y="303.64" style="stroke: #000000; stroke-width: 0.8"/>
      </g>
     </g>
     <g id="text_1">
      <!-- 0.000 -->
      <g transform="translate(47.247938 318.238437)scale(0.1 -0.1)">
       <defs>
        <path id="DejaVuSans-30" d="M 2034 4250 
Q 1547 4250 1301 3770 
Q 1056 3291 1056 2328 
Q 1056 1369 1301 889 
Q 1547 409 2034 409 
Q 2525 409 2770 889 
Q 3016 1369 3016 2328 
Q 3016 3291 2770 3770 
Q 2525 4250 2034 4250 
z
M 2034 4750 
Q 2819 4750 3233 4129 
Q 3647 3509 3647 2328 
Q 3647 1150 3233 529 
Q 2819 -91 2034 -91 
Q 1250 -91 836 529 
Q 422 1150 422 2328 
Q 422 3509 836 4129 
Q 1250 4750 2034 4750 
z
" transform="scale(0.015625)"/>
        <path id="DejaVuSans-2e" d="M 684 794 
L 1344 794 
L 1344 0 
L 684 0 
L 684 794 
z
" transform="scale(0.015625)"/>
       </defs>
       <use xlink:href="#DejaVuSans-30"/>
       <use xlink:href="#DejaVuSans-2e" x="63.623047"/>
       <use xlink:href="#DejaVuSans-30" x="95.410156"/>
       <use xlink:href="#DejaVuSans-30" x="159.033203"/>
       <use xlink:href="#DejaVuSans-30" x="222.65625"/>
      </g>
     </g>
    </g>
    <g id="xtick_2">
     <g id="line2d_2">
      <g>
       <use xlink:href="#maff8ca75c1" x="108.344875" y="303.64" style="stroke: #000000; stroke-width: 0.8"/>
      </g>
     </g>
     <g id="text_2">
      <!-- 0.025 -->
      <g transform="translate(94.030812 318.238437)scale(0.1 -0.1)">
       <defs>
        <path id="DejaVuSans-32" d="M 1228 531 
L 3431 531 
L 3431 0 
L 469 0 
L 469 531 
Q 828 903 1448 1529 
Q 2069 2156 2228 2338 
Q 2531 2678 2651 2914 
Q 2772 3150 2772 3378 
Q 2772 3750 2511 3984 
Q 2250 4219 1831 4219 
Q 1534 4219 1204 4116 
Q 875 4013 500 3803 
L 500 4441 
Q 881 4594 1212 4672 
Q 1544 4750 1819 4750 
Q 2544 4750 2975 4387 
Q 3406 4025 3406 3419 
Q 3406 3131 3298 2873 
Q 3191 2616 2906 2266 
Q 2828 2175 2409 1742 
Q 1991 1309 1228 531 
z
" transform="scale(0.015625)"/>
        <path id="DejaVuSans-35" d="M 691 4666 
L 3169 4666 
L 3169 4134 
L 1269 4134 
L 1269 2991 
Q 1406 3038 1543 3061 
Q 1681 3084 1819 3084 
Q 2600 3084 3056 2656 
Q 3513 2228 3513 1497 
Q 3513 744 3044 326 
Q 2575 -91 1722 -91 
Q 1428 -91 1123 -41 
Q 819 9 494 109 
L 494 744 
Q 775 591 1075 516 
Q 1375 441 1709 441 
Q 2250 441 2565 725 
Q 2881 1009 2881 1497 
Q 2881 1984 2565 2268 
Q 2250 2553 1709 2553 
Q 1456 2553 1204 2497 
Q 953 2441 691 2322 
L 691 4666 
z
" transform="scale(0.015625)"/>
       </defs>
       <use xlink:href="#DejaVuSans-30"/>
       <use xlink:href="#DejaVuSans-2e" x="63.623047"/>
       <use xlink:href="#DejaVuSans-30" x="95.410156"/>
       <use xlink:href="#DejaVuSans-32" x="159.033203"/>
       <use xlink:href="#DejaVuSans-35" x="222.65625"/>
      </g>
     </g>
    </g>
    <g id="xtick_3">
     <g id="line2d_3">
      <g>
       <use xlink:href="#maff8ca75c1" x="155.12775" y="303.64" style="stroke: #000000; stroke-width: 0.8"/>
      </g>
     </g>
     <g id="text_3">
      <!-- 0.050 -->
      <g transform="translate(140.813687 318.238437)scale(0.1 -0.1)">
       <use xlink:href="#DejaVuSans-30"/>
       <use xlink:href="#DejaVuSans-2e" x="63.623047"/>
       <use xlink:href="#DejaVuSans-30" x="95.410156"/>
       <use xlink:href="#DejaVuSans-35" x="159.033203"/>
       <use xlink:href="#DejaVuSans-30" x="222.65625"/>
      </g>
     </g>
    </g>
    <g id="xtick_4">
     <g id="line2d_4">
      <g>
       <use xlink:href="#maff8ca75c1" x="201.910625" y="303.64" style="stroke: #000000; stroke-width: 0.8"/>
      </g>
     </g>
     <g id="text_4">
      <!-- 0.075 -->
      <g transform="translate(187.596563 318.238437)scale(0.1 -0.1)">
       <defs>
        <path id="DejaVuSans-37" d="M 525 4666 
L 3525 4666 
L 3525 4397 
L 1831 0 
L 1172 0 
L 2766 4134 
L 525 4134 
L 525 4666 
z
" transform="scale(0.015625)"/>
       </defs>
       <use xlink:href="#DejaVuSans-30"/>
       <use xlink:href="#DejaVuSans-2e" x="63.623047"/>
       <use xlink:href="#DejaVuSans-30" x="95.410156"/>
       <use xlink:href="#DejaVuSans-37" x="159.033203"/>
       <use xlink:href="#DejaVuSans-35" x="222.65625"/>
      </g>
     </g>
    </g>
    <g id="xtick_5">
     <g id="line2d_5">
      <g>
       <use xlink:href="#maff8ca75c1" x="248.6935" y="303.64" style="stroke: #000000; stroke-width: 0.8"/>
      </g>
     </g>
     <g id="text_5">
      <!-- 0.100 -->
      <g transform="translate(234.379437 318.238437)scale(0.1 -0.1)">
       <defs>
        <path id="DejaVuSans-31" d="M 794 531 
L 1825 531 
L 1825 4091 
L 703 3866 
L 703 4441 
L 1819 4666 
L 2450 4666 
L 2450 531 
L 3481 531 
L 3481 0 
L 794 0 
L 794 531 
z
" transform="scale(0.015625)"/>
       </defs>
       <use xlink:href="#DejaVuSans-30"/>
       <use xlink:href="#DejaVuSans-2e" x="63.623047"/>
       <use xlink:href="#DejaVuSans-31" x="95.410156"/>
       <use xlink:href="#DejaVuSans-30" x="159.033203"/>
       <use xlink:href="#DejaVuSans-30" x="222.65625"/>
      </g>
     </g>
    </g>
    <g id="xtick_6">
     <g id="line2d_6">
      <g>
       <use xlink:href="#maff8ca75c1" x="295.476375" y="303.64" style="stroke: #000000; stroke-width: 0.8"/>
      </g>
     </g>
     <g id="text_6">
      <!-- 0.125 -->
      <g transform="translate(281.162312 318.238437)scale(0.1 -0.1)">
       <use xlink:href="#DejaVuSans-30"/>
       <use xlink:href="#DejaVuSans-2e" x="63.623047"/>
       <use xlink:href="#DejaVuSans-31" x="95.410156"/>
       <use xlink:href="#DejaVuSans-32" x="159.033203"/>
       <use xlink:href="#DejaVuSans-35" x="222.65625"/>
      </g>
     </g>
    </g>
    <g id="xtick_7">
     <g id="line2d_7">
      <g>
       <use xlink:href="#maff8ca75c1" x="342.25925" y="303.64" style="stroke: #000000; stroke-width: 0.8"/>
      </g>
     </g>
     <g id="text_7">
      <!-- 0.150 -->
      <g transform="translate(327.945188 318.238437)scale(0.1 -0.1)">
       <use xlink:href="#DejaVuSans-30"/>
       <use xlink:href="#DejaVuSans-2e" x="63.623047"/>
       <use xlink:href="#DejaVuSans-31" x="95.410156"/>
       <use xlink:href="#DejaVuSans-35" x="159.033203"/>
       <use xlink:href="#DejaVuSans-30" x="222.65625"/>
      </g>
     </g>
    </g>
    <g id="xtick_8">
     <g id="line2d_8">
      <g>
       <use xlink:href="#maff8ca75c1" x="389.042125" y="303.64" style="stroke: #000000; stroke-width: 0.8"/>
      </g>
     </g>
     <g id="text_8">
      <!-- 0.175 -->
      <g transform="translate(374.728063 318.238437)scale(0.1 -0.1)">
       <use xlink:href="#DejaVuSans-30"/>
       <use xlink:href="#DejaVuSans-2e" x="63.623047"/>
       <use xlink:href="#DejaVuSans-31" x="95.410156"/>
       <use xlink:href="#DejaVuSans-37" x="159.033203"/>
       <use xlink:href="#DejaVuSans-35" x="222.65625"/>
      </g>
     </g>
    </g>
    <g id="xtick_9">
     <g id="line2d_9">
      <g>
       <use xlink:href="#maff8ca75c1" x="435.825" y="303.64" style="stroke: #000000; stroke-width: 0.8"/>
      </g>
     </g>
     <g id="text_9">
      <!-- 0.200 -->
      <g transform="translate(421.510938 318.238437)scale(0.1 -0.1)">
       <use xlink:href="#DejaVuSans-30"/>
       <use xlink:href="#DejaVuSans-2e" x="63.623047"/>
       <use xlink:href="#DejaVuSans-32" x="95.410156"/>
       <use xlink:href="#DejaVuSans-30" x="159.033203"/>
       <use xlink:href="#DejaVuSans-30" x="222.65625"/>
      </g>
     </g>
    </g>
    <g id="text_10">
     <!-- Time -->
     <g transform="translate(236.459906 331.916562)scale(0.1 -0.1)">
      <defs>
       <path id="DejaVuSans-54" d="M -19 4666 
L 3928 4666 
L 3928 4134 
L 2272 4134 
L 2272 0 
L 1638 0 
L 1638 4134 
L -19 4134 
L -19 4666 
z
" transform="scale(0.015625)"/>
       <path id="DejaVuSans-69" d="M 603 3500 
L 1178 3500 
L 1178 0 
L 603 0 
L 603 3500 
z
M 603 4863 
L 1178 4863 
L 1178 4134 
L 603 4134 
L 603 4863 
z
" transform="scale(0.015625)"/>
       <path id="DejaVuSans-6d" d="M 3328 2828 
Q 3544 3216 3844 3400 
Q 4144 3584 4550 3584 
Q 5097 3584 5394 3201 
Q 5691 2819 5691 2113 
L 5691 0 
L 5113 0 
L 5113 2094 
Q 5113 2597 4934 2840 
Q 4756 3084 4391 3084 
Q 3944 3084 3684 2787 
Q 3425 2491 3425 1978 
L 3425 0 
L 2847 0 
L 2847 2094 
Q 2847 2600 2669 2842 
Q 2491 3084 2119 3084 
Q 1678 3084 1418 2786 
Q 1159 2488 1159 1978 
L 1159 0 
L 581 0 
L 581 3500 
L 1159 3500 
L 1159 2956 
Q 1356 3278 1631 3431 
Q 1906 3584 2284 3584 
Q 2666 3584 2933 3390 
Q 3200 3197 3328 2828 
z
" transform="scale(0.015625)"/>
       <path id="DejaVuSans-65" d="M 3597 1894 
L 3597 1613 
L 953 1613 
Q 991 1019 1311 708 
Q 1631 397 2203 397 
Q 2534 397 2845 478 
Q 3156 559 3463 722 
L 3463 178 
Q 3153 47 2828 -22 
Q 2503 -91 2169 -91 
Q 1331 -91 842 396 
Q 353 884 353 1716 
Q 353 2575 817 3079 
Q 1281 3584 2069 3584 
Q 2775 3584 3186 3129 
Q 3597 2675 3597 1894 
z
M 3022 2063 
Q 3016 2534 2758 2815 
Q 2500 3097 2075 3097 
Q 1594 3097 1305 2825 
Q 1016 2553 972 2059 
L 3022 2063 
z
" transform="scale(0.015625)"/>
      </defs>
      <use xlink:href="#DejaVuSans-54"/>
      <use xlink:href="#DejaVuSans-69" x="57.958984"/>
      <use xlink:href="#DejaVuSans-6d" x="85.742188"/>
      <use xlink:href="#DejaVuSans-65" x="183.154297"/>
     </g>
    </g>
   </g>
   <g id="matplotlib.axis_2">
    <g id="ytick_1">
     <g id="line2d_10">
      <defs>
       <path id="mb73ae44c70" d="M 0 0 
L -3.5 0 
" style="stroke: #000000; stroke-width: 0.8"/>
      </defs>
      <g>
       <use xlink:href="#mb73ae44c70" x="61.562" y="277.981747" style="stroke: #000000; stroke-width: 0.8"/>
      </g>
     </g>
     <g id="text_11">
      <!-- −1.0 -->
      <g transform="translate(30.279188 281.780966)scale(0.1 -0.1)">
       <defs>
        <path id="DejaVuSans-2212" d="M 678 2272 
L 4684 2272 
L 4684 1741 
L 678 1741 
L 678 2272 
z
" transform="scale(0.015625)"/>
       </defs>
       <use xlink:href="#DejaVuSans-2212"/>
       <use xlink:href="#DejaVuSans-31" x="83.789062"/>
       <use xlink:href="#DejaVuSans-2e" x="147.412109"/>
       <use xlink:href="#DejaVuSans-30" x="179.199219"/>
      </g>
     </g>
    </g>
    <g id="ytick_2">
     <g id="line2d_11">
      <g>
       <use xlink:href="#mb73ae44c70" x="61.562" y="221.620372" style="stroke: #000000; stroke-width: 0.8"/>
      </g>
     </g>
     <g id="text_12">
      <!-- −0.5 -->
      <g transform="translate(30.279188 225.41959)scale(0.1 -0.1)">
       <use xlink:href="#DejaVuSans-2212"/>
       <use xlink:href="#DejaVuSans-30" x="83.789062"/>
       <use xlink:href="#DejaVuSans-2e" x="147.412109"/>
       <use xlink:href="#DejaVuSans-35" x="179.199219"/>
      </g>
     </g>
    </g>
    <g id="ytick_3">
     <g id="line2d_12">
      <g>
       <use xlink:href="#mb73ae44c70" x="61.562" y="165.258996" style="stroke: #000000; stroke-width: 0.8"/>
      </g>
     </g>
     <g id="text_13">
      <!-- 0.0 -->
      <g transform="translate(38.658875 169.058215)scale(0.1 -0.1)">
       <use xlink:href="#DejaVuSans-30"/>
       <use xlink:href="#DejaVuSans-2e" x="63.623047"/>
       <use xlink:href="#DejaVuSans-30" x="95.410156"/>
      </g>
     </g>
    </g>
    <g id="ytick_4">
     <g id="line2d_13">
      <g>
       <use xlink:href="#mb73ae44c70" x="61.562" y="108.897621" style="stroke: #000000; stroke-width: 0.8"/>
      </g>
     </g>
     <g id="text_14">
      <!-- 0.5 -->
      <g transform="translate(38.658875 112.69684)scale(0.1 -0.1)">
       <use xlink:href="#DejaVuSans-30"/>
       <use xlink:href="#DejaVuSans-2e" x="63.623047"/>
       <use xlink:href="#DejaVuSans-35" x="95.410156"/>
      </g>
     </g>
    </g>
    <g id="ytick_5">
     <g id="line2d_14">
      <g>
       <use xlink:href="#mb73ae44c70" x="61.562" y="52.536245" style="stroke: #000000; stroke-width: 0.8"/>
      </g>
     </g>
     <g id="text_15">
      <!-- 1.0 -->
      <g transform="translate(38.658875 56.335464)scale(0.1 -0.1)">
       <use xlink:href="#DejaVuSans-31"/>
       <use xlink:href="#DejaVuSans-2e" x="63.623047"/>
       <use xlink:href="#DejaVuSans-30" x="95.410156"/>
      </g>
     </g>
    </g>
    <g id="text_16">
     <!-- Displacement x $\mathregular{10^4}$ -->
     <g transform="translate(24.179188 214.56)rotate(-90)scale(0.1 -0.1)">
      <defs>
       <path id="DejaVuSans-44" d="M 1259 4147 
L 1259 519 
L 2022 519 
Q 2988 519 3436 956 
Q 3884 1394 3884 2338 
Q 3884 3275 3436 3711 
Q 2988 4147 2022 4147 
L 1259 4147 
z
M 628 4666 
L 1925 4666 
Q 3281 4666 3915 4102 
Q 4550 3538 4550 2338 
Q 4550 1131 3912 565 
Q 3275 0 1925 0 
L 628 0 
L 628 4666 
z
" transform="scale(0.015625)"/>
       <path id="DejaVuSans-73" d="M 2834 3397 
L 2834 2853 
Q 2591 2978 2328 3040 
Q 2066 3103 1784 3103 
Q 1356 3103 1142 2972 
Q 928 2841 928 2578 
Q 928 2378 1081 2264 
Q 1234 2150 1697 2047 
L 1894 2003 
Q 2506 1872 2764 1633 
Q 3022 1394 3022 966 
Q 3022 478 2636 193 
Q 2250 -91 1575 -91 
Q 1294 -91 989 -36 
Q 684 19 347 128 
L 347 722 
Q 666 556 975 473 
Q 1284 391 1588 391 
Q 1994 391 2212 530 
Q 2431 669 2431 922 
Q 2431 1156 2273 1281 
Q 2116 1406 1581 1522 
L 1381 1569 
Q 847 1681 609 1914 
Q 372 2147 372 2553 
Q 372 3047 722 3315 
Q 1072 3584 1716 3584 
Q 2034 3584 2315 3537 
Q 2597 3491 2834 3397 
z
" transform="scale(0.015625)"/>
       <path id="DejaVuSans-70" d="M 1159 525 
L 1159 -1331 
L 581 -1331 
L 581 3500 
L 1159 3500 
L 1159 2969 
Q 1341 3281 1617 3432 
Q 1894 3584 2278 3584 
Q 2916 3584 3314 3078 
Q 3713 2572 3713 1747 
Q 3713 922 3314 415 
Q 2916 -91 2278 -91 
Q 1894 -91 1617 61 
Q 1341 213 1159 525 
z
M 3116 1747 
Q 3116 2381 2855 2742 
Q 2594 3103 2138 3103 
Q 1681 3103 1420 2742 
Q 1159 2381 1159 1747 
Q 1159 1113 1420 752 
Q 1681 391 2138 391 
Q 2594 391 2855 752 
Q 3116 1113 3116 1747 
z
" transform="scale(0.015625)"/>
       <path id="DejaVuSans-6c" d="M 603 4863 
L 1178 4863 
L 1178 0 
L 603 0 
L 603 4863 
z
" transform="scale(0.015625)"/>
       <path id="DejaVuSans-61" d="M 2194 1759 
Q 1497 1759 1228 1600 
Q 959 1441 959 1056 
Q 959 750 1161 570 
Q 1363 391 1709 391 
Q 2188 391 2477 730 
Q 2766 1069 2766 1631 
L 2766 1759 
L 2194 1759 
z
M 3341 1997 
L 3341 0 
L 2766 0 
L 2766 531 
Q 2569 213 2275 61 
Q 1981 -91 1556 -91 
Q 1019 -91 701 211 
Q 384 513 384 1019 
Q 384 1609 779 1909 
Q 1175 2209 1959 2209 
L 2766 2209 
L 2766 2266 
Q 2766 2663 2505 2880 
Q 2244 3097 1772 3097 
Q 1472 3097 1187 3025 
Q 903 2953 641 2809 
L 641 3341 
Q 956 3463 1253 3523 
Q 1550 3584 1831 3584 
Q 2591 3584 2966 3190 
Q 3341 2797 3341 1997 
z
" transform="scale(0.015625)"/>
       <path id="DejaVuSans-63" d="M 3122 3366 
L 3122 2828 
Q 2878 2963 2633 3030 
Q 2388 3097 2138 3097 
Q 1578 3097 1268 2742 
Q 959 2388 959 1747 
Q 959 1106 1268 751 
Q 1578 397 2138 397 
Q 2388 397 2633 464 
Q 2878 531 3122 666 
L 3122 134 
Q 2881 22 2623 -34 
Q 2366 -91 2075 -91 
Q 1284 -91 818 406 
Q 353 903 353 1747 
Q 353 2603 823 3093 
Q 1294 3584 2113 3584 
Q 2378 3584 2631 3529 
Q 2884 3475 3122 3366 
z
" transform="scale(0.015625)"/>
       <path id="DejaVuSans-6e" d="M 3513 2113 
L 3513 0 
L 2938 0 
L 2938 2094 
Q 2938 2591 2744 2837 
Q 2550 3084 2163 3084 
Q 1697 3084 1428 2787 
Q 1159 2491 1159 1978 
L 1159 0 
L 581 0 
L 581 3500 
L 1159 3500 
L 1159 2956 
Q 1366 3272 1645 3428 
Q 1925 3584 2291 3584 
Q 2894 3584 3203 3211 
Q 3513 2838 3513 2113 
z
" transform="scale(0.015625)"/>
       <path id="DejaVuSans-74" d="M 1172 4494 
L 1172 3500 
L 2356 3500 
L 2356 3053 
L 1172 3053 
L 1172 1153 
Q 1172 725 1289 603 
Q 1406 481 1766 481 
L 2356 481 
L 2356 0 
L 1766 0 
Q 1100 0 847 248 
Q 594 497 594 1153 
L 594 3053 
L 172 3053 
L 172 3500 
L 594 3500 
L 594 4494 
L 1172 4494 
z
" transform="scale(0.015625)"/>
       <path id="DejaVuSans-20" transform="scale(0.015625)"/>
       <path id="DejaVuSans-78" d="M 3513 3500 
L 2247 1797 
L 3578 0 
L 2900 0 
L 1881 1375 
L 863 0 
L 184 0 
L 1544 1831 
L 300 3500 
L 978 3500 
L 1906 2253 
L 2834 3500 
L 3513 3500 
z
" transform="scale(0.015625)"/>
       <path id="DejaVuSans-34" d="M 2419 4116 
L 825 1625 
L 2419 1625 
L 2419 4116 
z
M 2253 4666 
L 3047 4666 
L 3047 1625 
L 3713 1625 
L 3713 1100 
L 3047 1100 
L 3047 0 
L 2419 0 
L 2419 1100 
L 313 1100 
L 313 1709 
L 2253 4666 
z
" transform="scale(0.015625)"/>
      </defs>
      <use xlink:href="#DejaVuSans-44" transform="translate(0 0.684375)"/>
      <use xlink:href="#DejaVuSans-69" transform="translate(77.001953 0.684375)"/>
      <use xlink:href="#DejaVuSans-73" transform="translate(104.785156 0.684375)"/>
      <use xlink:href="#DejaVuSans-70" transform="translate(156.884766 0.684375)"/>
      <use xlink:href="#DejaVuSans-6c" transform="translate(220.361328 0.684375)"/>
      <use xlink:href="#DejaVuSans-61" transform="translate(248.144531 0.684375)"/>
      <use xlink:href="#DejaVuSans-63" transform="translate(309.423828 0.684375)"/>
      <use xlink:href="#DejaVuSans-65" transform="translate(364.404297 0.684375)"/>
      <use xlink:href="#DejaVuSans-6d" transform="translate(425.927734 0.684375)"/>
      <use xlink:href="#DejaVuSans-65" transform="translate(523.339844 0.684375)"/>
      <use xlink:href="#DejaVuSans-6e" transform="translate(584.863281 0.684375)"/>
      <use xlink:href="#DejaVuSans-74" transform="translate(648.242188 0.684375)"/>
      <use xlink:href="#DejaVuSans-20" transform="translate(687.451172 0.684375)"/>
      <use xlink:href="#DejaVuSans-78" transform="translate(719.238281 0.684375)"/>
      <use xlink:href="#DejaVuSans-20" transform="translate(778.417969 0.684375)"/>
      <use xlink:href="#DejaVuSans-31" transform="translate(810.205078 0.684375)"/>
      <use xlink:href="#DejaVuSans-30" transform="translate(873.828125 0.684375)"/>
      <use xlink:href="#DejaVuSans-34" transform="translate(938.408203 38.965625)scale(0.7)"/>
     </g>
    </g>
   </g>
   <g id="line2d_15">
    <path d="M 61.562 165.258996 
L 62.441518 165.151299 
L 62.92806 164.858132 
L 63.395889 164.297929 
L 63.882431 163.33592 
L 64.406399 161.774858 
L 64.986506 159.312425 
L 65.641467 155.504573 
L 66.389993 149.739578 
L 67.250798 141.253106 
L 68.280021 128.748171 
L 69.683507 108.68834 
L 72.621472 66.064354 
L 73.631982 54.870501 
L 74.436647 48.247843 
L 75.072894 44.663798 
L 75.578149 42.920563 
L 75.971125 42.252153 
L 76.251823 42.142164 
L 76.495094 42.291654 
L 76.794504 42.782079 
L 77.18748 43.923849 
L 77.692735 46.179967 
L 78.328982 50.169402 
L 79.133648 56.762538 
L 80.256437 68.00799 
L 83.512525 101.74283 
L 84.466896 108.838523 
L 85.252848 113.12155 
L 85.907808 115.575595 
L 86.469203 116.905681 
L 86.937031 117.515729 
L 87.348721 117.721736 
L 87.741697 117.671659 
L 88.190812 117.377098 
L 88.845773 116.642254 
L 90.342825 114.881515 
L 90.810653 114.690188 
L 91.184916 114.774225 
L 91.540466 115.093609 
L 91.933442 115.761498 
L 92.401271 117.045067 
L 92.925239 119.184287 
L 93.52406 122.617785 
L 94.216447 127.976753 
L 95.021112 136.09934 
L 95.95677 147.969221 
L 97.116985 165.720826 
L 99.007013 198.686143 
L 100.971894 231.696944 
L 102.094683 247.026561 
L 102.992914 256.481982 
L 103.74144 262.188363 
L 104.358974 265.349892 
L 104.864229 266.90676 
L 105.257205 267.499261 
L 105.556616 267.604064 
L 105.8186 267.46185 
L 106.136723 267.011994 
L 106.567126 265.956953 
L 107.12852 263.904209 
L 107.877046 260.225166 
L 109.074688 253.038577 
L 110.796298 242.91073 
L 111.638389 239.216345 
L 112.29335 237.252894 
L 112.798605 236.356962 
L 113.191581 236.049947 
L 113.509704 236.052685 
L 113.846541 236.296786 
L 114.239517 236.884101 
L 114.744772 238.085632 
L 115.381019 240.222309 
L 116.279251 244.116018 
L 118.7681 255.37363 
L 119.385633 257.043362 
L 119.834749 257.714618 
L 120.171586 257.869006 
L 120.452283 257.747662 
L 120.751693 257.351569 
L 121.125956 256.448622 
L 121.575072 254.73854 
L 122.117753 251.72652 
L 122.754 246.855907 
L 123.502526 239.309055 
L 124.400758 227.854277 
L 125.54226 210.185895 
L 127.357435 178.000498 
L 129.453308 141.91801 
L 130.613523 125.60873 
L 131.549181 115.320722 
L 132.353846 108.742196 
L 133.046233 104.771097 
L 133.645054 102.533547 
L 134.131596 101.464072 
L 134.543285 101.02819 
L 134.880122 100.954426 
L 135.235672 101.11668 
L 135.666074 101.588423 
L 136.264895 102.615806 
L 138.678891 107.162856 
L 139.109294 107.413897 
L 139.464843 107.381646 
L 139.820393 107.106272 
L 140.213369 106.495447 
L 140.681198 105.32307 
L 141.242593 103.254314 
L 141.897553 99.929486 
L 142.702218 94.586431 
L 143.712728 86.256719 
L 145.62147 68.178157 
L 146.968817 56.542612 
L 147.829621 50.902331 
L 148.465869 48.035088 
L 148.95241 46.719841 
L 149.30796 46.281493 
L 149.569944 46.253993 
L 149.831929 46.483773 
L 150.150052 47.114494 
L 150.561741 48.509072 
L 151.066996 51.110873 
L 151.68453 55.591534 
L 152.433056 62.821706 
L 153.350001 74.021151 
L 154.585069 92.126601 
L 158.477404 151.334393 
L 159.506627 162.716655 
L 160.386145 170.117946 
L 161.153384 174.795712 
L 161.827058 177.623261 
L 162.425878 179.25099 
L 162.96856 180.125177 
L 163.473815 180.536679 
L 163.997783 180.674862 
L 164.821162 180.614674 
L 165.550975 180.649944 
L 166.037516 180.906267 
L 166.486632 181.409062 
L 166.954461 182.282599 
L 167.478429 183.768914 
L 168.058537 186.13206 
L 168.713497 189.797268 
L 169.462023 195.344291 
L 170.322828 203.484138 
L 171.370764 215.638958 
L 172.886529 236.14713 
L 175.244386 267.903076 
L 176.273609 278.772809 
L 177.059562 284.949074 
L 177.695809 288.362607 
L 178.201064 289.98372 
L 178.575327 290.543402 
L 178.837311 290.608096 
L 179.080582 290.427811 
L 179.379992 289.89145 
L 179.772969 288.671639 
L 180.278224 286.276871 
L 180.895758 282.178217 
L 181.68171 275.33744 
L 182.729646 264.05784 
L 185.06879 235.524128 
L 186.43485 220.687679 
L 187.426647 212.176535 
L 188.250025 206.880162 
L 188.961125 203.639818 
L 189.578659 201.777748 
L 190.12134 200.795459 
L 190.589169 200.368066 
L 191.019572 200.253877 
L 191.506114 200.365389 
L 192.25464 200.810991 
L 193.171584 201.297315 
L 193.639413 201.301101 
L 194.032389 201.084201 
L 194.444078 200.580872 
L 194.893194 199.64572 
L 195.398449 198.035503 
L 195.978556 195.365088 
L 196.633517 191.196109 
L 197.36333 185.035222 
L 198.205421 175.948928 
L 199.215931 162.482914 
L 200.544565 141.509148 
L 204.249769 81.197722 
L 205.241566 69.379185 
L 206.046231 62.200159 
L 206.719905 58.013202 
L 207.262586 55.880526 
L 207.692988 54.967592 
L 208.011112 54.723015 
L 208.273096 54.786652 
L 208.553793 55.110138 
L 208.928056 55.931082 
L 209.414598 57.611246 
L 210.050845 60.716672 
L 210.892937 66.049783 
L 212.389989 77.26915 
L 213.905754 88.01946 
L 214.803985 92.914412 
L 215.515085 95.664279 
L 216.07648 97.053249 
L 216.525595 97.655759 
L 216.881145 97.817577 
L 217.199269 97.735298 
L 217.554818 97.40372 
L 218.003934 96.654337 
L 218.602755 95.16639 
L 219.444847 92.403778 
L 221.503293 85.436262 
L 222.102114 84.242438 
L 222.513803 83.837433 
L 222.831927 83.798909 
L 223.131337 84.004779 
L 223.468174 84.539609 
L 223.879863 85.660073 
L 224.366405 87.687615 
L 224.946513 91.149238 
L 225.620186 96.627957 
L 226.406138 104.968979 
L 227.341796 117.418711 
L 228.539437 136.581298 
L 230.747589 176.416673 
L 232.431773 204.797679 
L 233.554562 220.193364 
L 234.471506 229.899745 
L 235.238745 235.844927 
L 235.893705 239.341165 
L 236.436387 241.183094 
L 236.885502 242.035183 
L 237.241052 242.314139 
L 237.559176 242.29438 
L 237.896012 242.024342 
L 238.326415 241.355913 
L 238.906523 239.9986 
L 239.84218 237.142737 
L 241.339232 232.623069 
L 241.994192 231.311487 
L 242.480734 230.780953 
L 242.854997 230.676115 
L 243.173121 230.813014 
L 243.528671 231.224842 
L 243.959073 232.100814 
L 244.483041 233.731147 
L 245.119288 236.521795 
L 245.886527 240.964409 
L 246.897038 248.229968 
L 250.190552 273.018974 
L 250.882939 276.216934 
L 251.406907 277.73881 
L 251.799883 278.305654 
L 252.08058 278.387778 
L 252.323851 278.232525 
L 252.623261 277.744835 
L 252.997524 276.665031 
L 253.465353 274.570196 
L 254.026748 270.965024 
L 254.700421 265.112721 
L 255.5238 255.870976 
L 256.553023 241.60429 
L 258.050075 217.339936 
L 260.763482 173.215482 
L 261.904984 158.388869 
L 262.840641 148.897121 
L 263.645307 142.805323 
L 264.356407 138.981685 
L 264.97394 136.751887 
L 265.535335 135.49358 
L 266.021877 134.898269 
L 266.470992 134.673392 
L 266.957534 134.686998 
L 267.668634 134.970755 
L 268.604292 135.30069 
L 269.07212 135.232812 
L 269.48381 134.950483 
L 269.914212 134.371916 
L 270.400754 133.303124 
L 270.943435 131.517471 
L 271.560969 128.646383 
L 272.253356 124.306415 
L 273.058021 117.779734 
L 274.031105 107.952142 
L 275.341026 92.249465 
L 278.260277 56.586527 
L 279.195934 48.107044 
L 279.925747 43.329875 
L 280.505855 40.863105 
L 280.936257 39.850014 
L 281.254381 39.562845 
L 281.497652 39.61105 
L 281.759636 39.922966 
L 282.096473 40.717978 
L 282.526875 42.368059 
L 283.069557 45.425402 
L 283.74323 50.627166 
L 284.585322 59.027496 
L 285.708111 72.676975 
L 289.712725 123.561292 
L 290.667095 131.98158 
L 291.490474 137.399358 
L 292.201574 140.706803 
L 292.819108 142.627098 
L 293.380502 143.704604 
L 293.885757 144.226996 
L 294.372299 144.424601 
L 294.952407 144.406995 
L 296.318467 144.277043 
L 296.767582 144.514401 
L 297.197985 145.000413 
L 297.665814 145.893233 
L 298.171069 147.368282 
L 298.751176 149.816415 
L 299.387423 153.532232 
L 300.117236 159.211404 
L 300.959328 167.666297 
L 301.951125 180.058782 
L 303.223619 199.01252 
L 307.20952 260.585794 
L 308.145178 270.707118 
L 308.912417 276.776029 
L 309.529951 280.068169 
L 310.016493 281.634253 
L 310.390756 282.225289 
L 310.671453 282.324962 
L 310.914724 282.178952 
L 311.214134 281.712029 
L 311.60711 280.639426 
L 312.112365 278.548303 
L 312.767326 274.788189 
L 313.62813 268.420596 
L 315.012904 256.242176 
L 316.884219 240.161707 
L 317.857302 233.64965 
L 318.624542 229.877945 
L 319.260789 227.756268 
L 319.784757 226.698924 
L 320.215159 226.27775 
L 320.570709 226.213953 
L 320.926259 226.385124 
L 321.356661 226.869933 
L 321.918056 227.874195 
L 322.797574 229.978681 
L 324.20106 233.293807 
L 324.781168 234.121324 
L 325.192857 234.363704 
L 325.510981 234.311398 
L 325.829104 234.022426 
L 326.203367 233.348497 
L 326.652483 232.01967 
L 327.176451 229.69463 
L 327.775272 225.953388 
L 328.467658 220.140769 
L 329.272324 211.406518 
L 330.245408 198.230613 
L 331.480476 178.225328 
L 335.990345 101.98484 
L 336.944715 90.964147 
L 337.749381 84.067479 
L 338.423054 80.048583 
L 338.984449 77.900782 
L 339.433564 76.93085 
L 339.789114 76.604743 
L 340.088525 76.611925 
L 340.387935 76.85751 
L 340.780911 77.507726 
L 341.304879 78.87279 
L 342.015979 81.420129 
L 343.363326 87.284473 
L 344.542254 91.988776 
L 345.272067 94.058418 
L 345.814748 94.99345 
L 346.226438 95.307641 
L 346.544561 95.301516 
L 346.881398 95.051389 
L 347.274374 94.439885 
L 347.760916 93.211947 
L 348.359737 91.021218 
L 349.108263 87.352282 
L 350.137486 81.059918 
L 352.738614 64.644266 
L 353.449714 61.684369 
L 353.992395 60.271544 
L 354.385371 59.782661 
L 354.666068 59.732972 
L 354.928053 59.923851 
L 355.246176 60.475511 
L 355.639152 61.657202 
L 356.125694 63.90575 
L 356.705802 67.733783 
L 357.398188 73.906586 
L 358.221567 83.37256 
L 359.25079 97.978963 
L 360.691703 121.957917 
L 363.667094 172.076904 
L 364.808596 187.242293 
L 365.744253 196.889786 
L 366.548919 203.022697 
L 367.241305 206.727538 
L 367.840126 208.845764 
L 368.364094 209.965524 
L 368.81321 210.456937 
L 369.206186 210.590848 
L 369.617875 210.493972 
L 370.141843 210.118732 
L 372.144151 208.433165 
L 372.55584 208.481149 
L 372.930103 208.752178 
L 373.341792 209.342423 
L 373.809621 210.431101 
L 374.352302 212.304242 
L 374.969836 215.281431 
L 375.699649 219.976831 
L 376.560454 227.063071 
L 377.66453 238.168828 
L 381.687857 280.670302 
L 382.436383 285.501868 
L 383.016491 287.988516 
L 383.465606 289.083233 
L 383.802443 289.405081 
L 384.045714 289.365202 
L 384.307698 289.064124 
L 384.644535 288.282503 
L 385.074937 286.641888 
L 385.598905 283.694893 
L 386.253866 278.621785 
L 387.058531 270.494468 
L 388.087754 257.655683 
L 389.734512 233.874951 
L 391.811671 204.590983 
L 392.953173 191.544102 
L 393.888831 183.247673 
L 394.693496 177.974602 
L 395.404596 174.701745 
L 396.02213 172.812015 
L 396.583524 171.747352 
L 397.107493 171.201617 
L 397.631461 170.968612 
L 398.342561 170.922213 
L 399.222079 170.83055 
L 399.70862 170.547109 
L 400.176449 169.996011 
L 400.662991 169.04219 
L 401.186959 167.48697 
L 401.767067 165.025078 
L 402.422027 161.206656 
L 403.170553 155.4092 
L 404.031358 146.849424 
L 405.060581 134.19211 
L 406.426641 114.360013 
L 409.607877 67.221063 
L 410.599674 56.177093 
L 411.385626 49.662585 
L 412.021873 46.03401 
L 412.527128 44.257244 
L 412.920104 43.560707 
L 413.200802 43.428221 
L 413.444073 43.555917 
L 413.743483 44.015838 
L 414.117746 45.045665 
L 414.604288 47.09987 
L 415.221822 50.766482 
L 416.007774 56.879166 
L 417.11185 67.403571 
L 420.330512 99.159636 
L 421.266169 105.737084 
L 422.033408 109.66121 
L 422.669656 111.871398 
L 423.212337 113.035339 
L 423.661452 113.535721 
L 424.054429 113.666258 
L 424.428692 113.558935 
L 424.877807 113.184591 
L 425.514054 112.329994 
L 427.27309 109.800598 
L 427.722206 109.562673 
L 428.077756 109.605328 
L 428.433306 109.893545 
L 428.826282 110.539857 
L 429.275397 111.752173 
L 429.799366 113.872846 
L 430.398186 117.30583 
L 431.090573 122.688664 
L 431.876525 130.653675 
L 432.812183 142.567758 
L 433.972398 160.419207 
L 435.825 192.963421 
L 435.843713 193.299624 
L 435.843713 193.299624 
" clip-path="url(#pa799ef8430)" style="fill: none; stroke: #1f77b4; stroke-width: 1.5; stroke-linecap: square"/>
   </g>
   <g id="patch_3">
    <path d="M 61.562 303.64 
L 61.562 26.88 
" style="fill: none; stroke: #000000; stroke-width: 0.8; stroke-linejoin: miter; stroke-linecap: square"/>
   </g>
   <g id="patch_4">
    <path d="M 435.825 303.64 
L 435.825 26.88 
" style="fill: none; stroke: #000000; stroke-width: 0.8; stroke-linejoin: miter; stroke-linecap: square"/>
   </g>
   <g id="patch_5">
    <path d="M 61.562 303.64 
L 435.825 303.64 
" style="fill: none; stroke: #000000; stroke-width: 0.8; stroke-linejoin: miter; stroke-linecap: square"/>
   </g>
   <g id="patch_6">
    <path d="M 61.562 26.88 
L 435.825 26.88 
" style="fill: none; stroke: #000000; stroke-width: 0.8; stroke-linejoin: miter; stroke-linecap: square"/>
   </g>
   <g id="text_17">
    <!-- Displacement vs Time -->
    <g transform="translate(182.275375 20.88)scale(0.12 -0.12)">
     <defs>
      <path id="DejaVuSans-76" d="M 191 3500 
L 800 3500 
L 1894 563 
L 2988 3500 
L 3597 3500 
L 2284 0 
L 1503 0 
L 191 3500 
z
" transform="scale(0.015625)"/>
     </defs>
     <use xlink:href="#DejaVuSans-44"/>
     <use xlink:href="#DejaVuSans-69" x="77.001953"/>
     <use xlink:href="#DejaVuSans-73" x="104.785156"/>
     <use xlink:href="#DejaVuSans-70" x="156.884766"/>
     <use xlink:href="#DejaVuSans-6c" x="220.361328"/>
     <use xlink:href="#DejaVuSans-61" x="248.144531"/>
     <use xlink:href="#DejaVuSans-63" x="309.423828"/>
     <use xlink:href="#DejaVuSans-65" x="364.404297"/>
     <use xlink:href="#DejaVuSans-6d" x="425.927734"/>
     <use xlink:href="#DejaVuSans-65" x="523.339844"/>
     <use xlink:href="#DejaVuSans-6e" x="584.863281"/>
     <use xlink:href="#DejaVuSans-74" x="648.242188"/>
     <use xlink:href="#DejaVuSans-20" x="687.451172"/>
     <use xlink:href="#DejaVuSans-76" x="719.238281"/>
     <use xlink:href="#DejaVuSans-73" x="778.417969"/>
     <use xlink:href="#DejaVuSans-20" x="830.517578"/>
     <use xlink:href="#DejaVuSans-54" x="862.304688"/>
     <use xlink:href="#DejaVuSans-69" x="920.263672"/>
     <use xlink:href="#DejaVuSans-6d" x="948.046875"/>
     <use xlink:href="#DejaVuSans-65" x="1045.458984"/>
    </g>
   </g>
  </g>
 </g>
 <defs>
  <clipPath id="pa799ef8430">
   <rect x="61.562" y="26.88" width="374.263" height="276.76"/>
  </clipPath>
 </defs>
</svg>
