<?xml version="1.0" encoding="utf-8" standalone="no"?>
<!DOCTYPE svg PUBLIC "-//W3C//DTD SVG 1.1//EN"
  "http://www.w3.org/Graphics/SVG/1.1/DTD/svg11.dtd">
<svg xmlns:xlink="http://www.w3.org/1999/xlink" width="460.8pt" height="345.6pt" viewBox="0 0 460.8 345.6" xmlns="http://www.w3.org/2000/svg" version="1.1">
 <metadata>
  <rdf:RDF xmlns:dc="http://purl.org/dc/elements/1.1/" xmlns:cc="http://creativecommons.org/ns#" xmlns:rdf="http://www.w3.org/1999/02/22-rdf-syntax-ns#">
   <cc:Work>
    <dc:type rdf:resource="http://purl.org/dc/dcmitype/StillImage"/>
    <dc:date>2021-12-20T09:41:06.573637</dc:date>
    <dc:format>image/svg+xml</dc:format>
    <dc:creator>
     <cc:Agent>
      <dc:title>Matplotlib v3.5.0, https://matplotlib.org/</dc:title>
     </cc:Agent>
    </dc:creator>
   </cc:Work>
  </rdf:RDF>
 </metadata>
 <defs>
  <style type="text/css">*{stroke-linejoin: round; stroke-linecap: butt}</style>
 </defs>
 <g id="figure_1">
  <g id="patch_1">
   <path d="M 0 345.6 
L 460.8 345.6 
L 460.8 0 
L 0 0 
z
" style="fill: #ffffff"/>
  </g>
  <g id="axes_1">
   <g id="patch_2">
    <path d="M 62.3 303.64 
L 435.825 303.64 
L 435.825 26.88 
L 62.3 26.88 
z
" style="fill: #ffffff"/>
   </g>
   <g id="matplotlib.axis_1">
    <g id="xtick_1">
     <g id="line2d_1">
      <defs>
       <path id="m8c687d4804" d="M 0 0 
L 0 3.5 
" style="stroke: #000000; stroke-width: 0.8"/>
      </defs>
      <g>
       <use xlink:href="#m8c687d4804" x="62.3" y="303.64" style="stroke: #000000; stroke-width: 0.8"/>
      </g>
     </g>
     <g id="text_1">
      <!-- 0.000 -->
      <g transform="translate(47.985938 318.238437)scale(0.1 -0.1)">
       <defs>
        <path id="DejaVuSans-30" d="M 2034 4250 
Q 1547 4250 1301 3770 
Q 1056 3291 1056 2328 
Q 1056 1369 1301 889 
Q 1547 409 2034 409 
Q 2525 409 2770 889 
Q 3016 1369 3016 2328 
Q 3016 3291 2770 3770 
Q 2525 4250 2034 4250 
z
M 2034 4750 
Q 2819 4750 3233 4129 
Q 3647 3509 3647 2328 
Q 3647 1150 3233 529 
Q 2819 -91 2034 -91 
Q 1250 -91 836 529 
Q 422 1150 422 2328 
Q 422 3509 836 4129 
Q 1250 4750 2034 4750 
z
" transform="scale(0.015625)"/>
        <path id="DejaVuSans-2e" d="M 684 794 
L 1344 794 
L 1344 0 
L 684 0 
L 684 794 
z
" transform="scale(0.015625)"/>
       </defs>
       <use xlink:href="#DejaVuSans-30"/>
       <use xlink:href="#DejaVuSans-2e" x="63.623047"/>
       <use xlink:href="#DejaVuSans-30" x="95.410156"/>
       <use xlink:href="#DejaVuSans-30" x="159.033203"/>
       <use xlink:href="#DejaVuSans-30" x="222.65625"/>
      </g>
     </g>
    </g>
    <g id="xtick_2">
     <g id="line2d_2">
      <g>
       <use xlink:href="#m8c687d4804" x="108.990625" y="303.64" style="stroke: #000000; stroke-width: 0.8"/>
      </g>
     </g>
     <g id="text_2">
      <!-- 0.025 -->
      <g transform="translate(94.676563 318.238437)scale(0.1 -0.1)">
       <defs>
        <path id="DejaVuSans-32" d="M 1228 531 
L 3431 531 
L 3431 0 
L 469 0 
L 469 531 
Q 828 903 1448 1529 
Q 2069 2156 2228 2338 
Q 2531 2678 2651 2914 
Q 2772 3150 2772 3378 
Q 2772 3750 2511 3984 
Q 2250 4219 1831 4219 
Q 1534 4219 1204 4116 
Q 875 4013 500 3803 
L 500 4441 
Q 881 4594 1212 4672 
Q 1544 4750 1819 4750 
Q 2544 4750 2975 4387 
Q 3406 4025 3406 3419 
Q 3406 3131 3298 2873 
Q 3191 2616 2906 2266 
Q 2828 2175 2409 1742 
Q 1991 1309 1228 531 
z
" transform="scale(0.015625)"/>
        <path id="DejaVuSans-35" d="M 691 4666 
L 3169 4666 
L 3169 4134 
L 1269 4134 
L 1269 2991 
Q 1406 3038 1543 3061 
Q 1681 3084 1819 3084 
Q 2600 3084 3056 2656 
Q 3513 2228 3513 1497 
Q 3513 744 3044 326 
Q 2575 -91 1722 -91 
Q 1428 -91 1123 -41 
Q 819 9 494 109 
L 494 744 
Q 775 591 1075 516 
Q 1375 441 1709 441 
Q 2250 441 2565 725 
Q 2881 1009 2881 1497 
Q 2881 1984 2565 2268 
Q 2250 2553 1709 2553 
Q 1456 2553 1204 2497 
Q 953 2441 691 2322 
L 691 4666 
z
" transform="scale(0.015625)"/>
       </defs>
       <use xlink:href="#DejaVuSans-30"/>
       <use xlink:href="#DejaVuSans-2e" x="63.623047"/>
       <use xlink:href="#DejaVuSans-30" x="95.410156"/>
       <use xlink:href="#DejaVuSans-32" x="159.033203"/>
       <use xlink:href="#DejaVuSans-35" x="222.65625"/>
      </g>
     </g>
    </g>
    <g id="xtick_3">
     <g id="line2d_3">
      <g>
       <use xlink:href="#m8c687d4804" x="155.68125" y="303.64" style="stroke: #000000; stroke-width: 0.8"/>
      </g>
     </g>
     <g id="text_3">
      <!-- 0.050 -->
      <g transform="translate(141.367188 318.238437)scale(0.1 -0.1)">
       <use xlink:href="#DejaVuSans-30"/>
       <use xlink:href="#DejaVuSans-2e" x="63.623047"/>
       <use xlink:href="#DejaVuSans-30" x="95.410156"/>
       <use xlink:href="#DejaVuSans-35" x="159.033203"/>
       <use xlink:href="#DejaVuSans-30" x="222.65625"/>
      </g>
     </g>
    </g>
    <g id="xtick_4">
     <g id="line2d_4">
      <g>
       <use xlink:href="#m8c687d4804" x="202.371875" y="303.64" style="stroke: #000000; stroke-width: 0.8"/>
      </g>
     </g>
     <g id="text_4">
      <!-- 0.075 -->
      <g transform="translate(188.057813 318.238437)scale(0.1 -0.1)">
       <defs>
        <path id="DejaVuSans-37" d="M 525 4666 
L 3525 4666 
L 3525 4397 
L 1831 0 
L 1172 0 
L 2766 4134 
L 525 4134 
L 525 4666 
z
" transform="scale(0.015625)"/>
       </defs>
       <use xlink:href="#DejaVuSans-30"/>
       <use xlink:href="#DejaVuSans-2e" x="63.623047"/>
       <use xlink:href="#DejaVuSans-30" x="95.410156"/>
       <use xlink:href="#DejaVuSans-37" x="159.033203"/>
       <use xlink:href="#DejaVuSans-35" x="222.65625"/>
      </g>
     </g>
    </g>
    <g id="xtick_5">
     <g id="line2d_5">
      <g>
       <use xlink:href="#m8c687d4804" x="249.0625" y="303.64" style="stroke: #000000; stroke-width: 0.8"/>
      </g>
     </g>
     <g id="text_5">
      <!-- 0.100 -->
      <g transform="translate(234.748438 318.238437)scale(0.1 -0.1)">
       <defs>
        <path id="DejaVuSans-31" d="M 794 531 
L 1825 531 
L 1825 4091 
L 703 3866 
L 703 4441 
L 1819 4666 
L 2450 4666 
L 2450 531 
L 3481 531 
L 3481 0 
L 794 0 
L 794 531 
z
" transform="scale(0.015625)"/>
       </defs>
       <use xlink:href="#DejaVuSans-30"/>
       <use xlink:href="#DejaVuSans-2e" x="63.623047"/>
       <use xlink:href="#DejaVuSans-31" x="95.410156"/>
       <use xlink:href="#DejaVuSans-30" x="159.033203"/>
       <use xlink:href="#DejaVuSans-30" x="222.65625"/>
      </g>
     </g>
    </g>
    <g id="xtick_6">
     <g id="line2d_6">
      <g>
       <use xlink:href="#m8c687d4804" x="295.753125" y="303.64" style="stroke: #000000; stroke-width: 0.8"/>
      </g>
     </g>
     <g id="text_6">
      <!-- 0.125 -->
      <g transform="translate(281.439063 318.238437)scale(0.1 -0.1)">
       <use xlink:href="#DejaVuSans-30"/>
       <use xlink:href="#DejaVuSans-2e" x="63.623047"/>
       <use xlink:href="#DejaVuSans-31" x="95.410156"/>
       <use xlink:href="#DejaVuSans-32" x="159.033203"/>
       <use xlink:href="#DejaVuSans-35" x="222.65625"/>
      </g>
     </g>
    </g>
    <g id="xtick_7">
     <g id="line2d_7">
      <g>
       <use xlink:href="#m8c687d4804" x="342.44375" y="303.64" style="stroke: #000000; stroke-width: 0.8"/>
      </g>
     </g>
     <g id="text_7">
      <!-- 0.150 -->
      <g transform="translate(328.129688 318.238437)scale(0.1 -0.1)">
       <use xlink:href="#DejaVuSans-30"/>
       <use xlink:href="#DejaVuSans-2e" x="63.623047"/>
       <use xlink:href="#DejaVuSans-31" x="95.410156"/>
       <use xlink:href="#DejaVuSans-35" x="159.033203"/>
       <use xlink:href="#DejaVuSans-30" x="222.65625"/>
      </g>
     </g>
    </g>
    <g id="xtick_8">
     <g id="line2d_8">
      <g>
       <use xlink:href="#m8c687d4804" x="389.134375" y="303.64" style="stroke: #000000; stroke-width: 0.8"/>
      </g>
     </g>
     <g id="text_8">
      <!-- 0.175 -->
      <g transform="translate(374.820313 318.238437)scale(0.1 -0.1)">
       <use xlink:href="#DejaVuSans-30"/>
       <use xlink:href="#DejaVuSans-2e" x="63.623047"/>
       <use xlink:href="#DejaVuSans-31" x="95.410156"/>
       <use xlink:href="#DejaVuSans-37" x="159.033203"/>
       <use xlink:href="#DejaVuSans-35" x="222.65625"/>
      </g>
     </g>
    </g>
    <g id="xtick_9">
     <g id="line2d_9">
      <g>
       <use xlink:href="#m8c687d4804" x="435.825" y="303.64" style="stroke: #000000; stroke-width: 0.8"/>
      </g>
     </g>
     <g id="text_9">
      <!-- 0.200 -->
      <g transform="translate(421.510938 318.238437)scale(0.1 -0.1)">
       <use xlink:href="#DejaVuSans-30"/>
       <use xlink:href="#DejaVuSans-2e" x="63.623047"/>
       <use xlink:href="#DejaVuSans-32" x="95.410156"/>
       <use xlink:href="#DejaVuSans-30" x="159.033203"/>
       <use xlink:href="#DejaVuSans-30" x="222.65625"/>
      </g>
     </g>
    </g>
    <g id="text_10">
     <!-- Time [s] -->
     <g transform="translate(228.733594 331.916562)scale(0.1 -0.1)">
      <defs>
       <path id="DejaVuSans-54" d="M -19 4666 
L 3928 4666 
L 3928 4134 
L 2272 4134 
L 2272 0 
L 1638 0 
L 1638 4134 
L -19 4134 
L -19 4666 
z
" transform="scale(0.015625)"/>
       <path id="DejaVuSans-69" d="M 603 3500 
L 1178 3500 
L 1178 0 
L 603 0 
L 603 3500 
z
M 603 4863 
L 1178 4863 
L 1178 4134 
L 603 4134 
L 603 4863 
z
" transform="scale(0.015625)"/>
       <path id="DejaVuSans-6d" d="M 3328 2828 
Q 3544 3216 3844 3400 
Q 4144 3584 4550 3584 
Q 5097 3584 5394 3201 
Q 5691 2819 5691 2113 
L 5691 0 
L 5113 0 
L 5113 2094 
Q 5113 2597 4934 2840 
Q 4756 3084 4391 3084 
Q 3944 3084 3684 2787 
Q 3425 2491 3425 1978 
L 3425 0 
L 2847 0 
L 2847 2094 
Q 2847 2600 2669 2842 
Q 2491 3084 2119 3084 
Q 1678 3084 1418 2786 
Q 1159 2488 1159 1978 
L 1159 0 
L 581 0 
L 581 3500 
L 1159 3500 
L 1159 2956 
Q 1356 3278 1631 3431 
Q 1906 3584 2284 3584 
Q 2666 3584 2933 3390 
Q 3200 3197 3328 2828 
z
" transform="scale(0.015625)"/>
       <path id="DejaVuSans-65" d="M 3597 1894 
L 3597 1613 
L 953 1613 
Q 991 1019 1311 708 
Q 1631 397 2203 397 
Q 2534 397 2845 478 
Q 3156 559 3463 722 
L 3463 178 
Q 3153 47 2828 -22 
Q 2503 -91 2169 -91 
Q 1331 -91 842 396 
Q 353 884 353 1716 
Q 353 2575 817 3079 
Q 1281 3584 2069 3584 
Q 2775 3584 3186 3129 
Q 3597 2675 3597 1894 
z
M 3022 2063 
Q 3016 2534 2758 2815 
Q 2500 3097 2075 3097 
Q 1594 3097 1305 2825 
Q 1016 2553 972 2059 
L 3022 2063 
z
" transform="scale(0.015625)"/>
       <path id="DejaVuSans-20" transform="scale(0.015625)"/>
       <path id="DejaVuSans-5b" d="M 550 4863 
L 1875 4863 
L 1875 4416 
L 1125 4416 
L 1125 -397 
L 1875 -397 
L 1875 -844 
L 550 -844 
L 550 4863 
z
" transform="scale(0.015625)"/>
       <path id="DejaVuSans-73" d="M 2834 3397 
L 2834 2853 
Q 2591 2978 2328 3040 
Q 2066 3103 1784 3103 
Q 1356 3103 1142 2972 
Q 928 2841 928 2578 
Q 928 2378 1081 2264 
Q 1234 2150 1697 2047 
L 1894 2003 
Q 2506 1872 2764 1633 
Q 3022 1394 3022 966 
Q 3022 478 2636 193 
Q 2250 -91 1575 -91 
Q 1294 -91 989 -36 
Q 684 19 347 128 
L 347 722 
Q 666 556 975 473 
Q 1284 391 1588 391 
Q 1994 391 2212 530 
Q 2431 669 2431 922 
Q 2431 1156 2273 1281 
Q 2116 1406 1581 1522 
L 1381 1569 
Q 847 1681 609 1914 
Q 372 2147 372 2553 
Q 372 3047 722 3315 
Q 1072 3584 1716 3584 
Q 2034 3584 2315 3537 
Q 2597 3491 2834 3397 
z
" transform="scale(0.015625)"/>
       <path id="DejaVuSans-5d" d="M 1947 4863 
L 1947 -844 
L 622 -844 
L 622 -397 
L 1369 -397 
L 1369 4416 
L 622 4416 
L 622 4863 
L 1947 4863 
z
" transform="scale(0.015625)"/>
      </defs>
      <use xlink:href="#DejaVuSans-54"/>
      <use xlink:href="#DejaVuSans-69" x="57.958984"/>
      <use xlink:href="#DejaVuSans-6d" x="85.742188"/>
      <use xlink:href="#DejaVuSans-65" x="183.154297"/>
      <use xlink:href="#DejaVuSans-20" x="244.677734"/>
      <use xlink:href="#DejaVuSans-5b" x="276.464844"/>
      <use xlink:href="#DejaVuSans-73" x="315.478516"/>
      <use xlink:href="#DejaVuSans-5d" x="367.578125"/>
     </g>
    </g>
   </g>
   <g id="matplotlib.axis_2">
    <g id="ytick_1">
     <g id="line2d_10">
      <defs>
       <path id="m918b24035c" d="M 0 0 
L -3.5 0 
" style="stroke: #000000; stroke-width: 0.8"/>
      </defs>
      <g>
       <use xlink:href="#m918b24035c" x="62.3" y="270.72223" style="stroke: #000000; stroke-width: 0.8"/>
      </g>
     </g>
     <g id="text_11">
      <!-- −0.75 -->
      <g transform="translate(24.654688 274.521449)scale(0.1 -0.1)">
       <defs>
        <path id="DejaVuSans-2212" d="M 678 2272 
L 4684 2272 
L 4684 1741 
L 678 1741 
L 678 2272 
z
" transform="scale(0.015625)"/>
       </defs>
       <use xlink:href="#DejaVuSans-2212"/>
       <use xlink:href="#DejaVuSans-30" x="83.789062"/>
       <use xlink:href="#DejaVuSans-2e" x="147.412109"/>
       <use xlink:href="#DejaVuSans-37" x="179.199219"/>
       <use xlink:href="#DejaVuSans-35" x="242.822266"/>
      </g>
     </g>
    </g>
    <g id="ytick_2">
     <g id="line2d_11">
      <g>
       <use xlink:href="#m918b24035c" x="62.3" y="235.568218" style="stroke: #000000; stroke-width: 0.8"/>
      </g>
     </g>
     <g id="text_12">
      <!-- −0.50 -->
      <g transform="translate(24.654688 239.367437)scale(0.1 -0.1)">
       <use xlink:href="#DejaVuSans-2212"/>
       <use xlink:href="#DejaVuSans-30" x="83.789062"/>
       <use xlink:href="#DejaVuSans-2e" x="147.412109"/>
       <use xlink:href="#DejaVuSans-35" x="179.199219"/>
       <use xlink:href="#DejaVuSans-30" x="242.822266"/>
      </g>
     </g>
    </g>
    <g id="ytick_3">
     <g id="line2d_12">
      <g>
       <use xlink:href="#m918b24035c" x="62.3" y="200.414207" style="stroke: #000000; stroke-width: 0.8"/>
      </g>
     </g>
     <g id="text_13">
      <!-- −0.25 -->
      <g transform="translate(24.654688 204.213425)scale(0.1 -0.1)">
       <use xlink:href="#DejaVuSans-2212"/>
       <use xlink:href="#DejaVuSans-30" x="83.789062"/>
       <use xlink:href="#DejaVuSans-2e" x="147.412109"/>
       <use xlink:href="#DejaVuSans-32" x="179.199219"/>
       <use xlink:href="#DejaVuSans-35" x="242.822266"/>
      </g>
     </g>
    </g>
    <g id="ytick_4">
     <g id="line2d_13">
      <g>
       <use xlink:href="#m918b24035c" x="62.3" y="165.260195" style="stroke: #000000; stroke-width: 0.8"/>
      </g>
     </g>
     <g id="text_14">
      <!-- 0.00 -->
      <g transform="translate(33.034375 169.059414)scale(0.1 -0.1)">
       <use xlink:href="#DejaVuSans-30"/>
       <use xlink:href="#DejaVuSans-2e" x="63.623047"/>
       <use xlink:href="#DejaVuSans-30" x="95.410156"/>
       <use xlink:href="#DejaVuSans-30" x="159.033203"/>
      </g>
     </g>
    </g>
    <g id="ytick_5">
     <g id="line2d_14">
      <g>
       <use xlink:href="#m918b24035c" x="62.3" y="130.106183" style="stroke: #000000; stroke-width: 0.8"/>
      </g>
     </g>
     <g id="text_15">
      <!-- 0.25 -->
      <g transform="translate(33.034375 133.905402)scale(0.1 -0.1)">
       <use xlink:href="#DejaVuSans-30"/>
       <use xlink:href="#DejaVuSans-2e" x="63.623047"/>
       <use xlink:href="#DejaVuSans-32" x="95.410156"/>
       <use xlink:href="#DejaVuSans-35" x="159.033203"/>
      </g>
     </g>
    </g>
    <g id="ytick_6">
     <g id="line2d_15">
      <g>
       <use xlink:href="#m918b24035c" x="62.3" y="94.952172" style="stroke: #000000; stroke-width: 0.8"/>
      </g>
     </g>
     <g id="text_16">
      <!-- 0.50 -->
      <g transform="translate(33.034375 98.75139)scale(0.1 -0.1)">
       <use xlink:href="#DejaVuSans-30"/>
       <use xlink:href="#DejaVuSans-2e" x="63.623047"/>
       <use xlink:href="#DejaVuSans-35" x="95.410156"/>
       <use xlink:href="#DejaVuSans-30" x="159.033203"/>
      </g>
     </g>
    </g>
    <g id="ytick_7">
     <g id="line2d_16">
      <g>
       <use xlink:href="#m918b24035c" x="62.3" y="59.79816" style="stroke: #000000; stroke-width: 0.8"/>
      </g>
     </g>
     <g id="text_17">
      <!-- 0.75 -->
      <g transform="translate(33.034375 63.597379)scale(0.1 -0.1)">
       <use xlink:href="#DejaVuSans-30"/>
       <use xlink:href="#DejaVuSans-2e" x="63.623047"/>
       <use xlink:href="#DejaVuSans-37" x="95.410156"/>
       <use xlink:href="#DejaVuSans-35" x="159.033203"/>
      </g>
     </g>
    </g>
    <g id="text_18">
     <!-- Displacement x 10 [mm] -->
     <g transform="translate(18.575 227.363906)rotate(-90)scale(0.1 -0.1)">
      <defs>
       <path id="DejaVuSans-44" d="M 1259 4147 
L 1259 519 
L 2022 519 
Q 2988 519 3436 956 
Q 3884 1394 3884 2338 
Q 3884 3275 3436 3711 
Q 2988 4147 2022 4147 
L 1259 4147 
z
M 628 4666 
L 1925 4666 
Q 3281 4666 3915 4102 
Q 4550 3538 4550 2338 
Q 4550 1131 3912 565 
Q 3275 0 1925 0 
L 628 0 
L 628 4666 
z
" transform="scale(0.015625)"/>
       <path id="DejaVuSans-70" d="M 1159 525 
L 1159 -1331 
L 581 -1331 
L 581 3500 
L 1159 3500 
L 1159 2969 
Q 1341 3281 1617 3432 
Q 1894 3584 2278 3584 
Q 2916 3584 3314 3078 
Q 3713 2572 3713 1747 
Q 3713 922 3314 415 
Q 2916 -91 2278 -91 
Q 1894 -91 1617 61 
Q 1341 213 1159 525 
z
M 3116 1747 
Q 3116 2381 2855 2742 
Q 2594 3103 2138 3103 
Q 1681 3103 1420 2742 
Q 1159 2381 1159 1747 
Q 1159 1113 1420 752 
Q 1681 391 2138 391 
Q 2594 391 2855 752 
Q 3116 1113 3116 1747 
z
" transform="scale(0.015625)"/>
       <path id="DejaVuSans-6c" d="M 603 4863 
L 1178 4863 
L 1178 0 
L 603 0 
L 603 4863 
z
" transform="scale(0.015625)"/>
       <path id="DejaVuSans-61" d="M 2194 1759 
Q 1497 1759 1228 1600 
Q 959 1441 959 1056 
Q 959 750 1161 570 
Q 1363 391 1709 391 
Q 2188 391 2477 730 
Q 2766 1069 2766 1631 
L 2766 1759 
L 2194 1759 
z
M 3341 1997 
L 3341 0 
L 2766 0 
L 2766 531 
Q 2569 213 2275 61 
Q 1981 -91 1556 -91 
Q 1019 -91 701 211 
Q 384 513 384 1019 
Q 384 1609 779 1909 
Q 1175 2209 1959 2209 
L 2766 2209 
L 2766 2266 
Q 2766 2663 2505 2880 
Q 2244 3097 1772 3097 
Q 1472 3097 1187 3025 
Q 903 2953 641 2809 
L 641 3341 
Q 956 3463 1253 3523 
Q 1550 3584 1831 3584 
Q 2591 3584 2966 3190 
Q 3341 2797 3341 1997 
z
" transform="scale(0.015625)"/>
       <path id="DejaVuSans-63" d="M 3122 3366 
L 3122 2828 
Q 2878 2963 2633 3030 
Q 2388 3097 2138 3097 
Q 1578 3097 1268 2742 
Q 959 2388 959 1747 
Q 959 1106 1268 751 
Q 1578 397 2138 397 
Q 2388 397 2633 464 
Q 2878 531 3122 666 
L 3122 134 
Q 2881 22 2623 -34 
Q 2366 -91 2075 -91 
Q 1284 -91 818 406 
Q 353 903 353 1747 
Q 353 2603 823 3093 
Q 1294 3584 2113 3584 
Q 2378 3584 2631 3529 
Q 2884 3475 3122 3366 
z
" transform="scale(0.015625)"/>
       <path id="DejaVuSans-6e" d="M 3513 2113 
L 3513 0 
L 2938 0 
L 2938 2094 
Q 2938 2591 2744 2837 
Q 2550 3084 2163 3084 
Q 1697 3084 1428 2787 
Q 1159 2491 1159 1978 
L 1159 0 
L 581 0 
L 581 3500 
L 1159 3500 
L 1159 2956 
Q 1366 3272 1645 3428 
Q 1925 3584 2291 3584 
Q 2894 3584 3203 3211 
Q 3513 2838 3513 2113 
z
" transform="scale(0.015625)"/>
       <path id="DejaVuSans-74" d="M 1172 4494 
L 1172 3500 
L 2356 3500 
L 2356 3053 
L 1172 3053 
L 1172 1153 
Q 1172 725 1289 603 
Q 1406 481 1766 481 
L 2356 481 
L 2356 0 
L 1766 0 
Q 1100 0 847 248 
Q 594 497 594 1153 
L 594 3053 
L 172 3053 
L 172 3500 
L 594 3500 
L 594 4494 
L 1172 4494 
z
" transform="scale(0.015625)"/>
       <path id="DejaVuSans-78" d="M 3513 3500 
L 2247 1797 
L 3578 0 
L 2900 0 
L 1881 1375 
L 863 0 
L 184 0 
L 1544 1831 
L 300 3500 
L 978 3500 
L 1906 2253 
L 2834 3500 
L 3513 3500 
z
" transform="scale(0.015625)"/>
      </defs>
      <use xlink:href="#DejaVuSans-44"/>
      <use xlink:href="#DejaVuSans-69" x="77.001953"/>
      <use xlink:href="#DejaVuSans-73" x="104.785156"/>
      <use xlink:href="#DejaVuSans-70" x="156.884766"/>
      <use xlink:href="#DejaVuSans-6c" x="220.361328"/>
      <use xlink:href="#DejaVuSans-61" x="248.144531"/>
      <use xlink:href="#DejaVuSans-63" x="309.423828"/>
      <use xlink:href="#DejaVuSans-65" x="364.404297"/>
      <use xlink:href="#DejaVuSans-6d" x="425.927734"/>
      <use xlink:href="#DejaVuSans-65" x="523.339844"/>
      <use xlink:href="#DejaVuSans-6e" x="584.863281"/>
      <use xlink:href="#DejaVuSans-74" x="648.242188"/>
      <use xlink:href="#DejaVuSans-20" x="687.451172"/>
      <use xlink:href="#DejaVuSans-78" x="719.238281"/>
      <use xlink:href="#DejaVuSans-20" x="778.417969"/>
      <use xlink:href="#DejaVuSans-31" x="810.205078"/>
      <use xlink:href="#DejaVuSans-30" x="873.828125"/>
      <use xlink:href="#DejaVuSans-20" x="937.451172"/>
      <use xlink:href="#DejaVuSans-5b" x="969.238281"/>
      <use xlink:href="#DejaVuSans-6d" x="1008.251953"/>
      <use xlink:href="#DejaVuSans-6d" x="1105.664062"/>
      <use xlink:href="#DejaVuSans-5d" x="1203.076172"/>
     </g>
    </g>
   </g>
   <g id="line2d_17">
    <path d="M 62.3 165.260195 
L 63.121755 165.149978 
L 63.569985 164.856065 
L 63.999539 164.300416 
L 64.466445 163.297636 
L 64.970704 161.647193 
L 65.530991 159.013253 
L 66.165984 154.902139 
L 66.894357 148.639474 
L 67.753465 139.178899 
L 68.818011 124.79285 
L 70.722989 95.278061 
L 72.142384 74.973706 
L 73.020167 65.353562 
L 73.673836 60.374324 
L 74.159419 58.115469 
L 74.514267 57.317217 
L 74.757059 57.207536 
L 74.943821 57.371547 
L 75.205289 57.97124 
L 75.541461 59.387069 
L 75.971015 62.264418 
L 76.49395 67.384867 
L 77.128942 75.935447 
L 77.894669 89.434993 
L 78.847157 110.439542 
L 80.154495 144.719445 
L 83.385486 231.518501 
L 84.394004 251.824102 
L 85.197082 263.889168 
L 85.850751 270.704047 
L 86.373686 274.134709 
L 86.784564 275.565919 
L 87.064707 275.912998 
L 87.25147 275.866679 
L 87.475585 275.524018 
L 87.774405 274.593137 
L 88.185282 272.46729 
L 88.708217 268.447285 
L 89.380562 261.376044 
L 90.258346 249.585312 
L 91.640389 227.550002 
L 93.806834 193.324812 
L 94.87138 180.010046 
L 95.749164 171.647438 
L 96.496214 166.492757 
L 97.149882 163.386646 
L 97.728846 161.603953 
L 98.251781 160.644968 
L 98.737364 160.18468 
L 99.241622 160.009895 
L 100.156759 160.002795 
L 100.735722 159.862564 
L 101.183952 159.509793 
L 101.613506 158.874303 
L 102.080412 157.764332 
L 102.603347 155.904031 
L 103.200987 152.869484 
L 103.873332 148.199252 
L 104.639059 141.226577 
L 105.572871 130.507885 
L 106.805504 113.532814 
L 109.532236 75.238245 
L 110.372667 66.819952 
L 111.00766 62.489515 
L 111.474566 60.624864 
L 111.810739 60.040333 
L 112.016177 60.011085 
L 112.221616 60.237822 
L 112.483084 60.904198 
L 112.837932 62.497805 
L 113.286162 65.660444 
L 113.827774 71.195134 
L 114.481442 80.310993 
L 115.284521 94.91014 
L 116.274362 117.308206 
L 117.675081 154.671597 
L 120.476519 230.245185 
L 121.522389 252.107242 
L 122.344144 265.051408 
L 123.016489 272.480391 
L 123.5581 276.287025 
L 123.968977 277.865212 
L 124.267797 278.310315 
L 124.45456 278.292972 
L 124.659999 278.016148 
L 124.940142 277.213422 
L 125.313667 275.407327 
L 125.79925 271.877339 
L 126.434242 265.447161 
L 127.255997 254.597327 
L 128.413925 236.009931 
L 131.47683 185.522463 
L 132.485347 173.141082 
L 133.325779 165.369522 
L 134.054152 160.543517 
L 134.689145 157.684935 
L 135.249432 156.075887 
L 135.753691 155.233707 
L 136.220597 154.851316 
L 136.70618 154.735563 
L 137.546611 154.824141 
L 138.162927 154.775845 
L 138.611157 154.506149 
L 139.040711 153.962942 
L 139.507617 152.968355 
L 140.011876 151.330549 
L 140.59084 148.629265 
L 141.244509 144.436297 
L 142.010235 137.949137 
L 142.925371 128.120341 
L 144.139327 112.430608 
L 146.847384 76.697849 
L 147.669139 69.027581 
L 148.285455 65.141133 
L 148.733685 63.503506 
L 149.051181 63.006736 
L 149.25662 62.99324 
L 149.462059 63.229034 
L 149.742202 63.961545 
L 150.097051 65.584361 
L 150.545281 68.762272 
L 151.105569 74.510675 
L 151.777914 83.9547 
L 152.580992 98.629587 
L 153.58951 121.518719 
L 155.008905 159.415357 
L 157.716961 232.291023 
L 158.762831 254.229983 
L 159.584586 267.240205 
L 160.256931 274.708514 
L 160.798542 278.526914 
L 161.20942 280.09734 
L 161.50824 280.525829 
L 161.695002 280.492856 
L 161.900441 280.193819 
L 162.199261 279.278154 
L 162.591462 277.242508 
L 163.095721 273.318452 
L 163.730714 266.495724 
L 164.552469 255.083785 
L 165.729072 235.281063 
L 168.791977 182.324853 
L 169.800495 169.243947 
L 170.640926 160.97673 
L 171.3693 155.801006 
L 172.022969 152.634318 
L 172.583256 150.903721 
L 173.087515 149.997105 
L 173.535745 149.603395 
L 173.983975 149.495169 
L 174.562939 149.607486 
L 175.608809 149.829111 
L 176.038362 149.674896 
L 176.44924 149.277494 
L 176.878794 148.529443 
L 177.364376 147.196329 
L 177.905987 145.014919 
L 178.522304 141.562175 
L 179.250677 136.107352 
L 180.109785 127.854486 
L 181.23036 114.71101 
L 184.386646 76.248604 
L 185.133696 70.327354 
L 185.693984 67.463839 
L 186.104861 66.357409 
L 186.385005 66.124871 
L 186.590444 66.235626 
L 186.833235 66.682558 
L 187.150731 67.796413 
L 187.561609 70.148325 
L 188.065867 74.458195 
L 188.682184 81.846206 
L 189.410557 93.469412 
L 190.307017 111.657721 
L 191.464945 140.162795 
L 195.835187 253.042539 
L 196.694295 267.453164 
L 197.385316 275.706413 
L 197.945604 280.053248 
L 198.375157 281.93058 
L 198.692654 282.507466 
L 198.898092 282.517717 
L 199.103531 282.246957 
L 199.383675 281.433558 
L 199.7572 279.576202 
L 200.242782 275.910237 
L 200.859099 269.400075 
L 201.643501 258.5607 
L 202.726724 240.170293 
L 206.499326 173.20485 
L 207.451815 161.405001 
L 208.254894 153.991374 
L 208.964591 149.35985 
L 209.580907 146.686472 
L 210.122519 145.241259 
L 210.589425 144.562322 
L 211.000302 144.311931 
L 211.429856 144.309596 
L 212.00882 144.563005 
L 213.110719 145.077224 
L 213.540272 145.021317 
L 213.932474 144.735696 
L 214.343351 144.134789 
L 214.810257 143.010557 
L 215.333192 141.121539 
L 215.930832 138.078797 
L 216.64053 133.204972 
L 217.480961 125.751739 
L 218.564184 113.973861 
L 221.739146 78.073672 
L 222.448844 72.975893 
L 222.990455 70.508874 
L 223.382656 69.608622 
L 223.644124 69.455828 
L 223.849562 69.598465 
L 224.11103 70.124947 
L 224.447202 71.385271 
L 224.876756 73.974793 
L 225.399691 78.632964 
L 226.034684 86.501243 
L 226.781734 98.73636 
L 227.69687 117.656085 
L 228.89215 147.414082 
L 232.907544 251.539182 
L 233.804004 267.371083 
L 234.532377 276.616723 
L 235.111341 281.440859 
L 235.559571 283.589179 
L 235.895744 284.288053 
L 236.101182 284.333323 
L 236.287945 284.126192 
L 236.549412 283.445177 
L 236.904261 281.809623 
L 237.371167 278.464852 
L 237.968807 272.356997 
L 238.715857 262.214342 
L 239.705699 245.473553 
L 241.479942 210.850736 
L 243.198157 179.051326 
L 244.28138 162.941974 
L 245.159164 152.945978 
L 245.92489 146.598136 
L 246.578559 142.863699 
L 247.157522 140.730227 
L 247.661781 139.650414 
L 248.091335 139.207091 
L 248.483536 139.109409 
L 248.894414 139.243805 
L 249.492054 139.703238 
L 250.631305 140.592054 
L 251.079535 140.648993 
L 251.45306 140.466783 
L 251.845261 139.997828 
L 252.274815 139.106531 
L 252.779074 137.497593 
L 253.358037 134.843774 
L 254.030382 130.652515 
L 254.852137 123.992952 
L 255.898007 113.531353 
L 259.091646 80.206401 
L 259.782667 75.766724 
L 260.286926 73.760829 
L 260.660451 73.045406 
L 260.903242 72.959848 
L 261.108681 73.131827 
L 261.370149 73.685364 
L 261.724997 75.054413 
L 262.154551 77.690116 
L 262.677486 82.371552 
L 263.312479 90.22494 
L 264.078205 102.73467 
L 264.993341 121.595063 
L 266.188621 151.185914 
L 270.147986 253.194751 
L 271.044446 269.018453 
L 271.77282 278.264215 
L 272.351784 283.081072 
L 272.800014 285.213309 
L 273.11751 285.874462 
L 273.322949 285.929174 
L 273.509711 285.727095 
L 273.771179 285.046865 
L 274.126027 283.399261 
L 274.592934 280.012614 
L 275.171897 274.026202 
L 275.900271 264.024518 
L 276.871436 247.32076 
L 278.458917 215.450797 
L 280.4386 176.794892 
L 281.540499 159.504319 
L 282.436959 148.698503 
L 283.202685 141.95748 
L 283.87503 137.877347 
L 284.453994 135.625063 
L 284.939576 134.525805 
L 285.350454 134.075 
L 285.705302 133.979925 
L 286.078827 134.115982 
L 286.56441 134.554494 
L 288.525416 136.613864 
L 288.898941 136.595961 
L 289.25379 136.345839 
L 289.645991 135.765461 
L 290.094221 134.668497 
L 290.617156 132.759156 
L 291.233472 129.607935 
L 291.980522 124.516782 
L 292.914335 116.458023 
L 294.408435 101.265528 
L 295.921211 86.636043 
L 296.72429 80.84447 
L 297.303254 78.058318 
L 297.732807 76.906622 
L 298.031627 76.617126 
L 298.237066 76.676991 
L 298.479857 77.030958 
L 298.797354 77.972915 
L 299.189555 79.911356 
L 299.675137 83.530799 
L 300.254101 89.631972 
L 300.945122 99.418038 
L 301.785554 114.759003 
L 302.831424 138.323756 
L 304.362876 178.598058 
L 306.73476 240.569456 
L 307.78063 262.16055 
L 308.602385 274.930228 
L 309.256054 282.008542 
L 309.778989 285.566626 
L 310.17119 286.976301 
L 310.451334 287.320539 
L 310.638096 287.245164 
L 310.862211 286.836118 
L 311.161031 285.75858 
L 311.571909 283.312025 
L 312.094844 278.664133 
L 312.748512 270.651918 
L 313.570267 257.636951 
L 314.709519 235.69632 
L 318.332711 163.197956 
L 319.322552 148.981674 
L 320.144307 140.13292 
L 320.854005 134.690384 
L 321.470321 131.531961 
L 321.993256 129.886035 
L 322.441486 129.136559 
L 322.796335 128.914765 
L 323.132507 128.95978 
L 323.524709 129.26638 
L 324.06632 130.010239 
L 325.989974 132.914576 
L 326.400851 133.071911 
L 326.737024 132.97407 
L 327.091872 132.618088 
L 327.50275 131.849951 
L 327.988332 130.415336 
L 328.567296 127.93315 
L 329.258317 123.893408 
L 330.117425 117.420904 
L 331.368734 106.051208 
L 333.255035 89.087982 
L 334.039437 83.973203 
L 334.599725 81.578469 
L 335.010602 80.633769 
L 335.290746 80.427486 
L 335.496185 80.516212 
L 335.738976 80.894126 
L 336.056472 81.851379 
L 336.46735 83.898193 
L 336.971609 87.69539 
L 337.569249 94.058394 
L 338.278946 104.200955 
L 339.119377 119.608009 
L 340.183924 143.583103 
L 341.771405 185.122932 
L 343.975202 241.986072 
L 345.039749 263.805557 
L 345.861504 276.437493 
L 346.515172 283.407202 
L 347.038107 286.872732 
L 347.430309 288.20667 
L 347.691776 288.490499 
L 347.878539 288.398057 
L 348.102654 287.965291 
L 348.42015 286.760033 
L 348.831027 284.197557 
L 349.353962 279.380454 
L 350.007631 271.118701 
L 350.848062 257.387799 
L 351.987314 234.74304 
L 355.666535 158.76634 
L 356.656376 144.160108 
L 357.478131 135.091498 
L 358.187829 129.541919 
L 358.785469 126.431641 
L 359.308404 124.778227 
L 359.737957 124.08046 
L 360.07413 123.896522 
L 360.391626 123.974527 
L 360.765151 124.3285 
L 361.26941 125.149528 
L 362.16587 127.121553 
L 363.193064 129.217238 
L 363.734675 129.866948 
L 364.126876 130.030738 
L 364.463049 129.928247 
L 364.817897 129.551568 
L 365.228775 128.747143 
L 365.714357 127.265795 
L 366.311997 124.650631 
L 367.040371 120.353075 
L 367.974184 113.383965 
L 371.167822 88.260228 
L 371.765462 85.679289 
L 372.195016 84.64941 
L 372.493836 84.394493 
L 372.717951 84.470531 
L 372.960742 84.824304 
L 373.278239 85.730961 
L 373.689116 87.682571 
L 374.174699 91.162402 
L 374.772339 97.228241 
L 375.46336 106.67827 
L 376.285115 121.133046 
L 377.312309 143.43675 
L 378.769056 180.505501 
L 381.327702 245.788281 
L 382.354896 266.24834 
L 383.157975 278.212851 
L 383.792967 284.747374 
L 384.297226 287.960551 
L 384.670751 289.180593 
L 384.932219 289.443277 
L 385.100305 289.355709 
L 385.32442 288.928968 
L 385.62324 287.815593 
L 386.034117 285.292995 
L 386.557052 280.495567 
L 387.210721 272.199669 
L 388.032476 258.655837 
L 389.134375 236.4546 
L 393.168445 151.398005 
L 394.120934 137.596648 
L 394.924012 128.985473 
L 395.615034 123.816058 
L 396.193997 120.99899 
L 396.67958 119.608267 
L 397.071781 119.063413 
L 397.389277 118.957229 
L 397.688097 119.097669 
L 398.061622 119.553232 
L 398.584557 120.600439 
L 399.443665 122.922468 
L 400.71365 126.258913 
L 401.292614 127.208738 
L 401.722167 127.53452 
L 402.05834 127.525699 
L 402.375836 127.285984 
L 402.749361 126.701181 
L 403.197591 125.555383 
L 403.757879 123.445626 
L 404.4489 119.873268 
L 405.34536 113.928775 
L 408.538999 91.454719 
L 409.099286 89.409739 
L 409.510164 88.632562 
L 409.790307 88.498465 
L 410.014422 88.639554 
L 410.294566 89.142882 
L 410.649415 90.327036 
L 411.078969 92.61574 
L 411.601904 96.71433 
L 412.21822 103.430586 
L 412.946594 113.963205 
L 413.824377 130.134316 
L 414.926276 154.897307 
L 416.719196 201.136974 
L 418.568145 246.903072 
L 419.614015 267.517876 
L 420.417094 279.309593 
L 421.052086 285.716077 
L 421.556345 288.827597 
L 421.92987 289.969781 
L 422.172661 290.177175 
L 422.340747 290.074164 
L 422.564862 289.624747 
L 422.882359 288.384346 
L 423.293236 285.75211 
L 423.816171 280.798343 
L 424.46984 272.276144 
L 425.291595 258.392996 
L 426.393494 235.636199 
L 430.520945 146.368976 
L 431.454757 132.616754 
L 432.23916 124.055668 
L 432.911505 118.920461 
L 433.490469 116.053873 
L 433.957375 114.707836 
L 434.3309 114.192057 
L 434.62972 114.102057 
L 434.909864 114.250831 
L 435.264712 114.723224 
L 435.750295 115.792101 
L 435.843676 116.043139 
L 435.843676 116.043139 
" clip-path="url(#pe825e62f60)" style="fill: none; stroke: #1f77b4; stroke-width: 1.5; stroke-linecap: square"/>
   </g>
   <g id="patch_3">
    <path d="M 62.3 303.64 
L 62.3 26.88 
" style="fill: none; stroke: #000000; stroke-width: 0.8; stroke-linejoin: miter; stroke-linecap: square"/>
   </g>
   <g id="patch_4">
    <path d="M 435.825 303.64 
L 435.825 26.88 
" style="fill: none; stroke: #000000; stroke-width: 0.8; stroke-linejoin: miter; stroke-linecap: square"/>
   </g>
   <g id="patch_5">
    <path d="M 62.3 303.64 
L 435.825 303.64 
" style="fill: none; stroke: #000000; stroke-width: 0.8; stroke-linejoin: miter; stroke-linecap: square"/>
   </g>
   <g id="patch_6">
    <path d="M 62.3 26.88 
L 435.825 26.88 
" style="fill: none; stroke: #000000; stroke-width: 0.8; stroke-linejoin: miter; stroke-linecap: square"/>
   </g>
   <g id="text_19">
    <!-- Displacement vs Time -->
    <g transform="translate(182.644375 20.88)scale(0.12 -0.12)">
     <defs>
      <path id="DejaVuSans-76" d="M 191 3500 
L 800 3500 
L 1894 563 
L 2988 3500 
L 3597 3500 
L 2284 0 
L 1503 0 
L 191 3500 
z
" transform="scale(0.015625)"/>
     </defs>
     <use xlink:href="#DejaVuSans-44"/>
     <use xlink:href="#DejaVuSans-69" x="77.001953"/>
     <use xlink:href="#DejaVuSans-73" x="104.785156"/>
     <use xlink:href="#DejaVuSans-70" x="156.884766"/>
     <use xlink:href="#DejaVuSans-6c" x="220.361328"/>
     <use xlink:href="#DejaVuSans-61" x="248.144531"/>
     <use xlink:href="#DejaVuSans-63" x="309.423828"/>
     <use xlink:href="#DejaVuSans-65" x="364.404297"/>
     <use xlink:href="#DejaVuSans-6d" x="425.927734"/>
     <use xlink:href="#DejaVuSans-65" x="523.339844"/>
     <use xlink:href="#DejaVuSans-6e" x="584.863281"/>
     <use xlink:href="#DejaVuSans-74" x="648.242188"/>
     <use xlink:href="#DejaVuSans-20" x="687.451172"/>
     <use xlink:href="#DejaVuSans-76" x="719.238281"/>
     <use xlink:href="#DejaVuSans-73" x="778.417969"/>
     <use xlink:href="#DejaVuSans-20" x="830.517578"/>
     <use xlink:href="#DejaVuSans-54" x="862.304688"/>
     <use xlink:href="#DejaVuSans-69" x="920.263672"/>
     <use xlink:href="#DejaVuSans-6d" x="948.046875"/>
     <use xlink:href="#DejaVuSans-65" x="1045.458984"/>
    </g>
   </g>
  </g>
 </g>
 <defs>
  <clipPath id="pe825e62f60">
   <rect x="62.3" y="26.88" width="373.525" height="276.76"/>
  </clipPath>
 </defs>
</svg>
