<?xml version="1.0" encoding="utf-8" standalone="no"?>
<!DOCTYPE svg PUBLIC "-//W3C//DTD SVG 1.1//EN"
  "http://www.w3.org/Graphics/SVG/1.1/DTD/svg11.dtd">
<svg xmlns:xlink="http://www.w3.org/1999/xlink" width="460.8pt" height="345.6pt" viewBox="0 0 460.8 345.6" xmlns="http://www.w3.org/2000/svg" version="1.1">
 <metadata>
  <rdf:RDF xmlns:dc="http://purl.org/dc/elements/1.1/" xmlns:cc="http://creativecommons.org/ns#" xmlns:rdf="http://www.w3.org/1999/02/22-rdf-syntax-ns#">
   <cc:Work>
    <dc:type rdf:resource="http://purl.org/dc/dcmitype/StillImage"/>
    <dc:date>2021-12-13T14:45:45.564944</dc:date>
    <dc:format>image/svg+xml</dc:format>
    <dc:creator>
     <cc:Agent>
      <dc:title>Matplotlib v3.5.0, https://matplotlib.org/</dc:title>
     </cc:Agent>
    </dc:creator>
   </cc:Work>
  </rdf:RDF>
 </metadata>
 <defs>
  <style type="text/css">*{stroke-linejoin: round; stroke-linecap: butt}</style>
 </defs>
 <g id="figure_1">
  <g id="patch_1">
   <path d="M 0 345.6 
L 460.8 345.6 
L 460.8 0 
L 0 0 
z
" style="fill: #ffffff"/>
  </g>
  <g id="axes_1">
   <g id="patch_2">
    <path d="M 67.862 303.64 
L 435.825 303.64 
L 435.825 26.88 
L 67.862 26.88 
z
" style="fill: #ffffff"/>
   </g>
   <g id="matplotlib.axis_1">
    <g id="xtick_1">
     <g id="line2d_1">
      <defs>
       <path id="m1953617946" d="M 0 0 
L 0 3.5 
" style="stroke: #000000; stroke-width: 0.8"/>
      </defs>
      <g>
       <use xlink:href="#m1953617946" x="67.862" y="303.64" style="stroke: #000000; stroke-width: 0.8"/>
      </g>
     </g>
     <g id="text_1">
      <!-- 0.000 -->
      <g transform="translate(53.547938 318.238437)scale(0.1 -0.1)">
       <defs>
        <path id="DejaVuSans-30" d="M 2034 4250 
Q 1547 4250 1301 3770 
Q 1056 3291 1056 2328 
Q 1056 1369 1301 889 
Q 1547 409 2034 409 
Q 2525 409 2770 889 
Q 3016 1369 3016 2328 
Q 3016 3291 2770 3770 
Q 2525 4250 2034 4250 
z
M 2034 4750 
Q 2819 4750 3233 4129 
Q 3647 3509 3647 2328 
Q 3647 1150 3233 529 
Q 2819 -91 2034 -91 
Q 1250 -91 836 529 
Q 422 1150 422 2328 
Q 422 3509 836 4129 
Q 1250 4750 2034 4750 
z
" transform="scale(0.015625)"/>
        <path id="DejaVuSans-2e" d="M 684 794 
L 1344 794 
L 1344 0 
L 684 0 
L 684 794 
z
" transform="scale(0.015625)"/>
       </defs>
       <use xlink:href="#DejaVuSans-30"/>
       <use xlink:href="#DejaVuSans-2e" x="63.623047"/>
       <use xlink:href="#DejaVuSans-30" x="95.410156"/>
       <use xlink:href="#DejaVuSans-30" x="159.033203"/>
       <use xlink:href="#DejaVuSans-30" x="222.65625"/>
      </g>
     </g>
    </g>
    <g id="xtick_2">
     <g id="line2d_2">
      <g>
       <use xlink:href="#m1953617946" x="113.857375" y="303.64" style="stroke: #000000; stroke-width: 0.8"/>
      </g>
     </g>
     <g id="text_2">
      <!-- 0.025 -->
      <g transform="translate(99.543312 318.238437)scale(0.1 -0.1)">
       <defs>
        <path id="DejaVuSans-32" d="M 1228 531 
L 3431 531 
L 3431 0 
L 469 0 
L 469 531 
Q 828 903 1448 1529 
Q 2069 2156 2228 2338 
Q 2531 2678 2651 2914 
Q 2772 3150 2772 3378 
Q 2772 3750 2511 3984 
Q 2250 4219 1831 4219 
Q 1534 4219 1204 4116 
Q 875 4013 500 3803 
L 500 4441 
Q 881 4594 1212 4672 
Q 1544 4750 1819 4750 
Q 2544 4750 2975 4387 
Q 3406 4025 3406 3419 
Q 3406 3131 3298 2873 
Q 3191 2616 2906 2266 
Q 2828 2175 2409 1742 
Q 1991 1309 1228 531 
z
" transform="scale(0.015625)"/>
        <path id="DejaVuSans-35" d="M 691 4666 
L 3169 4666 
L 3169 4134 
L 1269 4134 
L 1269 2991 
Q 1406 3038 1543 3061 
Q 1681 3084 1819 3084 
Q 2600 3084 3056 2656 
Q 3513 2228 3513 1497 
Q 3513 744 3044 326 
Q 2575 -91 1722 -91 
Q 1428 -91 1123 -41 
Q 819 9 494 109 
L 494 744 
Q 775 591 1075 516 
Q 1375 441 1709 441 
Q 2250 441 2565 725 
Q 2881 1009 2881 1497 
Q 2881 1984 2565 2268 
Q 2250 2553 1709 2553 
Q 1456 2553 1204 2497 
Q 953 2441 691 2322 
L 691 4666 
z
" transform="scale(0.015625)"/>
       </defs>
       <use xlink:href="#DejaVuSans-30"/>
       <use xlink:href="#DejaVuSans-2e" x="63.623047"/>
       <use xlink:href="#DejaVuSans-30" x="95.410156"/>
       <use xlink:href="#DejaVuSans-32" x="159.033203"/>
       <use xlink:href="#DejaVuSans-35" x="222.65625"/>
      </g>
     </g>
    </g>
    <g id="xtick_3">
     <g id="line2d_3">
      <g>
       <use xlink:href="#m1953617946" x="159.85275" y="303.64" style="stroke: #000000; stroke-width: 0.8"/>
      </g>
     </g>
     <g id="text_3">
      <!-- 0.050 -->
      <g transform="translate(145.538688 318.238437)scale(0.1 -0.1)">
       <use xlink:href="#DejaVuSans-30"/>
       <use xlink:href="#DejaVuSans-2e" x="63.623047"/>
       <use xlink:href="#DejaVuSans-30" x="95.410156"/>
       <use xlink:href="#DejaVuSans-35" x="159.033203"/>
       <use xlink:href="#DejaVuSans-30" x="222.65625"/>
      </g>
     </g>
    </g>
    <g id="xtick_4">
     <g id="line2d_4">
      <g>
       <use xlink:href="#m1953617946" x="205.848125" y="303.64" style="stroke: #000000; stroke-width: 0.8"/>
      </g>
     </g>
     <g id="text_4">
      <!-- 0.075 -->
      <g transform="translate(191.534063 318.238437)scale(0.1 -0.1)">
       <defs>
        <path id="DejaVuSans-37" d="M 525 4666 
L 3525 4666 
L 3525 4397 
L 1831 0 
L 1172 0 
L 2766 4134 
L 525 4134 
L 525 4666 
z
" transform="scale(0.015625)"/>
       </defs>
       <use xlink:href="#DejaVuSans-30"/>
       <use xlink:href="#DejaVuSans-2e" x="63.623047"/>
       <use xlink:href="#DejaVuSans-30" x="95.410156"/>
       <use xlink:href="#DejaVuSans-37" x="159.033203"/>
       <use xlink:href="#DejaVuSans-35" x="222.65625"/>
      </g>
     </g>
    </g>
    <g id="xtick_5">
     <g id="line2d_5">
      <g>
       <use xlink:href="#m1953617946" x="251.8435" y="303.64" style="stroke: #000000; stroke-width: 0.8"/>
      </g>
     </g>
     <g id="text_5">
      <!-- 0.100 -->
      <g transform="translate(237.529438 318.238437)scale(0.1 -0.1)">
       <defs>
        <path id="DejaVuSans-31" d="M 794 531 
L 1825 531 
L 1825 4091 
L 703 3866 
L 703 4441 
L 1819 4666 
L 2450 4666 
L 2450 531 
L 3481 531 
L 3481 0 
L 794 0 
L 794 531 
z
" transform="scale(0.015625)"/>
       </defs>
       <use xlink:href="#DejaVuSans-30"/>
       <use xlink:href="#DejaVuSans-2e" x="63.623047"/>
       <use xlink:href="#DejaVuSans-31" x="95.410156"/>
       <use xlink:href="#DejaVuSans-30" x="159.033203"/>
       <use xlink:href="#DejaVuSans-30" x="222.65625"/>
      </g>
     </g>
    </g>
    <g id="xtick_6">
     <g id="line2d_6">
      <g>
       <use xlink:href="#m1953617946" x="297.838875" y="303.64" style="stroke: #000000; stroke-width: 0.8"/>
      </g>
     </g>
     <g id="text_6">
      <!-- 0.125 -->
      <g transform="translate(283.524812 318.238437)scale(0.1 -0.1)">
       <use xlink:href="#DejaVuSans-30"/>
       <use xlink:href="#DejaVuSans-2e" x="63.623047"/>
       <use xlink:href="#DejaVuSans-31" x="95.410156"/>
       <use xlink:href="#DejaVuSans-32" x="159.033203"/>
       <use xlink:href="#DejaVuSans-35" x="222.65625"/>
      </g>
     </g>
    </g>
    <g id="xtick_7">
     <g id="line2d_7">
      <g>
       <use xlink:href="#m1953617946" x="343.83425" y="303.64" style="stroke: #000000; stroke-width: 0.8"/>
      </g>
     </g>
     <g id="text_7">
      <!-- 0.150 -->
      <g transform="translate(329.520188 318.238437)scale(0.1 -0.1)">
       <use xlink:href="#DejaVuSans-30"/>
       <use xlink:href="#DejaVuSans-2e" x="63.623047"/>
       <use xlink:href="#DejaVuSans-31" x="95.410156"/>
       <use xlink:href="#DejaVuSans-35" x="159.033203"/>
       <use xlink:href="#DejaVuSans-30" x="222.65625"/>
      </g>
     </g>
    </g>
    <g id="xtick_8">
     <g id="line2d_8">
      <g>
       <use xlink:href="#m1953617946" x="389.829625" y="303.64" style="stroke: #000000; stroke-width: 0.8"/>
      </g>
     </g>
     <g id="text_8">
      <!-- 0.175 -->
      <g transform="translate(375.515563 318.238437)scale(0.1 -0.1)">
       <use xlink:href="#DejaVuSans-30"/>
       <use xlink:href="#DejaVuSans-2e" x="63.623047"/>
       <use xlink:href="#DejaVuSans-31" x="95.410156"/>
       <use xlink:href="#DejaVuSans-37" x="159.033203"/>
       <use xlink:href="#DejaVuSans-35" x="222.65625"/>
      </g>
     </g>
    </g>
    <g id="xtick_9">
     <g id="line2d_9">
      <g>
       <use xlink:href="#m1953617946" x="435.825" y="303.64" style="stroke: #000000; stroke-width: 0.8"/>
      </g>
     </g>
     <g id="text_9">
      <!-- 0.200 -->
      <g transform="translate(421.510938 318.238437)scale(0.1 -0.1)">
       <use xlink:href="#DejaVuSans-30"/>
       <use xlink:href="#DejaVuSans-2e" x="63.623047"/>
       <use xlink:href="#DejaVuSans-32" x="95.410156"/>
       <use xlink:href="#DejaVuSans-30" x="159.033203"/>
       <use xlink:href="#DejaVuSans-30" x="222.65625"/>
      </g>
     </g>
    </g>
    <g id="text_10">
     <!-- Time -->
     <g transform="translate(239.609906 331.916562)scale(0.1 -0.1)">
      <defs>
       <path id="DejaVuSans-54" d="M -19 4666 
L 3928 4666 
L 3928 4134 
L 2272 4134 
L 2272 0 
L 1638 0 
L 1638 4134 
L -19 4134 
L -19 4666 
z
" transform="scale(0.015625)"/>
       <path id="DejaVuSans-69" d="M 603 3500 
L 1178 3500 
L 1178 0 
L 603 0 
L 603 3500 
z
M 603 4863 
L 1178 4863 
L 1178 4134 
L 603 4134 
L 603 4863 
z
" transform="scale(0.015625)"/>
       <path id="DejaVuSans-6d" d="M 3328 2828 
Q 3544 3216 3844 3400 
Q 4144 3584 4550 3584 
Q 5097 3584 5394 3201 
Q 5691 2819 5691 2113 
L 5691 0 
L 5113 0 
L 5113 2094 
Q 5113 2597 4934 2840 
Q 4756 3084 4391 3084 
Q 3944 3084 3684 2787 
Q 3425 2491 3425 1978 
L 3425 0 
L 2847 0 
L 2847 2094 
Q 2847 2600 2669 2842 
Q 2491 3084 2119 3084 
Q 1678 3084 1418 2786 
Q 1159 2488 1159 1978 
L 1159 0 
L 581 0 
L 581 3500 
L 1159 3500 
L 1159 2956 
Q 1356 3278 1631 3431 
Q 1906 3584 2284 3584 
Q 2666 3584 2933 3390 
Q 3200 3197 3328 2828 
z
" transform="scale(0.015625)"/>
       <path id="DejaVuSans-65" d="M 3597 1894 
L 3597 1613 
L 953 1613 
Q 991 1019 1311 708 
Q 1631 397 2203 397 
Q 2534 397 2845 478 
Q 3156 559 3463 722 
L 3463 178 
Q 3153 47 2828 -22 
Q 2503 -91 2169 -91 
Q 1331 -91 842 396 
Q 353 884 353 1716 
Q 353 2575 817 3079 
Q 1281 3584 2069 3584 
Q 2775 3584 3186 3129 
Q 3597 2675 3597 1894 
z
M 3022 2063 
Q 3016 2534 2758 2815 
Q 2500 3097 2075 3097 
Q 1594 3097 1305 2825 
Q 1016 2553 972 2059 
L 3022 2063 
z
" transform="scale(0.015625)"/>
      </defs>
      <use xlink:href="#DejaVuSans-54"/>
      <use xlink:href="#DejaVuSans-69" x="57.958984"/>
      <use xlink:href="#DejaVuSans-6d" x="85.742188"/>
      <use xlink:href="#DejaVuSans-65" x="183.154297"/>
     </g>
    </g>
   </g>
   <g id="matplotlib.axis_2">
    <g id="ytick_1">
     <g id="line2d_10">
      <defs>
       <path id="m34d7a10af9" d="M 0 0 
L -3.5 0 
" style="stroke: #000000; stroke-width: 0.8"/>
      </defs>
      <g>
       <use xlink:href="#m34d7a10af9" x="67.862" y="301.073806" style="stroke: #000000; stroke-width: 0.8"/>
      </g>
     </g>
     <g id="text_11">
      <!-- −1.00 -->
      <g transform="translate(30.216688 304.873025)scale(0.1 -0.1)">
       <defs>
        <path id="DejaVuSans-2212" d="M 678 2272 
L 4684 2272 
L 4684 1741 
L 678 1741 
L 678 2272 
z
" transform="scale(0.015625)"/>
       </defs>
       <use xlink:href="#DejaVuSans-2212"/>
       <use xlink:href="#DejaVuSans-31" x="83.789062"/>
       <use xlink:href="#DejaVuSans-2e" x="147.412109"/>
       <use xlink:href="#DejaVuSans-30" x="179.199219"/>
       <use xlink:href="#DejaVuSans-30" x="242.822266"/>
      </g>
     </g>
    </g>
    <g id="ytick_2">
     <g id="line2d_11">
      <g>
       <use xlink:href="#m34d7a10af9" x="67.862" y="267.120439" style="stroke: #000000; stroke-width: 0.8"/>
      </g>
     </g>
     <g id="text_12">
      <!-- −0.75 -->
      <g transform="translate(30.216688 270.919657)scale(0.1 -0.1)">
       <use xlink:href="#DejaVuSans-2212"/>
       <use xlink:href="#DejaVuSans-30" x="83.789062"/>
       <use xlink:href="#DejaVuSans-2e" x="147.412109"/>
       <use xlink:href="#DejaVuSans-37" x="179.199219"/>
       <use xlink:href="#DejaVuSans-35" x="242.822266"/>
      </g>
     </g>
    </g>
    <g id="ytick_3">
     <g id="line2d_12">
      <g>
       <use xlink:href="#m34d7a10af9" x="67.862" y="233.167071" style="stroke: #000000; stroke-width: 0.8"/>
      </g>
     </g>
     <g id="text_13">
      <!-- −0.50 -->
      <g transform="translate(30.216688 236.96629)scale(0.1 -0.1)">
       <use xlink:href="#DejaVuSans-2212"/>
       <use xlink:href="#DejaVuSans-30" x="83.789062"/>
       <use xlink:href="#DejaVuSans-2e" x="147.412109"/>
       <use xlink:href="#DejaVuSans-35" x="179.199219"/>
       <use xlink:href="#DejaVuSans-30" x="242.822266"/>
      </g>
     </g>
    </g>
    <g id="ytick_4">
     <g id="line2d_13">
      <g>
       <use xlink:href="#m34d7a10af9" x="67.862" y="199.213703" style="stroke: #000000; stroke-width: 0.8"/>
      </g>
     </g>
     <g id="text_14">
      <!-- −0.25 -->
      <g transform="translate(30.216688 203.012922)scale(0.1 -0.1)">
       <use xlink:href="#DejaVuSans-2212"/>
       <use xlink:href="#DejaVuSans-30" x="83.789062"/>
       <use xlink:href="#DejaVuSans-2e" x="147.412109"/>
       <use xlink:href="#DejaVuSans-32" x="179.199219"/>
       <use xlink:href="#DejaVuSans-35" x="242.822266"/>
      </g>
     </g>
    </g>
    <g id="ytick_5">
     <g id="line2d_14">
      <g>
       <use xlink:href="#m34d7a10af9" x="67.862" y="165.260336" style="stroke: #000000; stroke-width: 0.8"/>
      </g>
     </g>
     <g id="text_15">
      <!-- 0.00 -->
      <g transform="translate(38.596375 169.059555)scale(0.1 -0.1)">
       <use xlink:href="#DejaVuSans-30"/>
       <use xlink:href="#DejaVuSans-2e" x="63.623047"/>
       <use xlink:href="#DejaVuSans-30" x="95.410156"/>
       <use xlink:href="#DejaVuSans-30" x="159.033203"/>
      </g>
     </g>
    </g>
    <g id="ytick_6">
     <g id="line2d_15">
      <g>
       <use xlink:href="#m34d7a10af9" x="67.862" y="131.306968" style="stroke: #000000; stroke-width: 0.8"/>
      </g>
     </g>
     <g id="text_16">
      <!-- 0.25 -->
      <g transform="translate(38.596375 135.106187)scale(0.1 -0.1)">
       <use xlink:href="#DejaVuSans-30"/>
       <use xlink:href="#DejaVuSans-2e" x="63.623047"/>
       <use xlink:href="#DejaVuSans-32" x="95.410156"/>
       <use xlink:href="#DejaVuSans-35" x="159.033203"/>
      </g>
     </g>
    </g>
    <g id="ytick_7">
     <g id="line2d_16">
      <g>
       <use xlink:href="#m34d7a10af9" x="67.862" y="97.353601" style="stroke: #000000; stroke-width: 0.8"/>
      </g>
     </g>
     <g id="text_17">
      <!-- 0.50 -->
      <g transform="translate(38.596375 101.152819)scale(0.1 -0.1)">
       <use xlink:href="#DejaVuSans-30"/>
       <use xlink:href="#DejaVuSans-2e" x="63.623047"/>
       <use xlink:href="#DejaVuSans-35" x="95.410156"/>
       <use xlink:href="#DejaVuSans-30" x="159.033203"/>
      </g>
     </g>
    </g>
    <g id="ytick_8">
     <g id="line2d_17">
      <g>
       <use xlink:href="#m34d7a10af9" x="67.862" y="63.400233" style="stroke: #000000; stroke-width: 0.8"/>
      </g>
     </g>
     <g id="text_18">
      <!-- 0.75 -->
      <g transform="translate(38.596375 67.199452)scale(0.1 -0.1)">
       <use xlink:href="#DejaVuSans-30"/>
       <use xlink:href="#DejaVuSans-2e" x="63.623047"/>
       <use xlink:href="#DejaVuSans-37" x="95.410156"/>
       <use xlink:href="#DejaVuSans-35" x="159.033203"/>
      </g>
     </g>
    </g>
    <g id="ytick_9">
     <g id="line2d_18">
      <g>
       <use xlink:href="#m34d7a10af9" x="67.862" y="29.446865" style="stroke: #000000; stroke-width: 0.8"/>
      </g>
     </g>
     <g id="text_19">
      <!-- 1.00 -->
      <g transform="translate(38.596375 33.246084)scale(0.1 -0.1)">
       <use xlink:href="#DejaVuSans-31"/>
       <use xlink:href="#DejaVuSans-2e" x="63.623047"/>
       <use xlink:href="#DejaVuSans-30" x="95.410156"/>
       <use xlink:href="#DejaVuSans-30" x="159.033203"/>
      </g>
     </g>
    </g>
    <g id="text_20">
     <!-- Displacement x $\mathregular{10^4}$ -->
     <g transform="translate(24.116688 214.56)rotate(-90)scale(0.1 -0.1)">
      <defs>
       <path id="DejaVuSans-44" d="M 1259 4147 
L 1259 519 
L 2022 519 
Q 2988 519 3436 956 
Q 3884 1394 3884 2338 
Q 3884 3275 3436 3711 
Q 2988 4147 2022 4147 
L 1259 4147 
z
M 628 4666 
L 1925 4666 
Q 3281 4666 3915 4102 
Q 4550 3538 4550 2338 
Q 4550 1131 3912 565 
Q 3275 0 1925 0 
L 628 0 
L 628 4666 
z
" transform="scale(0.015625)"/>
       <path id="DejaVuSans-73" d="M 2834 3397 
L 2834 2853 
Q 2591 2978 2328 3040 
Q 2066 3103 1784 3103 
Q 1356 3103 1142 2972 
Q 928 2841 928 2578 
Q 928 2378 1081 2264 
Q 1234 2150 1697 2047 
L 1894 2003 
Q 2506 1872 2764 1633 
Q 3022 1394 3022 966 
Q 3022 478 2636 193 
Q 2250 -91 1575 -91 
Q 1294 -91 989 -36 
Q 684 19 347 128 
L 347 722 
Q 666 556 975 473 
Q 1284 391 1588 391 
Q 1994 391 2212 530 
Q 2431 669 2431 922 
Q 2431 1156 2273 1281 
Q 2116 1406 1581 1522 
L 1381 1569 
Q 847 1681 609 1914 
Q 372 2147 372 2553 
Q 372 3047 722 3315 
Q 1072 3584 1716 3584 
Q 2034 3584 2315 3537 
Q 2597 3491 2834 3397 
z
" transform="scale(0.015625)"/>
       <path id="DejaVuSans-70" d="M 1159 525 
L 1159 -1331 
L 581 -1331 
L 581 3500 
L 1159 3500 
L 1159 2969 
Q 1341 3281 1617 3432 
Q 1894 3584 2278 3584 
Q 2916 3584 3314 3078 
Q 3713 2572 3713 1747 
Q 3713 922 3314 415 
Q 2916 -91 2278 -91 
Q 1894 -91 1617 61 
Q 1341 213 1159 525 
z
M 3116 1747 
Q 3116 2381 2855 2742 
Q 2594 3103 2138 3103 
Q 1681 3103 1420 2742 
Q 1159 2381 1159 1747 
Q 1159 1113 1420 752 
Q 1681 391 2138 391 
Q 2594 391 2855 752 
Q 3116 1113 3116 1747 
z
" transform="scale(0.015625)"/>
       <path id="DejaVuSans-6c" d="M 603 4863 
L 1178 4863 
L 1178 0 
L 603 0 
L 603 4863 
z
" transform="scale(0.015625)"/>
       <path id="DejaVuSans-61" d="M 2194 1759 
Q 1497 1759 1228 1600 
Q 959 1441 959 1056 
Q 959 750 1161 570 
Q 1363 391 1709 391 
Q 2188 391 2477 730 
Q 2766 1069 2766 1631 
L 2766 1759 
L 2194 1759 
z
M 3341 1997 
L 3341 0 
L 2766 0 
L 2766 531 
Q 2569 213 2275 61 
Q 1981 -91 1556 -91 
Q 1019 -91 701 211 
Q 384 513 384 1019 
Q 384 1609 779 1909 
Q 1175 2209 1959 2209 
L 2766 2209 
L 2766 2266 
Q 2766 2663 2505 2880 
Q 2244 3097 1772 3097 
Q 1472 3097 1187 3025 
Q 903 2953 641 2809 
L 641 3341 
Q 956 3463 1253 3523 
Q 1550 3584 1831 3584 
Q 2591 3584 2966 3190 
Q 3341 2797 3341 1997 
z
" transform="scale(0.015625)"/>
       <path id="DejaVuSans-63" d="M 3122 3366 
L 3122 2828 
Q 2878 2963 2633 3030 
Q 2388 3097 2138 3097 
Q 1578 3097 1268 2742 
Q 959 2388 959 1747 
Q 959 1106 1268 751 
Q 1578 397 2138 397 
Q 2388 397 2633 464 
Q 2878 531 3122 666 
L 3122 134 
Q 2881 22 2623 -34 
Q 2366 -91 2075 -91 
Q 1284 -91 818 406 
Q 353 903 353 1747 
Q 353 2603 823 3093 
Q 1294 3584 2113 3584 
Q 2378 3584 2631 3529 
Q 2884 3475 3122 3366 
z
" transform="scale(0.015625)"/>
       <path id="DejaVuSans-6e" d="M 3513 2113 
L 3513 0 
L 2938 0 
L 2938 2094 
Q 2938 2591 2744 2837 
Q 2550 3084 2163 3084 
Q 1697 3084 1428 2787 
Q 1159 2491 1159 1978 
L 1159 0 
L 581 0 
L 581 3500 
L 1159 3500 
L 1159 2956 
Q 1366 3272 1645 3428 
Q 1925 3584 2291 3584 
Q 2894 3584 3203 3211 
Q 3513 2838 3513 2113 
z
" transform="scale(0.015625)"/>
       <path id="DejaVuSans-74" d="M 1172 4494 
L 1172 3500 
L 2356 3500 
L 2356 3053 
L 1172 3053 
L 1172 1153 
Q 1172 725 1289 603 
Q 1406 481 1766 481 
L 2356 481 
L 2356 0 
L 1766 0 
Q 1100 0 847 248 
Q 594 497 594 1153 
L 594 3053 
L 172 3053 
L 172 3500 
L 594 3500 
L 594 4494 
L 1172 4494 
z
" transform="scale(0.015625)"/>
       <path id="DejaVuSans-20" transform="scale(0.015625)"/>
       <path id="DejaVuSans-78" d="M 3513 3500 
L 2247 1797 
L 3578 0 
L 2900 0 
L 1881 1375 
L 863 0 
L 184 0 
L 1544 1831 
L 300 3500 
L 978 3500 
L 1906 2253 
L 2834 3500 
L 3513 3500 
z
" transform="scale(0.015625)"/>
       <path id="DejaVuSans-34" d="M 2419 4116 
L 825 1625 
L 2419 1625 
L 2419 4116 
z
M 2253 4666 
L 3047 4666 
L 3047 1625 
L 3713 1625 
L 3713 1100 
L 3047 1100 
L 3047 0 
L 2419 0 
L 2419 1100 
L 313 1100 
L 313 1709 
L 2253 4666 
z
" transform="scale(0.015625)"/>
      </defs>
      <use xlink:href="#DejaVuSans-44" transform="translate(0 0.684375)"/>
      <use xlink:href="#DejaVuSans-69" transform="translate(77.001953 0.684375)"/>
      <use xlink:href="#DejaVuSans-73" transform="translate(104.785156 0.684375)"/>
      <use xlink:href="#DejaVuSans-70" transform="translate(156.884766 0.684375)"/>
      <use xlink:href="#DejaVuSans-6c" transform="translate(220.361328 0.684375)"/>
      <use xlink:href="#DejaVuSans-61" transform="translate(248.144531 0.684375)"/>
      <use xlink:href="#DejaVuSans-63" transform="translate(309.423828 0.684375)"/>
      <use xlink:href="#DejaVuSans-65" transform="translate(364.404297 0.684375)"/>
      <use xlink:href="#DejaVuSans-6d" transform="translate(425.927734 0.684375)"/>
      <use xlink:href="#DejaVuSans-65" transform="translate(523.339844 0.684375)"/>
      <use xlink:href="#DejaVuSans-6e" transform="translate(584.863281 0.684375)"/>
      <use xlink:href="#DejaVuSans-74" transform="translate(648.242188 0.684375)"/>
      <use xlink:href="#DejaVuSans-20" transform="translate(687.451172 0.684375)"/>
      <use xlink:href="#DejaVuSans-78" transform="translate(719.238281 0.684375)"/>
      <use xlink:href="#DejaVuSans-20" transform="translate(778.417969 0.684375)"/>
      <use xlink:href="#DejaVuSans-31" transform="translate(810.205078 0.684375)"/>
      <use xlink:href="#DejaVuSans-30" transform="translate(873.828125 0.684375)"/>
      <use xlink:href="#DejaVuSans-34" transform="translate(938.408203 38.965625)scale(0.7)"/>
     </g>
    </g>
   </g>
   <g id="line2d_19">
    <path d="M 67.862 165.260336 
L 68.671519 165.153847 
L 69.131472 164.85233 
L 69.573028 164.270252 
L 70.032982 163.262436 
L 70.54813 161.540297 
L 71.118473 158.784461 
L 71.762408 154.481405 
L 72.498334 147.929341 
L 73.344649 138.269535 
L 74.393343 123.532766 
L 75.975584 97.653151 
L 77.90739 66.83217 
L 78.864094 54.915536 
L 79.60002 48.287447 
L 80.170362 44.976062 
L 80.59352 43.650087 
L 80.88789 43.323204 
L 81.09027 43.388435 
L 81.311048 43.732161 
L 81.623816 44.708931 
L 82.028575 46.825232 
L 82.525326 50.719099 
L 83.132464 57.346385 
L 83.886789 68.217267 
L 84.825094 85.196167 
L 86.149761 113.668986 
L 89.24065 181.441765 
L 90.307743 199.427761 
L 91.190854 210.807264 
L 91.92678 217.686497 
L 92.570715 221.78888 
L 93.104262 223.91337 
L 93.545817 224.87418 
L 93.895382 225.174047 
L 94.171354 225.15299 
L 94.484123 224.884863 
L 94.888882 224.207527 
L 95.459225 222.764464 
L 96.471123 219.461691 
L 97.611809 215.968579 
L 98.218947 214.747569 
L 98.660503 214.28968 
L 98.99167 214.223975 
L 99.304438 214.399096 
L 99.654003 214.881147 
L 100.077161 215.880782 
L 100.592309 217.71436 
L 101.236244 220.917645 
L 102.045763 226.19813 
L 103.223244 235.559552 
L 105.118254 250.553809 
L 105.872578 254.832138 
L 106.424522 256.854816 
L 106.829282 257.616731 
L 107.105254 257.747534 
L 107.326032 257.610804 
L 107.602004 257.124682 
L 107.951569 255.986203 
L 108.393124 253.681808 
L 108.926671 249.571063 
L 109.552208 242.889333 
L 110.306532 232.233998 
L 111.208041 216.102662 
L 112.367125 191.018645 
L 114.666894 134.918405 
L 116.175542 101.257011 
L 117.205838 82.862151 
L 118.033755 71.719937 
L 118.714487 65.26617 
L 119.266431 61.886225 
L 119.707987 60.36848 
L 120.039153 59.903937 
L 120.259931 59.904817 
L 120.499107 60.17672 
L 120.811876 60.940364 
L 121.235033 62.664672 
L 121.786978 65.989688 
L 122.504505 71.830839 
L 123.516404 82.108822 
L 126.5337 113.94413 
L 127.416812 120.458755 
L 128.134339 124.244186 
L 128.741478 126.366329 
L 129.256627 127.430156 
L 129.679784 127.846511 
L 130.047747 127.915389 
L 130.434108 127.741064 
L 130.930858 127.232569 
L 131.813969 125.926385 
L 132.641886 124.851112 
L 133.10184 124.57861 
L 133.451405 124.619482 
L 133.782571 124.904513 
L 134.150534 125.550019 
L 134.573692 126.780738 
L 135.070442 128.974569 
L 135.640785 132.592545 
L 136.28472 138.190044 
L 137.039044 146.846678 
L 137.922155 159.765192 
L 139.007646 179.200948 
L 140.626683 212.768003 
L 142.74247 255.771494 
L 143.772767 272.355465 
L 144.563887 281.863009 
L 145.207823 287.156156 
L 145.704573 289.619196 
L 146.072536 290.503789 
L 146.311712 290.645858 
L 146.514091 290.499944 
L 146.771665 289.963683 
L 147.12123 288.616518 
L 147.562786 285.923465 
L 148.11473 281.081409 
L 148.81386 272.813029 
L 149.696971 259.523733 
L 150.966444 236.654659 
L 153.946944 181.879286 
L 154.995638 167.105097 
L 155.87875 157.594716 
L 156.633074 151.6864 
L 157.295407 148.100171 
L 157.884148 146.036448 
L 158.399296 144.967809 
L 158.85925 144.483312 
L 159.300805 144.333748 
L 159.815954 144.415073 
L 161.214213 144.761378 
L 161.618972 144.564948 
L 162.023732 144.105551 
L 162.465287 143.232851 
L 162.962037 141.706341 
L 163.513982 139.246944 
L 164.157917 135.279013 
L 164.893843 129.259269 
L 165.776954 120.061293 
L 166.91764 105.629866 
L 170.229307 62.151934 
L 171.002029 55.454837 
L 171.59077 52.049594 
L 172.032325 50.596903 
L 172.345094 50.18137 
L 172.547473 50.194082 
L 172.768251 50.465936 
L 173.062622 51.253821 
L 173.448983 53.034736 
L 173.927335 56.418159 
L 174.516076 62.345118 
L 175.215205 71.788938 
L 176.079918 86.705235 
L 177.202205 110.274755 
L 179.281196 159.824198 
L 180.918632 196.293083 
L 182.004123 215.845525 
L 182.887234 228.022013 
L 183.62316 235.357735 
L 184.248697 239.564595 
L 184.763845 241.680737 
L 185.168604 242.541032 
L 185.462975 242.753818 
L 185.720549 242.674602 
L 186.014919 242.303188 
L 186.40128 241.404999 
L 186.916429 239.589296 
L 187.652355 236.081948 
L 190.688049 220.542877 
L 191.27679 218.995642 
L 191.718346 218.370101 
L 192.067911 218.217854 
L 192.362281 218.327812 
L 192.693448 218.709325 
L 193.116605 219.581047 
L 193.650152 221.249756 
L 194.349281 224.250954 
L 195.397976 229.880335 
L 197.035411 238.570004 
L 197.716143 241.023133 
L 198.194495 242.013918 
L 198.525661 242.269034 
L 198.764837 242.209292 
L 199.022411 241.89951 
L 199.353578 241.104645 
L 199.758337 239.49174 
L 200.255087 236.496068 
L 200.843828 231.438691 
L 201.52456 223.529037 
L 202.334078 211.338818 
L 203.30918 193.06978 
L 204.615449 164.025242 
L 208.037505 85.868752 
L 209.031005 69.163942 
L 209.822125 59.327135 
L 210.466061 53.847162 
L 210.981209 51.158835 
L 211.36757 50.133616 
L 211.643542 49.913693 
L 211.845922 50.018359 
L 212.103496 50.469385 
L 212.453061 51.632141 
L 212.894616 53.958936 
L 213.464959 58.257025 
L 214.200885 65.637948 
L 215.212783 78.264139 
L 218.92921 126.949993 
L 219.830719 134.882513 
L 220.585043 139.698589 
L 221.247377 142.587134 
L 221.817719 144.163575 
L 222.314469 144.949629 
L 222.756025 145.277599 
L 223.215979 145.343735 
L 223.841516 145.172767 
L 224.761423 144.936592 
L 225.184581 145.058981 
L 225.570942 145.403887 
L 225.975701 146.075291 
L 226.435655 147.307094 
L 226.950803 149.381126 
L 227.539544 152.771536 
L 228.201877 158.007974 
L 228.956201 165.884667 
L 229.839313 177.628652 
L 230.924803 195.288187 
L 232.599035 226.740633 
L 234.512443 261.554951 
L 235.505943 275.806028 
L 236.260267 283.780108 
L 236.867406 288.073764 
L 237.32736 289.952801 
L 237.658526 290.542084 
L 237.879304 290.57377 
L 238.081684 290.347557 
L 238.357656 289.645641 
L 238.725619 288.008354 
L 239.185573 284.856484 
L 239.774314 279.107235 
L 240.491841 269.713642 
L 241.393351 254.768832 
L 242.662823 229.589265 
L 245.882499 164.112181 
L 246.931194 147.950677 
L 247.795907 137.764685 
L 248.550231 131.313415 
L 249.194166 127.538905 
L 249.746111 125.46665 
L 250.224463 124.437093 
L 250.629222 124.043307 
L 250.978787 123.998959 
L 251.34675 124.192706 
L 251.8435 124.742077 
L 252.892195 126.354258 
L 253.609722 127.235326 
L 254.069676 127.481106 
L 254.419241 127.431237 
L 254.768806 127.137797 
L 255.155167 126.494444 
L 255.615121 125.2498 
L 256.148667 123.11047 
L 256.774204 119.62492 
L 257.528528 114.065428 
L 258.466834 105.365249 
L 259.957084 89.112385 
L 261.576121 72.151369 
L 262.422436 65.455672 
L 263.047973 62.090593 
L 263.507927 60.658242 
L 263.839094 60.232986 
L 264.059872 60.247832 
L 264.280649 60.509785 
L 264.57502 61.253689 
L 264.961381 62.931018 
L 265.439733 66.129919 
L 266.010075 71.570706 
L 266.690807 80.32073 
L 267.518724 94.02569 
L 268.567418 115.428388 
L 270.112863 152.187981 
L 272.541419 209.58193 
L 273.645308 230.4134 
L 274.528419 243.205166 
L 275.264345 250.894923 
L 275.871484 255.141426 
L 276.368234 257.227181 
L 276.754595 258.019479 
L 277.030567 258.162154 
L 277.251345 258.034481 
L 277.527317 257.587909 
L 277.89528 256.529503 
L 278.39203 254.349101 
L 279.054364 250.331314 
L 280.011068 242.995766 
L 282.605207 222.437964 
L 283.414725 218.021233 
L 284.058661 215.631379 
L 284.573809 214.481221 
L 284.978568 214.04838 
L 285.309735 213.989288 
L 285.622503 214.162126 
L 286.008865 214.655326 
L 286.524013 215.72508 
L 287.259939 217.844745 
L 289.191744 223.67017 
L 289.688495 224.447426 
L 290.038059 224.649957 
L 290.314032 224.572504 
L 290.608402 224.232193 
L 290.957967 223.449659 
L 291.381124 221.903628 
L 291.877874 219.184434 
L 292.466615 214.61576 
L 293.147347 207.447849 
L 293.938467 196.597913 
L 294.876773 180.492093 
L 296.091051 155.513497 
L 300.101847 69.650478 
L 300.984959 56.79741 
L 301.702486 49.308937 
L 302.272829 45.426355 
L 302.714385 43.724847 
L 303.027153 43.212818 
L 303.247931 43.195249 
L 303.468709 43.458917 
L 303.763079 44.240404 
L 304.14944 45.990256 
L 304.64619 49.386886 
L 305.271728 55.339702 
L 306.081246 65.396115 
L 307.185135 82.191163 
L 310.772774 138.94754 
L 311.729478 149.699673 
L 312.538997 156.509589 
L 313.256525 160.797441 
L 313.882062 163.305136 
L 314.434006 164.698056 
L 314.949154 165.43737 
L 315.427506 165.762536 
L 315.997849 165.869644 
L 317.138534 166.014513 
L 317.58009 166.344142 
L 318.021646 166.974809 
L 318.481599 168.045537 
L 318.996747 169.850457 
L 319.56709 172.708996 
L 320.211025 177.135304 
L 320.946951 183.827024 
L 321.811664 193.865705 
L 322.878757 209.052428 
L 324.589785 237.149242 
L 326.319211 264.304098 
L 327.275915 276.01318 
L 327.993443 282.324099 
L 328.545387 285.455837 
L 328.968545 286.746308 
L 329.244517 287.044413 
L 329.446897 286.984128 
L 329.667674 286.646132 
L 329.980443 285.677917 
L 330.385202 283.573078 
L 330.881952 279.693145 
L 331.489091 273.081356 
L 332.243415 262.225028 
L 333.181721 245.253118 
L 334.48799 217.180907 
L 337.634073 148.129146 
L 338.701166 130.209633 
L 339.565879 119.104658 
L 340.301805 112.235382 
L 340.94574 108.146865 
L 341.479287 106.037425 
L 341.920842 105.091449 
L 342.270407 104.804816 
L 342.546379 104.837226 
L 342.859148 105.119166 
L 343.263907 105.815827 
L 343.83425 107.288781 
L 344.846148 110.651699 
L 346.005232 114.269096 
L 346.612371 115.516243 
L 347.053926 115.991217 
L 347.385093 116.069004 
L 347.697861 115.904942 
L 348.047426 115.435097 
L 348.470584 114.450424 
L 348.985732 112.636049 
L 349.611269 109.563536 
L 350.40239 104.483578 
L 351.561473 95.395716 
L 353.493279 80.247285 
L 354.247603 76.024451 
L 354.799547 74.040068 
L 355.204307 73.304846 
L 355.480279 73.191519 
L 355.701057 73.341787 
L 355.977029 73.844256 
L 356.326594 75.00249 
L 356.768149 77.330249 
L 357.301696 81.466745 
L 357.927233 88.175026 
L 358.681557 98.856886 
L 359.583066 115.011669 
L 360.74215 140.112084 
L 363.078715 197.08206 
L 364.568965 230.183224 
L 365.599261 248.452451 
L 366.427178 259.474433 
L 367.10791 265.820788 
L 367.659854 269.110443 
L 368.10141 270.555194 
L 368.414178 270.95715 
L 368.634956 270.940474 
L 368.874132 270.651112 
L 369.186901 269.864129 
L 369.610058 268.107396 
L 370.162003 264.738793 
L 370.87953 258.839188 
L 371.891429 248.476379 
L 374.927123 216.230545 
L 375.810235 209.686819 
L 376.527763 205.883128 
L 377.134901 203.747223 
L 377.65005 202.671714 
L 378.073207 202.245106 
L 378.44117 202.166467 
L 378.827531 202.32941 
L 379.305883 202.798621 
L 380.152198 204.008354 
L 381.016911 205.107108 
L 381.476865 205.365277 
L 381.82643 205.315089 
L 382.157596 205.022511 
L 382.525559 204.370099 
L 382.948717 203.133384 
L 383.445467 200.9352 
L 384.01581 197.315824 
L 384.659745 191.721378 
L 385.414069 183.074534 
L 386.29718 170.175856 
L 387.382671 150.776418 
L 389.020106 116.892615 
L 391.099097 74.748656 
L 392.129394 58.166805 
L 392.920514 48.64936 
L 393.564449 43.343063 
L 394.061199 40.868081 
L 394.429162 39.974257 
L 394.668338 39.826228 
L 394.870718 39.967221 
L 395.128292 40.497491 
L 395.477857 41.837238 
L 395.919413 44.522559 
L 396.471357 49.358397 
L 397.170487 57.625959 
L 398.053598 70.927971 
L 399.304672 93.49414 
L 402.340367 149.442203 
L 403.389062 164.197456 
L 404.272173 173.677026 
L 405.026497 179.552769 
L 405.68883 183.108509 
L 406.277571 185.145426 
L 406.792719 186.191879 
L 407.252673 186.658159 
L 407.67583 186.791259 
L 408.190979 186.701313 
L 409.607636 186.319876 
L 410.012396 186.511552 
L 410.417155 186.967423 
L 410.85871 187.837317 
L 411.35546 189.361404 
L 411.907405 191.818119 
L 412.55134 195.781445 
L 413.287266 201.7916 
L 414.170377 210.968066 
L 415.311063 225.348587 
L 418.567535 267.929575 
L 419.358656 274.802457 
L 419.947397 278.209095 
L 420.388952 279.66733 
L 420.701721 280.088793 
L 420.922498 280.068821 
L 421.143276 279.780026 
L 421.437647 278.969959 
L 421.824008 277.160692 
L 422.30236 273.743478 
L 422.891101 267.777128 
L 423.608628 258.007099 
L 424.473341 242.973203 
L 425.595629 219.288063 
L 427.785008 167.031142 
L 429.367249 132.148893 
L 430.434342 113.208656 
L 431.299055 101.486709 
L 432.034981 94.302729 
L 432.64212 90.321017 
L 433.157268 88.269193 
L 433.562028 87.459024 
L 433.856398 87.282128 
L 434.095574 87.376505 
L 434.389944 87.764409 
L 434.776305 88.68539 
L 435.309852 90.610677 
L 435.843398 93.123248 
L 435.843398 93.123248 
" clip-path="url(#p8656ce5558)" style="fill: none; stroke: #1f77b4; stroke-width: 1.5; stroke-linecap: square"/>
   </g>
   <g id="patch_3">
    <path d="M 67.862 303.64 
L 67.862 26.88 
" style="fill: none; stroke: #000000; stroke-width: 0.8; stroke-linejoin: miter; stroke-linecap: square"/>
   </g>
   <g id="patch_4">
    <path d="M 435.825 303.64 
L 435.825 26.88 
" style="fill: none; stroke: #000000; stroke-width: 0.8; stroke-linejoin: miter; stroke-linecap: square"/>
   </g>
   <g id="patch_5">
    <path d="M 67.862 303.64 
L 435.825 303.64 
" style="fill: none; stroke: #000000; stroke-width: 0.8; stroke-linejoin: miter; stroke-linecap: square"/>
   </g>
   <g id="patch_6">
    <path d="M 67.862 26.88 
L 435.825 26.88 
" style="fill: none; stroke: #000000; stroke-width: 0.8; stroke-linejoin: miter; stroke-linecap: square"/>
   </g>
   <g id="text_21">
    <!-- Displacement vs Time -->
    <g transform="translate(185.425375 20.88)scale(0.12 -0.12)">
     <defs>
      <path id="DejaVuSans-76" d="M 191 3500 
L 800 3500 
L 1894 563 
L 2988 3500 
L 3597 3500 
L 2284 0 
L 1503 0 
L 191 3500 
z
" transform="scale(0.015625)"/>
     </defs>
     <use xlink:href="#DejaVuSans-44"/>
     <use xlink:href="#DejaVuSans-69" x="77.001953"/>
     <use xlink:href="#DejaVuSans-73" x="104.785156"/>
     <use xlink:href="#DejaVuSans-70" x="156.884766"/>
     <use xlink:href="#DejaVuSans-6c" x="220.361328"/>
     <use xlink:href="#DejaVuSans-61" x="248.144531"/>
     <use xlink:href="#DejaVuSans-63" x="309.423828"/>
     <use xlink:href="#DejaVuSans-65" x="364.404297"/>
     <use xlink:href="#DejaVuSans-6d" x="425.927734"/>
     <use xlink:href="#DejaVuSans-65" x="523.339844"/>
     <use xlink:href="#DejaVuSans-6e" x="584.863281"/>
     <use xlink:href="#DejaVuSans-74" x="648.242188"/>
     <use xlink:href="#DejaVuSans-20" x="687.451172"/>
     <use xlink:href="#DejaVuSans-76" x="719.238281"/>
     <use xlink:href="#DejaVuSans-73" x="778.417969"/>
     <use xlink:href="#DejaVuSans-20" x="830.517578"/>
     <use xlink:href="#DejaVuSans-54" x="862.304688"/>
     <use xlink:href="#DejaVuSans-69" x="920.263672"/>
     <use xlink:href="#DejaVuSans-6d" x="948.046875"/>
     <use xlink:href="#DejaVuSans-65" x="1045.458984"/>
    </g>
   </g>
  </g>
 </g>
 <defs>
  <clipPath id="p8656ce5558">
   <rect x="67.862" y="26.88" width="367.963" height="276.76"/>
  </clipPath>
 </defs>
</svg>
