<?xml version="1.0" encoding="utf-8" standalone="no"?>
<!DOCTYPE svg PUBLIC "-//W3C//DTD SVG 1.1//EN"
  "http://www.w3.org/Graphics/SVG/1.1/DTD/svg11.dtd">
<svg xmlns:xlink="http://www.w3.org/1999/xlink" width="460.8pt" height="345.6pt" viewBox="0 0 460.8 345.6" xmlns="http://www.w3.org/2000/svg" version="1.1">
 <metadata>
  <rdf:RDF xmlns:dc="http://purl.org/dc/elements/1.1/" xmlns:cc="http://creativecommons.org/ns#" xmlns:rdf="http://www.w3.org/1999/02/22-rdf-syntax-ns#">
   <cc:Work>
    <dc:type rdf:resource="http://purl.org/dc/dcmitype/StillImage"/>
    <dc:date>2021-12-15T14:39:11.127113</dc:date>
    <dc:format>image/svg+xml</dc:format>
    <dc:creator>
     <cc:Agent>
      <dc:title>Matplotlib v3.5.0, https://matplotlib.org/</dc:title>
     </cc:Agent>
    </dc:creator>
   </cc:Work>
  </rdf:RDF>
 </metadata>
 <defs>
  <style type="text/css">*{stroke-linejoin: round; stroke-linecap: butt}</style>
 </defs>
 <g id="figure_1">
  <g id="patch_1">
   <path d="M 0 345.6 
L 460.8 345.6 
L 460.8 0 
L 0 0 
z
" style="fill: #ffffff"/>
  </g>
  <g id="axes_1">
   <g id="patch_2">
    <path d="M 74.072 303.64 
L 435.825 303.64 
L 435.825 26.88 
L 74.072 26.88 
z
" style="fill: #ffffff"/>
   </g>
   <g id="matplotlib.axis_1">
    <g id="xtick_1">
     <g id="line2d_1">
      <defs>
       <path id="mc27b1b42e5" d="M 0 0 
L 0 3.5 
" style="stroke: #000000; stroke-width: 0.8"/>
      </defs>
      <g>
       <use xlink:href="#mc27b1b42e5" x="74.072" y="303.64" style="stroke: #000000; stroke-width: 0.8"/>
      </g>
     </g>
     <g id="text_1">
      <!-- 0.000 -->
      <g transform="translate(59.757938 318.238437)scale(0.1 -0.1)">
       <defs>
        <path id="DejaVuSans-30" d="M 2034 4250 
Q 1547 4250 1301 3770 
Q 1056 3291 1056 2328 
Q 1056 1369 1301 889 
Q 1547 409 2034 409 
Q 2525 409 2770 889 
Q 3016 1369 3016 2328 
Q 3016 3291 2770 3770 
Q 2525 4250 2034 4250 
z
M 2034 4750 
Q 2819 4750 3233 4129 
Q 3647 3509 3647 2328 
Q 3647 1150 3233 529 
Q 2819 -91 2034 -91 
Q 1250 -91 836 529 
Q 422 1150 422 2328 
Q 422 3509 836 4129 
Q 1250 4750 2034 4750 
z
" transform="scale(0.015625)"/>
        <path id="DejaVuSans-2e" d="M 684 794 
L 1344 794 
L 1344 0 
L 684 0 
L 684 794 
z
" transform="scale(0.015625)"/>
       </defs>
       <use xlink:href="#DejaVuSans-30"/>
       <use xlink:href="#DejaVuSans-2e" x="63.623047"/>
       <use xlink:href="#DejaVuSans-30" x="95.410156"/>
       <use xlink:href="#DejaVuSans-30" x="159.033203"/>
       <use xlink:href="#DejaVuSans-30" x="222.65625"/>
      </g>
     </g>
    </g>
    <g id="xtick_2">
     <g id="line2d_2">
      <g>
       <use xlink:href="#mc27b1b42e5" x="119.291125" y="303.64" style="stroke: #000000; stroke-width: 0.8"/>
      </g>
     </g>
     <g id="text_2">
      <!-- 0.025 -->
      <g transform="translate(104.977062 318.238437)scale(0.1 -0.1)">
       <defs>
        <path id="DejaVuSans-32" d="M 1228 531 
L 3431 531 
L 3431 0 
L 469 0 
L 469 531 
Q 828 903 1448 1529 
Q 2069 2156 2228 2338 
Q 2531 2678 2651 2914 
Q 2772 3150 2772 3378 
Q 2772 3750 2511 3984 
Q 2250 4219 1831 4219 
Q 1534 4219 1204 4116 
Q 875 4013 500 3803 
L 500 4441 
Q 881 4594 1212 4672 
Q 1544 4750 1819 4750 
Q 2544 4750 2975 4387 
Q 3406 4025 3406 3419 
Q 3406 3131 3298 2873 
Q 3191 2616 2906 2266 
Q 2828 2175 2409 1742 
Q 1991 1309 1228 531 
z
" transform="scale(0.015625)"/>
        <path id="DejaVuSans-35" d="M 691 4666 
L 3169 4666 
L 3169 4134 
L 1269 4134 
L 1269 2991 
Q 1406 3038 1543 3061 
Q 1681 3084 1819 3084 
Q 2600 3084 3056 2656 
Q 3513 2228 3513 1497 
Q 3513 744 3044 326 
Q 2575 -91 1722 -91 
Q 1428 -91 1123 -41 
Q 819 9 494 109 
L 494 744 
Q 775 591 1075 516 
Q 1375 441 1709 441 
Q 2250 441 2565 725 
Q 2881 1009 2881 1497 
Q 2881 1984 2565 2268 
Q 2250 2553 1709 2553 
Q 1456 2553 1204 2497 
Q 953 2441 691 2322 
L 691 4666 
z
" transform="scale(0.015625)"/>
       </defs>
       <use xlink:href="#DejaVuSans-30"/>
       <use xlink:href="#DejaVuSans-2e" x="63.623047"/>
       <use xlink:href="#DejaVuSans-30" x="95.410156"/>
       <use xlink:href="#DejaVuSans-32" x="159.033203"/>
       <use xlink:href="#DejaVuSans-35" x="222.65625"/>
      </g>
     </g>
    </g>
    <g id="xtick_3">
     <g id="line2d_3">
      <g>
       <use xlink:href="#mc27b1b42e5" x="164.51025" y="303.64" style="stroke: #000000; stroke-width: 0.8"/>
      </g>
     </g>
     <g id="text_3">
      <!-- 0.050 -->
      <g transform="translate(150.196187 318.238437)scale(0.1 -0.1)">
       <use xlink:href="#DejaVuSans-30"/>
       <use xlink:href="#DejaVuSans-2e" x="63.623047"/>
       <use xlink:href="#DejaVuSans-30" x="95.410156"/>
       <use xlink:href="#DejaVuSans-35" x="159.033203"/>
       <use xlink:href="#DejaVuSans-30" x="222.65625"/>
      </g>
     </g>
    </g>
    <g id="xtick_4">
     <g id="line2d_4">
      <g>
       <use xlink:href="#mc27b1b42e5" x="209.729375" y="303.64" style="stroke: #000000; stroke-width: 0.8"/>
      </g>
     </g>
     <g id="text_4">
      <!-- 0.075 -->
      <g transform="translate(195.415312 318.238437)scale(0.1 -0.1)">
       <defs>
        <path id="DejaVuSans-37" d="M 525 4666 
L 3525 4666 
L 3525 4397 
L 1831 0 
L 1172 0 
L 2766 4134 
L 525 4134 
L 525 4666 
z
" transform="scale(0.015625)"/>
       </defs>
       <use xlink:href="#DejaVuSans-30"/>
       <use xlink:href="#DejaVuSans-2e" x="63.623047"/>
       <use xlink:href="#DejaVuSans-30" x="95.410156"/>
       <use xlink:href="#DejaVuSans-37" x="159.033203"/>
       <use xlink:href="#DejaVuSans-35" x="222.65625"/>
      </g>
     </g>
    </g>
    <g id="xtick_5">
     <g id="line2d_5">
      <g>
       <use xlink:href="#mc27b1b42e5" x="254.9485" y="303.64" style="stroke: #000000; stroke-width: 0.8"/>
      </g>
     </g>
     <g id="text_5">
      <!-- 0.100 -->
      <g transform="translate(240.634437 318.238437)scale(0.1 -0.1)">
       <defs>
        <path id="DejaVuSans-31" d="M 794 531 
L 1825 531 
L 1825 4091 
L 703 3866 
L 703 4441 
L 1819 4666 
L 2450 4666 
L 2450 531 
L 3481 531 
L 3481 0 
L 794 0 
L 794 531 
z
" transform="scale(0.015625)"/>
       </defs>
       <use xlink:href="#DejaVuSans-30"/>
       <use xlink:href="#DejaVuSans-2e" x="63.623047"/>
       <use xlink:href="#DejaVuSans-31" x="95.410156"/>
       <use xlink:href="#DejaVuSans-30" x="159.033203"/>
       <use xlink:href="#DejaVuSans-30" x="222.65625"/>
      </g>
     </g>
    </g>
    <g id="xtick_6">
     <g id="line2d_6">
      <g>
       <use xlink:href="#mc27b1b42e5" x="300.167625" y="303.64" style="stroke: #000000; stroke-width: 0.8"/>
      </g>
     </g>
     <g id="text_6">
      <!-- 0.125 -->
      <g transform="translate(285.853563 318.238437)scale(0.1 -0.1)">
       <use xlink:href="#DejaVuSans-30"/>
       <use xlink:href="#DejaVuSans-2e" x="63.623047"/>
       <use xlink:href="#DejaVuSans-31" x="95.410156"/>
       <use xlink:href="#DejaVuSans-32" x="159.033203"/>
       <use xlink:href="#DejaVuSans-35" x="222.65625"/>
      </g>
     </g>
    </g>
    <g id="xtick_7">
     <g id="line2d_7">
      <g>
       <use xlink:href="#mc27b1b42e5" x="345.38675" y="303.64" style="stroke: #000000; stroke-width: 0.8"/>
      </g>
     </g>
     <g id="text_7">
      <!-- 0.150 -->
      <g transform="translate(331.072688 318.238437)scale(0.1 -0.1)">
       <use xlink:href="#DejaVuSans-30"/>
       <use xlink:href="#DejaVuSans-2e" x="63.623047"/>
       <use xlink:href="#DejaVuSans-31" x="95.410156"/>
       <use xlink:href="#DejaVuSans-35" x="159.033203"/>
       <use xlink:href="#DejaVuSans-30" x="222.65625"/>
      </g>
     </g>
    </g>
    <g id="xtick_8">
     <g id="line2d_8">
      <g>
       <use xlink:href="#mc27b1b42e5" x="390.605875" y="303.64" style="stroke: #000000; stroke-width: 0.8"/>
      </g>
     </g>
     <g id="text_8">
      <!-- 0.175 -->
      <g transform="translate(376.291813 318.238437)scale(0.1 -0.1)">
       <use xlink:href="#DejaVuSans-30"/>
       <use xlink:href="#DejaVuSans-2e" x="63.623047"/>
       <use xlink:href="#DejaVuSans-31" x="95.410156"/>
       <use xlink:href="#DejaVuSans-37" x="159.033203"/>
       <use xlink:href="#DejaVuSans-35" x="222.65625"/>
      </g>
     </g>
    </g>
    <g id="xtick_9">
     <g id="line2d_9">
      <g>
       <use xlink:href="#mc27b1b42e5" x="435.825" y="303.64" style="stroke: #000000; stroke-width: 0.8"/>
      </g>
     </g>
     <g id="text_9">
      <!-- 0.200 -->
      <g transform="translate(421.510938 318.238437)scale(0.1 -0.1)">
       <use xlink:href="#DejaVuSans-30"/>
       <use xlink:href="#DejaVuSans-2e" x="63.623047"/>
       <use xlink:href="#DejaVuSans-32" x="95.410156"/>
       <use xlink:href="#DejaVuSans-30" x="159.033203"/>
       <use xlink:href="#DejaVuSans-30" x="222.65625"/>
      </g>
     </g>
    </g>
    <g id="text_10">
     <!-- Time -->
     <g transform="translate(242.714906 331.916562)scale(0.1 -0.1)">
      <defs>
       <path id="DejaVuSans-54" d="M -19 4666 
L 3928 4666 
L 3928 4134 
L 2272 4134 
L 2272 0 
L 1638 0 
L 1638 4134 
L -19 4134 
L -19 4666 
z
" transform="scale(0.015625)"/>
       <path id="DejaVuSans-69" d="M 603 3500 
L 1178 3500 
L 1178 0 
L 603 0 
L 603 3500 
z
M 603 4863 
L 1178 4863 
L 1178 4134 
L 603 4134 
L 603 4863 
z
" transform="scale(0.015625)"/>
       <path id="DejaVuSans-6d" d="M 3328 2828 
Q 3544 3216 3844 3400 
Q 4144 3584 4550 3584 
Q 5097 3584 5394 3201 
Q 5691 2819 5691 2113 
L 5691 0 
L 5113 0 
L 5113 2094 
Q 5113 2597 4934 2840 
Q 4756 3084 4391 3084 
Q 3944 3084 3684 2787 
Q 3425 2491 3425 1978 
L 3425 0 
L 2847 0 
L 2847 2094 
Q 2847 2600 2669 2842 
Q 2491 3084 2119 3084 
Q 1678 3084 1418 2786 
Q 1159 2488 1159 1978 
L 1159 0 
L 581 0 
L 581 3500 
L 1159 3500 
L 1159 2956 
Q 1356 3278 1631 3431 
Q 1906 3584 2284 3584 
Q 2666 3584 2933 3390 
Q 3200 3197 3328 2828 
z
" transform="scale(0.015625)"/>
       <path id="DejaVuSans-65" d="M 3597 1894 
L 3597 1613 
L 953 1613 
Q 991 1019 1311 708 
Q 1631 397 2203 397 
Q 2534 397 2845 478 
Q 3156 559 3463 722 
L 3463 178 
Q 3153 47 2828 -22 
Q 2503 -91 2169 -91 
Q 1331 -91 842 396 
Q 353 884 353 1716 
Q 353 2575 817 3079 
Q 1281 3584 2069 3584 
Q 2775 3584 3186 3129 
Q 3597 2675 3597 1894 
z
M 3022 2063 
Q 3016 2534 2758 2815 
Q 2500 3097 2075 3097 
Q 1594 3097 1305 2825 
Q 1016 2553 972 2059 
L 3022 2063 
z
" transform="scale(0.015625)"/>
      </defs>
      <use xlink:href="#DejaVuSans-54"/>
      <use xlink:href="#DejaVuSans-69" x="57.958984"/>
      <use xlink:href="#DejaVuSans-6d" x="85.742188"/>
      <use xlink:href="#DejaVuSans-65" x="183.154297"/>
     </g>
    </g>
   </g>
   <g id="matplotlib.axis_2">
    <g id="ytick_1">
     <g id="line2d_10">
      <defs>
       <path id="m85820e0f59" d="M 0 0 
L -3.5 0 
" style="stroke: #000000; stroke-width: 0.8"/>
      </defs>
      <g>
       <use xlink:href="#m85820e0f59" x="74.072" y="281.30418" style="stroke: #000000; stroke-width: 0.8"/>
      </g>
     </g>
     <g id="text_11">
      <!-- −0.004 -->
      <g transform="translate(30.064188 285.103398)scale(0.1 -0.1)">
       <defs>
        <path id="DejaVuSans-2212" d="M 678 2272 
L 4684 2272 
L 4684 1741 
L 678 1741 
L 678 2272 
z
" transform="scale(0.015625)"/>
        <path id="DejaVuSans-34" d="M 2419 4116 
L 825 1625 
L 2419 1625 
L 2419 4116 
z
M 2253 4666 
L 3047 4666 
L 3047 1625 
L 3713 1625 
L 3713 1100 
L 3047 1100 
L 3047 0 
L 2419 0 
L 2419 1100 
L 313 1100 
L 313 1709 
L 2253 4666 
z
" transform="scale(0.015625)"/>
       </defs>
       <use xlink:href="#DejaVuSans-2212"/>
       <use xlink:href="#DejaVuSans-30" x="83.789062"/>
       <use xlink:href="#DejaVuSans-2e" x="147.412109"/>
       <use xlink:href="#DejaVuSans-30" x="179.199219"/>
       <use xlink:href="#DejaVuSans-30" x="242.822266"/>
       <use xlink:href="#DejaVuSans-34" x="306.445312"/>
      </g>
     </g>
    </g>
    <g id="ytick_2">
     <g id="line2d_11">
      <g>
       <use xlink:href="#m85820e0f59" x="74.072" y="223.282193" style="stroke: #000000; stroke-width: 0.8"/>
      </g>
     </g>
     <g id="text_12">
      <!-- −0.002 -->
      <g transform="translate(30.064188 227.081412)scale(0.1 -0.1)">
       <use xlink:href="#DejaVuSans-2212"/>
       <use xlink:href="#DejaVuSans-30" x="83.789062"/>
       <use xlink:href="#DejaVuSans-2e" x="147.412109"/>
       <use xlink:href="#DejaVuSans-30" x="179.199219"/>
       <use xlink:href="#DejaVuSans-30" x="242.822266"/>
       <use xlink:href="#DejaVuSans-32" x="306.445312"/>
      </g>
     </g>
    </g>
    <g id="ytick_3">
     <g id="line2d_12">
      <g>
       <use xlink:href="#m85820e0f59" x="74.072" y="165.260207" style="stroke: #000000; stroke-width: 0.8"/>
      </g>
     </g>
     <g id="text_13">
      <!-- 0.000 -->
      <g transform="translate(38.443875 169.059426)scale(0.1 -0.1)">
       <use xlink:href="#DejaVuSans-30"/>
       <use xlink:href="#DejaVuSans-2e" x="63.623047"/>
       <use xlink:href="#DejaVuSans-30" x="95.410156"/>
       <use xlink:href="#DejaVuSans-30" x="159.033203"/>
       <use xlink:href="#DejaVuSans-30" x="222.65625"/>
      </g>
     </g>
    </g>
    <g id="ytick_4">
     <g id="line2d_13">
      <g>
       <use xlink:href="#m85820e0f59" x="74.072" y="107.23822" style="stroke: #000000; stroke-width: 0.8"/>
      </g>
     </g>
     <g id="text_14">
      <!-- 0.002 -->
      <g transform="translate(38.443875 111.037439)scale(0.1 -0.1)">
       <use xlink:href="#DejaVuSans-30"/>
       <use xlink:href="#DejaVuSans-2e" x="63.623047"/>
       <use xlink:href="#DejaVuSans-30" x="95.410156"/>
       <use xlink:href="#DejaVuSans-30" x="159.033203"/>
       <use xlink:href="#DejaVuSans-32" x="222.65625"/>
      </g>
     </g>
    </g>
    <g id="ytick_5">
     <g id="line2d_14">
      <g>
       <use xlink:href="#m85820e0f59" x="74.072" y="49.216234" style="stroke: #000000; stroke-width: 0.8"/>
      </g>
     </g>
     <g id="text_15">
      <!-- 0.004 -->
      <g transform="translate(38.443875 53.015453)scale(0.1 -0.1)">
       <use xlink:href="#DejaVuSans-30"/>
       <use xlink:href="#DejaVuSans-2e" x="63.623047"/>
       <use xlink:href="#DejaVuSans-30" x="95.410156"/>
       <use xlink:href="#DejaVuSans-30" x="159.033203"/>
       <use xlink:href="#DejaVuSans-34" x="222.65625"/>
      </g>
     </g>
    </g>
    <g id="text_16">
     <!-- Displacement x $\mathregular{10^4}$ -->
     <g transform="translate(23.964188 214.56)rotate(-90)scale(0.1 -0.1)">
      <defs>
       <path id="DejaVuSans-44" d="M 1259 4147 
L 1259 519 
L 2022 519 
Q 2988 519 3436 956 
Q 3884 1394 3884 2338 
Q 3884 3275 3436 3711 
Q 2988 4147 2022 4147 
L 1259 4147 
z
M 628 4666 
L 1925 4666 
Q 3281 4666 3915 4102 
Q 4550 3538 4550 2338 
Q 4550 1131 3912 565 
Q 3275 0 1925 0 
L 628 0 
L 628 4666 
z
" transform="scale(0.015625)"/>
       <path id="DejaVuSans-73" d="M 2834 3397 
L 2834 2853 
Q 2591 2978 2328 3040 
Q 2066 3103 1784 3103 
Q 1356 3103 1142 2972 
Q 928 2841 928 2578 
Q 928 2378 1081 2264 
Q 1234 2150 1697 2047 
L 1894 2003 
Q 2506 1872 2764 1633 
Q 3022 1394 3022 966 
Q 3022 478 2636 193 
Q 2250 -91 1575 -91 
Q 1294 -91 989 -36 
Q 684 19 347 128 
L 347 722 
Q 666 556 975 473 
Q 1284 391 1588 391 
Q 1994 391 2212 530 
Q 2431 669 2431 922 
Q 2431 1156 2273 1281 
Q 2116 1406 1581 1522 
L 1381 1569 
Q 847 1681 609 1914 
Q 372 2147 372 2553 
Q 372 3047 722 3315 
Q 1072 3584 1716 3584 
Q 2034 3584 2315 3537 
Q 2597 3491 2834 3397 
z
" transform="scale(0.015625)"/>
       <path id="DejaVuSans-70" d="M 1159 525 
L 1159 -1331 
L 581 -1331 
L 581 3500 
L 1159 3500 
L 1159 2969 
Q 1341 3281 1617 3432 
Q 1894 3584 2278 3584 
Q 2916 3584 3314 3078 
Q 3713 2572 3713 1747 
Q 3713 922 3314 415 
Q 2916 -91 2278 -91 
Q 1894 -91 1617 61 
Q 1341 213 1159 525 
z
M 3116 1747 
Q 3116 2381 2855 2742 
Q 2594 3103 2138 3103 
Q 1681 3103 1420 2742 
Q 1159 2381 1159 1747 
Q 1159 1113 1420 752 
Q 1681 391 2138 391 
Q 2594 391 2855 752 
Q 3116 1113 3116 1747 
z
" transform="scale(0.015625)"/>
       <path id="DejaVuSans-6c" d="M 603 4863 
L 1178 4863 
L 1178 0 
L 603 0 
L 603 4863 
z
" transform="scale(0.015625)"/>
       <path id="DejaVuSans-61" d="M 2194 1759 
Q 1497 1759 1228 1600 
Q 959 1441 959 1056 
Q 959 750 1161 570 
Q 1363 391 1709 391 
Q 2188 391 2477 730 
Q 2766 1069 2766 1631 
L 2766 1759 
L 2194 1759 
z
M 3341 1997 
L 3341 0 
L 2766 0 
L 2766 531 
Q 2569 213 2275 61 
Q 1981 -91 1556 -91 
Q 1019 -91 701 211 
Q 384 513 384 1019 
Q 384 1609 779 1909 
Q 1175 2209 1959 2209 
L 2766 2209 
L 2766 2266 
Q 2766 2663 2505 2880 
Q 2244 3097 1772 3097 
Q 1472 3097 1187 3025 
Q 903 2953 641 2809 
L 641 3341 
Q 956 3463 1253 3523 
Q 1550 3584 1831 3584 
Q 2591 3584 2966 3190 
Q 3341 2797 3341 1997 
z
" transform="scale(0.015625)"/>
       <path id="DejaVuSans-63" d="M 3122 3366 
L 3122 2828 
Q 2878 2963 2633 3030 
Q 2388 3097 2138 3097 
Q 1578 3097 1268 2742 
Q 959 2388 959 1747 
Q 959 1106 1268 751 
Q 1578 397 2138 397 
Q 2388 397 2633 464 
Q 2878 531 3122 666 
L 3122 134 
Q 2881 22 2623 -34 
Q 2366 -91 2075 -91 
Q 1284 -91 818 406 
Q 353 903 353 1747 
Q 353 2603 823 3093 
Q 1294 3584 2113 3584 
Q 2378 3584 2631 3529 
Q 2884 3475 3122 3366 
z
" transform="scale(0.015625)"/>
       <path id="DejaVuSans-6e" d="M 3513 2113 
L 3513 0 
L 2938 0 
L 2938 2094 
Q 2938 2591 2744 2837 
Q 2550 3084 2163 3084 
Q 1697 3084 1428 2787 
Q 1159 2491 1159 1978 
L 1159 0 
L 581 0 
L 581 3500 
L 1159 3500 
L 1159 2956 
Q 1366 3272 1645 3428 
Q 1925 3584 2291 3584 
Q 2894 3584 3203 3211 
Q 3513 2838 3513 2113 
z
" transform="scale(0.015625)"/>
       <path id="DejaVuSans-74" d="M 1172 4494 
L 1172 3500 
L 2356 3500 
L 2356 3053 
L 1172 3053 
L 1172 1153 
Q 1172 725 1289 603 
Q 1406 481 1766 481 
L 2356 481 
L 2356 0 
L 1766 0 
Q 1100 0 847 248 
Q 594 497 594 1153 
L 594 3053 
L 172 3053 
L 172 3500 
L 594 3500 
L 594 4494 
L 1172 4494 
z
" transform="scale(0.015625)"/>
       <path id="DejaVuSans-20" transform="scale(0.015625)"/>
       <path id="DejaVuSans-78" d="M 3513 3500 
L 2247 1797 
L 3578 0 
L 2900 0 
L 1881 1375 
L 863 0 
L 184 0 
L 1544 1831 
L 300 3500 
L 978 3500 
L 1906 2253 
L 2834 3500 
L 3513 3500 
z
" transform="scale(0.015625)"/>
      </defs>
      <use xlink:href="#DejaVuSans-44" transform="translate(0 0.684375)"/>
      <use xlink:href="#DejaVuSans-69" transform="translate(77.001953 0.684375)"/>
      <use xlink:href="#DejaVuSans-73" transform="translate(104.785156 0.684375)"/>
      <use xlink:href="#DejaVuSans-70" transform="translate(156.884766 0.684375)"/>
      <use xlink:href="#DejaVuSans-6c" transform="translate(220.361328 0.684375)"/>
      <use xlink:href="#DejaVuSans-61" transform="translate(248.144531 0.684375)"/>
      <use xlink:href="#DejaVuSans-63" transform="translate(309.423828 0.684375)"/>
      <use xlink:href="#DejaVuSans-65" transform="translate(364.404297 0.684375)"/>
      <use xlink:href="#DejaVuSans-6d" transform="translate(425.927734 0.684375)"/>
      <use xlink:href="#DejaVuSans-65" transform="translate(523.339844 0.684375)"/>
      <use xlink:href="#DejaVuSans-6e" transform="translate(584.863281 0.684375)"/>
      <use xlink:href="#DejaVuSans-74" transform="translate(648.242188 0.684375)"/>
      <use xlink:href="#DejaVuSans-20" transform="translate(687.451172 0.684375)"/>
      <use xlink:href="#DejaVuSans-78" transform="translate(719.238281 0.684375)"/>
      <use xlink:href="#DejaVuSans-20" transform="translate(778.417969 0.684375)"/>
      <use xlink:href="#DejaVuSans-31" transform="translate(810.205078 0.684375)"/>
      <use xlink:href="#DejaVuSans-30" transform="translate(873.828125 0.684375)"/>
      <use xlink:href="#DejaVuSans-34" transform="translate(938.408203 38.965625)scale(0.7)"/>
     </g>
    </g>
   </g>
   <g id="line2d_15">
    <path d="M 74.072 165.260207 
L 74.198614 165.16874 
L 74.307139 164.68265 
L 74.469928 162.564221 
L 74.68698 156.077763 
L 75.012558 138.001866 
L 75.880765 85.468144 
L 76.115904 82.142356 
L 76.15208 82.092498 
L 76.206343 82.203658 
L 76.351044 83.334463 
L 76.76706 87.14319 
L 76.803235 87.108123 
L 76.893673 86.565195 
L 77.056462 83.770261 
L 77.309689 74.842363 
L 78.177897 40.622067 
L 78.232159 40.460562 
L 78.286422 40.639751 
L 78.413036 42.321863 
L 78.648175 49.284705 
L 79.371681 72.412586 
L 79.480207 72.854138 
L 79.516383 72.774324 
L 79.624909 71.919679 
L 79.860048 67.792321 
L 80.276064 61.210317 
L 80.312239 61.156217 
L 80.348415 61.229058 
L 80.45694 62.269764 
L 80.637817 66.93027 
L 80.927219 81.400446 
L 81.831602 130.894653 
L 82.066741 133.862355 
L 82.175267 134.07257 
L 82.211442 134.053072 
L 82.410407 133.850269 
L 82.446582 133.899529 
L 82.555108 134.437548 
L 82.717897 136.830597 
L 82.934948 143.951372 
L 83.260526 163.185637 
L 84.128733 217.827603 
L 84.38196 221.997343 
L 84.472399 222.220492 
L 84.508574 222.181054 
L 84.653275 221.585576 
L 84.870327 220.772011 
L 84.906502 220.803411 
L 84.996941 221.239275 
L 85.141642 223.257015 
L 85.358694 229.858668 
L 85.720447 249.040612 
L 86.317339 279.145797 
L 86.534391 282.141325 
L 86.570566 282.123239 
L 86.588654 282.061798 
L 86.69718 281.009343 
L 86.914231 276.147203 
L 87.511124 262.280888 
L 87.583475 262.117807 
L 87.61965 262.212508 
L 87.728176 263.189158 
L 87.945228 267.840185 
L 88.614471 283.694894 
L 88.650646 283.673002 
L 88.668734 283.607345 
L 88.777259 282.426784 
L 88.976224 276.796284 
L 89.319889 259.017439 
L 89.934869 228.532465 
L 90.188096 224.530879 
L 90.278534 224.315596 
L 90.31471 224.360639 
L 90.459411 225.018321 
L 90.712638 226.101966 
L 90.730726 226.085804 
L 90.821164 225.673871 
L 90.965865 223.591176 
L 91.182917 216.464694 
L 91.508495 197.057881 
L 92.358614 143.430465 
L 92.629929 138.58429 
L 92.792718 138.116904 
L 92.810805 138.123535 
L 93.00977 138.243862 
L 93.045945 138.179101 
L 93.154471 137.599438 
L 93.31726 135.185221 
L 93.552399 127.438504 
L 93.914152 106.365337 
L 94.583395 67.854258 
L 94.818535 63.790286 
L 94.872797 63.6886 
L 94.908973 63.774544 
L 95.035586 64.906151 
L 95.361164 70.888858 
L 95.650566 74.250731 
L 95.686742 74.262965 
L 95.704829 74.227266 
L 95.795268 73.614648 
L 95.958056 70.667212 
L 96.265547 59.847577 
L 96.826264 40.781946 
L 96.952877 39.987851 
L 96.989053 40.100265 
L 97.097578 41.348237 
L 97.296543 46.915669 
L 97.748734 68.281044 
L 98.146662 82.49178 
L 98.363714 84.623421 
L 98.417977 84.552574 
L 98.54459 83.669495 
L 99.032957 78.850667 
L 99.08722 79.017597 
L 99.213833 80.495559 
L 99.412798 86.294355 
L 99.720288 103.199701 
L 100.606583 156.244934 
L 100.85981 160.346975 
L 101.040686 160.864145 
L 101.221563 160.970923 
L 101.330089 161.490752 
L 101.492877 163.694744 
L 101.709929 170.340741 
L 102.035507 188.678832 
L 102.903714 241.585005 
L 103.138854 245.008613 
L 103.193116 245.076809 
L 103.229292 245.00278 
L 103.355905 244.162005 
L 103.771921 240.698118 
L 103.808097 240.742437 
L 103.898535 241.300327 
L 104.061324 244.110184 
L 104.314551 253.112384 
L 105.200846 289.217303 
L 105.255109 289.428545 
L 105.309372 289.299871 
L 105.417897 288.066339 
L 105.634949 282.321654 
L 106.412718 259.048548 
L 106.466981 258.889501 
L 106.521244 258.98727 
L 106.647858 260.127281 
L 106.919172 265.458599 
L 107.299013 271.682595 
L 107.335188 271.765705 
L 107.389451 271.64771 
L 107.497977 270.468649 
L 107.678854 265.553182 
L 107.986344 249.694733 
L 108.800288 204.725851 
L 109.053515 200.87879 
L 109.180129 200.575014 
L 109.216304 200.601321 
L 109.433356 200.908807 
L 109.487619 200.823229 
L 109.596145 200.172745 
L 109.758933 197.50192 
L 109.994073 189.04818 
L 110.355826 166.047726 
L 111.09742 118.421618 
L 111.368734 112.75926 
L 111.495348 112.2516 
L 111.531523 112.275165 
L 111.658137 112.700325 
L 111.875188 113.405312 
L 111.911364 113.368367 
L 112.001802 112.931139 
L 112.146503 110.937234 
L 112.363555 104.380092 
L 112.725308 85.072388 
L 113.340288 53.258531 
L 113.55734 50.089043 
L 113.593515 50.07599 
L 113.611603 50.12148 
L 113.720129 51.071715 
L 113.937181 55.685863 
L 114.515985 68.460393 
L 114.570248 68.606842 
L 114.624511 68.489612 
L 114.751125 67.201863 
L 114.986264 61.605532 
L 115.619332 45.49128 
L 115.655507 45.409082 
L 115.70977 45.559392 
L 115.818296 46.875344 
L 116.01726 52.726433 
L 116.379013 71.583671 
L 116.93973 98.555742 
L 117.192958 102.579314 
L 117.283396 102.781706 
L 117.319571 102.726301 
L 117.464272 101.991439 
L 117.735587 100.609475 
L 117.753675 100.617561 
L 117.826025 100.871623 
L 117.952639 102.349188 
L 118.151603 107.91085 
L 118.441005 123.321143 
L 119.472001 185.167408 
L 119.707141 187.913317 
L 119.833754 188.095113 
L 119.851842 188.086804 
L 120.032719 188.056889 
L 120.141245 188.508075 
L 120.285946 190.271457 
L 120.502998 196.345895 
L 120.810488 212.395488 
L 121.678695 261.78344 
L 121.895747 264.180942 
L 121.95001 264.051274 
L 122.076623 262.869876 
L 122.673516 254.647546 
L 122.745866 254.869987 
L 122.87248 256.380773 
L 123.089531 262.195125 
L 123.975826 290.86082 
L 123.993914 290.840502 
L 124.066265 290.377736 
L 124.210966 287.6804 
L 124.482281 277.476953 
L 125.187699 249.696917 
L 125.368575 248.246611 
L 125.386663 248.251988 
L 125.459014 248.510128 
L 125.63989 250.416661 
L 126.055906 254.813113 
L 126.110169 254.679253 
L 126.218695 253.568856 
L 126.399571 248.912355 
L 126.688974 234.291424 
L 127.683795 177.127699 
L 127.918934 174.298479 
L 128.081723 174.036266 
L 128.226424 173.970384 
L 128.33495 173.517142 
L 128.479651 171.793192 
L 128.678615 166.447698 
L 128.968018 151.749347 
L 130.035189 90.18907 
L 130.216066 88.883703 
L 130.234153 88.898709 
L 130.324591 89.271465 
L 130.776783 92.655448 
L 130.867221 92.339492 
L 131.011922 90.421717 
L 131.228974 83.990133 
L 131.64499 63.132423 
L 132.097181 44.076825 
L 132.296145 41.870801 
L 132.350408 42.060447 
L 132.477022 43.73272 
L 132.730249 51.100777 
L 133.345229 69.859446 
L 133.471843 70.600548 
L 133.508018 70.550278 
L 133.616544 69.747362 
L 133.833596 65.829937 
L 134.34005 56.530297 
L 134.376225 56.481251 
L 134.4124 56.565153 
L 134.520926 57.666352 
L 134.701803 62.462121 
L 135.009293 78.095475 
L 135.823237 122.114923 
L 136.076464 125.680746 
L 136.18499 125.89017 
L 136.221165 125.856139 
L 136.474392 125.428034 
L 136.528655 125.548533 
L 136.655269 126.53294 
L 136.836145 130.280153 
L 137.089373 141.118504 
L 137.523476 171.558896 
L 138.084193 206.728855 
L 138.373596 213.541418 
L 138.536385 214.252088 
L 138.554472 214.240266 
L 138.681086 213.883862 
L 138.88005 213.352245 
L 138.916225 213.393836 
L 139.006663 213.829801 
L 139.151365 215.794193 
L 139.368416 222.294231 
L 139.712082 240.56141 
L 140.381325 275.72008 
L 140.598377 278.613689 
L 140.65264 278.524837 
L 140.761166 277.494195 
L 140.996305 272.424881 
L 141.502759 261.741102 
L 141.57511 261.515168 
L 141.629373 261.651476 
L 141.755986 262.988906 
L 141.991126 268.747988 
L 142.642281 286.252284 
L 142.696544 286.370286 
L 142.732719 286.264915 
L 142.841245 285.041969 
L 143.040209 279.364705 
L 143.401962 260.899643 
L 143.96268 234.776514 
L 144.215907 231.139401 
L 144.288257 231.034436 
L 144.324433 231.100918 
L 144.469134 231.915274 
L 144.776624 233.63789 
L 144.794711 233.617227 
L 144.88515 233.148895 
L 145.029851 230.879881 
L 145.246903 223.360728 
L 145.590568 202.193278 
L 146.368337 153.041688 
L 146.639652 147.516271 
L 146.838616 146.757117 
L 147.073755 146.675148 
L 147.200369 145.876394 
L 147.381245 142.71787 
L 147.634473 133.15897 
L 148.050488 106.644252 
L 148.611206 74.221897 
L 148.864433 69.294723 
L 148.936783 69.118203 
L 148.972959 69.205731 
L 149.099572 70.276053 
L 149.678377 77.657679 
L 149.750728 77.414482 
L 149.877341 75.872263 
L 150.094393 69.970672 
L 150.998775 39.49197 
L 151.034951 39.537145 
L 151.125389 40.314466 
L 151.306265 44.530101 
L 151.668018 59.977417 
L 152.156385 78.049404 
L 152.373437 80.09374 
L 152.4277 79.985825 
L 152.554313 78.96839 
L 153.078855 72.678421 
L 153.151206 72.87061 
L 153.277819 74.452152 
L 153.476783 80.48653 
L 153.802361 98.830018 
L 154.616305 147.004337 
L 154.88762 151.619992 
L 155.068497 152.118787 
L 155.267461 152.215201 
L 155.394074 152.948157 
L 155.556863 155.53755 
L 155.792003 163.685901 
L 156.153756 186.068258 
L 156.895349 232.742482 
L 157.148576 237.760473 
L 157.239015 238.098821 
L 157.293278 238.022309 
L 157.437979 237.11845 
L 157.781644 234.883481 
L 157.799732 234.902522 
L 157.89017 235.356564 
L 158.052959 237.91347 
L 158.306186 246.631859 
L 159.319094 287.718295 
L 159.373357 287.578769 
L 159.499971 286.031081 
L 159.73511 279.587533 
L 160.368178 261.267326 
L 160.476704 260.756896 
L 160.512879 260.820243 
L 160.621405 261.671131 
L 160.838457 265.75735 
L 161.362999 276.100623 
L 161.399174 276.17974 
L 161.453437 276.045057 
L 161.561963 274.805087 
L 161.760927 269.064941 
L 162.086505 251.655672 
L 162.791923 213.429356 
L 163.063238 208.906668 
L 163.171764 208.601251 
L 163.207939 208.621425 
L 163.370728 209.052543 
L 163.497342 209.24062 
L 163.533517 209.185611 
L 163.642043 208.556727 
L 163.804832 205.854784 
L 164.039971 197.27176 
L 164.401724 174.069628 
L 165.12523 127.205267 
L 165.396545 121.089258 
L 165.559334 120.343677 
L 165.577421 120.348847 
L 165.685947 120.583605 
L 165.884911 121.029386 
L 165.921087 120.984073 
L 166.029613 120.401272 
L 166.192401 117.859663 
L 166.427541 109.894241 
L 166.825469 86.876087 
L 167.386186 57.448614 
L 167.621326 53.893239 
L 167.657501 53.888574 
L 167.675589 53.936309 
L 167.784115 54.866287 
L 168.019254 59.663434 
L 168.507621 69.401305 
L 168.579971 69.600233 
L 168.616147 69.526262 
L 168.724672 68.599526 
L 168.923637 64.350755 
L 169.719493 43.032808 
L 169.755668 43.1059 
L 169.864194 44.234041 
L 170.063159 49.733069 
L 170.424912 67.794891 
L 170.967541 92.597619 
L 171.220768 96.234258 
L 171.275031 96.334307 
L 171.329294 96.246058 
L 171.473995 95.350102 
L 171.799573 93.234603 
L 171.817661 93.246236 
L 171.890011 93.537073 
L 172.034712 95.51242 
L 172.251764 102.577235 
L 172.577342 121.90223 
L 173.409374 173.829369 
L 173.680689 178.811922 
L 173.861565 179.405368 
L 174.078617 179.505551 
L 174.20523 180.255611 
L 174.368019 182.862447 
L 174.603159 190.946966 
L 174.964912 212.72541 
L 175.652242 253.826843 
L 175.905469 258.392096 
L 175.959732 258.514747 
L 176.013995 258.38374 
L 176.158697 257.046664 
L 176.683238 250.898968 
L 176.719414 250.975133 
L 176.82794 251.88144 
L 177.008816 255.744324 
L 177.334394 268.719981 
L 177.895111 289.881732 
L 178.039812 291.048597 
L 178.075987 290.960786 
L 178.184513 289.795807 
L 178.383478 284.495353 
L 179.378298 252.432786 
L 179.450649 252.651673 
L 179.613438 254.375899 
L 180.119892 260.761074 
L 180.13798 260.740675 
L 180.228418 260.167424 
L 180.391207 256.947328 
L 180.644434 246.175908 
L 181.187063 209.696707 
L 181.621167 188.072527 
L 181.892482 183.276422 
L 182.073358 182.739739 
L 182.29041 182.668195 
L 182.417023 181.912474 
L 182.579812 179.258119 
L 182.814952 170.970449 
L 183.176705 148.366026 
L 183.918298 101.510938 
L 184.189613 96.303948 
L 184.280051 96.047699 
L 184.316227 96.098809 
L 184.44284 96.761971 
L 184.786506 98.76074 
L 184.804593 98.737846 
L 184.895032 98.273249 
L 185.05782 95.718611 
L 185.29296 87.781132 
L 185.799414 60.433949 
L 186.179255 45.644703 
L 186.360131 43.883408 
L 186.378219 43.913554 
L 186.468657 44.595884 
L 186.649534 48.276804 
L 187.481565 69.121511 
L 187.499653 69.09769 
L 187.590091 68.553271 
L 187.770968 65.598783 
L 188.440211 52.33743 
L 188.458299 52.367395 
L 188.548737 53.055823 
L 188.711526 56.640968 
L 188.98284 68.773579 
L 189.923398 116.074474 
L 190.14045 118.006292 
L 190.194713 118.028105 
L 190.230888 117.975987 
L 190.520291 117.187118 
L 190.592641 117.348529 
L 190.719255 118.477788 
L 190.900131 122.580576 
L 191.171446 135.075635 
L 191.695988 173.183439 
L 192.166267 199.822674 
L 192.437582 205.441429 
L 192.60037 206.044703 
L 192.618458 206.033673 
L 192.763159 205.712746 
L 192.889773 205.539236 
L 192.925948 205.587318 
L 193.034474 206.160039 
L 193.197263 208.650196 
L 193.432402 216.531701 
L 193.812243 238.477229 
L 194.409135 270.771686 
L 194.644275 274.498639 
L 194.68045 274.532723 
L 194.716625 274.435652 
L 194.843239 273.175631 
L 195.114554 267.378319 
L 195.512482 260.301832 
L 195.584833 260.129809 
L 195.621008 260.216074 
L 195.729534 261.180364 
L 195.928498 265.53259 
L 196.742442 288.4486 
L 196.796705 288.331385 
L 196.905231 287.071848 
L 197.104195 281.377685 
L 197.502124 261.418861 
L 197.99049 240.467082 
L 198.22563 237.290961 
L 198.279893 237.20228 
L 198.334155 237.307995 
L 198.478857 238.28744 
L 198.84061 240.83974 
L 198.858697 240.814144 
L 198.949136 240.289307 
L 199.111924 237.382677 
L 199.347064 228.165039 
L 199.744992 201.721316 
L 200.359972 163.367878 
L 200.649375 156.558365 
L 200.848339 155.513942 
L 201.137741 155.189231 
L 201.282442 153.843925 
L 201.481407 149.229695 
L 201.752721 136.805282 
L 202.892243 75.427528 
L 202.982682 75.012458 
L 203.036944 75.104725 
L 203.163558 76.104847 
L 203.670012 81.764041 
L 203.742363 81.590519 
L 203.868976 80.200694 
L 204.086028 74.487046 
L 204.520132 54.862689 
L 204.91806 40.911985 
L 205.062761 39.609066 
L 205.098937 39.663106 
L 205.189375 40.456309 
L 205.370251 44.628055 
L 205.76818 60.987399 
L 206.184196 74.646134 
L 206.38316 76.259513 
L 206.45551 76.012877 
L 206.618299 74.186526 
L 207.142841 66.958469 
L 207.179016 67.004266 
L 207.269455 67.684446 
L 207.432243 71.143261 
L 207.685471 82.256935 
L 208.84308 142.396247 
L 209.042044 143.464511 
L 209.168658 143.427407 
L 209.277184 143.433698 
L 209.295271 143.464151 
L 209.403797 143.960854 
L 209.566586 146.187099 
L 209.783638 152.960303 
L 210.109216 171.66446 
L 210.99551 226.8592 
L 211.248738 230.656324 
L 211.303001 230.762667 
L 211.357263 230.68811 
L 211.501965 229.904712 
L 211.773279 228.493677 
L 211.791367 228.499839 
L 211.863718 228.737594 
L 211.990331 230.12296 
L 212.189295 235.204307 
L 212.514873 250.582051 
L 213.202204 283.492163 
L 213.38308 285.410163 
L 213.401168 285.396316 
L 213.473519 284.986467 
L 213.636307 282.215585 
L 214.016148 270.365747 
L 214.377901 262.278935 
L 214.486427 261.844588 
L 214.522602 261.934334 
L 214.631128 262.87971 
L 214.84818 267.292878 
L 215.426985 279.978254 
L 215.46316 280.05232 
L 215.517423 279.900781 
L 215.625949 278.605008 
L 215.824913 272.760828 
L 216.168578 254.382999 
L 216.801646 221.229308 
L 217.072961 216.568104 
L 217.181487 216.271968 
L 217.217662 216.308328 
L 217.362363 216.825124 
L 217.54324 217.364813 
L 217.579415 217.332359 
L 217.669853 216.901645 
L 217.814555 214.861679 
L 218.031606 207.901269 
L 218.357184 188.721256 
L 219.225391 133.704524 
L 219.496706 129.01179 
L 219.62332 128.655105 
L 219.659495 128.675474 
L 219.894634 129.015579 
L 219.948897 128.918499 
L 220.057423 128.240273 
L 220.220212 125.562992 
L 220.455351 117.377256 
L 220.85328 93.748328 
L 221.432085 62.181199 
L 221.667224 58.289409 
L 221.703399 58.226774 
L 221.739575 58.293998 
L 221.8481 59.196703 
L 222.08324 63.654639 
L 222.517344 71.229434 
L 222.571606 71.38057 
L 222.625869 71.276515 
L 222.734395 70.276351 
L 222.933359 65.826581 
L 223.783479 41.253251 
L 223.837742 41.434717 
L 223.964356 43.186137 
L 224.181407 50.165045 
L 225.230491 90.37262 
L 225.284754 90.448818 
L 225.320929 90.386554 
L 225.447543 89.602191 
L 225.863559 86.211375 
L 225.899734 86.268088 
L 225.990172 86.893416 
L 226.152961 90.052207 
L 226.406188 100.650759 
L 226.85838 131.810564 
L 227.382921 162.98593 
L 227.672324 169.625398 
L 227.871288 170.62114 
L 228.142603 170.916876 
L 228.287304 172.175514 
L 228.486268 176.620182 
L 228.757583 188.833746 
L 229.354475 230.071975 
L 229.752404 249.002459 
L 229.987543 252.351197 
L 230.023718 252.393325 
L 230.059894 252.330641 
L 230.186507 251.434002 
L 230.674874 246.441575 
L 230.729137 246.546092 
L 230.837663 247.495711 
L 231.018539 251.435629 
L 231.326029 263.973829 
L 231.941009 289.175198 
L 232.103798 290.622271 
L 232.121886 290.593074 
L 232.212324 289.885764 
L 232.3932 285.901135 
L 232.773041 270.850254 
L 233.189057 257.464957 
L 233.369934 255.904881 
L 233.388021 255.907327 
L 233.460372 256.182241 
L 233.623161 258.11054 
L 234.183878 266.242713 
L 234.201965 266.217484 
L 234.292404 265.597217 
L 234.455193 262.231652 
L 234.70842 251.257146 
L 235.866029 192.229817 
L 236.064993 191.301586 
L 236.191607 191.391217 
L 236.300133 191.405846 
L 236.31822 191.376748 
L 236.426746 190.876055 
L 236.589535 188.609314 
L 236.806587 181.73755 
L 237.132165 162.864003 
L 238.01846 107.53089 
L 238.271687 103.680397 
L 238.344037 103.549443 
L 238.380213 103.598582 
L 238.524914 104.283597 
L 238.778141 105.419802 
L 238.796229 105.409869 
L 238.868579 105.163893 
L 238.995193 103.78385 
L 239.194157 98.724543 
L 239.519735 83.251655 
L 240.225153 48.56225 
L 240.424117 46.488526 
L 240.496468 46.831898 
L 240.641169 49.037347 
L 240.966747 58.483879 
L 241.364675 67.8648 
L 241.473201 68.434876 
L 241.509376 68.390498 
L 241.599814 67.773809 
L 241.780691 64.598726 
L 242.504197 48.745007 
L 242.540372 48.851442 
L 242.648898 50.06044 
L 242.847862 55.748414 
L 243.191527 73.80238 
L 243.824595 106.087168 
L 244.077822 110.278286 
L 244.186348 110.565371 
L 244.222524 110.519668 
L 244.367225 109.928374 
L 244.584277 109.191244 
L 244.602364 109.209533 
L 244.692802 109.615444 
L 244.837504 111.639869 
L 245.054555 118.614174 
L 245.380133 137.827263 
L 246.24834 192.616177 
L 246.519655 197.265188 
L 246.664356 197.638485 
L 246.682444 197.628925 
L 246.917583 197.414778 
L 246.953759 197.492949 
L 247.062285 198.149827 
L 247.225073 200.757924 
L 247.460213 208.831867 
L 247.840054 231.301961 
L 248.455034 265.777883 
L 248.690173 269.827386 
L 248.744436 269.914135 
L 248.780611 269.814344 
L 248.907225 268.604689 
L 249.214715 262.539696 
L 249.540293 258.017778 
L 249.576468 257.957731 
L 249.630731 258.079543 
L 249.739257 259.113725 
L 249.938221 263.654768 
L 250.426587 282.285412 
L 250.734078 289.577146 
L 250.806428 289.928532 
L 250.860691 289.796767 
L 250.969217 288.506903 
L 251.168181 282.826268 
L 251.602285 261.719449 
L 252.036388 245.177982 
L 252.25344 242.805536 
L 252.289615 242.788265 
L 252.325791 242.862628 
L 252.452404 243.713643 
L 252.886508 247.677332 
L 252.940771 247.583464 
L 253.049297 246.611148 
L 253.230173 242.28675 
L 253.501488 229.24322 
L 254.622922 166.150646 
L 254.839974 164.37464 
L 255.002763 164.263817 
L 255.111289 164.150228 
L 255.237902 163.459284 
L 255.400691 160.986382 
L 255.635831 153.106177 
L 255.979496 132.563199 
L 256.739177 85.923035 
L 256.992404 81.486541 
L 257.046667 81.348813 
L 257.10093 81.442586 
L 257.227544 82.363754 
L 257.679735 86.559396 
L 257.71591 86.506048 
L 257.824436 85.706705 
L 258.005313 82.035998 
L 258.294715 70.569456 
L 259.000134 41.318872 
L 259.126747 40.339605 
L 259.162922 40.402146 
L 259.271448 41.474606 
L 259.470412 46.464063 
L 260.356707 73.140768 
L 260.392883 73.151677 
L 260.41097 73.115533 
L 260.519496 72.358314 
L 260.754636 68.37966 
L 261.170652 61.78795 
L 261.206827 61.718329 
L 261.26109 61.851049 
L 261.369616 63.044526 
L 261.550492 67.966204 
L 261.857982 83.914253 
L 262.690014 130.721806 
L 262.943241 134.658007 
L 263.087942 135.015526 
L 263.10603 135.006936 
L 263.323082 134.826909 
L 263.359257 134.894388 
L 263.467783 135.505768 
L 263.630572 138.050968 
L 263.865711 146.24372 
L 264.209377 167.562298 
L 264.987146 217.395806 
L 265.25846 222.735132 
L 265.366986 223.106637 
L 265.403162 223.074838 
L 265.529775 222.580773 
L 265.783002 221.585321 
L 265.80109 221.598616 
L 265.891528 221.969526 
L 266.036229 223.862365 
L 266.253281 230.259064 
L 266.615034 249.186233 
L 267.211927 279.380934 
L 267.428978 282.497466 
L 267.465154 282.49776 
L 267.483241 282.445077 
L 267.591767 281.437294 
L 267.808819 276.607634 
L 268.405712 262.367342 
L 268.478062 262.129811 
L 268.532325 262.25983 
L 268.658939 263.565201 
L 268.894078 269.057558 
L 269.472883 283.21007 
L 269.527146 283.364499 
L 269.581409 283.196154 
L 269.708022 281.493632 
L 269.925074 274.416673 
L 270.34109 251.254194 
L 270.829457 228.029514 
L 271.082684 223.801821 
L 271.173122 223.523229 
L 271.227385 223.58245 
L 271.372086 224.250963 
L 271.607226 225.229832 
L 271.625313 225.218878 
L 271.697664 224.964434 
L 271.824277 223.52326 
L 272.023242 218.080678 
L 272.312644 202.849129 
L 273.361728 139.873216 
L 273.596867 137.276341 
L 273.705393 137.150222 
L 273.741568 137.1789 
L 273.904357 137.299532 
L 273.940532 137.249073 
L 274.049058 136.72721 
L 274.211847 134.433418 
L 274.428899 127.663187 
L 274.772564 108.500646 
L 275.49607 66.885415 
L 275.73121 63.154551 
L 275.767385 63.102115 
L 275.80356 63.17315 
L 275.912086 64.041484 
L 276.165313 68.499609 
L 276.527066 73.823106 
L 276.581329 73.934097 
L 276.617505 73.870027 
L 276.726031 72.980546 
L 276.906907 69.181531 
L 277.26866 55.437716 
L 277.720851 40.939192 
L 277.847465 40.079113 
L 277.88364 40.17167 
L 277.992166 41.361357 
L 278.19113 46.845711 
L 278.625234 67.386977 
L 279.04125 82.826405 
L 279.258302 85.16655 
L 279.294477 85.173614 
L 279.330652 85.086625 
L 279.457266 84.167753 
L 279.927545 79.574138 
L 279.981808 79.717898 
L 280.090333 80.826799 
L 280.27121 85.442798 
L 280.560612 100.017926 
L 281.591608 159.155805 
L 281.826748 161.667915 
L 281.989537 161.862289 
L 282.11615 161.949196 
L 282.224676 162.428226 
L 282.387465 164.533233 
L 282.604517 171.006276 
L 282.930095 189.10842 
L 283.816389 242.680855 
L 284.051529 245.813484 
L 284.087704 245.846621 
L 284.123879 245.783553 
L 284.250493 244.961339 
L 284.684597 241.319706 
L 284.720772 241.382002 
L 284.829298 242.198034 
L 285.010174 245.888046 
L 285.299577 257.482323 
L 286.023083 288.484263 
L 286.167784 289.583935 
L 286.185872 289.55059 
L 286.27631 288.832358 
L 286.457186 284.919101 
L 286.909378 267.985956 
L 287.253043 259.33385 
L 287.379656 258.627296 
L 287.415832 258.684933 
L 287.524358 259.491685 
L 287.759497 263.670502 
L 288.193601 271.130286 
L 288.247864 271.231231 
L 288.284039 271.137243 
L 288.392565 270.018265 
L 288.573441 265.208973 
L 288.880931 249.469181 
L 289.712963 203.581459 
L 289.96619 199.90883 
L 290.092804 199.648261 
L 290.128979 199.67965 
L 290.346031 199.943827 
L 290.382206 199.881878 
L 290.490732 199.273587 
L 290.653521 196.700201 
L 290.888661 188.421825 
L 291.250414 165.625443 
L 291.992007 117.738063 
L 292.263322 111.905697 
L 292.408023 111.352235 
L 292.426111 111.368043 
L 292.552724 111.788333 
L 292.787864 112.565519 
L 292.805951 112.549289 
L 292.89639 112.174487 
L 293.041091 110.3025 
L 293.258143 103.948703 
L 293.601808 86.013126 
L 294.252963 52.515729 
L 294.470015 49.671403 
L 294.524278 49.780959 
L 294.650892 51.156025 
L 294.904119 57.225294 
L 295.392485 68.208483 
L 295.482924 68.544164 
L 295.519099 68.473966 
L 295.627625 67.564506 
L 295.826589 63.459244 
L 296.550095 45.717857 
L 296.568183 45.721533 
L 296.640533 46.106181 
L 296.785234 48.68519 
L 297.038462 58.525721 
L 298.015195 102.63509 
L 298.177983 103.548546 
L 298.196071 103.540933 
L 298.286509 103.265719 
L 298.648262 101.469407 
L 298.702525 101.604903 
L 298.829139 102.817299 
L 299.010015 107.235336 
L 299.28133 120.323521 
L 300.475115 187.845516 
L 300.674079 189.053561 
L 300.800693 189.024021 
L 300.927306 189.007011 
L 300.945394 189.037241 
L 301.05392 189.535173 
L 301.216709 191.749484 
L 301.43376 198.385603 
L 301.759338 216.277989 
L 302.555195 261.833689 
L 302.772247 264.768087 
L 302.808422 264.784846 
L 302.844597 264.683616 
L 302.971211 263.533613 
L 303.586191 255.028364 
L 303.658541 255.292942 
L 303.803243 257.226661 
L 304.038382 264.122416 
L 304.834239 290.706456 
L 304.870414 290.799859 
L 304.924677 290.65402 
L 305.033203 289.340528 
L 305.232167 283.704253 
L 305.738621 260.240262 
L 306.100374 249.069756 
L 306.281251 247.727672 
L 306.299338 247.742028 
L 306.389777 248.155558 
L 306.606828 250.732316 
L 306.950494 254.110819 
L 307.004757 254.000152 
L 307.113283 252.947067 
L 307.294159 248.403144 
L 307.583561 233.935147 
L 308.59647 175.938213 
L 308.831609 173.268694 
L 308.994398 173.044858 
L 309.139099 172.953664 
L 309.247625 172.446209 
L 309.410414 170.263456 
L 309.627466 163.640877 
L 309.953044 145.290474 
L 310.839338 91.374177 
L 311.074478 88.148377 
L 311.110653 88.094932 
L 311.164916 88.18823 
L 311.309617 89.18949 
L 311.689458 91.997449 
L 311.707546 91.974072 
L 311.797984 91.482723 
L 311.960773 88.821458 
L 312.214 79.993153 
L 313.154558 41.759695 
L 313.190733 41.680026 
L 313.244996 41.841274 
L 313.371609 43.456947 
L 313.606749 50.133659 
L 314.275992 70.33442 
L 314.384518 70.81665 
L 314.420693 70.7459 
L 314.529219 69.889687 
L 314.764359 65.513433 
L 315.234637 57.049122 
L 315.270813 56.983639 
L 315.306988 57.049662 
L 315.397426 57.826604 
L 315.560215 61.548509 
L 315.83153 73.971383 
L 316.808263 124.73469 
L 317.025315 126.743403 
L 317.097665 126.798653 
L 317.133841 126.758964 
L 317.36898 126.36941 
L 317.423243 126.475282 
L 317.531769 127.201681 
L 317.694558 130.057105 
L 317.929697 138.849574 
L 318.309538 163.613528 
L 318.996869 208.087451 
L 319.286271 214.575126 
L 319.430972 215.168172 
L 319.44906 215.159779 
L 319.557586 214.878621 
L 319.792725 214.216653 
L 319.810813 214.235374 
L 319.901251 214.611523 
L 320.045952 216.457144 
L 320.263004 222.755718 
L 320.606669 240.768397 
L 321.275913 276.019727 
L 321.492964 279.034909 
L 321.52914 279.027092 
L 321.547227 278.972166 
L 321.655753 277.982901 
L 321.890893 272.933409 
L 322.397347 261.926947 
L 322.487785 261.625161 
L 322.52396 261.708095 
L 322.632486 262.658713 
L 322.83145 266.88214 
L 323.591132 286.100077 
L 323.609219 286.075745 
L 323.699658 285.391034 
L 323.862446 281.792271 
L 324.151849 269.038278 
L 324.929618 232.632373 
L 325.14667 230.329983 
L 325.182845 230.294441 
L 325.237108 230.384957 
L 325.399897 231.352912 
L 325.671211 232.802027 
L 325.689299 232.787218 
L 325.779737 232.356441 
L 325.924439 230.170236 
L 326.14149 222.797809 
L 326.485156 201.797102 
L 327.262925 152.303484 
L 327.534239 146.595241 
L 327.733204 145.774167 
L 327.986431 145.673341 
L 328.113044 144.808777 
L 328.293921 141.508991 
L 328.547148 131.728424 
L 328.981251 103.780643 
L 329.523881 73.162018 
L 329.777108 68.586331 
L 329.831371 68.476133 
L 329.867546 68.549821 
L 329.976072 69.376652 
L 330.265475 74.017785 
L 330.554877 77.211109 
L 330.591052 77.233401 
L 330.627228 77.147274 
L 330.735753 76.199905 
L 330.934718 71.734639 
L 331.296471 57.024279 
L 331.76675 40.622901 
L 331.911451 39.516129 
L 331.929538 39.547915 
L 332.019977 40.27678 
L 332.200853 44.413795 
L 332.544518 58.992384 
L 333.050973 78.308591 
L 333.268024 80.56634 
L 333.322287 80.50638 
L 333.430813 79.773816 
L 333.738303 75.411187 
L 333.99153 73.355346 
L 334.063881 73.635065 
L 334.190495 75.385798 
L 334.389459 81.695881 
L 334.715036 100.380965 
L 335.510893 147.7326 
L 335.782208 152.542031 
L 335.963084 153.103932 
L 336.180136 153.238716 
L 336.30675 154.04675 
L 336.487626 157.226075 
L 336.722766 166.041248 
L 337.102606 190.483198 
L 337.771849 232.728763 
L 338.043164 238.530543 
L 338.15169 238.906661 
L 338.187865 238.844563 
L 338.314479 238.104859 
L 338.676232 235.571173 
L 338.712407 235.603856 
L 338.802845 236.107525 
L 338.965634 238.773449 
L 339.218861 247.645774 
L 340.195594 287.901463 
L 340.23177 287.938685 
L 340.267945 287.827612 
L 340.376471 286.648206 
L 340.593523 281.143611 
L 341.317029 260.766981 
L 341.389379 260.587379 
L 341.425555 260.67139 
L 341.534081 261.576803 
L 341.76922 266.147255 
L 342.257587 275.608233 
L 342.311849 275.702243 
L 342.348025 275.596441 
L 342.456551 274.417229 
L 342.637427 269.481959 
L 342.944917 253.742321 
L 343.722686 211.815278 
L 343.975913 207.972103 
L 344.084439 207.708719 
L 344.120614 207.736774 
L 344.391929 208.309282 
L 344.46428 208.150001 
L 344.590893 207.06695 
L 344.77177 203.100076 
L 345.024997 191.905406 
L 345.495276 158.375362 
L 346.019818 126.513422 
L 346.30922 120.042239 
L 346.472009 119.417905 
L 346.490097 119.432653 
L 346.634798 119.830527 
L 346.779499 120.148053 
L 346.815674 120.121529 
L 346.906113 119.746641 
L 347.050814 117.932971 
L 347.267866 111.702045 
L 347.611531 93.641047 
L 348.316949 56.155205 
L 348.534001 53.416501 
L 348.588264 53.533871 
L 348.714878 54.870322 
L 348.986192 61.008779 
L 349.402208 69.175345 
L 349.474559 69.446954 
L 349.528822 69.34769 
L 349.637348 68.357276 
L 349.836312 64.020878 
L 350.614081 43.273648 
L 350.650256 43.327228 
L 350.740694 44.122215 
L 350.921571 48.504895 
L 351.229061 62.747521 
L 351.898304 93.926274 
L 352.133443 96.961301 
L 352.187706 97.036169 
L 352.223882 96.982654 
L 352.350495 96.302491 
L 352.694161 94.0536 
L 352.730336 94.087752 
L 352.820774 94.611788 
L 352.983563 97.468523 
L 353.218702 106.569929 
L 353.616631 132.978723 
L 354.249698 172.720439 
L 354.539101 179.408261 
L 354.738065 180.382252 
L 355.027467 180.656808 
L 355.172169 181.997537 
L 355.371133 186.610962 
L 355.642448 198.997627 
L 356.763882 258.778573 
L 356.85432 259.179775 
L 356.908583 259.068664 
L 357.035197 257.98752 
L 357.577826 251.357978 
L 357.650177 251.552005 
L 357.77679 252.995441 
L 357.993842 258.766763 
L 358.482209 280.234622 
L 358.825874 290.349181 
L 358.9344 291.058304 
L 358.970575 290.990266 
L 359.079101 289.881786 
L 359.278065 284.655702 
L 359.802607 261.906511 
L 360.146272 252.772182 
L 360.290974 251.997126 
L 360.309061 252.023524 
L 360.399499 252.515248 
L 360.616551 255.447474 
L 360.996392 260.094501 
L 361.032567 260.097982 
L 361.050655 260.055562 
L 361.141093 259.365097 
L 361.303882 255.917274 
L 361.557109 244.815895 
L 362.190177 202.399235 
L 362.570017 185.844135 
L 362.823245 182.124973 
L 363.004121 181.763029 
L 363.16691 181.736245 
L 363.275436 181.285849 
L 363.420137 179.538596 
L 363.637189 173.428248 
L 363.944679 156.875628 
L 364.921412 97.823906 
L 365.138464 95.261281 
L 365.174639 95.217827 
L 365.228902 95.308585 
L 365.373603 96.189597 
L 365.681093 98.043965 
L 365.699181 98.034379 
L 365.771532 97.770454 
L 365.916233 95.979427 
L 366.133285 89.73538 
L 366.513125 70.557705 
L 367.037667 46.308214 
L 367.254719 43.623779 
L 367.308982 43.794821 
L 367.435595 45.393946 
L 367.688822 52.412003 
L 368.267627 68.664767 
L 368.376153 69.24938 
L 368.412328 69.209731 
L 368.502767 68.616364 
L 368.683643 65.598266 
L 369.334799 52.777556 
L 369.352886 52.798411 
L 369.425237 53.236851 
L 369.569938 55.892109 
L 369.805077 65.094466 
L 370.944599 118.403579 
L 371.089301 118.906104 
L 371.107388 118.894003 
L 371.234002 118.556128 
L 371.414878 118.107433 
L 371.451054 118.142786 
L 371.541492 118.560504 
L 371.686193 120.528656 
L 371.903245 127.309869 
L 372.228823 146.240828 
L 373.115117 202.274167 
L 373.368345 206.61529 
L 373.494958 206.986098 
L 373.531133 206.958564 
L 373.802448 206.447061 
L 373.856711 206.561954 
L 373.983325 207.521792 
L 374.164201 211.133395 
L 374.435516 222.246691 
L 375.520775 274.896307 
L 375.575038 275.025583 
L 375.611213 274.94475 
L 375.719739 273.981199 
L 375.954878 269.260348 
L 376.40707 260.567543 
L 376.47942 260.323514 
L 376.533683 260.441369 
L 376.642209 261.470039 
L 376.841173 265.913829 
L 377.655118 288.24568 
L 377.691293 288.149604 
L 377.799819 286.949916 
L 377.998783 281.348587 
L 378.378624 262.394251 
L 378.885078 240.062533 
L 379.138305 236.597823 
L 379.192568 236.534844 
L 379.228743 236.599718 
L 379.355357 237.345673 
L 379.735197 240.044368 
L 379.771373 239.981715 
L 379.879899 239.144904 
L 380.042687 235.72752 
L 380.295914 224.755392 
L 380.766193 191.823381 
L 381.272648 161.991883 
L 381.56205 155.452066 
L 381.761014 154.510882 
L 382.032329 154.242246 
L 382.17703 152.978117 
L 382.375994 148.519214 
L 382.647309 136.320255 
L 383.804919 74.62875 
L 383.895357 74.322535 
L 383.931532 74.39763 
L 384.058146 75.371849 
L 384.582688 81.265177 
L 384.655038 81.051633 
L 384.781652 79.582342 
L 384.998703 73.743388 
L 385.450895 53.302911 
L 385.830735 40.646199 
L 385.975437 39.56704 
L 385.993524 39.603263 
L 386.083962 40.349125 
L 386.264839 44.448191 
L 386.64468 60.041338 
L 387.078783 74.846109 
L 387.277747 76.658327 
L 387.33201 76.560881 
L 387.458624 75.508845 
L 387.820377 69.517321 
L 388.055516 67.585405 
L 388.127867 67.895604 
L 388.25448 69.750551 
L 388.471532 77.076927 
L 388.833285 98.811691 
L 389.502528 138.049948 
L 389.791931 143.803694 
L 389.972807 144.448469 
L 390.226034 144.524401 
L 390.352648 145.379519 
L 390.533524 148.707512 
L 390.786751 158.733401 
L 391.18468 185.430407 
L 391.79966 224.546095 
L 392.070975 230.968048 
L 392.215676 231.6074 
L 392.233763 231.586516 
L 392.342289 231.135867 
L 392.685955 229.244464 
L 392.72213 229.292374 
L 392.812568 229.813679 
L 392.975357 232.470411 
L 393.228584 241.386001 
L 394.277668 285.699006 
L 394.331931 285.577407 
L 394.458544 284.102438 
L 394.711772 277.387785 
L 395.272489 262.303661 
L 395.381015 261.757537 
L 395.41719 261.810203 
L 395.525716 262.648594 
L 395.742768 266.888385 
L 396.33966 279.610873 
L 396.375835 279.633905 
L 396.393923 279.592968 
L 396.484361 278.842626 
L 396.64715 275.137198 
L 396.918465 262.890202 
L 397.822847 217.591805 
L 398.039899 215.468596 
L 398.094162 215.425413 
L 398.130337 215.470745 
L 398.311214 216.141585 
L 398.455915 216.453175 
L 398.474003 216.433267 
L 398.564441 216.036304 
L 398.709142 214.076497 
L 398.926194 207.268598 
L 399.251772 188.280984 
L 400.138067 132.414395 
L 400.391294 128.098077 
L 400.535995 127.706993 
L 400.554082 127.719992 
L 400.80731 128.089045 
L 400.861573 127.973417 
L 400.988186 127.037494 
L 401.169063 123.498199 
L 401.42229 113.412233 
L 401.928744 81.540286 
L 402.362847 60.786896 
L 402.579899 57.73106 
L 402.616075 57.717239 
L 402.634162 57.758756 
L 402.742688 58.623981 
L 402.977828 63.074906 
L 403.430019 71.019828 
L 403.484282 71.140976 
L 403.538545 71.004953 
L 403.665158 69.660034 
L 403.88221 64.261863 
L 404.678067 41.424937 
L 404.73233 41.576694 
L 404.840856 42.906408 
L 405.03982 48.69234 
L 405.455836 69.427236 
L 405.908027 88.020877 
L 406.143166 91.030344 
L 406.197429 91.080334 
L 406.233605 91.003486 
L 406.360218 90.19014 
L 406.758146 86.988154 
L 406.794322 87.03136 
L 406.88476 87.614302 
L 407.047549 90.674987 
L 407.282688 100.145774 
L 407.698704 128.117254 
L 408.277509 163.685846 
L 408.566911 170.536619 
L 408.765876 171.608084 
L 409.073366 172.051621 
L 409.218067 173.577517 
L 409.417031 178.530625 
L 409.706433 192.540063 
L 410.773605 252.158153 
L 410.918306 253.109242 
L 410.954481 253.059184 
L 411.063007 252.367772 
L 411.587549 246.980951 
L 411.677987 247.338794 
L 411.822688 249.397741 
L 412.057828 256.675528 
L 412.998386 290.702596 
L 413.052649 290.530895 
L 413.179262 288.845936 
L 413.414402 281.728728 
L 414.174083 256.065235 
L 414.282609 255.546466 
L 414.318784 255.598075 
L 414.42731 256.353785 
L 414.662449 260.150343 
L 415.04229 265.590721 
L 415.078465 265.647381 
L 415.114641 265.58188 
L 415.205079 264.839046 
L 415.367868 261.240202 
L 415.639183 248.900688 
L 416.706354 192.09483 
L 416.923406 190.390959 
L 417.013844 190.34894 
L 417.050019 190.377959 
L 417.19472 190.437607 
L 417.212808 190.412423 
L 417.321334 189.948887 
L 417.466035 188.125358 
L 417.683087 181.809812 
L 417.990577 164.907629 
L 418.96731 105.448461 
L 419.20245 102.716964 
L 419.256713 102.694439 
L 419.292888 102.768749 
L 419.455677 103.639331 
L 419.690816 104.638676 
L 419.708904 104.621578 
L 419.799342 104.211941 
L 419.944043 102.208202 
L 420.161095 95.625963 
L 420.540936 75.659159 
L 421.083565 49.230321 
L 421.300617 46.172978 
L 421.336792 46.185835 
L 421.35488 46.245843 
L 421.463406 47.311087 
L 421.680458 52.352473 
L 422.313525 68.252298 
L 422.385876 68.473453 
L 422.440139 68.331152 
L 422.566753 67.013389 
L 422.81998 61.132144 
L 423.326434 49.365358 
L 423.398784 49.120651 
L 423.43496 49.20807 
L 423.543486 50.356267 
L 423.724362 55.252596 
L 424.04994 71.71908 
L 424.737271 107.126123 
L 424.990498 111.144722 
L 425.080936 111.391538 
L 425.135199 111.330862 
L 425.316075 110.553804 
L 425.478864 110.082296 
L 425.515039 110.127531 
L 425.605478 110.612312 
L 425.750179 112.792809 
L 425.967231 120.030808 
L 426.310896 140.869094 
L 427.12484 192.805089 
L 427.396155 198.054941 
L 427.558944 198.600433 
L 427.577032 198.592807 
L 427.812171 198.339142 
L 427.866434 198.453973 
L 427.993048 199.361643 
L 428.173924 202.819892 
L 428.427151 212.801883 
L 428.915518 243.792226 
L 429.367709 266.713325 
L 429.602848 270.425041 
L 429.639024 270.467111 
L 429.675199 270.382618 
L 429.783725 269.452077 
L 430.036952 264.69214 
L 430.43488 258.344423 
L 430.489143 258.243136 
L 430.525319 258.316607 
L 430.633844 259.239707 
L 430.832809 263.589629 
L 431.266912 280.007215 
L 431.610578 289.209158 
L 431.719103 289.790824 
L 431.755279 289.684789 
L 431.863805 288.453808 
L 432.062769 282.859485 
L 432.478785 262.646478 
L 432.930976 244.808913 
L 433.166115 242.194062 
L 433.202291 242.194082 
L 433.220378 242.228133 
L 433.328904 242.838152 
L 433.799183 246.921442 
L 433.871534 246.662417 
L 433.998147 245.035898 
L 434.197111 239.028052 
L 434.504602 221.834067 
L 435.390896 168.056803 
L 435.662211 163.712096 
L 435.843088 163.271037 
L 435.843088 163.271037 
" clip-path="url(#peaeff7c5bb)" style="fill: none; stroke: #1f77b4; stroke-width: 1.5; stroke-linecap: square"/>
   </g>
   <g id="patch_3">
    <path d="M 74.072 303.64 
L 74.072 26.88 
" style="fill: none; stroke: #000000; stroke-width: 0.8; stroke-linejoin: miter; stroke-linecap: square"/>
   </g>
   <g id="patch_4">
    <path d="M 435.825 303.64 
L 435.825 26.88 
" style="fill: none; stroke: #000000; stroke-width: 0.8; stroke-linejoin: miter; stroke-linecap: square"/>
   </g>
   <g id="patch_5">
    <path d="M 74.072 303.64 
L 435.825 303.64 
" style="fill: none; stroke: #000000; stroke-width: 0.8; stroke-linejoin: miter; stroke-linecap: square"/>
   </g>
   <g id="patch_6">
    <path d="M 74.072 26.88 
L 435.825 26.88 
" style="fill: none; stroke: #000000; stroke-width: 0.8; stroke-linejoin: miter; stroke-linecap: square"/>
   </g>
   <g id="text_17">
    <!-- Displacement vs Time -->
    <g transform="translate(188.530375 20.88)scale(0.12 -0.12)">
     <defs>
      <path id="DejaVuSans-76" d="M 191 3500 
L 800 3500 
L 1894 563 
L 2988 3500 
L 3597 3500 
L 2284 0 
L 1503 0 
L 191 3500 
z
" transform="scale(0.015625)"/>
     </defs>
     <use xlink:href="#DejaVuSans-44"/>
     <use xlink:href="#DejaVuSans-69" x="77.001953"/>
     <use xlink:href="#DejaVuSans-73" x="104.785156"/>
     <use xlink:href="#DejaVuSans-70" x="156.884766"/>
     <use xlink:href="#DejaVuSans-6c" x="220.361328"/>
     <use xlink:href="#DejaVuSans-61" x="248.144531"/>
     <use xlink:href="#DejaVuSans-63" x="309.423828"/>
     <use xlink:href="#DejaVuSans-65" x="364.404297"/>
     <use xlink:href="#DejaVuSans-6d" x="425.927734"/>
     <use xlink:href="#DejaVuSans-65" x="523.339844"/>
     <use xlink:href="#DejaVuSans-6e" x="584.863281"/>
     <use xlink:href="#DejaVuSans-74" x="648.242188"/>
     <use xlink:href="#DejaVuSans-20" x="687.451172"/>
     <use xlink:href="#DejaVuSans-76" x="719.238281"/>
     <use xlink:href="#DejaVuSans-73" x="778.417969"/>
     <use xlink:href="#DejaVuSans-20" x="830.517578"/>
     <use xlink:href="#DejaVuSans-54" x="862.304688"/>
     <use xlink:href="#DejaVuSans-69" x="920.263672"/>
     <use xlink:href="#DejaVuSans-6d" x="948.046875"/>
     <use xlink:href="#DejaVuSans-65" x="1045.458984"/>
    </g>
   </g>
  </g>
 </g>
 <defs>
  <clipPath id="peaeff7c5bb">
   <rect x="74.072" y="26.88" width="361.753" height="276.76"/>
  </clipPath>
 </defs>
</svg>
