<?xml version="1.0" encoding="utf-8" standalone="no"?>
<!DOCTYPE svg PUBLIC "-//W3C//DTD SVG 1.1//EN"
  "http://www.w3.org/Graphics/SVG/1.1/DTD/svg11.dtd">
<!-- Created with matplotlib (https://matplotlib.org/) -->
<svg height="345.6pt" version="1.1" viewBox="0 0 636.48 345.6" width="636.48pt" xmlns="http://www.w3.org/2000/svg" xmlns:xlink="http://www.w3.org/1999/xlink">
 <metadata>
  <rdf:RDF xmlns:cc="http://creativecommons.org/ns#" xmlns:dc="http://purl.org/dc/elements/1.1/" xmlns:rdf="http://www.w3.org/1999/02/22-rdf-syntax-ns#">
   <cc:Work>
    <dc:type rdf:resource="http://purl.org/dc/dcmitype/StillImage"/>
    <dc:date>2021-11-22T16:26:13.195152</dc:date>
    <dc:format>image/svg+xml</dc:format>
    <dc:creator>
     <cc:Agent>
      <dc:title>Matplotlib v3.3.2, https://matplotlib.org/</dc:title>
     </cc:Agent>
    </dc:creator>
   </cc:Work>
  </rdf:RDF>
 </metadata>
 <defs>
  <style type="text/css">*{stroke-linecap:butt;stroke-linejoin:round;}</style>
 </defs>
 <g id="figure_1">
  <g id="patch_1">
   <path d="M 0 345.6 
L 636.48 345.6 
L 636.48 0 
L 0 0 
z
" style="fill:#ffffff;"/>
  </g>
  <g id="axes_1">
   <g id="patch_2">
    <path d="M 79.56 307.584 
L 572.832 307.584 
L 572.832 41.472 
L 79.56 41.472 
z
" style="fill:#ffffff;"/>
   </g>
   <g id="matplotlib.axis_1">
    <g id="xtick_1">
     <g id="line2d_1">
      <path clip-path="url(#pc592e4cadc)" d="M 108.276774 307.584 
L 108.276774 41.472 
" style="fill:none;stroke:#b0b0b0;stroke-linecap:square;stroke-width:0.8;"/>
     </g>
     <g id="line2d_2">
      <defs>
       <path d="M 0 0 
L 0 3.5 
" id="mb05725e9ea" style="stroke:#000000;stroke-width:0.8;"/>
      </defs>
      <g>
       <use style="stroke:#000000;stroke-width:0.8;" x="108.276774" xlink:href="#mb05725e9ea" y="307.584"/>
      </g>
     </g>
     <g id="text_1">
      <!-- 5 -->
      <g transform="translate(105.095524 322.182437)scale(0.1 -0.1)">
       <defs>
        <path d="M 10.796875 72.90625 
L 49.515625 72.90625 
L 49.515625 64.59375 
L 19.828125 64.59375 
L 19.828125 46.734375 
Q 21.96875 47.46875 24.109375 47.828125 
Q 26.265625 48.1875 28.421875 48.1875 
Q 40.625 48.1875 47.75 41.5 
Q 54.890625 34.8125 54.890625 23.390625 
Q 54.890625 11.625 47.5625 5.09375 
Q 40.234375 -1.421875 26.90625 -1.421875 
Q 22.3125 -1.421875 17.546875 -0.640625 
Q 12.796875 0.140625 7.71875 1.703125 
L 7.71875 11.625 
Q 12.109375 9.234375 16.796875 8.0625 
Q 21.484375 6.890625 26.703125 6.890625 
Q 35.15625 6.890625 40.078125 11.328125 
Q 45.015625 15.765625 45.015625 23.390625 
Q 45.015625 31 40.078125 35.4375 
Q 35.15625 39.890625 26.703125 39.890625 
Q 22.75 39.890625 18.8125 39.015625 
Q 14.890625 38.140625 10.796875 36.28125 
z
" id="DejaVuSans-53"/>
       </defs>
       <use xlink:href="#DejaVuSans-53"/>
      </g>
     </g>
    </g>
    <g id="xtick_2">
     <g id="line2d_3">
      <path clip-path="url(#pc592e4cadc)" d="M 164.484983 307.584 
L 164.484983 41.472 
" style="fill:none;stroke:#b0b0b0;stroke-linecap:square;stroke-width:0.8;"/>
     </g>
     <g id="line2d_4">
      <g>
       <use style="stroke:#000000;stroke-width:0.8;" x="164.484983" xlink:href="#mb05725e9ea" y="307.584"/>
      </g>
     </g>
     <g id="text_2">
      <!-- 10 -->
      <g transform="translate(158.122483 322.182437)scale(0.1 -0.1)">
       <defs>
        <path d="M 12.40625 8.296875 
L 28.515625 8.296875 
L 28.515625 63.921875 
L 10.984375 60.40625 
L 10.984375 69.390625 
L 28.421875 72.90625 
L 38.28125 72.90625 
L 38.28125 8.296875 
L 54.390625 8.296875 
L 54.390625 0 
L 12.40625 0 
z
" id="DejaVuSans-49"/>
        <path d="M 31.78125 66.40625 
Q 24.171875 66.40625 20.328125 58.90625 
Q 16.5 51.421875 16.5 36.375 
Q 16.5 21.390625 20.328125 13.890625 
Q 24.171875 6.390625 31.78125 6.390625 
Q 39.453125 6.390625 43.28125 13.890625 
Q 47.125 21.390625 47.125 36.375 
Q 47.125 51.421875 43.28125 58.90625 
Q 39.453125 66.40625 31.78125 66.40625 
z
M 31.78125 74.21875 
Q 44.046875 74.21875 50.515625 64.515625 
Q 56.984375 54.828125 56.984375 36.375 
Q 56.984375 17.96875 50.515625 8.265625 
Q 44.046875 -1.421875 31.78125 -1.421875 
Q 19.53125 -1.421875 13.0625 8.265625 
Q 6.59375 17.96875 6.59375 36.375 
Q 6.59375 54.828125 13.0625 64.515625 
Q 19.53125 74.21875 31.78125 74.21875 
z
" id="DejaVuSans-48"/>
       </defs>
       <use xlink:href="#DejaVuSans-49"/>
       <use x="63.623047" xlink:href="#DejaVuSans-48"/>
      </g>
     </g>
    </g>
    <g id="xtick_3">
     <g id="line2d_5">
      <path clip-path="url(#pc592e4cadc)" d="M 220.693192 307.584 
L 220.693192 41.472 
" style="fill:none;stroke:#b0b0b0;stroke-linecap:square;stroke-width:0.8;"/>
     </g>
     <g id="line2d_6">
      <g>
       <use style="stroke:#000000;stroke-width:0.8;" x="220.693192" xlink:href="#mb05725e9ea" y="307.584"/>
      </g>
     </g>
     <g id="text_3">
      <!-- 15 -->
      <g transform="translate(214.330692 322.182437)scale(0.1 -0.1)">
       <use xlink:href="#DejaVuSans-49"/>
       <use x="63.623047" xlink:href="#DejaVuSans-53"/>
      </g>
     </g>
    </g>
    <g id="xtick_4">
     <g id="line2d_7">
      <path clip-path="url(#pc592e4cadc)" d="M 276.901401 307.584 
L 276.901401 41.472 
" style="fill:none;stroke:#b0b0b0;stroke-linecap:square;stroke-width:0.8;"/>
     </g>
     <g id="line2d_8">
      <g>
       <use style="stroke:#000000;stroke-width:0.8;" x="276.901401" xlink:href="#mb05725e9ea" y="307.584"/>
      </g>
     </g>
     <g id="text_4">
      <!-- 20 -->
      <g transform="translate(270.538901 322.182437)scale(0.1 -0.1)">
       <defs>
        <path d="M 19.1875 8.296875 
L 53.609375 8.296875 
L 53.609375 0 
L 7.328125 0 
L 7.328125 8.296875 
Q 12.9375 14.109375 22.625 23.890625 
Q 32.328125 33.6875 34.8125 36.53125 
Q 39.546875 41.84375 41.421875 45.53125 
Q 43.3125 49.21875 43.3125 52.78125 
Q 43.3125 58.59375 39.234375 62.25 
Q 35.15625 65.921875 28.609375 65.921875 
Q 23.96875 65.921875 18.8125 64.3125 
Q 13.671875 62.703125 7.8125 59.421875 
L 7.8125 69.390625 
Q 13.765625 71.78125 18.9375 73 
Q 24.125 74.21875 28.421875 74.21875 
Q 39.75 74.21875 46.484375 68.546875 
Q 53.21875 62.890625 53.21875 53.421875 
Q 53.21875 48.921875 51.53125 44.890625 
Q 49.859375 40.875 45.40625 35.40625 
Q 44.1875 33.984375 37.640625 27.21875 
Q 31.109375 20.453125 19.1875 8.296875 
z
" id="DejaVuSans-50"/>
       </defs>
       <use xlink:href="#DejaVuSans-50"/>
       <use x="63.623047" xlink:href="#DejaVuSans-48"/>
      </g>
     </g>
    </g>
    <g id="xtick_5">
     <g id="line2d_9">
      <path clip-path="url(#pc592e4cadc)" d="M 333.10961 307.584 
L 333.10961 41.472 
" style="fill:none;stroke:#b0b0b0;stroke-linecap:square;stroke-width:0.8;"/>
     </g>
     <g id="line2d_10">
      <g>
       <use style="stroke:#000000;stroke-width:0.8;" x="333.10961" xlink:href="#mb05725e9ea" y="307.584"/>
      </g>
     </g>
     <g id="text_5">
      <!-- 25 -->
      <g transform="translate(326.74711 322.182437)scale(0.1 -0.1)">
       <use xlink:href="#DejaVuSans-50"/>
       <use x="63.623047" xlink:href="#DejaVuSans-53"/>
      </g>
     </g>
    </g>
    <g id="xtick_6">
     <g id="line2d_11">
      <path clip-path="url(#pc592e4cadc)" d="M 389.317819 307.584 
L 389.317819 41.472 
" style="fill:none;stroke:#b0b0b0;stroke-linecap:square;stroke-width:0.8;"/>
     </g>
     <g id="line2d_12">
      <g>
       <use style="stroke:#000000;stroke-width:0.8;" x="389.317819" xlink:href="#mb05725e9ea" y="307.584"/>
      </g>
     </g>
     <g id="text_6">
      <!-- 30 -->
      <g transform="translate(382.955319 322.182437)scale(0.1 -0.1)">
       <defs>
        <path d="M 40.578125 39.3125 
Q 47.65625 37.796875 51.625 33 
Q 55.609375 28.21875 55.609375 21.1875 
Q 55.609375 10.40625 48.1875 4.484375 
Q 40.765625 -1.421875 27.09375 -1.421875 
Q 22.515625 -1.421875 17.65625 -0.515625 
Q 12.796875 0.390625 7.625 2.203125 
L 7.625 11.71875 
Q 11.71875 9.328125 16.59375 8.109375 
Q 21.484375 6.890625 26.8125 6.890625 
Q 36.078125 6.890625 40.9375 10.546875 
Q 45.796875 14.203125 45.796875 21.1875 
Q 45.796875 27.640625 41.28125 31.265625 
Q 36.765625 34.90625 28.71875 34.90625 
L 20.21875 34.90625 
L 20.21875 43.015625 
L 29.109375 43.015625 
Q 36.375 43.015625 40.234375 45.921875 
Q 44.09375 48.828125 44.09375 54.296875 
Q 44.09375 59.90625 40.109375 62.90625 
Q 36.140625 65.921875 28.71875 65.921875 
Q 24.65625 65.921875 20.015625 65.03125 
Q 15.375 64.15625 9.8125 62.3125 
L 9.8125 71.09375 
Q 15.4375 72.65625 20.34375 73.4375 
Q 25.25 74.21875 29.59375 74.21875 
Q 40.828125 74.21875 47.359375 69.109375 
Q 53.90625 64.015625 53.90625 55.328125 
Q 53.90625 49.265625 50.4375 45.09375 
Q 46.96875 40.921875 40.578125 39.3125 
z
" id="DejaVuSans-51"/>
       </defs>
       <use xlink:href="#DejaVuSans-51"/>
       <use x="63.623047" xlink:href="#DejaVuSans-48"/>
      </g>
     </g>
    </g>
    <g id="xtick_7">
     <g id="line2d_13">
      <path clip-path="url(#pc592e4cadc)" d="M 445.526028 307.584 
L 445.526028 41.472 
" style="fill:none;stroke:#b0b0b0;stroke-linecap:square;stroke-width:0.8;"/>
     </g>
     <g id="line2d_14">
      <g>
       <use style="stroke:#000000;stroke-width:0.8;" x="445.526028" xlink:href="#mb05725e9ea" y="307.584"/>
      </g>
     </g>
     <g id="text_7">
      <!-- 35 -->
      <g transform="translate(439.163528 322.182437)scale(0.1 -0.1)">
       <use xlink:href="#DejaVuSans-51"/>
       <use x="63.623047" xlink:href="#DejaVuSans-53"/>
      </g>
     </g>
    </g>
    <g id="xtick_8">
     <g id="line2d_15">
      <path clip-path="url(#pc592e4cadc)" d="M 501.734237 307.584 
L 501.734237 41.472 
" style="fill:none;stroke:#b0b0b0;stroke-linecap:square;stroke-width:0.8;"/>
     </g>
     <g id="line2d_16">
      <g>
       <use style="stroke:#000000;stroke-width:0.8;" x="501.734237" xlink:href="#mb05725e9ea" y="307.584"/>
      </g>
     </g>
     <g id="text_8">
      <!-- 40 -->
      <g transform="translate(495.371737 322.182437)scale(0.1 -0.1)">
       <defs>
        <path d="M 37.796875 64.3125 
L 12.890625 25.390625 
L 37.796875 25.390625 
z
M 35.203125 72.90625 
L 47.609375 72.90625 
L 47.609375 25.390625 
L 58.015625 25.390625 
L 58.015625 17.1875 
L 47.609375 17.1875 
L 47.609375 0 
L 37.796875 0 
L 37.796875 17.1875 
L 4.890625 17.1875 
L 4.890625 26.703125 
z
" id="DejaVuSans-52"/>
       </defs>
       <use xlink:href="#DejaVuSans-52"/>
       <use x="63.623047" xlink:href="#DejaVuSans-48"/>
      </g>
     </g>
    </g>
    <g id="xtick_9">
     <g id="line2d_17">
      <path clip-path="url(#pc592e4cadc)" d="M 557.942445 307.584 
L 557.942445 41.472 
" style="fill:none;stroke:#b0b0b0;stroke-linecap:square;stroke-width:0.8;"/>
     </g>
     <g id="line2d_18">
      <g>
       <use style="stroke:#000000;stroke-width:0.8;" x="557.942445" xlink:href="#mb05725e9ea" y="307.584"/>
      </g>
     </g>
     <g id="text_9">
      <!-- 45 -->
      <g transform="translate(551.579945 322.182437)scale(0.1 -0.1)">
       <use xlink:href="#DejaVuSans-52"/>
       <use x="63.623047" xlink:href="#DejaVuSans-53"/>
      </g>
     </g>
    </g>
    <g id="text_10">
     <!-- Diameter [mm] -->
     <g transform="translate(287.622563 335.860562)scale(0.1 -0.1)">
      <defs>
       <path d="M 19.671875 64.796875 
L 19.671875 8.109375 
L 31.59375 8.109375 
Q 46.6875 8.109375 53.6875 14.9375 
Q 60.6875 21.78125 60.6875 36.53125 
Q 60.6875 51.171875 53.6875 57.984375 
Q 46.6875 64.796875 31.59375 64.796875 
z
M 9.8125 72.90625 
L 30.078125 72.90625 
Q 51.265625 72.90625 61.171875 64.09375 
Q 71.09375 55.28125 71.09375 36.53125 
Q 71.09375 17.671875 61.125 8.828125 
Q 51.171875 0 30.078125 0 
L 9.8125 0 
z
" id="DejaVuSans-68"/>
       <path d="M 9.421875 54.6875 
L 18.40625 54.6875 
L 18.40625 0 
L 9.421875 0 
z
M 9.421875 75.984375 
L 18.40625 75.984375 
L 18.40625 64.59375 
L 9.421875 64.59375 
z
" id="DejaVuSans-105"/>
       <path d="M 34.28125 27.484375 
Q 23.390625 27.484375 19.1875 25 
Q 14.984375 22.515625 14.984375 16.5 
Q 14.984375 11.71875 18.140625 8.90625 
Q 21.296875 6.109375 26.703125 6.109375 
Q 34.1875 6.109375 38.703125 11.40625 
Q 43.21875 16.703125 43.21875 25.484375 
L 43.21875 27.484375 
z
M 52.203125 31.203125 
L 52.203125 0 
L 43.21875 0 
L 43.21875 8.296875 
Q 40.140625 3.328125 35.546875 0.953125 
Q 30.953125 -1.421875 24.3125 -1.421875 
Q 15.921875 -1.421875 10.953125 3.296875 
Q 6 8.015625 6 15.921875 
Q 6 25.140625 12.171875 29.828125 
Q 18.359375 34.515625 30.609375 34.515625 
L 43.21875 34.515625 
L 43.21875 35.40625 
Q 43.21875 41.609375 39.140625 45 
Q 35.0625 48.390625 27.6875 48.390625 
Q 23 48.390625 18.546875 47.265625 
Q 14.109375 46.140625 10.015625 43.890625 
L 10.015625 52.203125 
Q 14.9375 54.109375 19.578125 55.046875 
Q 24.21875 56 28.609375 56 
Q 40.484375 56 46.34375 49.84375 
Q 52.203125 43.703125 52.203125 31.203125 
z
" id="DejaVuSans-97"/>
       <path d="M 52 44.1875 
Q 55.375 50.25 60.0625 53.125 
Q 64.75 56 71.09375 56 
Q 79.640625 56 84.28125 50.015625 
Q 88.921875 44.046875 88.921875 33.015625 
L 88.921875 0 
L 79.890625 0 
L 79.890625 32.71875 
Q 79.890625 40.578125 77.09375 44.375 
Q 74.3125 48.1875 68.609375 48.1875 
Q 61.625 48.1875 57.5625 43.546875 
Q 53.515625 38.921875 53.515625 30.90625 
L 53.515625 0 
L 44.484375 0 
L 44.484375 32.71875 
Q 44.484375 40.625 41.703125 44.40625 
Q 38.921875 48.1875 33.109375 48.1875 
Q 26.21875 48.1875 22.15625 43.53125 
Q 18.109375 38.875 18.109375 30.90625 
L 18.109375 0 
L 9.078125 0 
L 9.078125 54.6875 
L 18.109375 54.6875 
L 18.109375 46.1875 
Q 21.1875 51.21875 25.484375 53.609375 
Q 29.78125 56 35.6875 56 
Q 41.65625 56 45.828125 52.96875 
Q 50 49.953125 52 44.1875 
z
" id="DejaVuSans-109"/>
       <path d="M 56.203125 29.59375 
L 56.203125 25.203125 
L 14.890625 25.203125 
Q 15.484375 15.921875 20.484375 11.0625 
Q 25.484375 6.203125 34.421875 6.203125 
Q 39.59375 6.203125 44.453125 7.46875 
Q 49.3125 8.734375 54.109375 11.28125 
L 54.109375 2.78125 
Q 49.265625 0.734375 44.1875 -0.34375 
Q 39.109375 -1.421875 33.890625 -1.421875 
Q 20.796875 -1.421875 13.15625 6.1875 
Q 5.515625 13.8125 5.515625 26.8125 
Q 5.515625 40.234375 12.765625 48.109375 
Q 20.015625 56 32.328125 56 
Q 43.359375 56 49.78125 48.890625 
Q 56.203125 41.796875 56.203125 29.59375 
z
M 47.21875 32.234375 
Q 47.125 39.59375 43.09375 43.984375 
Q 39.0625 48.390625 32.421875 48.390625 
Q 24.90625 48.390625 20.390625 44.140625 
Q 15.875 39.890625 15.1875 32.171875 
z
" id="DejaVuSans-101"/>
       <path d="M 18.3125 70.21875 
L 18.3125 54.6875 
L 36.8125 54.6875 
L 36.8125 47.703125 
L 18.3125 47.703125 
L 18.3125 18.015625 
Q 18.3125 11.328125 20.140625 9.421875 
Q 21.96875 7.515625 27.59375 7.515625 
L 36.8125 7.515625 
L 36.8125 0 
L 27.59375 0 
Q 17.1875 0 13.234375 3.875 
Q 9.28125 7.765625 9.28125 18.015625 
L 9.28125 47.703125 
L 2.6875 47.703125 
L 2.6875 54.6875 
L 9.28125 54.6875 
L 9.28125 70.21875 
z
" id="DejaVuSans-116"/>
       <path d="M 41.109375 46.296875 
Q 39.59375 47.171875 37.8125 47.578125 
Q 36.03125 48 33.890625 48 
Q 26.265625 48 22.1875 43.046875 
Q 18.109375 38.09375 18.109375 28.8125 
L 18.109375 0 
L 9.078125 0 
L 9.078125 54.6875 
L 18.109375 54.6875 
L 18.109375 46.1875 
Q 20.953125 51.171875 25.484375 53.578125 
Q 30.03125 56 36.53125 56 
Q 37.453125 56 38.578125 55.875 
Q 39.703125 55.765625 41.0625 55.515625 
z
" id="DejaVuSans-114"/>
       <path id="DejaVuSans-32"/>
       <path d="M 8.59375 75.984375 
L 29.296875 75.984375 
L 29.296875 69 
L 17.578125 69 
L 17.578125 -6.203125 
L 29.296875 -6.203125 
L 29.296875 -13.1875 
L 8.59375 -13.1875 
z
" id="DejaVuSans-91"/>
       <path d="M 30.421875 75.984375 
L 30.421875 -13.1875 
L 9.71875 -13.1875 
L 9.71875 -6.203125 
L 21.390625 -6.203125 
L 21.390625 69 
L 9.71875 69 
L 9.71875 75.984375 
z
" id="DejaVuSans-93"/>
      </defs>
      <use xlink:href="#DejaVuSans-68"/>
      <use x="77.001953" xlink:href="#DejaVuSans-105"/>
      <use x="104.785156" xlink:href="#DejaVuSans-97"/>
      <use x="166.064453" xlink:href="#DejaVuSans-109"/>
      <use x="263.476562" xlink:href="#DejaVuSans-101"/>
      <use x="325" xlink:href="#DejaVuSans-116"/>
      <use x="364.208984" xlink:href="#DejaVuSans-101"/>
      <use x="425.732422" xlink:href="#DejaVuSans-114"/>
      <use x="466.845703" xlink:href="#DejaVuSans-32"/>
      <use x="498.632812" xlink:href="#DejaVuSans-91"/>
      <use x="537.646484" xlink:href="#DejaVuSans-109"/>
      <use x="635.058594" xlink:href="#DejaVuSans-109"/>
      <use x="732.470703" xlink:href="#DejaVuSans-93"/>
     </g>
    </g>
   </g>
   <g id="matplotlib.axis_2">
    <g id="ytick_1">
     <g id="line2d_19">
      <path clip-path="url(#pc592e4cadc)" d="M 79.56 296.50852 
L 572.832 296.50852 
" style="fill:none;stroke:#b0b0b0;stroke-linecap:square;stroke-width:0.8;"/>
     </g>
     <g id="line2d_20">
      <defs>
       <path d="M 0 0 
L -3.5 0 
" id="m5f91b915e0" style="stroke:#000000;stroke-width:0.8;"/>
      </defs>
      <g>
       <use style="stroke:#000000;stroke-width:0.8;" x="79.56" xlink:href="#m5f91b915e0" y="296.50852"/>
      </g>
     </g>
     <g id="text_11">
      <!-- 0 -->
      <g transform="translate(66.1975 300.307739)scale(0.1 -0.1)">
       <use xlink:href="#DejaVuSans-48"/>
      </g>
     </g>
    </g>
    <g id="ytick_2">
     <g id="line2d_21">
      <path clip-path="url(#pc592e4cadc)" d="M 79.56 239.81295 
L 572.832 239.81295 
" style="fill:none;stroke:#b0b0b0;stroke-linecap:square;stroke-width:0.8;"/>
     </g>
     <g id="line2d_22">
      <g>
       <use style="stroke:#000000;stroke-width:0.8;" x="79.56" xlink:href="#m5f91b915e0" y="239.81295"/>
      </g>
     </g>
     <g id="text_12">
      <!-- 10 -->
      <g transform="translate(59.835 243.612168)scale(0.1 -0.1)">
       <use xlink:href="#DejaVuSans-49"/>
       <use x="63.623047" xlink:href="#DejaVuSans-48"/>
      </g>
     </g>
    </g>
    <g id="ytick_3">
     <g id="line2d_23">
      <path clip-path="url(#pc592e4cadc)" d="M 79.56 183.117379 
L 572.832 183.117379 
" style="fill:none;stroke:#b0b0b0;stroke-linecap:square;stroke-width:0.8;"/>
     </g>
     <g id="line2d_24">
      <g>
       <use style="stroke:#000000;stroke-width:0.8;" x="79.56" xlink:href="#m5f91b915e0" y="183.117379"/>
      </g>
     </g>
     <g id="text_13">
      <!-- 20 -->
      <g transform="translate(59.835 186.916598)scale(0.1 -0.1)">
       <use xlink:href="#DejaVuSans-50"/>
       <use x="63.623047" xlink:href="#DejaVuSans-48"/>
      </g>
     </g>
    </g>
    <g id="ytick_4">
     <g id="line2d_25">
      <path clip-path="url(#pc592e4cadc)" d="M 79.56 126.421808 
L 572.832 126.421808 
" style="fill:none;stroke:#b0b0b0;stroke-linecap:square;stroke-width:0.8;"/>
     </g>
     <g id="line2d_26">
      <g>
       <use style="stroke:#000000;stroke-width:0.8;" x="79.56" xlink:href="#m5f91b915e0" y="126.421808"/>
      </g>
     </g>
     <g id="text_14">
      <!-- 30 -->
      <g transform="translate(59.835 130.221027)scale(0.1 -0.1)">
       <use xlink:href="#DejaVuSans-51"/>
       <use x="63.623047" xlink:href="#DejaVuSans-48"/>
      </g>
     </g>
    </g>
    <g id="ytick_5">
     <g id="line2d_27">
      <path clip-path="url(#pc592e4cadc)" d="M 79.56 69.726238 
L 572.832 69.726238 
" style="fill:none;stroke:#b0b0b0;stroke-linecap:square;stroke-width:0.8;"/>
     </g>
     <g id="line2d_28">
      <g>
       <use style="stroke:#000000;stroke-width:0.8;" x="79.56" xlink:href="#m5f91b915e0" y="69.726238"/>
      </g>
     </g>
     <g id="text_15">
      <!-- 40 -->
      <g transform="translate(59.835 73.525456)scale(0.1 -0.1)">
       <use xlink:href="#DejaVuSans-52"/>
       <use x="63.623047" xlink:href="#DejaVuSans-48"/>
      </g>
     </g>
    </g>
    <g id="text_16">
     <!-- Thickness [mm] -->
     <g transform="translate(53.755313 214.470188)rotate(-90)scale(0.1 -0.1)">
      <defs>
       <path d="M -0.296875 72.90625 
L 61.375 72.90625 
L 61.375 64.59375 
L 35.5 64.59375 
L 35.5 0 
L 25.59375 0 
L 25.59375 64.59375 
L -0.296875 64.59375 
z
" id="DejaVuSans-84"/>
       <path d="M 54.890625 33.015625 
L 54.890625 0 
L 45.90625 0 
L 45.90625 32.71875 
Q 45.90625 40.484375 42.875 44.328125 
Q 39.84375 48.1875 33.796875 48.1875 
Q 26.515625 48.1875 22.3125 43.546875 
Q 18.109375 38.921875 18.109375 30.90625 
L 18.109375 0 
L 9.078125 0 
L 9.078125 75.984375 
L 18.109375 75.984375 
L 18.109375 46.1875 
Q 21.34375 51.125 25.703125 53.5625 
Q 30.078125 56 35.796875 56 
Q 45.21875 56 50.046875 50.171875 
Q 54.890625 44.34375 54.890625 33.015625 
z
" id="DejaVuSans-104"/>
       <path d="M 48.78125 52.59375 
L 48.78125 44.1875 
Q 44.96875 46.296875 41.140625 47.34375 
Q 37.3125 48.390625 33.40625 48.390625 
Q 24.65625 48.390625 19.8125 42.84375 
Q 14.984375 37.3125 14.984375 27.296875 
Q 14.984375 17.28125 19.8125 11.734375 
Q 24.65625 6.203125 33.40625 6.203125 
Q 37.3125 6.203125 41.140625 7.25 
Q 44.96875 8.296875 48.78125 10.40625 
L 48.78125 2.09375 
Q 45.015625 0.34375 40.984375 -0.53125 
Q 36.96875 -1.421875 32.421875 -1.421875 
Q 20.0625 -1.421875 12.78125 6.34375 
Q 5.515625 14.109375 5.515625 27.296875 
Q 5.515625 40.671875 12.859375 48.328125 
Q 20.21875 56 33.015625 56 
Q 37.15625 56 41.109375 55.140625 
Q 45.0625 54.296875 48.78125 52.59375 
z
" id="DejaVuSans-99"/>
       <path d="M 9.078125 75.984375 
L 18.109375 75.984375 
L 18.109375 31.109375 
L 44.921875 54.6875 
L 56.390625 54.6875 
L 27.390625 29.109375 
L 57.625 0 
L 45.90625 0 
L 18.109375 26.703125 
L 18.109375 0 
L 9.078125 0 
z
" id="DejaVuSans-107"/>
       <path d="M 54.890625 33.015625 
L 54.890625 0 
L 45.90625 0 
L 45.90625 32.71875 
Q 45.90625 40.484375 42.875 44.328125 
Q 39.84375 48.1875 33.796875 48.1875 
Q 26.515625 48.1875 22.3125 43.546875 
Q 18.109375 38.921875 18.109375 30.90625 
L 18.109375 0 
L 9.078125 0 
L 9.078125 54.6875 
L 18.109375 54.6875 
L 18.109375 46.1875 
Q 21.34375 51.125 25.703125 53.5625 
Q 30.078125 56 35.796875 56 
Q 45.21875 56 50.046875 50.171875 
Q 54.890625 44.34375 54.890625 33.015625 
z
" id="DejaVuSans-110"/>
       <path d="M 44.28125 53.078125 
L 44.28125 44.578125 
Q 40.484375 46.53125 36.375 47.5 
Q 32.28125 48.484375 27.875 48.484375 
Q 21.1875 48.484375 17.84375 46.4375 
Q 14.5 44.390625 14.5 40.28125 
Q 14.5 37.15625 16.890625 35.375 
Q 19.28125 33.59375 26.515625 31.984375 
L 29.59375 31.296875 
Q 39.15625 29.25 43.1875 25.515625 
Q 47.21875 21.78125 47.21875 15.09375 
Q 47.21875 7.46875 41.1875 3.015625 
Q 35.15625 -1.421875 24.609375 -1.421875 
Q 20.21875 -1.421875 15.453125 -0.5625 
Q 10.6875 0.296875 5.421875 2 
L 5.421875 11.28125 
Q 10.40625 8.6875 15.234375 7.390625 
Q 20.0625 6.109375 24.8125 6.109375 
Q 31.15625 6.109375 34.5625 8.28125 
Q 37.984375 10.453125 37.984375 14.40625 
Q 37.984375 18.0625 35.515625 20.015625 
Q 33.0625 21.96875 24.703125 23.78125 
L 21.578125 24.515625 
Q 13.234375 26.265625 9.515625 29.90625 
Q 5.8125 33.546875 5.8125 39.890625 
Q 5.8125 47.609375 11.28125 51.796875 
Q 16.75 56 26.8125 56 
Q 31.78125 56 36.171875 55.265625 
Q 40.578125 54.546875 44.28125 53.078125 
z
" id="DejaVuSans-115"/>
      </defs>
      <use xlink:href="#DejaVuSans-84"/>
      <use x="61.083984" xlink:href="#DejaVuSans-104"/>
      <use x="124.462891" xlink:href="#DejaVuSans-105"/>
      <use x="152.246094" xlink:href="#DejaVuSans-99"/>
      <use x="207.226562" xlink:href="#DejaVuSans-107"/>
      <use x="265.136719" xlink:href="#DejaVuSans-110"/>
      <use x="328.515625" xlink:href="#DejaVuSans-101"/>
      <use x="390.039062" xlink:href="#DejaVuSans-115"/>
      <use x="442.138672" xlink:href="#DejaVuSans-115"/>
      <use x="494.238281" xlink:href="#DejaVuSans-32"/>
      <use x="526.025391" xlink:href="#DejaVuSans-91"/>
      <use x="565.039062" xlink:href="#DejaVuSans-109"/>
      <use x="662.451172" xlink:href="#DejaVuSans-109"/>
      <use x="759.863281" xlink:href="#DejaVuSans-93"/>
     </g>
    </g>
   </g>
   <g id="line2d_29">
    <path clip-path="url(#pc592e4cadc)" d="M 550.410545 239.81295 
L 550.298129 243.668248 
L 550.298129 245.425811 
L 550.073296 250.074848 
L 550.073296 251.435542 
L 549.848463 255.064058 
L 549.848463 257.161794 
L 549.736047 258.125619 
L 549.736047 259.089444 
L 549.623631 259.939877 
L 549.623631 260.790311 
L 549.511214 261.584049 
L 549.511214 263.114829 
L 549.286381 265.15587 
L 549.286381 265.779521 
L 549.061548 267.537084 
L 549.061548 268.557604 
L 548.836716 269.974993 
L 548.836716 270.428558 
L 548.611883 271.67586 
L 548.611883 272.18612 
L 548.499466 272.299512 
L 548.499466 272.469598 
L 548.38705 272.582989 
L 548.38705 272.753076 
L 548.274634 272.979858 
L 548.162217 273.263336 
L 548.162217 273.376727 
L 547.824968 274.057074 
L 547.824968 274.170465 
L 547.712551 274.397248 
L 547.712551 274.510639 
L 547.487719 274.850812 
L 547.487719 274.964203 
L 547.262886 275.304377 
L 547.262886 275.531159 
L 547.038053 275.814637 
L 547.038053 275.928028 
L 546.81322 276.268202 
L 546.81322 276.438288 
L 546.588387 276.721766 
L 546.588387 276.835157 
L 546.363554 277.175331 
L 546.363554 277.288722 
L 546.026305 277.742286 
L 546.026305 277.798982 
L 545.913889 277.969069 
L 545.913889 278.08246 
L 545.689056 278.309242 
L 545.689056 278.365938 
L 545.464223 278.706111 
L 545.464223 278.762807 
L 545.014557 279.273067 
L 545.014557 279.443154 
L 544.789725 279.669936 
L 544.789725 279.726631 
L 544.677308 279.896718 
L 544.227642 280.463674 
L 544.227642 280.520369 
L 543.890393 280.803847 
L 543.890393 280.860543 
L 543.66556 281.087325 
L 543.66556 281.144021 
L 543.328311 281.427498 
L 543.328311 281.54089 
L 542.991062 281.824367 
L 542.991062 281.881063 
L 542.653813 282.164541 
L 542.653813 282.221236 
L 542.316563 282.504714 
L 542.316563 282.56141 
L 541.979314 282.844888 
L 541.979314 282.901583 
L 541.866898 282.901583 
L 541.866898 282.958279 
L 541.417232 283.298452 
L 541.417232 283.355148 
L 540.85515 283.752017 
L 540.85515 283.808712 
L 540.293068 284.205581 
L 540.293068 284.262277 
L 540.180651 284.262277 
L 540.180651 284.318973 
L 539.393737 284.829233 
L 539.393737 284.829233 
L 539.393737 284.885928 
L 539.168904 284.942624 
L 539.168904 284.999319 
L 537.145408 286.133231 
L 537.145408 286.133231 
L 537.145408 286.189926 
L 536.920575 286.246622 
L 536.920575 286.246622 
L 534.334998 287.437229 
L 534.334998 287.437229 
L 534.110165 287.493925 
L 534.110165 287.493925 
L 534.110165 287.55062 
L 533.772916 287.607316 
L 533.772916 287.664011 
L 533.548083 287.720707 
L 533.548083 287.720707 
L 532.648751 288.06088 
L 532.648751 288.06088 
L 532.311502 288.117576 
L 532.311502 288.174271 
L 532.311502 288.174271 
L 531.974253 288.230967 
L 531.974253 288.287663 
L 531.637004 288.344358 
L 531.637004 288.401054 
L 531.299754 288.457749 
L 531.299754 288.514445 
L 530.962505 288.57114 
L 530.962505 288.57114 
L 530.288007 288.797923 
L 530.288007 288.797923 
L 529.950757 288.854618 
L 529.950757 288.911314 
L 529.501092 288.968009 
L 529.501092 289.024705 
L 529.163842 289.081401 
L 529.163842 289.081401 
L 528.60176 289.251487 
L 528.60176 289.251487 
L 528.264511 289.308183 
L 528.264511 289.308183 
L 527.814845 289.421574 
L 527.814845 289.421574 
L 527.477596 289.47827 
L 527.477596 289.47827 
L 527.477596 289.534965 
L 527.027931 289.591661 
L 527.027931 289.591661 
L 526.578265 289.705052 
L 526.578265 289.705052 
L 526.241016 289.761747 
L 526.241016 289.761747 
L 525.79135 289.875139 
L 525.79135 289.875139 
L 525.454101 289.931834 
L 525.454101 289.931834 
L 525.004435 290.045225 
L 525.004435 290.045225 
L 524.554769 290.101921 
L 524.554769 290.101921 
L 524.105104 290.215312 
L 524.105104 290.215312 
L 523.655438 290.272007 
L 523.655438 290.272007 
L 523.205772 290.385399 
L 523.205772 290.385399 
L 522.64369 290.442094 
L 522.64369 290.49879 
L 522.64369 290.49879 
L 521.969192 290.555485 
L 521.969192 290.612181 
L 521.294693 290.668876 
L 521.294693 290.668876 
L 521.294693 290.725572 
L 520.620195 290.782268 
L 520.620195 290.782268 
L 520.282945 290.838963 
L 520.282945 290.838963 
L 519.83328 290.895659 
L 519.83328 290.952354 
L 519.046365 291.00905 
L 519.046365 291.065745 
L 518.25945 291.122441 
L 518.25945 291.122441 
L 517.922201 291.179137 
L 517.922201 291.179137 
L 517.360119 291.235832 
L 517.360119 291.235832 
L 517.360119 291.292528 
L 516.460787 291.349223 
L 516.460787 291.349223 
L 516.460787 291.405919 
L 515.561456 291.462614 
L 515.561456 291.462614 
L 515.224207 291.51931 
L 515.224207 291.51931 
L 514.549708 291.576006 
L 514.549708 291.576006 
L 514.212459 291.632701 
L 514.212459 291.632701 
L 513.53796 291.689397 
L 513.53796 291.689397 
L 513.200711 291.746092 
L 513.200711 291.746092 
L 512.413796 291.802788 
L 512.413796 291.859483 
L 511.289632 291.916179 
L 511.289632 291.916179 
L 511.289632 291.972875 
L 510.053051 292.02957 
L 510.053051 292.086266 
L 508.816471 292.142961 
L 508.816471 292.142961 
L 508.479222 292.199657 
L 508.479222 292.199657 
L 507.467474 292.256352 
L 507.467474 292.313048 
L 506.00606 292.369744 
L 506.00606 292.426439 
L 506.00606 292.426439 
L 504.544647 292.483135 
L 504.544647 292.53983 
L 502.970817 292.596526 
L 502.970817 292.596526 
L 502.633568 292.653221 
L 502.633568 292.653221 
L 501.284571 292.709917 
L 501.284571 292.766613 
L 499.373492 292.823308 
L 499.373492 292.880004 
L 499.373492 292.880004 
L 497.462413 292.936699 
L 497.462413 292.993395 
L 495.438917 293.05009 
L 495.438917 293.05009 
L 495.101668 293.106786 
L 495.101668 293.106786 
L 493.078172 293.163482 
L 493.078172 293.220177 
L 490.717428 293.276873 
L 490.717428 293.276873 
L 490.380178 293.333568 
L 490.380178 293.333568 
L 488.019434 293.390264 
L 488.019434 293.446959 
L 485.32144 293.503655 
L 485.32144 293.503655 
L 484.98419 293.560351 
L 484.98419 293.560351 
L 482.17378 293.617046 
L 482.17378 293.673742 
L 478.913704 293.730437 
L 478.913704 293.730437 
L 478.576454 293.787133 
L 478.576454 293.787133 
L 475.203962 293.843828 
L 475.203962 293.900524 
L 475.203962 293.900524 
L 471.269387 293.95722 
L 471.269387 293.95722 
L 471.269387 294.013915 
L 466.885147 294.070611 
L 466.885147 294.070611 
L 466.885147 294.127306 
L 462.051241 294.184002 
L 462.051241 294.184002 
L 461.713992 294.240697 
L 461.713992 294.240697 
L 456.655253 294.297393 
L 456.655253 294.297393 
L 456.318004 294.354089 
L 456.318004 294.354089 
L 450.584766 294.410784 
L 450.584766 294.410784 
L 450.247517 294.46748 
L 450.247517 294.46748 
L 443.614948 294.524175 
L 443.614948 294.580871 
L 443.614948 294.580871 
L 435.858216 294.637566 
L 435.858216 294.637566 
L 435.520966 294.694262 
L 435.520966 294.694262 
L 426.864902 294.750958 
L 426.864902 294.750958 
L 426.527653 294.807653 
L 426.527653 294.807653 
L 416.297759 294.864349 
L 416.297759 294.864349 
L 415.96051 294.921044 
L 415.96051 294.921044 
L 403.70712 294.97774 
L 403.70712 294.97774 
L 403.369871 295.034435 
L 403.369871 295.034435 
L 388.418487 295.091131 
L 388.418487 295.147827 
L 368.408365 295.204522 
L 368.408365 295.261218 
L 368.408365 295.261218 
L 342.21534 295.317913 
L 342.21534 295.317913 
L 341.87809 295.374609 
L 341.87809 295.374609 
L 300.733681 295.431304 
L 300.733681 295.488 
L 300.733681 295.488 
L 186.293768 295.431304 
L 186.293768 295.431304 
L 185.956519 295.374609 
L 185.956519 295.374609 
L 166.396062 295.317913 
L 166.396062 295.317913 
L 166.058813 295.261218 
L 166.058813 295.261218 
L 153.805423 295.204522 
L 153.805423 295.147827 
L 144.699693 295.091131 
L 144.699693 295.091131 
L 144.362444 295.034435 
L 144.362444 295.034435 
L 137.392626 294.97774 
L 137.392626 294.97774 
L 137.055377 294.921044 
L 137.055377 294.921044 
L 131.32214 294.864349 
L 131.32214 294.864349 
L 130.98489 294.807653 
L 130.98489 294.807653 
L 126.150984 294.750958 
L 126.150984 294.750958 
L 125.813735 294.694262 
L 125.813735 294.694262 
L 121.766744 294.637566 
L 121.766744 294.580871 
L 118.281835 294.524175 
L 118.281835 294.46748 
L 115.696258 294.410784 
L 115.696258 294.410784 
L 115.359008 294.354089 
L 115.359008 294.354089 
L 113.672762 294.297393 
L 113.672762 294.240697 
L 112.211349 294.184002 
L 112.211349 294.184002 
L 112.211349 294.127306 
L 111.087184 294.070611 
L 111.087184 294.070611 
L 110.749935 294.013915 
L 110.749935 294.013915 
L 110.187853 293.95722 
L 110.187853 293.95722 
L 109.738187 293.843828 
L 109.738187 293.843828 
L 109.176105 293.787133 
L 109.176105 293.787133 
L 108.72644 293.673742 
L 108.72644 293.673742 
L 108.276774 293.617046 
L 108.276774 293.560351 
L 108.276774 293.560351 
L 107.939525 293.503655 
L 107.939525 293.503655 
L 107.265026 293.276873 
L 107.265026 293.276873 
L 107.040193 293.220177 
L 107.040193 293.220177 
L 107.040193 293.163482 
L 106.815361 293.106786 
L 106.815361 293.106786 
L 105.353947 292.256352 
L 105.353947 292.199657 
L 105.016698 291.916179 
L 105.016698 291.859483 
L 104.791865 291.632701 
L 104.791865 291.576006 
L 104.342199 291.00905 
L 104.342199 290.838963 
L 104.117366 290.555485 
L 104.117366 290.442094 
L 103.892534 290.101921 
L 103.892534 289.818443 
L 103.667701 289.364878 
L 103.667701 289.194792 
L 103.555284 289.024705 
L 103.555284 288.797923 
L 103.442868 288.627836 
L 103.442868 288.174271 
L 103.218035 287.323838 
L 103.218035 287.04036 
L 103.105619 286.360013 
L 102.993202 285.963144 
L 102.993202 285.056015 
L 102.880786 284.545755 
L 102.880786 283.922104 
L 102.768369 283.298452 
L 102.768369 282.618105 
L 102.655953 281.767672 
L 102.655953 280.860543 
L 102.543537 279.840022 
L 102.543537 277.232026 
L 102.43112 275.531159 
L 102.43112 273.546814 
L 102.318704 271.052209 
L 102.318704 267.990648 
L 102.206287 264.021958 
L 102.206287 251.208759 
L 102.093871 239.81295 
L 102.093871 220.649847 
L 101.981455 181.18973 
L 101.981455 53.568 
L 101.981455 53.568 
" style="fill:none;stroke:#1f77b4;stroke-linecap:square;stroke-width:1.5;"/>
   </g>
   <g id="line2d_30">
    <path clip-path="url(#pc592e4cadc)" d="M 550.410545 239.81295 
L 550.298129 243.668248 
L 550.298129 245.425811 
L 550.073296 250.074848 
L 550.073296 251.435542 
L 549.848463 255.064058 
L 549.848463 257.161794 
L 549.736047 258.125619 
L 549.736047 259.089444 
L 549.623631 259.939877 
L 549.623631 260.790311 
L 549.511214 261.584049 
L 549.511214 263.114829 
L 549.286381 265.15587 
L 549.286381 265.779521 
L 549.061548 267.537084 
L 549.061548 268.557604 
L 548.836716 269.974993 
L 548.836716 270.428558 
L 548.611883 271.67586 
L 548.611883 272.18612 
L 548.499466 272.299512 
L 548.499466 272.469598 
L 548.38705 272.582989 
L 548.38705 272.753076 
L 548.274634 272.979858 
L 548.162217 273.263336 
L 548.162217 273.376727 
L 547.824968 274.057074 
L 547.824968 274.170465 
L 547.712551 274.397248 
L 547.712551 274.510639 
L 547.487719 274.850812 
L 547.487719 274.964203 
L 547.262886 275.304377 
L 547.262886 275.531159 
L 547.038053 275.814637 
L 547.038053 275.928028 
L 546.81322 276.268202 
L 546.81322 276.438288 
L 546.588387 276.721766 
L 546.588387 276.835157 
L 546.363554 277.175331 
L 546.363554 277.288722 
L 546.026305 277.742286 
L 546.026305 277.798982 
L 545.913889 277.969069 
L 545.913889 278.08246 
L 545.689056 278.309242 
L 545.689056 278.365938 
L 545.464223 278.706111 
L 545.464223 278.762807 
L 545.014557 279.273067 
L 545.014557 279.443154 
L 544.789725 279.669936 
L 544.789725 279.726631 
L 544.677308 279.896718 
L 544.227642 280.463674 
L 544.227642 280.520369 
L 543.890393 280.803847 
L 543.890393 280.860543 
L 543.66556 281.087325 
L 543.66556 281.144021 
L 543.328311 281.427498 
L 543.328311 281.54089 
L 542.991062 281.824367 
L 542.991062 281.881063 
L 542.653813 282.164541 
L 542.653813 282.221236 
L 542.316563 282.504714 
L 542.316563 282.56141 
L 541.979314 282.844888 
L 541.979314 282.901583 
L 541.866898 282.901583 
L 541.866898 282.958279 
L 541.417232 283.298452 
L 541.417232 283.355148 
L 540.85515 283.752017 
L 540.85515 283.808712 
L 540.293068 284.205581 
L 540.293068 284.262277 
L 540.180651 284.262277 
L 540.180651 284.318973 
L 539.393737 284.829233 
L 539.393737 284.829233 
L 539.393737 284.885928 
L 539.168904 284.942624 
L 539.168904 284.999319 
L 537.145408 286.133231 
L 537.145408 286.133231 
L 537.145408 286.189926 
L 536.920575 286.246622 
L 536.920575 286.246622 
L 534.334998 287.437229 
L 534.334998 287.437229 
L 534.110165 287.493925 
L 534.110165 287.493925 
L 534.110165 287.55062 
L 533.772916 287.607316 
L 533.772916 287.664011 
L 533.548083 287.720707 
L 533.548083 287.720707 
L 532.648751 288.06088 
L 532.648751 288.06088 
L 532.311502 288.117576 
L 532.311502 288.174271 
L 532.311502 288.174271 
L 531.974253 288.230967 
L 531.974253 288.287663 
L 531.637004 288.344358 
L 531.637004 288.401054 
L 531.299754 288.457749 
L 531.299754 288.514445 
L 530.962505 288.57114 
L 530.962505 288.57114 
L 530.288007 288.797923 
L 530.288007 288.797923 
L 529.950757 288.854618 
L 529.950757 288.911314 
L 529.501092 288.968009 
L 529.501092 289.024705 
L 529.163842 289.081401 
L 529.163842 289.081401 
L 528.60176 289.251487 
L 528.60176 289.251487 
L 528.264511 289.308183 
L 528.264511 289.308183 
L 527.814845 289.421574 
L 527.814845 289.421574 
L 527.477596 289.47827 
L 527.477596 289.47827 
L 527.477596 289.534965 
L 527.027931 289.591661 
L 527.027931 289.591661 
L 526.578265 289.705052 
L 526.578265 289.705052 
L 526.241016 289.761747 
L 526.241016 289.761747 
L 525.79135 289.875139 
L 525.79135 289.875139 
L 525.454101 289.931834 
L 525.454101 289.931834 
L 525.004435 290.045225 
L 525.004435 290.045225 
L 524.554769 290.101921 
L 524.554769 290.101921 
L 524.105104 290.215312 
L 524.105104 290.215312 
L 523.655438 290.272007 
L 523.655438 290.272007 
L 523.205772 290.385399 
L 523.205772 290.385399 
L 522.64369 290.442094 
L 522.64369 290.49879 
L 522.64369 290.49879 
L 521.969192 290.555485 
L 521.969192 290.612181 
L 521.294693 290.668876 
L 521.294693 290.668876 
L 521.294693 290.725572 
L 520.620195 290.782268 
L 520.620195 290.782268 
L 520.282945 290.838963 
L 520.282945 290.838963 
L 519.83328 290.895659 
L 519.83328 290.952354 
L 519.046365 291.00905 
L 519.046365 291.065745 
L 518.25945 291.122441 
L 518.25945 291.122441 
L 517.922201 291.179137 
L 517.922201 291.179137 
L 517.360119 291.235832 
L 517.360119 291.235832 
L 517.360119 291.292528 
L 516.460787 291.349223 
L 516.460787 291.349223 
L 516.460787 291.405919 
L 515.561456 291.462614 
L 515.561456 291.462614 
L 515.224207 291.51931 
L 515.224207 291.51931 
L 514.549708 291.576006 
L 514.549708 291.576006 
L 514.212459 291.632701 
L 514.212459 291.632701 
L 513.53796 291.689397 
L 513.53796 291.689397 
L 513.200711 291.746092 
L 513.200711 291.746092 
L 512.413796 291.802788 
L 512.413796 291.859483 
L 511.289632 291.916179 
L 511.289632 291.916179 
L 511.289632 291.972875 
L 510.053051 292.02957 
L 510.053051 292.086266 
L 508.816471 292.142961 
L 508.816471 292.142961 
L 508.479222 292.199657 
L 508.479222 292.199657 
L 507.467474 292.256352 
L 507.467474 292.313048 
L 506.00606 292.369744 
L 506.00606 292.426439 
L 506.00606 292.426439 
L 504.544647 292.483135 
L 504.544647 292.53983 
L 502.970817 292.596526 
L 502.970817 292.596526 
L 502.633568 292.653221 
L 502.633568 292.653221 
L 501.284571 292.709917 
L 501.284571 292.766613 
L 499.373492 292.823308 
L 499.373492 292.880004 
L 499.373492 292.880004 
L 497.462413 292.936699 
L 497.462413 292.993395 
L 495.438917 293.05009 
L 495.438917 293.05009 
L 495.101668 293.106786 
L 495.101668 293.106786 
L 493.078172 293.163482 
L 493.078172 293.220177 
L 490.717428 293.276873 
L 490.717428 293.276873 
L 490.380178 293.333568 
L 490.380178 293.333568 
L 488.019434 293.390264 
L 488.019434 293.446959 
L 485.32144 293.503655 
L 485.32144 293.503655 
L 484.98419 293.560351 
L 484.98419 293.560351 
L 482.17378 293.617046 
L 482.17378 293.673742 
L 478.913704 293.730437 
L 478.913704 293.730437 
L 478.576454 293.787133 
L 478.576454 293.787133 
L 475.203962 293.843828 
L 475.203962 293.900524 
L 475.203962 293.900524 
L 471.269387 293.95722 
L 471.269387 293.95722 
L 471.269387 294.013915 
L 466.885147 294.070611 
L 466.885147 294.070611 
L 466.885147 294.127306 
L 462.051241 294.184002 
L 462.051241 294.184002 
L 461.713992 294.240697 
L 461.713992 294.240697 
L 456.655253 294.297393 
L 456.655253 294.297393 
L 456.318004 294.354089 
L 456.318004 294.354089 
L 450.584766 294.410784 
L 450.584766 294.410784 
L 450.247517 294.46748 
L 450.247517 294.46748 
L 443.614948 294.524175 
L 443.614948 294.580871 
L 443.614948 294.580871 
L 435.858216 294.637566 
L 435.858216 294.637566 
L 435.520966 294.694262 
L 435.520966 294.694262 
L 426.864902 294.750958 
L 426.864902 294.750958 
L 426.527653 294.807653 
L 426.527653 294.807653 
L 416.297759 294.864349 
L 416.297759 294.864349 
L 415.96051 294.921044 
L 415.96051 294.921044 
L 403.70712 294.97774 
L 403.70712 294.97774 
L 403.369871 295.034435 
L 403.369871 295.034435 
L 388.418487 295.091131 
L 388.418487 295.147827 
L 368.408365 295.204522 
L 368.408365 295.261218 
L 368.408365 295.261218 
L 342.21534 295.317913 
L 342.21534 295.317913 
L 341.87809 295.374609 
L 341.87809 295.374609 
L 300.733681 295.431304 
L 300.733681 295.488 
L 300.733681 295.488 
L 186.293768 295.431304 
L 186.293768 295.431304 
L 185.956519 295.374609 
L 185.956519 295.374609 
L 166.396062 295.317913 
L 166.396062 295.317913 
L 166.058813 295.261218 
L 166.058813 295.261218 
L 153.805423 295.204522 
L 153.805423 295.147827 
L 144.699693 295.091131 
L 144.699693 295.091131 
L 144.362444 295.034435 
L 144.362444 295.034435 
L 137.392626 294.97774 
L 137.392626 294.97774 
L 137.055377 294.921044 
L 137.055377 294.921044 
L 131.32214 294.864349 
L 131.32214 294.864349 
L 130.98489 294.807653 
L 130.98489 294.807653 
L 126.150984 294.750958 
L 126.150984 294.750958 
L 125.813735 294.694262 
L 125.813735 294.694262 
L 121.766744 294.637566 
L 121.766744 294.580871 
L 118.281835 294.524175 
L 118.281835 294.46748 
L 115.696258 294.410784 
L 115.696258 294.410784 
L 115.359008 294.354089 
L 115.359008 294.354089 
L 113.672762 294.297393 
L 113.672762 294.240697 
L 112.211349 294.184002 
L 112.211349 294.184002 
L 112.211349 294.127306 
L 111.087184 294.070611 
L 111.087184 294.070611 
L 110.749935 294.013915 
L 110.749935 294.013915 
L 110.187853 293.95722 
L 110.187853 293.95722 
L 109.738187 293.843828 
L 109.738187 293.843828 
L 109.176105 293.787133 
L 109.176105 293.787133 
L 108.72644 293.673742 
L 108.72644 293.673742 
L 108.276774 293.617046 
L 108.276774 293.560351 
L 108.276774 293.560351 
L 107.939525 293.503655 
L 107.939525 293.503655 
L 107.265026 293.276873 
L 107.265026 293.276873 
L 107.040193 293.220177 
L 107.040193 293.220177 
L 107.040193 293.163482 
L 106.815361 293.106786 
L 106.815361 293.106786 
L 105.353947 292.256352 
L 105.353947 292.199657 
L 105.016698 291.916179 
L 105.016698 291.859483 
L 104.791865 291.632701 
L 104.791865 291.576006 
L 104.342199 291.00905 
L 104.342199 290.838963 
L 104.117366 290.555485 
L 104.117366 290.442094 
L 103.892534 290.101921 
L 103.892534 289.818443 
L 103.667701 289.364878 
L 103.667701 289.194792 
L 103.555284 289.024705 
L 103.555284 288.797923 
L 103.442868 288.627836 
L 103.442868 288.174271 
L 103.218035 287.323838 
L 103.218035 287.04036 
L 103.105619 286.360013 
L 102.993202 285.963144 
L 102.993202 285.056015 
L 102.880786 284.545755 
L 102.880786 283.922104 
L 102.768369 283.298452 
L 102.768369 282.618105 
L 102.655953 281.767672 
L 102.655953 280.860543 
L 102.543537 279.840022 
L 102.543537 277.232026 
L 102.43112 275.531159 
L 102.43112 273.546814 
L 102.318704 271.052209 
L 102.318704 267.990648 
L 102.206287 264.021958 
L 102.206287 251.208759 
L 102.093871 239.81295 
L 102.093871 220.649847 
L 101.981455 181.18973 
L 101.981455 53.568 
M 550.410545 239.81295 
L 550.298129 243.668248 
L 550.298129 245.425811 
L 550.073296 250.074848 
L 550.073296 251.435542 
L 549.848463 255.064058 
L 549.848463 257.161794 
L 549.736047 258.125619 
L 549.736047 259.089444 
L 549.623631 259.939877 
L 549.623631 260.790311 
L 549.511214 261.584049 
L 549.511214 263.114829 
L 549.286381 265.15587 
L 549.286381 265.779521 
L 549.061548 267.537084 
L 549.061548 268.557604 
L 548.836716 269.974993 
L 548.836716 270.428558 
L 548.611883 271.67586 
L 548.611883 272.18612 
L 548.499466 272.299512 
L 548.499466 272.469598 
L 548.38705 272.582989 
L 548.38705 272.753076 
L 548.274634 272.979858 
L 548.162217 273.263336 
L 548.162217 273.376727 
L 547.824968 274.057074 
L 547.824968 274.170465 
L 547.712551 274.397248 
L 547.712551 274.510639 
L 547.487719 274.850812 
L 547.487719 274.964203 
L 547.262886 275.304377 
L 547.262886 275.531159 
L 547.038053 275.814637 
L 547.038053 275.928028 
L 546.81322 276.268202 
L 546.81322 276.438288 
L 546.588387 276.721766 
L 546.588387 276.835157 
L 546.363554 277.175331 
L 546.363554 277.288722 
L 546.026305 277.742286 
L 546.026305 277.798982 
L 545.913889 277.969069 
L 545.913889 278.08246 
L 545.689056 278.309242 
L 545.689056 278.365938 
L 545.464223 278.706111 
L 545.464223 278.762807 
L 545.014557 279.273067 
L 545.014557 279.443154 
L 544.789725 279.669936 
L 544.789725 279.726631 
L 544.677308 279.896718 
L 544.227642 280.463674 
L 544.227642 280.520369 
L 543.890393 280.803847 
L 543.890393 280.860543 
L 543.66556 281.087325 
L 543.66556 281.144021 
L 543.328311 281.427498 
L 543.328311 281.54089 
L 542.991062 281.824367 
L 542.991062 281.881063 
L 542.653813 282.164541 
L 542.653813 282.221236 
L 542.316563 282.504714 
L 542.316563 282.56141 
L 541.979314 282.844888 
L 541.979314 282.901583 
L 541.866898 282.901583 
L 541.866898 282.958279 
L 541.417232 283.298452 
L 541.417232 283.355148 
L 540.85515 283.752017 
L 540.85515 283.808712 
L 540.293068 284.205581 
L 540.293068 284.262277 
L 540.180651 284.262277 
L 540.180651 284.318973 
L 539.393737 284.829233 
L 539.393737 284.829233 
L 539.393737 284.885928 
L 539.168904 284.942624 
L 539.168904 284.999319 
L 537.145408 286.133231 
L 537.145408 286.133231 
L 537.145408 286.189926 
L 536.920575 286.246622 
L 536.920575 286.246622 
L 534.334998 287.437229 
L 534.334998 287.437229 
L 534.110165 287.493925 
L 534.110165 287.493925 
L 534.110165 287.55062 
L 533.772916 287.607316 
L 533.772916 287.664011 
L 533.548083 287.720707 
L 533.548083 287.720707 
L 532.648751 288.06088 
L 532.648751 288.06088 
L 532.311502 288.117576 
L 532.311502 288.174271 
L 532.311502 288.174271 
L 531.974253 288.230967 
L 531.974253 288.287663 
L 531.637004 288.344358 
L 531.637004 288.401054 
L 531.299754 288.457749 
L 531.299754 288.514445 
L 530.962505 288.57114 
L 530.962505 288.57114 
L 530.288007 288.797923 
L 530.288007 288.797923 
L 529.950757 288.854618 
L 529.950757 288.911314 
L 529.501092 288.968009 
L 529.501092 289.024705 
L 529.163842 289.081401 
L 529.163842 289.081401 
L 528.60176 289.251487 
L 528.60176 289.251487 
L 528.264511 289.308183 
L 528.264511 289.308183 
L 527.814845 289.421574 
L 527.814845 289.421574 
L 527.477596 289.47827 
L 527.477596 289.47827 
L 527.477596 289.534965 
L 527.027931 289.591661 
L 527.027931 289.591661 
L 526.578265 289.705052 
L 526.578265 289.705052 
L 526.241016 289.761747 
L 526.241016 289.761747 
L 525.79135 289.875139 
L 525.79135 289.875139 
L 525.454101 289.931834 
L 525.454101 289.931834 
L 525.004435 290.045225 
L 525.004435 290.045225 
L 524.554769 290.101921 
L 524.554769 290.101921 
L 524.105104 290.215312 
L 524.105104 290.215312 
L 523.655438 290.272007 
L 523.655438 290.272007 
L 523.205772 290.385399 
L 523.205772 290.385399 
L 522.64369 290.442094 
L 522.64369 290.49879 
L 522.64369 290.49879 
L 521.969192 290.555485 
L 521.969192 290.612181 
L 521.294693 290.668876 
L 521.294693 290.668876 
L 521.294693 290.725572 
L 520.620195 290.782268 
L 520.620195 290.782268 
L 520.282945 290.838963 
L 520.282945 290.838963 
L 519.83328 290.895659 
L 519.83328 290.952354 
L 519.046365 291.00905 
L 519.046365 291.065745 
L 518.25945 291.122441 
L 518.25945 291.122441 
L 517.922201 291.179137 
L 517.922201 291.179137 
L 517.360119 291.235832 
L 517.360119 291.235832 
L 517.360119 291.292528 
L 516.460787 291.349223 
L 516.460787 291.349223 
L 516.460787 291.405919 
L 515.561456 291.462614 
L 515.561456 291.462614 
L 515.224207 291.51931 
L 515.224207 291.51931 
L 514.549708 291.576006 
L 514.549708 291.576006 
L 514.212459 291.632701 
L 514.212459 291.632701 
L 513.53796 291.689397 
L 513.53796 291.689397 
L 513.200711 291.746092 
L 513.200711 291.746092 
L 512.413796 291.802788 
L 512.413796 291.859483 
L 511.289632 291.916179 
L 511.289632 291.916179 
L 511.289632 291.972875 
L 510.053051 292.02957 
L 510.053051 292.086266 
L 508.816471 292.142961 
L 508.816471 292.142961 
L 508.479222 292.199657 
L 508.479222 292.199657 
L 507.467474 292.256352 
L 507.467474 292.313048 
L 506.00606 292.369744 
L 506.00606 292.426439 
L 506.00606 292.426439 
L 504.544647 292.483135 
L 504.544647 292.53983 
L 502.970817 292.596526 
L 502.970817 292.596526 
L 502.633568 292.653221 
L 502.633568 292.653221 
L 501.284571 292.709917 
L 501.284571 292.766613 
L 499.373492 292.823308 
L 499.373492 292.880004 
L 499.373492 292.880004 
L 497.462413 292.936699 
L 497.462413 292.993395 
L 495.438917 293.05009 
L 495.438917 293.05009 
L 495.101668 293.106786 
L 495.101668 293.106786 
L 493.078172 293.163482 
L 493.078172 293.220177 
L 490.717428 293.276873 
L 490.717428 293.276873 
L 490.380178 293.333568 
L 490.380178 293.333568 
L 488.019434 293.390264 
L 488.019434 293.446959 
L 485.32144 293.503655 
L 485.32144 293.503655 
L 484.98419 293.560351 
L 484.98419 293.560351 
L 482.17378 293.617046 
L 482.17378 293.673742 
L 478.913704 293.730437 
L 478.913704 293.730437 
L 478.576454 293.787133 
L 478.576454 293.787133 
L 475.203962 293.843828 
L 475.203962 293.900524 
L 475.203962 293.900524 
L 471.269387 293.95722 
L 471.269387 293.95722 
L 471.269387 294.013915 
L 466.885147 294.070611 
L 466.885147 294.070611 
L 466.885147 294.127306 
L 462.051241 294.184002 
L 462.051241 294.184002 
L 461.713992 294.240697 
L 461.713992 294.240697 
L 456.655253 294.297393 
L 456.655253 294.297393 
L 456.318004 294.354089 
L 456.318004 294.354089 
L 450.584766 294.410784 
L 450.584766 294.410784 
L 450.247517 294.46748 
L 450.247517 294.46748 
L 443.614948 294.524175 
L 443.614948 294.580871 
L 443.614948 294.580871 
L 435.858216 294.637566 
L 435.858216 294.637566 
L 435.520966 294.694262 
L 435.520966 294.694262 
L 426.864902 294.750958 
L 426.864902 294.750958 
L 426.527653 294.807653 
L 426.527653 294.807653 
L 416.297759 294.864349 
L 416.297759 294.864349 
L 415.96051 294.921044 
L 415.96051 294.921044 
L 403.70712 294.97774 
L 403.70712 294.97774 
L 403.369871 295.034435 
L 403.369871 295.034435 
L 388.418487 295.091131 
L 388.418487 295.147827 
L 368.408365 295.204522 
L 368.408365 295.261218 
L 368.408365 295.261218 
L 342.21534 295.317913 
L 342.21534 295.317913 
L 341.87809 295.374609 
L 341.87809 295.374609 
L 300.733681 295.431304 
L 300.733681 295.488 
L 300.733681 295.488 
L 186.293768 295.431304 
L 186.293768 295.431304 
L 185.956519 295.374609 
L 185.956519 295.374609 
L 166.396062 295.317913 
L 166.396062 295.317913 
L 166.058813 295.261218 
L 166.058813 295.261218 
L 153.805423 295.204522 
L 153.805423 295.147827 
L 144.699693 295.091131 
L 144.699693 295.091131 
L 144.362444 295.034435 
L 144.362444 295.034435 
L 137.392626 294.97774 
L 137.392626 294.97774 
L 137.055377 294.921044 
L 137.055377 294.921044 
L 131.32214 294.864349 
L 131.32214 294.864349 
L 130.98489 294.807653 
L 130.98489 294.807653 
L 126.150984 294.750958 
L 126.150984 294.750958 
L 125.813735 294.694262 
L 125.813735 294.694262 
L 121.766744 294.637566 
L 121.766744 294.580871 
L 118.281835 294.524175 
L 118.281835 294.46748 
L 115.696258 294.410784 
L 115.696258 294.410784 
L 115.359008 294.354089 
L 115.359008 294.354089 
L 113.672762 294.297393 
L 113.672762 294.240697 
L 112.211349 294.184002 
L 112.211349 294.184002 
L 112.211349 294.127306 
L 111.087184 294.070611 
L 111.087184 294.070611 
L 110.749935 294.013915 
L 110.749935 294.013915 
L 110.187853 293.95722 
L 110.187853 293.95722 
L 109.738187 293.843828 
L 109.738187 293.843828 
L 109.176105 293.787133 
L 109.176105 293.787133 
L 108.72644 293.673742 
L 108.72644 293.673742 
L 108.276774 293.617046 
L 108.276774 293.560351 
L 108.276774 293.560351 
L 107.939525 293.503655 
L 107.939525 293.503655 
L 107.265026 293.276873 
L 107.265026 293.276873 
L 107.040193 293.220177 
L 107.040193 293.220177 
L 107.040193 293.163482 
L 106.815361 293.106786 
L 106.815361 293.106786 
L 105.353947 292.256352 
L 105.353947 292.199657 
L 105.016698 291.916179 
L 105.016698 291.859483 
L 104.791865 291.632701 
L 104.791865 291.576006 
L 104.342199 291.00905 
L 104.342199 290.838963 
L 104.117366 290.555485 
L 104.117366 290.442094 
L 103.892534 290.101921 
L 103.892534 289.818443 
L 103.667701 289.364878 
L 103.667701 289.194792 
L 103.555284 289.024705 
L 103.555284 288.797923 
L 103.442868 288.627836 
L 103.442868 288.174271 
L 103.218035 287.323838 
L 103.218035 287.04036 
L 103.105619 286.360013 
L 102.993202 285.963144 
L 102.993202 285.056015 
L 102.880786 284.545755 
L 102.880786 283.922104 
L 102.768369 283.298452 
L 102.768369 282.618105 
L 102.655953 281.767672 
L 102.655953 280.860543 
L 102.543537 279.840022 
L 102.543537 277.232026 
L 102.43112 275.531159 
L 102.43112 273.546814 
L 102.318704 271.052209 
L 102.318704 267.990648 
L 102.206287 264.021958 
L 102.206287 251.208759 
L 102.093871 239.81295 
L 102.093871 220.649847 
L 101.981455 181.18973 
L 101.981455 53.568 
L 101.981455 53.568 
" style="fill:none;stroke:#ff7f0e;stroke-linecap:square;stroke-width:1.5;"/>
   </g>
   <g id="patch_3">
    <path d="M 79.56 307.584 
L 79.56 41.472 
" style="fill:none;stroke:#000000;stroke-linecap:square;stroke-linejoin:miter;stroke-width:0.8;"/>
   </g>
   <g id="patch_4">
    <path d="M 572.832 307.584 
L 572.832 41.472 
" style="fill:none;stroke:#000000;stroke-linecap:square;stroke-linejoin:miter;stroke-width:0.8;"/>
   </g>
   <g id="patch_5">
    <path d="M 79.56 307.584 
L 572.832 307.584 
" style="fill:none;stroke:#000000;stroke-linecap:square;stroke-linejoin:miter;stroke-width:0.8;"/>
   </g>
   <g id="patch_6">
    <path d="M 79.56 41.472 
L 572.832 41.472 
" style="fill:none;stroke:#000000;stroke-linecap:square;stroke-linejoin:miter;stroke-width:0.8;"/>
   </g>
   <g id="legend_1">
    <g id="patch_7">
     <path d="M 478.510125 78.82825 
L 565.832 78.82825 
Q 567.832 78.82825 567.832 76.82825 
L 567.832 48.472 
Q 567.832 46.472 565.832 46.472 
L 478.510125 46.472 
Q 476.510125 46.472 476.510125 48.472 
L 476.510125 76.82825 
Q 476.510125 78.82825 478.510125 78.82825 
z
" style="fill:#ffffff;opacity:0.8;stroke:#cccccc;stroke-linejoin:miter;"/>
    </g>
    <g id="line2d_31">
     <path d="M 480.510125 54.570437 
L 500.510125 54.570437 
" style="fill:none;stroke:#1f77b4;stroke-linecap:square;stroke-width:1.5;"/>
    </g>
    <g id="line2d_32"/>
    <g id="text_17">
     <!-- Top lug -->
     <g transform="translate(508.510125 58.070437)scale(0.1 -0.1)">
      <defs>
       <path d="M 30.609375 48.390625 
Q 23.390625 48.390625 19.1875 42.75 
Q 14.984375 37.109375 14.984375 27.296875 
Q 14.984375 17.484375 19.15625 11.84375 
Q 23.34375 6.203125 30.609375 6.203125 
Q 37.796875 6.203125 41.984375 11.859375 
Q 46.1875 17.53125 46.1875 27.296875 
Q 46.1875 37.015625 41.984375 42.703125 
Q 37.796875 48.390625 30.609375 48.390625 
z
M 30.609375 56 
Q 42.328125 56 49.015625 48.375 
Q 55.71875 40.765625 55.71875 27.296875 
Q 55.71875 13.875 49.015625 6.21875 
Q 42.328125 -1.421875 30.609375 -1.421875 
Q 18.84375 -1.421875 12.171875 6.21875 
Q 5.515625 13.875 5.515625 27.296875 
Q 5.515625 40.765625 12.171875 48.375 
Q 18.84375 56 30.609375 56 
z
" id="DejaVuSans-111"/>
       <path d="M 18.109375 8.203125 
L 18.109375 -20.796875 
L 9.078125 -20.796875 
L 9.078125 54.6875 
L 18.109375 54.6875 
L 18.109375 46.390625 
Q 20.953125 51.265625 25.265625 53.625 
Q 29.59375 56 35.59375 56 
Q 45.5625 56 51.78125 48.09375 
Q 58.015625 40.1875 58.015625 27.296875 
Q 58.015625 14.40625 51.78125 6.484375 
Q 45.5625 -1.421875 35.59375 -1.421875 
Q 29.59375 -1.421875 25.265625 0.953125 
Q 20.953125 3.328125 18.109375 8.203125 
z
M 48.6875 27.296875 
Q 48.6875 37.203125 44.609375 42.84375 
Q 40.53125 48.484375 33.40625 48.484375 
Q 26.265625 48.484375 22.1875 42.84375 
Q 18.109375 37.203125 18.109375 27.296875 
Q 18.109375 17.390625 22.1875 11.75 
Q 26.265625 6.109375 33.40625 6.109375 
Q 40.53125 6.109375 44.609375 11.75 
Q 48.6875 17.390625 48.6875 27.296875 
z
" id="DejaVuSans-112"/>
       <path d="M 9.421875 75.984375 
L 18.40625 75.984375 
L 18.40625 0 
L 9.421875 0 
z
" id="DejaVuSans-108"/>
       <path d="M 8.5 21.578125 
L 8.5 54.6875 
L 17.484375 54.6875 
L 17.484375 21.921875 
Q 17.484375 14.15625 20.5 10.265625 
Q 23.53125 6.390625 29.59375 6.390625 
Q 36.859375 6.390625 41.078125 11.03125 
Q 45.3125 15.671875 45.3125 23.6875 
L 45.3125 54.6875 
L 54.296875 54.6875 
L 54.296875 0 
L 45.3125 0 
L 45.3125 8.40625 
Q 42.046875 3.421875 37.71875 1 
Q 33.40625 -1.421875 27.6875 -1.421875 
Q 18.265625 -1.421875 13.375 4.4375 
Q 8.5 10.296875 8.5 21.578125 
z
M 31.109375 56 
z
" id="DejaVuSans-117"/>
       <path d="M 45.40625 27.984375 
Q 45.40625 37.75 41.375 43.109375 
Q 37.359375 48.484375 30.078125 48.484375 
Q 22.859375 48.484375 18.828125 43.109375 
Q 14.796875 37.75 14.796875 27.984375 
Q 14.796875 18.265625 18.828125 12.890625 
Q 22.859375 7.515625 30.078125 7.515625 
Q 37.359375 7.515625 41.375 12.890625 
Q 45.40625 18.265625 45.40625 27.984375 
z
M 54.390625 6.78125 
Q 54.390625 -7.171875 48.1875 -13.984375 
Q 42 -20.796875 29.203125 -20.796875 
Q 24.46875 -20.796875 20.265625 -20.09375 
Q 16.0625 -19.390625 12.109375 -17.921875 
L 12.109375 -9.1875 
Q 16.0625 -11.328125 19.921875 -12.34375 
Q 23.78125 -13.375 27.78125 -13.375 
Q 36.625 -13.375 41.015625 -8.765625 
Q 45.40625 -4.15625 45.40625 5.171875 
L 45.40625 9.625 
Q 42.625 4.78125 38.28125 2.390625 
Q 33.9375 0 27.875 0 
Q 17.828125 0 11.671875 7.65625 
Q 5.515625 15.328125 5.515625 27.984375 
Q 5.515625 40.671875 11.671875 48.328125 
Q 17.828125 56 27.875 56 
Q 33.9375 56 38.28125 53.609375 
Q 42.625 51.21875 45.40625 46.390625 
L 45.40625 54.6875 
L 54.390625 54.6875 
z
" id="DejaVuSans-103"/>
      </defs>
      <use xlink:href="#DejaVuSans-84"/>
      <use x="44.083984" xlink:href="#DejaVuSans-111"/>
      <use x="105.265625" xlink:href="#DejaVuSans-112"/>
      <use x="168.742188" xlink:href="#DejaVuSans-32"/>
      <use x="200.529297" xlink:href="#DejaVuSans-108"/>
      <use x="228.3125" xlink:href="#DejaVuSans-117"/>
      <use x="291.691406" xlink:href="#DejaVuSans-103"/>
     </g>
    </g>
    <g id="line2d_33">
     <path d="M 480.510125 69.248562 
L 500.510125 69.248562 
" style="fill:none;stroke:#ff7f0e;stroke-linecap:square;stroke-width:1.5;"/>
    </g>
    <g id="line2d_34"/>
    <g id="text_18">
     <!-- Bottom lug -->
     <g transform="translate(508.510125 72.748562)scale(0.1 -0.1)">
      <defs>
       <path d="M 19.671875 34.8125 
L 19.671875 8.109375 
L 35.5 8.109375 
Q 43.453125 8.109375 47.28125 11.40625 
Q 51.125 14.703125 51.125 21.484375 
Q 51.125 28.328125 47.28125 31.5625 
Q 43.453125 34.8125 35.5 34.8125 
z
M 19.671875 64.796875 
L 19.671875 42.828125 
L 34.28125 42.828125 
Q 41.5 42.828125 45.03125 45.53125 
Q 48.578125 48.25 48.578125 53.8125 
Q 48.578125 59.328125 45.03125 62.0625 
Q 41.5 64.796875 34.28125 64.796875 
z
M 9.8125 72.90625 
L 35.015625 72.90625 
Q 46.296875 72.90625 52.390625 68.21875 
Q 58.5 63.53125 58.5 54.890625 
Q 58.5 48.1875 55.375 44.234375 
Q 52.25 40.28125 46.1875 39.3125 
Q 53.46875 37.75 57.5 32.78125 
Q 61.53125 27.828125 61.53125 20.40625 
Q 61.53125 10.640625 54.890625 5.3125 
Q 48.25 0 35.984375 0 
L 9.8125 0 
z
" id="DejaVuSans-66"/>
      </defs>
      <use xlink:href="#DejaVuSans-66"/>
      <use x="68.603516" xlink:href="#DejaVuSans-111"/>
      <use x="129.785156" xlink:href="#DejaVuSans-116"/>
      <use x="168.994141" xlink:href="#DejaVuSans-116"/>
      <use x="208.203125" xlink:href="#DejaVuSans-111"/>
      <use x="269.384766" xlink:href="#DejaVuSans-109"/>
      <use x="366.796875" xlink:href="#DejaVuSans-32"/>
      <use x="398.583984" xlink:href="#DejaVuSans-108"/>
      <use x="426.367188" xlink:href="#DejaVuSans-117"/>
      <use x="489.746094" xlink:href="#DejaVuSans-103"/>
     </g>
    </g>
   </g>
  </g>
 </g>
 <defs>
  <clipPath id="pc592e4cadc">
   <rect height="266.112" width="493.272" x="79.56" y="41.472"/>
  </clipPath>
 </defs>
</svg>
