<?xml version="1.0" encoding="utf-8" standalone="no"?>
<!DOCTYPE svg PUBLIC "-//W3C//DTD SVG 1.1//EN"
  "http://www.w3.org/Graphics/SVG/1.1/DTD/svg11.dtd">
<!-- Created with matplotlib (https://matplotlib.org/) -->
<svg height="542.16pt" version="1.1" viewBox="0 0 1105.92 542.16" width="1105.92pt" xmlns="http://www.w3.org/2000/svg" xmlns:xlink="http://www.w3.org/1999/xlink">
 <metadata>
  <rdf:RDF xmlns:cc="http://creativecommons.org/ns#" xmlns:dc="http://purl.org/dc/elements/1.1/" xmlns:rdf="http://www.w3.org/1999/02/22-rdf-syntax-ns#">
   <cc:Work>
    <dc:type rdf:resource="http://purl.org/dc/dcmitype/StillImage"/>
    <dc:date>2021-11-24T17:18:09.542756</dc:date>
    <dc:format>image/svg+xml</dc:format>
    <dc:creator>
     <cc:Agent>
      <dc:title>Matplotlib v3.3.2, https://matplotlib.org/</dc:title>
     </cc:Agent>
    </dc:creator>
   </cc:Work>
  </rdf:RDF>
 </metadata>
 <defs>
  <style type="text/css">*{stroke-linecap:butt;stroke-linejoin:round;}</style>
 </defs>
 <g id="figure_1">
  <g id="patch_1">
   <path d="M 0 542.16 
L 1105.92 542.16 
L 1105.92 0 
L 0 0 
z
" style="fill:#ffffff;"/>
  </g>
  <g id="axes_1">
   <g id="patch_2">
    <path d="M 138.24 482.5224 
L 995.328 482.5224 
L 995.328 65.0592 
L 138.24 65.0592 
z
" style="fill:#ffffff;"/>
   </g>
   <g id="matplotlib.axis_1">
    <g id="xtick_1">
     <g id="line2d_1">
      <path clip-path="url(#p76e10b3aed)" d="M 170.301663 482.5224 
L 170.301663 65.0592 
" style="fill:none;stroke:#b0b0b0;stroke-linecap:square;stroke-width:0.8;"/>
     </g>
     <g id="line2d_2">
      <defs>
       <path d="M 0 0 
L 0 3.5 
" id="m065bc36f85" style="stroke:#000000;stroke-width:0.8;"/>
      </defs>
      <g>
       <use style="stroke:#000000;stroke-width:0.8;" x="170.301663" xlink:href="#m065bc36f85" y="482.5224"/>
      </g>
     </g>
     <g id="text_1">
      <!-- 0 -->
      <g transform="translate(167.120413 497.120837)scale(0.1 -0.1)">
       <defs>
        <path d="M 31.78125 66.40625 
Q 24.171875 66.40625 20.328125 58.90625 
Q 16.5 51.421875 16.5 36.375 
Q 16.5 21.390625 20.328125 13.890625 
Q 24.171875 6.390625 31.78125 6.390625 
Q 39.453125 6.390625 43.28125 13.890625 
Q 47.125 21.390625 47.125 36.375 
Q 47.125 51.421875 43.28125 58.90625 
Q 39.453125 66.40625 31.78125 66.40625 
z
M 31.78125 74.21875 
Q 44.046875 74.21875 50.515625 64.515625 
Q 56.984375 54.828125 56.984375 36.375 
Q 56.984375 17.96875 50.515625 8.265625 
Q 44.046875 -1.421875 31.78125 -1.421875 
Q 19.53125 -1.421875 13.0625 8.265625 
Q 6.59375 17.96875 6.59375 36.375 
Q 6.59375 54.828125 13.0625 64.515625 
Q 19.53125 74.21875 31.78125 74.21875 
z
" id="DejaVuSans-48"/>
       </defs>
       <use xlink:href="#DejaVuSans-48"/>
      </g>
     </g>
    </g>
    <g id="xtick_2">
     <g id="line2d_3">
      <path clip-path="url(#p76e10b3aed)" d="M 347.14481 482.5224 
L 347.14481 65.0592 
" style="fill:none;stroke:#b0b0b0;stroke-linecap:square;stroke-width:0.8;"/>
     </g>
     <g id="line2d_4">
      <g>
       <use style="stroke:#000000;stroke-width:0.8;" x="347.14481" xlink:href="#m065bc36f85" y="482.5224"/>
      </g>
     </g>
     <g id="text_2">
      <!-- 10 -->
      <g transform="translate(340.78231 497.120837)scale(0.1 -0.1)">
       <defs>
        <path d="M 12.40625 8.296875 
L 28.515625 8.296875 
L 28.515625 63.921875 
L 10.984375 60.40625 
L 10.984375 69.390625 
L 28.421875 72.90625 
L 38.28125 72.90625 
L 38.28125 8.296875 
L 54.390625 8.296875 
L 54.390625 0 
L 12.40625 0 
z
" id="DejaVuSans-49"/>
       </defs>
       <use xlink:href="#DejaVuSans-49"/>
       <use x="63.623047" xlink:href="#DejaVuSans-48"/>
      </g>
     </g>
    </g>
    <g id="xtick_3">
     <g id="line2d_5">
      <path clip-path="url(#p76e10b3aed)" d="M 523.987958 482.5224 
L 523.987958 65.0592 
" style="fill:none;stroke:#b0b0b0;stroke-linecap:square;stroke-width:0.8;"/>
     </g>
     <g id="line2d_6">
      <g>
       <use style="stroke:#000000;stroke-width:0.8;" x="523.987958" xlink:href="#m065bc36f85" y="482.5224"/>
      </g>
     </g>
     <g id="text_3">
      <!-- 20 -->
      <g transform="translate(517.625458 497.120837)scale(0.1 -0.1)">
       <defs>
        <path d="M 19.1875 8.296875 
L 53.609375 8.296875 
L 53.609375 0 
L 7.328125 0 
L 7.328125 8.296875 
Q 12.9375 14.109375 22.625 23.890625 
Q 32.328125 33.6875 34.8125 36.53125 
Q 39.546875 41.84375 41.421875 45.53125 
Q 43.3125 49.21875 43.3125 52.78125 
Q 43.3125 58.59375 39.234375 62.25 
Q 35.15625 65.921875 28.609375 65.921875 
Q 23.96875 65.921875 18.8125 64.3125 
Q 13.671875 62.703125 7.8125 59.421875 
L 7.8125 69.390625 
Q 13.765625 71.78125 18.9375 73 
Q 24.125 74.21875 28.421875 74.21875 
Q 39.75 74.21875 46.484375 68.546875 
Q 53.21875 62.890625 53.21875 53.421875 
Q 53.21875 48.921875 51.53125 44.890625 
Q 49.859375 40.875 45.40625 35.40625 
Q 44.1875 33.984375 37.640625 27.21875 
Q 31.109375 20.453125 19.1875 8.296875 
z
" id="DejaVuSans-50"/>
       </defs>
       <use xlink:href="#DejaVuSans-50"/>
       <use x="63.623047" xlink:href="#DejaVuSans-48"/>
      </g>
     </g>
    </g>
    <g id="xtick_4">
     <g id="line2d_7">
      <path clip-path="url(#p76e10b3aed)" d="M 700.831106 482.5224 
L 700.831106 65.0592 
" style="fill:none;stroke:#b0b0b0;stroke-linecap:square;stroke-width:0.8;"/>
     </g>
     <g id="line2d_8">
      <g>
       <use style="stroke:#000000;stroke-width:0.8;" x="700.831106" xlink:href="#m065bc36f85" y="482.5224"/>
      </g>
     </g>
     <g id="text_4">
      <!-- 30 -->
      <g transform="translate(694.468606 497.120837)scale(0.1 -0.1)">
       <defs>
        <path d="M 40.578125 39.3125 
Q 47.65625 37.796875 51.625 33 
Q 55.609375 28.21875 55.609375 21.1875 
Q 55.609375 10.40625 48.1875 4.484375 
Q 40.765625 -1.421875 27.09375 -1.421875 
Q 22.515625 -1.421875 17.65625 -0.515625 
Q 12.796875 0.390625 7.625 2.203125 
L 7.625 11.71875 
Q 11.71875 9.328125 16.59375 8.109375 
Q 21.484375 6.890625 26.8125 6.890625 
Q 36.078125 6.890625 40.9375 10.546875 
Q 45.796875 14.203125 45.796875 21.1875 
Q 45.796875 27.640625 41.28125 31.265625 
Q 36.765625 34.90625 28.71875 34.90625 
L 20.21875 34.90625 
L 20.21875 43.015625 
L 29.109375 43.015625 
Q 36.375 43.015625 40.234375 45.921875 
Q 44.09375 48.828125 44.09375 54.296875 
Q 44.09375 59.90625 40.109375 62.90625 
Q 36.140625 65.921875 28.71875 65.921875 
Q 24.65625 65.921875 20.015625 65.03125 
Q 15.375 64.15625 9.8125 62.3125 
L 9.8125 71.09375 
Q 15.4375 72.65625 20.34375 73.4375 
Q 25.25 74.21875 29.59375 74.21875 
Q 40.828125 74.21875 47.359375 69.109375 
Q 53.90625 64.015625 53.90625 55.328125 
Q 53.90625 49.265625 50.4375 45.09375 
Q 46.96875 40.921875 40.578125 39.3125 
z
" id="DejaVuSans-51"/>
       </defs>
       <use xlink:href="#DejaVuSans-51"/>
       <use x="63.623047" xlink:href="#DejaVuSans-48"/>
      </g>
     </g>
    </g>
    <g id="xtick_5">
     <g id="line2d_9">
      <path clip-path="url(#p76e10b3aed)" d="M 877.674254 482.5224 
L 877.674254 65.0592 
" style="fill:none;stroke:#b0b0b0;stroke-linecap:square;stroke-width:0.8;"/>
     </g>
     <g id="line2d_10">
      <g>
       <use style="stroke:#000000;stroke-width:0.8;" x="877.674254" xlink:href="#m065bc36f85" y="482.5224"/>
      </g>
     </g>
     <g id="text_5">
      <!-- 40 -->
      <g transform="translate(871.311754 497.120837)scale(0.1 -0.1)">
       <defs>
        <path d="M 37.796875 64.3125 
L 12.890625 25.390625 
L 37.796875 25.390625 
z
M 35.203125 72.90625 
L 47.609375 72.90625 
L 47.609375 25.390625 
L 58.015625 25.390625 
L 58.015625 17.1875 
L 47.609375 17.1875 
L 47.609375 0 
L 37.796875 0 
L 37.796875 17.1875 
L 4.890625 17.1875 
L 4.890625 26.703125 
z
" id="DejaVuSans-52"/>
       </defs>
       <use xlink:href="#DejaVuSans-52"/>
       <use x="63.623047" xlink:href="#DejaVuSans-48"/>
      </g>
     </g>
    </g>
    <g id="text_6">
     <!-- Diameter [mm] -->
     <g transform="translate(528.210563 510.798962)scale(0.1 -0.1)">
      <defs>
       <path d="M 19.671875 64.796875 
L 19.671875 8.109375 
L 31.59375 8.109375 
Q 46.6875 8.109375 53.6875 14.9375 
Q 60.6875 21.78125 60.6875 36.53125 
Q 60.6875 51.171875 53.6875 57.984375 
Q 46.6875 64.796875 31.59375 64.796875 
z
M 9.8125 72.90625 
L 30.078125 72.90625 
Q 51.265625 72.90625 61.171875 64.09375 
Q 71.09375 55.28125 71.09375 36.53125 
Q 71.09375 17.671875 61.125 8.828125 
Q 51.171875 0 30.078125 0 
L 9.8125 0 
z
" id="DejaVuSans-68"/>
       <path d="M 9.421875 54.6875 
L 18.40625 54.6875 
L 18.40625 0 
L 9.421875 0 
z
M 9.421875 75.984375 
L 18.40625 75.984375 
L 18.40625 64.59375 
L 9.421875 64.59375 
z
" id="DejaVuSans-105"/>
       <path d="M 34.28125 27.484375 
Q 23.390625 27.484375 19.1875 25 
Q 14.984375 22.515625 14.984375 16.5 
Q 14.984375 11.71875 18.140625 8.90625 
Q 21.296875 6.109375 26.703125 6.109375 
Q 34.1875 6.109375 38.703125 11.40625 
Q 43.21875 16.703125 43.21875 25.484375 
L 43.21875 27.484375 
z
M 52.203125 31.203125 
L 52.203125 0 
L 43.21875 0 
L 43.21875 8.296875 
Q 40.140625 3.328125 35.546875 0.953125 
Q 30.953125 -1.421875 24.3125 -1.421875 
Q 15.921875 -1.421875 10.953125 3.296875 
Q 6 8.015625 6 15.921875 
Q 6 25.140625 12.171875 29.828125 
Q 18.359375 34.515625 30.609375 34.515625 
L 43.21875 34.515625 
L 43.21875 35.40625 
Q 43.21875 41.609375 39.140625 45 
Q 35.0625 48.390625 27.6875 48.390625 
Q 23 48.390625 18.546875 47.265625 
Q 14.109375 46.140625 10.015625 43.890625 
L 10.015625 52.203125 
Q 14.9375 54.109375 19.578125 55.046875 
Q 24.21875 56 28.609375 56 
Q 40.484375 56 46.34375 49.84375 
Q 52.203125 43.703125 52.203125 31.203125 
z
" id="DejaVuSans-97"/>
       <path d="M 52 44.1875 
Q 55.375 50.25 60.0625 53.125 
Q 64.75 56 71.09375 56 
Q 79.640625 56 84.28125 50.015625 
Q 88.921875 44.046875 88.921875 33.015625 
L 88.921875 0 
L 79.890625 0 
L 79.890625 32.71875 
Q 79.890625 40.578125 77.09375 44.375 
Q 74.3125 48.1875 68.609375 48.1875 
Q 61.625 48.1875 57.5625 43.546875 
Q 53.515625 38.921875 53.515625 30.90625 
L 53.515625 0 
L 44.484375 0 
L 44.484375 32.71875 
Q 44.484375 40.625 41.703125 44.40625 
Q 38.921875 48.1875 33.109375 48.1875 
Q 26.21875 48.1875 22.15625 43.53125 
Q 18.109375 38.875 18.109375 30.90625 
L 18.109375 0 
L 9.078125 0 
L 9.078125 54.6875 
L 18.109375 54.6875 
L 18.109375 46.1875 
Q 21.1875 51.21875 25.484375 53.609375 
Q 29.78125 56 35.6875 56 
Q 41.65625 56 45.828125 52.96875 
Q 50 49.953125 52 44.1875 
z
" id="DejaVuSans-109"/>
       <path d="M 56.203125 29.59375 
L 56.203125 25.203125 
L 14.890625 25.203125 
Q 15.484375 15.921875 20.484375 11.0625 
Q 25.484375 6.203125 34.421875 6.203125 
Q 39.59375 6.203125 44.453125 7.46875 
Q 49.3125 8.734375 54.109375 11.28125 
L 54.109375 2.78125 
Q 49.265625 0.734375 44.1875 -0.34375 
Q 39.109375 -1.421875 33.890625 -1.421875 
Q 20.796875 -1.421875 13.15625 6.1875 
Q 5.515625 13.8125 5.515625 26.8125 
Q 5.515625 40.234375 12.765625 48.109375 
Q 20.015625 56 32.328125 56 
Q 43.359375 56 49.78125 48.890625 
Q 56.203125 41.796875 56.203125 29.59375 
z
M 47.21875 32.234375 
Q 47.125 39.59375 43.09375 43.984375 
Q 39.0625 48.390625 32.421875 48.390625 
Q 24.90625 48.390625 20.390625 44.140625 
Q 15.875 39.890625 15.1875 32.171875 
z
" id="DejaVuSans-101"/>
       <path d="M 18.3125 70.21875 
L 18.3125 54.6875 
L 36.8125 54.6875 
L 36.8125 47.703125 
L 18.3125 47.703125 
L 18.3125 18.015625 
Q 18.3125 11.328125 20.140625 9.421875 
Q 21.96875 7.515625 27.59375 7.515625 
L 36.8125 7.515625 
L 36.8125 0 
L 27.59375 0 
Q 17.1875 0 13.234375 3.875 
Q 9.28125 7.765625 9.28125 18.015625 
L 9.28125 47.703125 
L 2.6875 47.703125 
L 2.6875 54.6875 
L 9.28125 54.6875 
L 9.28125 70.21875 
z
" id="DejaVuSans-116"/>
       <path d="M 41.109375 46.296875 
Q 39.59375 47.171875 37.8125 47.578125 
Q 36.03125 48 33.890625 48 
Q 26.265625 48 22.1875 43.046875 
Q 18.109375 38.09375 18.109375 28.8125 
L 18.109375 0 
L 9.078125 0 
L 9.078125 54.6875 
L 18.109375 54.6875 
L 18.109375 46.1875 
Q 20.953125 51.171875 25.484375 53.578125 
Q 30.03125 56 36.53125 56 
Q 37.453125 56 38.578125 55.875 
Q 39.703125 55.765625 41.0625 55.515625 
z
" id="DejaVuSans-114"/>
       <path id="DejaVuSans-32"/>
       <path d="M 8.59375 75.984375 
L 29.296875 75.984375 
L 29.296875 69 
L 17.578125 69 
L 17.578125 -6.203125 
L 29.296875 -6.203125 
L 29.296875 -13.1875 
L 8.59375 -13.1875 
z
" id="DejaVuSans-91"/>
       <path d="M 30.421875 75.984375 
L 30.421875 -13.1875 
L 9.71875 -13.1875 
L 9.71875 -6.203125 
L 21.390625 -6.203125 
L 21.390625 69 
L 9.71875 69 
L 9.71875 75.984375 
z
" id="DejaVuSans-93"/>
      </defs>
      <use xlink:href="#DejaVuSans-68"/>
      <use x="77.001953" xlink:href="#DejaVuSans-105"/>
      <use x="104.785156" xlink:href="#DejaVuSans-97"/>
      <use x="166.064453" xlink:href="#DejaVuSans-109"/>
      <use x="263.476562" xlink:href="#DejaVuSans-101"/>
      <use x="325" xlink:href="#DejaVuSans-116"/>
      <use x="364.208984" xlink:href="#DejaVuSans-101"/>
      <use x="425.732422" xlink:href="#DejaVuSans-114"/>
      <use x="466.845703" xlink:href="#DejaVuSans-32"/>
      <use x="498.632812" xlink:href="#DejaVuSans-91"/>
      <use x="537.646484" xlink:href="#DejaVuSans-109"/>
      <use x="635.058594" xlink:href="#DejaVuSans-109"/>
      <use x="732.470703" xlink:href="#DejaVuSans-93"/>
     </g>
    </g>
   </g>
   <g id="matplotlib.axis_2">
    <g id="ytick_1">
     <g id="line2d_11">
      <path clip-path="url(#p76e10b3aed)" d="M 138.24 464.794283 
L 995.328 464.794283 
" style="fill:none;stroke:#b0b0b0;stroke-linecap:square;stroke-width:0.8;"/>
     </g>
     <g id="line2d_12">
      <defs>
       <path d="M 0 0 
L -3.5 0 
" id="mf244cc4ef5" style="stroke:#000000;stroke-width:0.8;"/>
      </defs>
      <g>
       <use style="stroke:#000000;stroke-width:0.8;" x="138.24" xlink:href="#mf244cc4ef5" y="464.794283"/>
      </g>
     </g>
     <g id="text_7">
      <!-- 0 -->
      <g transform="translate(124.8775 468.593502)scale(0.1 -0.1)">
       <use xlink:href="#DejaVuSans-48"/>
      </g>
     </g>
    </g>
    <g id="ytick_2">
     <g id="line2d_13">
      <path clip-path="url(#p76e10b3aed)" d="M 138.24 395.489681 
L 995.328 395.489681 
" style="fill:none;stroke:#b0b0b0;stroke-linecap:square;stroke-width:0.8;"/>
     </g>
     <g id="line2d_14">
      <g>
       <use style="stroke:#000000;stroke-width:0.8;" x="138.24" xlink:href="#mf244cc4ef5" y="395.489681"/>
      </g>
     </g>
     <g id="text_8">
      <!-- 5 -->
      <g transform="translate(124.8775 399.2889)scale(0.1 -0.1)">
       <defs>
        <path d="M 10.796875 72.90625 
L 49.515625 72.90625 
L 49.515625 64.59375 
L 19.828125 64.59375 
L 19.828125 46.734375 
Q 21.96875 47.46875 24.109375 47.828125 
Q 26.265625 48.1875 28.421875 48.1875 
Q 40.625 48.1875 47.75 41.5 
Q 54.890625 34.8125 54.890625 23.390625 
Q 54.890625 11.625 47.5625 5.09375 
Q 40.234375 -1.421875 26.90625 -1.421875 
Q 22.3125 -1.421875 17.546875 -0.640625 
Q 12.796875 0.140625 7.71875 1.703125 
L 7.71875 11.625 
Q 12.109375 9.234375 16.796875 8.0625 
Q 21.484375 6.890625 26.703125 6.890625 
Q 35.15625 6.890625 40.078125 11.328125 
Q 45.015625 15.765625 45.015625 23.390625 
Q 45.015625 31 40.078125 35.4375 
Q 35.15625 39.890625 26.703125 39.890625 
Q 22.75 39.890625 18.8125 39.015625 
Q 14.890625 38.140625 10.796875 36.28125 
z
" id="DejaVuSans-53"/>
       </defs>
       <use xlink:href="#DejaVuSans-53"/>
      </g>
     </g>
    </g>
    <g id="ytick_3">
     <g id="line2d_15">
      <path clip-path="url(#p76e10b3aed)" d="M 138.24 326.185079 
L 995.328 326.185079 
" style="fill:none;stroke:#b0b0b0;stroke-linecap:square;stroke-width:0.8;"/>
     </g>
     <g id="line2d_16">
      <g>
       <use style="stroke:#000000;stroke-width:0.8;" x="138.24" xlink:href="#mf244cc4ef5" y="326.185079"/>
      </g>
     </g>
     <g id="text_9">
      <!-- 10 -->
      <g transform="translate(118.515 329.984298)scale(0.1 -0.1)">
       <use xlink:href="#DejaVuSans-49"/>
       <use x="63.623047" xlink:href="#DejaVuSans-48"/>
      </g>
     </g>
    </g>
    <g id="ytick_4">
     <g id="line2d_17">
      <path clip-path="url(#p76e10b3aed)" d="M 138.24 256.880477 
L 995.328 256.880477 
" style="fill:none;stroke:#b0b0b0;stroke-linecap:square;stroke-width:0.8;"/>
     </g>
     <g id="line2d_18">
      <g>
       <use style="stroke:#000000;stroke-width:0.8;" x="138.24" xlink:href="#mf244cc4ef5" y="256.880477"/>
      </g>
     </g>
     <g id="text_10">
      <!-- 15 -->
      <g transform="translate(118.515 260.679696)scale(0.1 -0.1)">
       <use xlink:href="#DejaVuSans-49"/>
       <use x="63.623047" xlink:href="#DejaVuSans-53"/>
      </g>
     </g>
    </g>
    <g id="ytick_5">
     <g id="line2d_19">
      <path clip-path="url(#p76e10b3aed)" d="M 138.24 187.575875 
L 995.328 187.575875 
" style="fill:none;stroke:#b0b0b0;stroke-linecap:square;stroke-width:0.8;"/>
     </g>
     <g id="line2d_20">
      <g>
       <use style="stroke:#000000;stroke-width:0.8;" x="138.24" xlink:href="#mf244cc4ef5" y="187.575875"/>
      </g>
     </g>
     <g id="text_11">
      <!-- 20 -->
      <g transform="translate(118.515 191.375094)scale(0.1 -0.1)">
       <use xlink:href="#DejaVuSans-50"/>
       <use x="63.623047" xlink:href="#DejaVuSans-48"/>
      </g>
     </g>
    </g>
    <g id="ytick_6">
     <g id="line2d_21">
      <path clip-path="url(#p76e10b3aed)" d="M 138.24 118.271273 
L 995.328 118.271273 
" style="fill:none;stroke:#b0b0b0;stroke-linecap:square;stroke-width:0.8;"/>
     </g>
     <g id="line2d_22">
      <g>
       <use style="stroke:#000000;stroke-width:0.8;" x="138.24" xlink:href="#mf244cc4ef5" y="118.271273"/>
      </g>
     </g>
     <g id="text_12">
      <!-- 25 -->
      <g transform="translate(118.515 122.070492)scale(0.1 -0.1)">
       <use xlink:href="#DejaVuSans-50"/>
       <use x="63.623047" xlink:href="#DejaVuSans-53"/>
      </g>
     </g>
    </g>
    <g id="text_13">
     <!-- Thickness [mm] -->
     <g transform="translate(112.435313 313.732987)rotate(-90)scale(0.1 -0.1)">
      <defs>
       <path d="M -0.296875 72.90625 
L 61.375 72.90625 
L 61.375 64.59375 
L 35.5 64.59375 
L 35.5 0 
L 25.59375 0 
L 25.59375 64.59375 
L -0.296875 64.59375 
z
" id="DejaVuSans-84"/>
       <path d="M 54.890625 33.015625 
L 54.890625 0 
L 45.90625 0 
L 45.90625 32.71875 
Q 45.90625 40.484375 42.875 44.328125 
Q 39.84375 48.1875 33.796875 48.1875 
Q 26.515625 48.1875 22.3125 43.546875 
Q 18.109375 38.921875 18.109375 30.90625 
L 18.109375 0 
L 9.078125 0 
L 9.078125 75.984375 
L 18.109375 75.984375 
L 18.109375 46.1875 
Q 21.34375 51.125 25.703125 53.5625 
Q 30.078125 56 35.796875 56 
Q 45.21875 56 50.046875 50.171875 
Q 54.890625 44.34375 54.890625 33.015625 
z
" id="DejaVuSans-104"/>
       <path d="M 48.78125 52.59375 
L 48.78125 44.1875 
Q 44.96875 46.296875 41.140625 47.34375 
Q 37.3125 48.390625 33.40625 48.390625 
Q 24.65625 48.390625 19.8125 42.84375 
Q 14.984375 37.3125 14.984375 27.296875 
Q 14.984375 17.28125 19.8125 11.734375 
Q 24.65625 6.203125 33.40625 6.203125 
Q 37.3125 6.203125 41.140625 7.25 
Q 44.96875 8.296875 48.78125 10.40625 
L 48.78125 2.09375 
Q 45.015625 0.34375 40.984375 -0.53125 
Q 36.96875 -1.421875 32.421875 -1.421875 
Q 20.0625 -1.421875 12.78125 6.34375 
Q 5.515625 14.109375 5.515625 27.296875 
Q 5.515625 40.671875 12.859375 48.328125 
Q 20.21875 56 33.015625 56 
Q 37.15625 56 41.109375 55.140625 
Q 45.0625 54.296875 48.78125 52.59375 
z
" id="DejaVuSans-99"/>
       <path d="M 9.078125 75.984375 
L 18.109375 75.984375 
L 18.109375 31.109375 
L 44.921875 54.6875 
L 56.390625 54.6875 
L 27.390625 29.109375 
L 57.625 0 
L 45.90625 0 
L 18.109375 26.703125 
L 18.109375 0 
L 9.078125 0 
z
" id="DejaVuSans-107"/>
       <path d="M 54.890625 33.015625 
L 54.890625 0 
L 45.90625 0 
L 45.90625 32.71875 
Q 45.90625 40.484375 42.875 44.328125 
Q 39.84375 48.1875 33.796875 48.1875 
Q 26.515625 48.1875 22.3125 43.546875 
Q 18.109375 38.921875 18.109375 30.90625 
L 18.109375 0 
L 9.078125 0 
L 9.078125 54.6875 
L 18.109375 54.6875 
L 18.109375 46.1875 
Q 21.34375 51.125 25.703125 53.5625 
Q 30.078125 56 35.796875 56 
Q 45.21875 56 50.046875 50.171875 
Q 54.890625 44.34375 54.890625 33.015625 
z
" id="DejaVuSans-110"/>
       <path d="M 44.28125 53.078125 
L 44.28125 44.578125 
Q 40.484375 46.53125 36.375 47.5 
Q 32.28125 48.484375 27.875 48.484375 
Q 21.1875 48.484375 17.84375 46.4375 
Q 14.5 44.390625 14.5 40.28125 
Q 14.5 37.15625 16.890625 35.375 
Q 19.28125 33.59375 26.515625 31.984375 
L 29.59375 31.296875 
Q 39.15625 29.25 43.1875 25.515625 
Q 47.21875 21.78125 47.21875 15.09375 
Q 47.21875 7.46875 41.1875 3.015625 
Q 35.15625 -1.421875 24.609375 -1.421875 
Q 20.21875 -1.421875 15.453125 -0.5625 
Q 10.6875 0.296875 5.421875 2 
L 5.421875 11.28125 
Q 10.40625 8.6875 15.234375 7.390625 
Q 20.0625 6.109375 24.8125 6.109375 
Q 31.15625 6.109375 34.5625 8.28125 
Q 37.984375 10.453125 37.984375 14.40625 
Q 37.984375 18.0625 35.515625 20.015625 
Q 33.0625 21.96875 24.703125 23.78125 
L 21.578125 24.515625 
Q 13.234375 26.265625 9.515625 29.90625 
Q 5.8125 33.546875 5.8125 39.890625 
Q 5.8125 47.609375 11.28125 51.796875 
Q 16.75 56 26.8125 56 
Q 31.78125 56 36.171875 55.265625 
Q 40.578125 54.546875 44.28125 53.078125 
z
" id="DejaVuSans-115"/>
      </defs>
      <use xlink:href="#DejaVuSans-84"/>
      <use x="61.083984" xlink:href="#DejaVuSans-104"/>
      <use x="124.462891" xlink:href="#DejaVuSans-105"/>
      <use x="152.246094" xlink:href="#DejaVuSans-99"/>
      <use x="207.226562" xlink:href="#DejaVuSans-107"/>
      <use x="265.136719" xlink:href="#DejaVuSans-110"/>
      <use x="328.515625" xlink:href="#DejaVuSans-101"/>
      <use x="390.039062" xlink:href="#DejaVuSans-115"/>
      <use x="442.138672" xlink:href="#DejaVuSans-115"/>
      <use x="494.238281" xlink:href="#DejaVuSans-32"/>
      <use x="526.025391" xlink:href="#DejaVuSans-91"/>
      <use x="565.039062" xlink:href="#DejaVuSans-109"/>
      <use x="662.451172" xlink:href="#DejaVuSans-109"/>
      <use x="759.863281" xlink:href="#DejaVuSans-93"/>
     </g>
    </g>
   </g>
   <g id="line2d_23">
    <path clip-path="url(#p76e10b3aed)" d="M 956.369455 456.61634 
L 177.375389 456.61634 
L 177.375389 456.61634 
" style="fill:none;stroke:#1f77b4;stroke-linecap:square;stroke-width:1.5;"/>
   </g>
   <g id="line2d_24">
    <path clip-path="url(#p76e10b3aed)" d="M 956.369455 456.61634 
L 177.198545 456.61634 
L 177.198545 456.61634 
" style="fill:none;stroke:#ff7f0e;stroke-linecap:square;stroke-width:1.5;"/>
   </g>
   <g id="line2d_25">
    <path clip-path="url(#p76e10b3aed)" d="M 956.369455 388.143393 
L 955.485239 421.270993 
L 954.777866 424.736223 
L 953.186278 430.280591 
L 950.887317 436.240787 
L 948.411513 440.399063 
L 947.70414 441.507937 
L 946.112552 443.448465 
L 943.813591 445.943431 
L 940.630414 448.299788 
L 936.739865 450.656144 
L 932.672473 452.458064 
L 930.373512 453.289719 
L 928.781923 453.705547 
L 927.190335 454.259983 
L 924.007159 454.953029 
L 923.299786 455.230248 
L 914.634472 456.893558 
L 913.927099 456.893558 
L 907.560746 457.863823 
L 906.853373 457.863823 
L 903.670197 458.27965 
L 902.785981 458.27965 
L 902.078608 458.418259 
L 901.194392 458.418259 
L 899.779647 458.695478 
L 898.895432 458.695478 
L 898.188059 458.834087 
L 897.303843 458.834087 
L 896.596471 458.972696 
L 895.004882 458.972696 
L 892.705921 459.249915 
L 891.821706 459.249915 
L 891.114333 459.388524 
L 889.522745 459.388524 
L 887.046941 459.665742 
L 885.632195 459.665742 
L 884.040607 459.804351 
L 883.156391 459.804351 
L 882.449019 459.942961 
L 880.85743 459.942961 
L 879.265842 460.08157 
L 877.674254 460.08157 
L 876.966881 460.220179 
L 875.375293 460.220179 
L 873.783705 460.358788 
L 872.192116 460.358788 
L 871.484744 460.497398 
L 869.00894 460.497398 
L 868.301567 460.636007 
L 865.11839 460.636007 
L 864.411018 460.774616 
L 861.935214 460.774616 
L 861.227841 460.913225 
L 857.337292 460.913225 
L 855.745703 461.051834 
L 853.269899 461.051834 
L 852.562527 461.190444 
L 848.671978 461.190444 
L 847.080389 461.329053 
L 843.18984 461.329053 
L 841.598252 461.467662 
L 837.530859 461.467662 
L 836.823487 461.606271 
L 832.048722 461.606271 
L 831.341349 461.74488 
L 824.974996 461.74488 
L 824.267623 461.88349 
L 817.90127 461.88349 
L 817.193897 462.022099 
L 809.235956 462.022099 
L 808.528583 462.160708 
L 799.863269 462.160708 
L 799.155896 462.299317 
L 789.606366 462.299317 
L 788.898994 462.437926 
L 777.934718 462.437926 
L 776.34313 462.576536 
L 763.787267 462.576536 
L 762.195678 462.715145 
L 748.048226 462.715145 
L 746.456638 462.853754 
L 729.12601 462.853754 
L 728.418637 462.992363 
L 706.313244 462.992363 
L 705.605871 463.130972 
L 678.01834 463.130972 
L 677.310967 463.269582 
L 638.759161 463.269582 
L 638.051789 463.408191 
L 582.876726 463.408191 
L 582.169354 463.5468 
L 393.477715 463.5468 
L 392.770343 463.408191 
L 356.517497 463.408191 
L 355.810125 463.269582 
L 334.588947 463.269582 
L 332.997359 463.130972 
L 319.557279 463.130972 
L 318.849907 462.992363 
L 307.001416 462.992363 
L 306.294043 462.853754 
L 297.628729 462.853754 
L 296.921356 462.715145 
L 288.963415 462.715145 
L 288.256042 462.576536 
L 281.889689 462.576536 
L 281.182316 462.437926 
L 276.407551 462.437926 
L 275.700179 462.299317 
L 271.632786 462.299317 
L 270.925414 462.160708 
L 268.626453 462.160708 
L 267.034865 462.022099 
L 265.443276 462.022099 
L 262.967472 461.74488 
L 262.2601 461.74488 
L 260.668511 461.467662 
L 259.961139 461.467662 
L 258.36955 461.190444 
L 255.186374 460.08157 
L 253.594785 459.111305 
L 252.887413 458.418259 
L 252.003197 457.170777 
L 251.295824 455.368857 
L 250.411609 451.765018 
L 249.704236 442.339592 
L 248.82002 359.03546 
L 248.82002 359.03546 
" style="fill:none;stroke:#2ca02c;stroke-linecap:square;stroke-width:1.5;"/>
   </g>
   <g id="line2d_26">
    <path clip-path="url(#p76e10b3aed)" d="M 943.106218 84.0348 
L 941.691473 132.132194 
L 939.215669 187.160048 
L 937.800924 215.713544 
L 936.209336 239.692936 
L 935.501963 250.227235 
L 934.617747 259.92988 
L 933.910375 268.939478 
L 933.026159 277.25603 
L 931.611414 292.364433 
L 930.019826 305.393698 
L 929.312453 311.353894 
L 928.428237 316.898262 
L 927.720865 322.165412 
L 926.129276 331.729447 
L 925.421904 336.164942 
L 924.537688 340.323218 
L 923.122943 347.946724 
L 921.531354 354.877184 
L 920.823982 358.065196 
L 919.939766 361.114598 
L 919.232394 364.025392 
L 918.348178 366.797576 
L 916.933433 372.064725 
L 916.049217 374.421082 
L 914.634472 378.995186 
L 913.750256 381.074324 
L 913.042883 383.153462 
L 912.158668 385.093991 
L 910.743922 388.836439 
L 909.152334 392.301669 
L 906.853373 397.014382 
L 905.969157 398.400474 
L 904.554412 401.172658 
L 903.670197 402.420141 
L 902.255451 404.915107 
L 900.663863 407.271463 
L 899.95649 408.380337 
L 896.773314 412.538613 
L 896.065941 413.508877 
L 895.181725 414.340533 
L 893.76698 416.142452 
L 892.882764 416.974108 
L 892.175392 417.805763 
L 890.583804 419.330464 
L 889.876431 420.162119 
L 888.284843 421.548211 
L 887.57747 422.241257 
L 878.204783 429.448936 
L 875.905822 430.835028 
L 875.19845 431.389465 
L 873.606861 432.22112 
L 869.716312 434.438867 
L 868.124724 435.131913 
L 866.709979 435.963568 
L 865.825763 436.240787 
L 865.11839 436.656614 
L 864.234175 436.933833 
L 863.526802 437.34966 
L 860.520468 438.597143 
L 858.221508 439.567408 
L 855.038331 440.676281 
L 852.031997 441.785155 
L 845.842487 443.725684 
L 844.958271 443.864293 
L 843.366683 444.41873 
L 842.659311 444.557339 
L 841.951938 444.834557 
L 841.067722 444.973167 
L 840.36035 445.250385 
L 836.4698 446.08204 
L 835.762428 446.359259 
L 834.170839 446.636477 
L 833.463467 446.913696 
L 831.164506 447.329523 
L 829.572918 447.745351 
L 824.09078 448.715615 
L 823.383407 448.992834 
L 800.924328 452.458064 
L 800.216955 452.458064 
L 796.326406 453.012501 
L 795.619033 453.012501 
L 791.728484 453.566937 
L 790.844268 453.566937 
L 790.136896 453.705547 
L 789.429523 453.705547 
L 786.246346 454.121374 
L 785.538974 454.121374 
L 782.355797 454.537202 
L 781.648425 454.537202 
L 779.349464 454.81442 
L 778.465248 454.81442 
L 777.757875 454.953029 
L 777.050503 454.953029 
L 774.751542 455.230248 
L 773.867326 455.230248 
L 773.159953 455.368857 
L 772.275738 455.368857 
L 771.568365 455.507466 
L 770.860993 455.507466 
L 769.269404 455.646075 
L 768.562032 455.646075 
L 766.086228 455.923294 
L 765.378855 455.923294 
L 764.671482 456.061903 
L 763.787267 456.061903 
L 763.079894 456.200512 
L 761.488306 456.200512 
L 760.780933 456.339121 
L 759.896717 456.339121 
L 759.189345 456.477731 
L 757.597756 456.477731 
L 756.890384 456.61634 
L 756.183011 456.61634 
L 754.591423 456.754949 
L 753.88405 456.754949 
L 752.292462 456.893558 
L 751.408246 456.893558 
L 750.700874 457.032167 
L 749.993501 457.032167 
L 748.401913 457.170777 
L 747.69454 457.170777 
L 746.102952 457.309386 
L 745.218736 457.309386 
L 744.511364 457.447995 
L 742.919775 457.447995 
L 742.212403 457.586604 
L 740.620814 457.586604 
L 739.913442 457.725213 
L 738.321853 457.725213 
L 737.614481 457.863823 
L 735.31552 457.863823 
L 733.723931 458.002432 
L 733.016559 458.002432 
L 731.424971 458.141041 
L 729.833382 458.141041 
L 729.12601 458.27965 
L 727.534421 458.27965 
L 726.827049 458.418259 
L 724.351245 458.418259 
L 723.643872 458.556869 
L 721.344911 458.556869 
L 720.637539 458.695478 
L 719.04595 458.695478 
L 718.338578 458.834087 
L 715.155401 458.834087 
L 714.448028 458.972696 
L 712.149067 458.972696 
L 710.557479 459.111305 
L 708.965891 459.111305 
L 708.258518 459.249915 
L 705.959557 459.249915 
L 704.367969 459.388524 
L 702.069008 459.388524 
L 700.47742 459.527133 
L 698.178459 459.527133 
L 697.471086 459.665742 
L 694.28791 459.665742 
L 693.580537 459.804351 
L 690.39736 459.804351 
L 689.689988 459.942961 
L 686.506811 459.942961 
L 685.799438 460.08157 
L 681.908889 460.08157 
L 681.201517 460.220179 
L 677.310967 460.220179 
L 676.603595 460.358788 
L 672.713046 460.358788 
L 671.121457 460.497398 
L 667.938281 460.497398 
L 667.230908 460.636007 
L 662.632986 460.636007 
L 661.041398 460.774616 
L 658.035064 460.774616 
L 656.443476 460.913225 
L 651.845554 460.913225 
L 650.253966 461.051834 
L 646.363416 461.051834 
L 645.656044 461.190444 
L 640.173906 461.190444 
L 639.466534 461.329053 
L 633.984396 461.329053 
L 633.277024 461.467662 
L 627.087513 461.467662 
L 625.495925 461.606271 
L 620.013787 461.606271 
L 619.306415 461.74488 
L 612.409532 461.74488 
L 610.817944 461.88349 
L 603.921061 461.88349 
L 602.329473 462.022099 
L 595.43259 462.022099 
L 593.841002 462.160708 
L 586.059903 462.160708 
L 585.352531 462.299317 
L 576.864059 462.299317 
L 575.272471 462.437926 
L 566.076627 462.437926 
L 564.485039 462.576536 
L 555.112352 462.576536 
L 554.40498 462.715145 
L 542.733332 462.715145 
L 542.025959 462.853754 
L 529.646939 462.853754 
L 528.939566 462.992363 
L 514.968958 462.992363 
L 514.261585 463.130972 
L 498.699388 463.130972 
L 497.992016 463.269582 
L 481.015073 463.269582 
L 479.423485 463.408191 
L 461.73917 463.408191 
L 460.147582 463.5468 
L 393.654558 463.5468 
L 392.947186 463.408191 
L 356.517497 463.408191 
L 355.810125 463.269582 
L 334.942633 463.269582 
L 333.351045 463.130972 
L 319.380436 463.130972 
L 318.673064 462.992363 
L 307.178259 462.992363 
L 305.586671 462.853754 
L 297.805572 462.853754 
L 297.0982 462.715145 
L 289.317101 462.715145 
L 288.609729 462.576536 
L 281.536003 462.576536 
L 280.82863 462.437926 
L 276.230708 462.437926 
L 274.63912 462.299317 
L 271.632786 462.299317 
L 270.041198 462.160708 
L 268.44961 462.160708 
L 267.742237 462.022099 
L 266.150649 462.022099 
L 265.443276 461.88349 
L 263.851688 461.88349 
L 260.668511 461.467662 
L 259.961139 461.467662 
L 256.777962 460.774616 
L 254.479001 459.804351 
L 253.064256 458.556869 
L 252.18004 457.447995 
L 251.472668 455.923294 
L 250.765295 452.873891 
L 249.881079 446.22065 
L 249.173707 415.172188 
L 249.173707 415.172188 
" style="fill:none;stroke:#d62728;stroke-linecap:square;stroke-width:1.5;"/>
   </g>
   <g id="patch_3">
    <path d="M 138.24 482.5224 
L 138.24 65.0592 
" style="fill:none;stroke:#000000;stroke-linecap:square;stroke-linejoin:miter;stroke-width:0.8;"/>
   </g>
   <g id="patch_4">
    <path d="M 995.328 482.5224 
L 995.328 65.0592 
" style="fill:none;stroke:#000000;stroke-linecap:square;stroke-linejoin:miter;stroke-width:0.8;"/>
   </g>
   <g id="patch_5">
    <path d="M 138.24 482.5224 
L 995.328 482.5224 
" style="fill:none;stroke:#000000;stroke-linecap:square;stroke-linejoin:miter;stroke-width:0.8;"/>
   </g>
   <g id="patch_6">
    <path d="M 138.24 65.0592 
L 995.328 65.0592 
" style="fill:none;stroke:#000000;stroke-linecap:square;stroke-linejoin:miter;stroke-width:0.8;"/>
   </g>
   <g id="legend_1">
    <g id="patch_7">
     <path d="M 145.24 131.7717 
L 331.980625 131.7717 
Q 333.980625 131.7717 333.980625 129.7717 
L 333.980625 72.0592 
Q 333.980625 70.0592 331.980625 70.0592 
L 145.24 70.0592 
Q 143.24 70.0592 143.24 72.0592 
L 143.24 129.7717 
Q 143.24 131.7717 145.24 131.7717 
z
" style="fill:#ffffff;opacity:0.8;stroke:#cccccc;stroke-linejoin:miter;"/>
    </g>
    <g id="line2d_27">
     <path d="M 147.24 78.157637 
L 167.24 78.157637 
" style="fill:none;stroke:#1f77b4;stroke-linecap:square;stroke-width:1.5;"/>
    </g>
    <g id="line2d_28"/>
    <g id="text_14">
     <!-- Minimum thickness top lug -->
     <g transform="translate(175.24 81.657637)scale(0.1 -0.1)">
      <defs>
       <path d="M 9.8125 72.90625 
L 24.515625 72.90625 
L 43.109375 23.296875 
L 61.8125 72.90625 
L 76.515625 72.90625 
L 76.515625 0 
L 66.890625 0 
L 66.890625 64.015625 
L 48.09375 14.015625 
L 38.1875 14.015625 
L 19.390625 64.015625 
L 19.390625 0 
L 9.8125 0 
z
" id="DejaVuSans-77"/>
       <path d="M 8.5 21.578125 
L 8.5 54.6875 
L 17.484375 54.6875 
L 17.484375 21.921875 
Q 17.484375 14.15625 20.5 10.265625 
Q 23.53125 6.390625 29.59375 6.390625 
Q 36.859375 6.390625 41.078125 11.03125 
Q 45.3125 15.671875 45.3125 23.6875 
L 45.3125 54.6875 
L 54.296875 54.6875 
L 54.296875 0 
L 45.3125 0 
L 45.3125 8.40625 
Q 42.046875 3.421875 37.71875 1 
Q 33.40625 -1.421875 27.6875 -1.421875 
Q 18.265625 -1.421875 13.375 4.4375 
Q 8.5 10.296875 8.5 21.578125 
z
M 31.109375 56 
z
" id="DejaVuSans-117"/>
       <path d="M 30.609375 48.390625 
Q 23.390625 48.390625 19.1875 42.75 
Q 14.984375 37.109375 14.984375 27.296875 
Q 14.984375 17.484375 19.15625 11.84375 
Q 23.34375 6.203125 30.609375 6.203125 
Q 37.796875 6.203125 41.984375 11.859375 
Q 46.1875 17.53125 46.1875 27.296875 
Q 46.1875 37.015625 41.984375 42.703125 
Q 37.796875 48.390625 30.609375 48.390625 
z
M 30.609375 56 
Q 42.328125 56 49.015625 48.375 
Q 55.71875 40.765625 55.71875 27.296875 
Q 55.71875 13.875 49.015625 6.21875 
Q 42.328125 -1.421875 30.609375 -1.421875 
Q 18.84375 -1.421875 12.171875 6.21875 
Q 5.515625 13.875 5.515625 27.296875 
Q 5.515625 40.765625 12.171875 48.375 
Q 18.84375 56 30.609375 56 
z
" id="DejaVuSans-111"/>
       <path d="M 18.109375 8.203125 
L 18.109375 -20.796875 
L 9.078125 -20.796875 
L 9.078125 54.6875 
L 18.109375 54.6875 
L 18.109375 46.390625 
Q 20.953125 51.265625 25.265625 53.625 
Q 29.59375 56 35.59375 56 
Q 45.5625 56 51.78125 48.09375 
Q 58.015625 40.1875 58.015625 27.296875 
Q 58.015625 14.40625 51.78125 6.484375 
Q 45.5625 -1.421875 35.59375 -1.421875 
Q 29.59375 -1.421875 25.265625 0.953125 
Q 20.953125 3.328125 18.109375 8.203125 
z
M 48.6875 27.296875 
Q 48.6875 37.203125 44.609375 42.84375 
Q 40.53125 48.484375 33.40625 48.484375 
Q 26.265625 48.484375 22.1875 42.84375 
Q 18.109375 37.203125 18.109375 27.296875 
Q 18.109375 17.390625 22.1875 11.75 
Q 26.265625 6.109375 33.40625 6.109375 
Q 40.53125 6.109375 44.609375 11.75 
Q 48.6875 17.390625 48.6875 27.296875 
z
" id="DejaVuSans-112"/>
       <path d="M 9.421875 75.984375 
L 18.40625 75.984375 
L 18.40625 0 
L 9.421875 0 
z
" id="DejaVuSans-108"/>
       <path d="M 45.40625 27.984375 
Q 45.40625 37.75 41.375 43.109375 
Q 37.359375 48.484375 30.078125 48.484375 
Q 22.859375 48.484375 18.828125 43.109375 
Q 14.796875 37.75 14.796875 27.984375 
Q 14.796875 18.265625 18.828125 12.890625 
Q 22.859375 7.515625 30.078125 7.515625 
Q 37.359375 7.515625 41.375 12.890625 
Q 45.40625 18.265625 45.40625 27.984375 
z
M 54.390625 6.78125 
Q 54.390625 -7.171875 48.1875 -13.984375 
Q 42 -20.796875 29.203125 -20.796875 
Q 24.46875 -20.796875 20.265625 -20.09375 
Q 16.0625 -19.390625 12.109375 -17.921875 
L 12.109375 -9.1875 
Q 16.0625 -11.328125 19.921875 -12.34375 
Q 23.78125 -13.375 27.78125 -13.375 
Q 36.625 -13.375 41.015625 -8.765625 
Q 45.40625 -4.15625 45.40625 5.171875 
L 45.40625 9.625 
Q 42.625 4.78125 38.28125 2.390625 
Q 33.9375 0 27.875 0 
Q 17.828125 0 11.671875 7.65625 
Q 5.515625 15.328125 5.515625 27.984375 
Q 5.515625 40.671875 11.671875 48.328125 
Q 17.828125 56 27.875 56 
Q 33.9375 56 38.28125 53.609375 
Q 42.625 51.21875 45.40625 46.390625 
L 45.40625 54.6875 
L 54.390625 54.6875 
z
" id="DejaVuSans-103"/>
      </defs>
      <use xlink:href="#DejaVuSans-77"/>
      <use x="86.279297" xlink:href="#DejaVuSans-105"/>
      <use x="114.0625" xlink:href="#DejaVuSans-110"/>
      <use x="177.441406" xlink:href="#DejaVuSans-105"/>
      <use x="205.224609" xlink:href="#DejaVuSans-109"/>
      <use x="302.636719" xlink:href="#DejaVuSans-117"/>
      <use x="366.015625" xlink:href="#DejaVuSans-109"/>
      <use x="463.427734" xlink:href="#DejaVuSans-32"/>
      <use x="495.214844" xlink:href="#DejaVuSans-116"/>
      <use x="534.423828" xlink:href="#DejaVuSans-104"/>
      <use x="597.802734" xlink:href="#DejaVuSans-105"/>
      <use x="625.585938" xlink:href="#DejaVuSans-99"/>
      <use x="680.566406" xlink:href="#DejaVuSans-107"/>
      <use x="738.476562" xlink:href="#DejaVuSans-110"/>
      <use x="801.855469" xlink:href="#DejaVuSans-101"/>
      <use x="863.378906" xlink:href="#DejaVuSans-115"/>
      <use x="915.478516" xlink:href="#DejaVuSans-115"/>
      <use x="967.578125" xlink:href="#DejaVuSans-32"/>
      <use x="999.365234" xlink:href="#DejaVuSans-116"/>
      <use x="1038.574219" xlink:href="#DejaVuSans-111"/>
      <use x="1099.755859" xlink:href="#DejaVuSans-112"/>
      <use x="1163.232422" xlink:href="#DejaVuSans-32"/>
      <use x="1195.019531" xlink:href="#DejaVuSans-108"/>
      <use x="1222.802734" xlink:href="#DejaVuSans-117"/>
      <use x="1286.181641" xlink:href="#DejaVuSans-103"/>
     </g>
    </g>
    <g id="line2d_29">
     <path d="M 147.24 92.835762 
L 167.24 92.835762 
" style="fill:none;stroke:#ff7f0e;stroke-linecap:square;stroke-width:1.5;"/>
    </g>
    <g id="line2d_30"/>
    <g id="text_15">
     <!-- Minimum thickness bottom lug -->
     <g transform="translate(175.24 96.335762)scale(0.1 -0.1)">
      <defs>
       <path d="M 48.6875 27.296875 
Q 48.6875 37.203125 44.609375 42.84375 
Q 40.53125 48.484375 33.40625 48.484375 
Q 26.265625 48.484375 22.1875 42.84375 
Q 18.109375 37.203125 18.109375 27.296875 
Q 18.109375 17.390625 22.1875 11.75 
Q 26.265625 6.109375 33.40625 6.109375 
Q 40.53125 6.109375 44.609375 11.75 
Q 48.6875 17.390625 48.6875 27.296875 
z
M 18.109375 46.390625 
Q 20.953125 51.265625 25.265625 53.625 
Q 29.59375 56 35.59375 56 
Q 45.5625 56 51.78125 48.09375 
Q 58.015625 40.1875 58.015625 27.296875 
Q 58.015625 14.40625 51.78125 6.484375 
Q 45.5625 -1.421875 35.59375 -1.421875 
Q 29.59375 -1.421875 25.265625 0.953125 
Q 20.953125 3.328125 18.109375 8.203125 
L 18.109375 0 
L 9.078125 0 
L 9.078125 75.984375 
L 18.109375 75.984375 
z
" id="DejaVuSans-98"/>
      </defs>
      <use xlink:href="#DejaVuSans-77"/>
      <use x="86.279297" xlink:href="#DejaVuSans-105"/>
      <use x="114.0625" xlink:href="#DejaVuSans-110"/>
      <use x="177.441406" xlink:href="#DejaVuSans-105"/>
      <use x="205.224609" xlink:href="#DejaVuSans-109"/>
      <use x="302.636719" xlink:href="#DejaVuSans-117"/>
      <use x="366.015625" xlink:href="#DejaVuSans-109"/>
      <use x="463.427734" xlink:href="#DejaVuSans-32"/>
      <use x="495.214844" xlink:href="#DejaVuSans-116"/>
      <use x="534.423828" xlink:href="#DejaVuSans-104"/>
      <use x="597.802734" xlink:href="#DejaVuSans-105"/>
      <use x="625.585938" xlink:href="#DejaVuSans-99"/>
      <use x="680.566406" xlink:href="#DejaVuSans-107"/>
      <use x="738.476562" xlink:href="#DejaVuSans-110"/>
      <use x="801.855469" xlink:href="#DejaVuSans-101"/>
      <use x="863.378906" xlink:href="#DejaVuSans-115"/>
      <use x="915.478516" xlink:href="#DejaVuSans-115"/>
      <use x="967.578125" xlink:href="#DejaVuSans-32"/>
      <use x="999.365234" xlink:href="#DejaVuSans-98"/>
      <use x="1062.841797" xlink:href="#DejaVuSans-111"/>
      <use x="1124.023438" xlink:href="#DejaVuSans-116"/>
      <use x="1163.232422" xlink:href="#DejaVuSans-116"/>
      <use x="1202.441406" xlink:href="#DejaVuSans-111"/>
      <use x="1263.623047" xlink:href="#DejaVuSans-109"/>
      <use x="1361.035156" xlink:href="#DejaVuSans-32"/>
      <use x="1392.822266" xlink:href="#DejaVuSans-108"/>
      <use x="1420.605469" xlink:href="#DejaVuSans-117"/>
      <use x="1483.984375" xlink:href="#DejaVuSans-103"/>
     </g>
    </g>
    <g id="line2d_31">
     <path d="M 147.24 107.513887 
L 167.24 107.513887 
" style="fill:none;stroke:#2ca02c;stroke-linecap:square;stroke-width:1.5;"/>
    </g>
    <g id="line2d_32"/>
    <g id="text_16">
     <!-- Top lug -->
     <g transform="translate(175.24 111.013887)scale(0.1 -0.1)">
      <use xlink:href="#DejaVuSans-84"/>
      <use x="44.083984" xlink:href="#DejaVuSans-111"/>
      <use x="105.265625" xlink:href="#DejaVuSans-112"/>
      <use x="168.742188" xlink:href="#DejaVuSans-32"/>
      <use x="200.529297" xlink:href="#DejaVuSans-108"/>
      <use x="228.3125" xlink:href="#DejaVuSans-117"/>
      <use x="291.691406" xlink:href="#DejaVuSans-103"/>
     </g>
    </g>
    <g id="line2d_33">
     <path d="M 147.24 122.192012 
L 167.24 122.192012 
" style="fill:none;stroke:#d62728;stroke-linecap:square;stroke-width:1.5;"/>
    </g>
    <g id="line2d_34"/>
    <g id="text_17">
     <!-- Bottom lug -->
     <g transform="translate(175.24 125.692012)scale(0.1 -0.1)">
      <defs>
       <path d="M 19.671875 34.8125 
L 19.671875 8.109375 
L 35.5 8.109375 
Q 43.453125 8.109375 47.28125 11.40625 
Q 51.125 14.703125 51.125 21.484375 
Q 51.125 28.328125 47.28125 31.5625 
Q 43.453125 34.8125 35.5 34.8125 
z
M 19.671875 64.796875 
L 19.671875 42.828125 
L 34.28125 42.828125 
Q 41.5 42.828125 45.03125 45.53125 
Q 48.578125 48.25 48.578125 53.8125 
Q 48.578125 59.328125 45.03125 62.0625 
Q 41.5 64.796875 34.28125 64.796875 
z
M 9.8125 72.90625 
L 35.015625 72.90625 
Q 46.296875 72.90625 52.390625 68.21875 
Q 58.5 63.53125 58.5 54.890625 
Q 58.5 48.1875 55.375 44.234375 
Q 52.25 40.28125 46.1875 39.3125 
Q 53.46875 37.75 57.5 32.78125 
Q 61.53125 27.828125 61.53125 20.40625 
Q 61.53125 10.640625 54.890625 5.3125 
Q 48.25 0 35.984375 0 
L 9.8125 0 
z
" id="DejaVuSans-66"/>
      </defs>
      <use xlink:href="#DejaVuSans-66"/>
      <use x="68.603516" xlink:href="#DejaVuSans-111"/>
      <use x="129.785156" xlink:href="#DejaVuSans-116"/>
      <use x="168.994141" xlink:href="#DejaVuSans-116"/>
      <use x="208.203125" xlink:href="#DejaVuSans-111"/>
      <use x="269.384766" xlink:href="#DejaVuSans-109"/>
      <use x="366.796875" xlink:href="#DejaVuSans-32"/>
      <use x="398.583984" xlink:href="#DejaVuSans-108"/>
      <use x="426.367188" xlink:href="#DejaVuSans-117"/>
      <use x="489.746094" xlink:href="#DejaVuSans-103"/>
     </g>
    </g>
   </g>
  </g>
 </g>
 <defs>
  <clipPath id="p76e10b3aed">
   <rect height="417.4632" width="857.088" x="138.24" y="65.0592"/>
  </clipPath>
 </defs>
</svg>
