<?xml version="1.0" encoding="utf-8" standalone="no"?>
<!DOCTYPE svg PUBLIC "-//W3C//DTD SVG 1.1//EN"
  "http://www.w3.org/Graphics/SVG/1.1/DTD/svg11.dtd">
<!-- Created with matplotlib (https://matplotlib.org/) -->
<svg height="345.6pt" version="1.1" viewBox="0 0 460.8 345.6" width="460.8pt" xmlns="http://www.w3.org/2000/svg" xmlns:xlink="http://www.w3.org/1999/xlink">
 <metadata>
  <rdf:RDF xmlns:cc="http://creativecommons.org/ns#" xmlns:dc="http://purl.org/dc/elements/1.1/" xmlns:rdf="http://www.w3.org/1999/02/22-rdf-syntax-ns#">
   <cc:Work>
    <dc:type rdf:resource="http://purl.org/dc/dcmitype/StillImage"/>
    <dc:date>2021-11-28T11:28:33.566071</dc:date>
    <dc:format>image/svg+xml</dc:format>
    <dc:creator>
     <cc:Agent>
      <dc:title>Matplotlib v3.3.2, https://matplotlib.org/</dc:title>
     </cc:Agent>
    </dc:creator>
   </cc:Work>
  </rdf:RDF>
 </metadata>
 <defs>
  <style type="text/css">*{stroke-linecap:butt;stroke-linejoin:round;}</style>
 </defs>
 <g id="figure_1">
  <g id="patch_1">
   <path d="M 0 345.6 
L 460.8 345.6 
L 460.8 0 
L 0 0 
z
" style="fill:#ffffff;"/>
  </g>
  <g id="axes_1">
   <g id="patch_2">
    <path d="M 57.6 307.584 
L 414.72 307.584 
L 414.72 41.472 
L 57.6 41.472 
z
" style="fill:#ffffff;"/>
   </g>
   <g id="matplotlib.axis_1">
    <g id="xtick_1">
     <g id="line2d_1">
      <path clip-path="url(#p3122448e4e)" d="M 73.832727 307.584 
L 73.832727 41.472 
" style="fill:none;stroke:#b0b0b0;stroke-linecap:square;stroke-width:0.8;"/>
     </g>
     <g id="line2d_2">
      <defs>
       <path d="M 0 0 
L 0 3.5 
" id="m394d64bec2" style="stroke:#000000;stroke-width:0.8;"/>
      </defs>
      <g>
       <use style="stroke:#000000;stroke-width:0.8;" x="73.832727" xlink:href="#m394d64bec2" y="307.584"/>
      </g>
     </g>
     <g id="text_1">
      <!-- 5 -->
      <g transform="translate(70.651477 322.182437)scale(0.1 -0.1)">
       <defs>
        <path d="M 10.796875 72.90625 
L 49.515625 72.90625 
L 49.515625 64.59375 
L 19.828125 64.59375 
L 19.828125 46.734375 
Q 21.96875 47.46875 24.109375 47.828125 
Q 26.265625 48.1875 28.421875 48.1875 
Q 40.625 48.1875 47.75 41.5 
Q 54.890625 34.8125 54.890625 23.390625 
Q 54.890625 11.625 47.5625 5.09375 
Q 40.234375 -1.421875 26.90625 -1.421875 
Q 22.3125 -1.421875 17.546875 -0.640625 
Q 12.796875 0.140625 7.71875 1.703125 
L 7.71875 11.625 
Q 12.109375 9.234375 16.796875 8.0625 
Q 21.484375 6.890625 26.703125 6.890625 
Q 35.15625 6.890625 40.078125 11.328125 
Q 45.015625 15.765625 45.015625 23.390625 
Q 45.015625 31 40.078125 35.4375 
Q 35.15625 39.890625 26.703125 39.890625 
Q 22.75 39.890625 18.8125 39.015625 
Q 14.890625 38.140625 10.796875 36.28125 
z
" id="DejaVuSans-53"/>
       </defs>
       <use xlink:href="#DejaVuSans-53"/>
      </g>
     </g>
    </g>
    <g id="xtick_2">
     <g id="line2d_3">
      <path clip-path="url(#p3122448e4e)" d="M 116.527959 307.584 
L 116.527959 41.472 
" style="fill:none;stroke:#b0b0b0;stroke-linecap:square;stroke-width:0.8;"/>
     </g>
     <g id="line2d_4">
      <g>
       <use style="stroke:#000000;stroke-width:0.8;" x="116.527959" xlink:href="#m394d64bec2" y="307.584"/>
      </g>
     </g>
     <g id="text_2">
      <!-- 10 -->
      <g transform="translate(110.165459 322.182437)scale(0.1 -0.1)">
       <defs>
        <path d="M 12.40625 8.296875 
L 28.515625 8.296875 
L 28.515625 63.921875 
L 10.984375 60.40625 
L 10.984375 69.390625 
L 28.421875 72.90625 
L 38.28125 72.90625 
L 38.28125 8.296875 
L 54.390625 8.296875 
L 54.390625 0 
L 12.40625 0 
z
" id="DejaVuSans-49"/>
        <path d="M 31.78125 66.40625 
Q 24.171875 66.40625 20.328125 58.90625 
Q 16.5 51.421875 16.5 36.375 
Q 16.5 21.390625 20.328125 13.890625 
Q 24.171875 6.390625 31.78125 6.390625 
Q 39.453125 6.390625 43.28125 13.890625 
Q 47.125 21.390625 47.125 36.375 
Q 47.125 51.421875 43.28125 58.90625 
Q 39.453125 66.40625 31.78125 66.40625 
z
M 31.78125 74.21875 
Q 44.046875 74.21875 50.515625 64.515625 
Q 56.984375 54.828125 56.984375 36.375 
Q 56.984375 17.96875 50.515625 8.265625 
Q 44.046875 -1.421875 31.78125 -1.421875 
Q 19.53125 -1.421875 13.0625 8.265625 
Q 6.59375 17.96875 6.59375 36.375 
Q 6.59375 54.828125 13.0625 64.515625 
Q 19.53125 74.21875 31.78125 74.21875 
z
" id="DejaVuSans-48"/>
       </defs>
       <use xlink:href="#DejaVuSans-49"/>
       <use x="63.623047" xlink:href="#DejaVuSans-48"/>
      </g>
     </g>
    </g>
    <g id="xtick_3">
     <g id="line2d_5">
      <path clip-path="url(#p3122448e4e)" d="M 159.223192 307.584 
L 159.223192 41.472 
" style="fill:none;stroke:#b0b0b0;stroke-linecap:square;stroke-width:0.8;"/>
     </g>
     <g id="line2d_6">
      <g>
       <use style="stroke:#000000;stroke-width:0.8;" x="159.223192" xlink:href="#m394d64bec2" y="307.584"/>
      </g>
     </g>
     <g id="text_3">
      <!-- 15 -->
      <g transform="translate(152.860692 322.182437)scale(0.1 -0.1)">
       <use xlink:href="#DejaVuSans-49"/>
       <use x="63.623047" xlink:href="#DejaVuSans-53"/>
      </g>
     </g>
    </g>
    <g id="xtick_4">
     <g id="line2d_7">
      <path clip-path="url(#p3122448e4e)" d="M 201.918424 307.584 
L 201.918424 41.472 
" style="fill:none;stroke:#b0b0b0;stroke-linecap:square;stroke-width:0.8;"/>
     </g>
     <g id="line2d_8">
      <g>
       <use style="stroke:#000000;stroke-width:0.8;" x="201.918424" xlink:href="#m394d64bec2" y="307.584"/>
      </g>
     </g>
     <g id="text_4">
      <!-- 20 -->
      <g transform="translate(195.555924 322.182437)scale(0.1 -0.1)">
       <defs>
        <path d="M 19.1875 8.296875 
L 53.609375 8.296875 
L 53.609375 0 
L 7.328125 0 
L 7.328125 8.296875 
Q 12.9375 14.109375 22.625 23.890625 
Q 32.328125 33.6875 34.8125 36.53125 
Q 39.546875 41.84375 41.421875 45.53125 
Q 43.3125 49.21875 43.3125 52.78125 
Q 43.3125 58.59375 39.234375 62.25 
Q 35.15625 65.921875 28.609375 65.921875 
Q 23.96875 65.921875 18.8125 64.3125 
Q 13.671875 62.703125 7.8125 59.421875 
L 7.8125 69.390625 
Q 13.765625 71.78125 18.9375 73 
Q 24.125 74.21875 28.421875 74.21875 
Q 39.75 74.21875 46.484375 68.546875 
Q 53.21875 62.890625 53.21875 53.421875 
Q 53.21875 48.921875 51.53125 44.890625 
Q 49.859375 40.875 45.40625 35.40625 
Q 44.1875 33.984375 37.640625 27.21875 
Q 31.109375 20.453125 19.1875 8.296875 
z
" id="DejaVuSans-50"/>
       </defs>
       <use xlink:href="#DejaVuSans-50"/>
       <use x="63.623047" xlink:href="#DejaVuSans-48"/>
      </g>
     </g>
    </g>
    <g id="xtick_5">
     <g id="line2d_9">
      <path clip-path="url(#p3122448e4e)" d="M 244.613656 307.584 
L 244.613656 41.472 
" style="fill:none;stroke:#b0b0b0;stroke-linecap:square;stroke-width:0.8;"/>
     </g>
     <g id="line2d_10">
      <g>
       <use style="stroke:#000000;stroke-width:0.8;" x="244.613656" xlink:href="#m394d64bec2" y="307.584"/>
      </g>
     </g>
     <g id="text_5">
      <!-- 25 -->
      <g transform="translate(238.251156 322.182437)scale(0.1 -0.1)">
       <use xlink:href="#DejaVuSans-50"/>
       <use x="63.623047" xlink:href="#DejaVuSans-53"/>
      </g>
     </g>
    </g>
    <g id="xtick_6">
     <g id="line2d_11">
      <path clip-path="url(#p3122448e4e)" d="M 287.308888 307.584 
L 287.308888 41.472 
" style="fill:none;stroke:#b0b0b0;stroke-linecap:square;stroke-width:0.8;"/>
     </g>
     <g id="line2d_12">
      <g>
       <use style="stroke:#000000;stroke-width:0.8;" x="287.308888" xlink:href="#m394d64bec2" y="307.584"/>
      </g>
     </g>
     <g id="text_6">
      <!-- 30 -->
      <g transform="translate(280.946388 322.182437)scale(0.1 -0.1)">
       <defs>
        <path d="M 40.578125 39.3125 
Q 47.65625 37.796875 51.625 33 
Q 55.609375 28.21875 55.609375 21.1875 
Q 55.609375 10.40625 48.1875 4.484375 
Q 40.765625 -1.421875 27.09375 -1.421875 
Q 22.515625 -1.421875 17.65625 -0.515625 
Q 12.796875 0.390625 7.625 2.203125 
L 7.625 11.71875 
Q 11.71875 9.328125 16.59375 8.109375 
Q 21.484375 6.890625 26.8125 6.890625 
Q 36.078125 6.890625 40.9375 10.546875 
Q 45.796875 14.203125 45.796875 21.1875 
Q 45.796875 27.640625 41.28125 31.265625 
Q 36.765625 34.90625 28.71875 34.90625 
L 20.21875 34.90625 
L 20.21875 43.015625 
L 29.109375 43.015625 
Q 36.375 43.015625 40.234375 45.921875 
Q 44.09375 48.828125 44.09375 54.296875 
Q 44.09375 59.90625 40.109375 62.90625 
Q 36.140625 65.921875 28.71875 65.921875 
Q 24.65625 65.921875 20.015625 65.03125 
Q 15.375 64.15625 9.8125 62.3125 
L 9.8125 71.09375 
Q 15.4375 72.65625 20.34375 73.4375 
Q 25.25 74.21875 29.59375 74.21875 
Q 40.828125 74.21875 47.359375 69.109375 
Q 53.90625 64.015625 53.90625 55.328125 
Q 53.90625 49.265625 50.4375 45.09375 
Q 46.96875 40.921875 40.578125 39.3125 
z
" id="DejaVuSans-51"/>
       </defs>
       <use xlink:href="#DejaVuSans-51"/>
       <use x="63.623047" xlink:href="#DejaVuSans-48"/>
      </g>
     </g>
    </g>
    <g id="xtick_7">
     <g id="line2d_13">
      <path clip-path="url(#p3122448e4e)" d="M 330.00412 307.584 
L 330.00412 41.472 
" style="fill:none;stroke:#b0b0b0;stroke-linecap:square;stroke-width:0.8;"/>
     </g>
     <g id="line2d_14">
      <g>
       <use style="stroke:#000000;stroke-width:0.8;" x="330.00412" xlink:href="#m394d64bec2" y="307.584"/>
      </g>
     </g>
     <g id="text_7">
      <!-- 35 -->
      <g transform="translate(323.64162 322.182437)scale(0.1 -0.1)">
       <use xlink:href="#DejaVuSans-51"/>
       <use x="63.623047" xlink:href="#DejaVuSans-53"/>
      </g>
     </g>
    </g>
    <g id="xtick_8">
     <g id="line2d_15">
      <path clip-path="url(#p3122448e4e)" d="M 372.699352 307.584 
L 372.699352 41.472 
" style="fill:none;stroke:#b0b0b0;stroke-linecap:square;stroke-width:0.8;"/>
     </g>
     <g id="line2d_16">
      <g>
       <use style="stroke:#000000;stroke-width:0.8;" x="372.699352" xlink:href="#m394d64bec2" y="307.584"/>
      </g>
     </g>
     <g id="text_8">
      <!-- 40 -->
      <g transform="translate(366.336852 322.182437)scale(0.1 -0.1)">
       <defs>
        <path d="M 37.796875 64.3125 
L 12.890625 25.390625 
L 37.796875 25.390625 
z
M 35.203125 72.90625 
L 47.609375 72.90625 
L 47.609375 25.390625 
L 58.015625 25.390625 
L 58.015625 17.1875 
L 47.609375 17.1875 
L 47.609375 0 
L 37.796875 0 
L 37.796875 17.1875 
L 4.890625 17.1875 
L 4.890625 26.703125 
z
" id="DejaVuSans-52"/>
       </defs>
       <use xlink:href="#DejaVuSans-52"/>
       <use x="63.623047" xlink:href="#DejaVuSans-48"/>
      </g>
     </g>
    </g>
    <g id="text_9">
     <!-- Diameter [mm] -->
     <g transform="translate(197.586562 335.860562)scale(0.1 -0.1)">
      <defs>
       <path d="M 19.671875 64.796875 
L 19.671875 8.109375 
L 31.59375 8.109375 
Q 46.6875 8.109375 53.6875 14.9375 
Q 60.6875 21.78125 60.6875 36.53125 
Q 60.6875 51.171875 53.6875 57.984375 
Q 46.6875 64.796875 31.59375 64.796875 
z
M 9.8125 72.90625 
L 30.078125 72.90625 
Q 51.265625 72.90625 61.171875 64.09375 
Q 71.09375 55.28125 71.09375 36.53125 
Q 71.09375 17.671875 61.125 8.828125 
Q 51.171875 0 30.078125 0 
L 9.8125 0 
z
" id="DejaVuSans-68"/>
       <path d="M 9.421875 54.6875 
L 18.40625 54.6875 
L 18.40625 0 
L 9.421875 0 
z
M 9.421875 75.984375 
L 18.40625 75.984375 
L 18.40625 64.59375 
L 9.421875 64.59375 
z
" id="DejaVuSans-105"/>
       <path d="M 34.28125 27.484375 
Q 23.390625 27.484375 19.1875 25 
Q 14.984375 22.515625 14.984375 16.5 
Q 14.984375 11.71875 18.140625 8.90625 
Q 21.296875 6.109375 26.703125 6.109375 
Q 34.1875 6.109375 38.703125 11.40625 
Q 43.21875 16.703125 43.21875 25.484375 
L 43.21875 27.484375 
z
M 52.203125 31.203125 
L 52.203125 0 
L 43.21875 0 
L 43.21875 8.296875 
Q 40.140625 3.328125 35.546875 0.953125 
Q 30.953125 -1.421875 24.3125 -1.421875 
Q 15.921875 -1.421875 10.953125 3.296875 
Q 6 8.015625 6 15.921875 
Q 6 25.140625 12.171875 29.828125 
Q 18.359375 34.515625 30.609375 34.515625 
L 43.21875 34.515625 
L 43.21875 35.40625 
Q 43.21875 41.609375 39.140625 45 
Q 35.0625 48.390625 27.6875 48.390625 
Q 23 48.390625 18.546875 47.265625 
Q 14.109375 46.140625 10.015625 43.890625 
L 10.015625 52.203125 
Q 14.9375 54.109375 19.578125 55.046875 
Q 24.21875 56 28.609375 56 
Q 40.484375 56 46.34375 49.84375 
Q 52.203125 43.703125 52.203125 31.203125 
z
" id="DejaVuSans-97"/>
       <path d="M 52 44.1875 
Q 55.375 50.25 60.0625 53.125 
Q 64.75 56 71.09375 56 
Q 79.640625 56 84.28125 50.015625 
Q 88.921875 44.046875 88.921875 33.015625 
L 88.921875 0 
L 79.890625 0 
L 79.890625 32.71875 
Q 79.890625 40.578125 77.09375 44.375 
Q 74.3125 48.1875 68.609375 48.1875 
Q 61.625 48.1875 57.5625 43.546875 
Q 53.515625 38.921875 53.515625 30.90625 
L 53.515625 0 
L 44.484375 0 
L 44.484375 32.71875 
Q 44.484375 40.625 41.703125 44.40625 
Q 38.921875 48.1875 33.109375 48.1875 
Q 26.21875 48.1875 22.15625 43.53125 
Q 18.109375 38.875 18.109375 30.90625 
L 18.109375 0 
L 9.078125 0 
L 9.078125 54.6875 
L 18.109375 54.6875 
L 18.109375 46.1875 
Q 21.1875 51.21875 25.484375 53.609375 
Q 29.78125 56 35.6875 56 
Q 41.65625 56 45.828125 52.96875 
Q 50 49.953125 52 44.1875 
z
" id="DejaVuSans-109"/>
       <path d="M 56.203125 29.59375 
L 56.203125 25.203125 
L 14.890625 25.203125 
Q 15.484375 15.921875 20.484375 11.0625 
Q 25.484375 6.203125 34.421875 6.203125 
Q 39.59375 6.203125 44.453125 7.46875 
Q 49.3125 8.734375 54.109375 11.28125 
L 54.109375 2.78125 
Q 49.265625 0.734375 44.1875 -0.34375 
Q 39.109375 -1.421875 33.890625 -1.421875 
Q 20.796875 -1.421875 13.15625 6.1875 
Q 5.515625 13.8125 5.515625 26.8125 
Q 5.515625 40.234375 12.765625 48.109375 
Q 20.015625 56 32.328125 56 
Q 43.359375 56 49.78125 48.890625 
Q 56.203125 41.796875 56.203125 29.59375 
z
M 47.21875 32.234375 
Q 47.125 39.59375 43.09375 43.984375 
Q 39.0625 48.390625 32.421875 48.390625 
Q 24.90625 48.390625 20.390625 44.140625 
Q 15.875 39.890625 15.1875 32.171875 
z
" id="DejaVuSans-101"/>
       <path d="M 18.3125 70.21875 
L 18.3125 54.6875 
L 36.8125 54.6875 
L 36.8125 47.703125 
L 18.3125 47.703125 
L 18.3125 18.015625 
Q 18.3125 11.328125 20.140625 9.421875 
Q 21.96875 7.515625 27.59375 7.515625 
L 36.8125 7.515625 
L 36.8125 0 
L 27.59375 0 
Q 17.1875 0 13.234375 3.875 
Q 9.28125 7.765625 9.28125 18.015625 
L 9.28125 47.703125 
L 2.6875 47.703125 
L 2.6875 54.6875 
L 9.28125 54.6875 
L 9.28125 70.21875 
z
" id="DejaVuSans-116"/>
       <path d="M 41.109375 46.296875 
Q 39.59375 47.171875 37.8125 47.578125 
Q 36.03125 48 33.890625 48 
Q 26.265625 48 22.1875 43.046875 
Q 18.109375 38.09375 18.109375 28.8125 
L 18.109375 0 
L 9.078125 0 
L 9.078125 54.6875 
L 18.109375 54.6875 
L 18.109375 46.1875 
Q 20.953125 51.171875 25.484375 53.578125 
Q 30.03125 56 36.53125 56 
Q 37.453125 56 38.578125 55.875 
Q 39.703125 55.765625 41.0625 55.515625 
z
" id="DejaVuSans-114"/>
       <path id="DejaVuSans-32"/>
       <path d="M 8.59375 75.984375 
L 29.296875 75.984375 
L 29.296875 69 
L 17.578125 69 
L 17.578125 -6.203125 
L 29.296875 -6.203125 
L 29.296875 -13.1875 
L 8.59375 -13.1875 
z
" id="DejaVuSans-91"/>
       <path d="M 30.421875 75.984375 
L 30.421875 -13.1875 
L 9.71875 -13.1875 
L 9.71875 -6.203125 
L 21.390625 -6.203125 
L 21.390625 69 
L 9.71875 69 
L 9.71875 75.984375 
z
" id="DejaVuSans-93"/>
      </defs>
      <use xlink:href="#DejaVuSans-68"/>
      <use x="77.001953" xlink:href="#DejaVuSans-105"/>
      <use x="104.785156" xlink:href="#DejaVuSans-97"/>
      <use x="166.064453" xlink:href="#DejaVuSans-109"/>
      <use x="263.476562" xlink:href="#DejaVuSans-101"/>
      <use x="325" xlink:href="#DejaVuSans-116"/>
      <use x="364.208984" xlink:href="#DejaVuSans-101"/>
      <use x="425.732422" xlink:href="#DejaVuSans-114"/>
      <use x="466.845703" xlink:href="#DejaVuSans-32"/>
      <use x="498.632812" xlink:href="#DejaVuSans-91"/>
      <use x="537.646484" xlink:href="#DejaVuSans-109"/>
      <use x="635.058594" xlink:href="#DejaVuSans-109"/>
      <use x="732.470703" xlink:href="#DejaVuSans-93"/>
     </g>
    </g>
   </g>
   <g id="matplotlib.axis_2">
    <g id="ytick_1">
     <g id="line2d_17">
      <path clip-path="url(#p3122448e4e)" d="M 57.6 306.295423 
L 414.72 306.295423 
" style="fill:none;stroke:#b0b0b0;stroke-linecap:square;stroke-width:0.8;"/>
     </g>
     <g id="line2d_18">
      <defs>
       <path d="M 0 0 
L -3.5 0 
" id="mae6da555fc" style="stroke:#000000;stroke-width:0.8;"/>
      </defs>
      <g>
       <use style="stroke:#000000;stroke-width:0.8;" x="57.6" xlink:href="#mae6da555fc" y="306.295423"/>
      </g>
     </g>
     <g id="text_10">
      <!-- 0.5 -->
      <g transform="translate(34.696875 310.094641)scale(0.1 -0.1)">
       <defs>
        <path d="M 10.6875 12.40625 
L 21 12.40625 
L 21 0 
L 10.6875 0 
z
" id="DejaVuSans-46"/>
       </defs>
       <use xlink:href="#DejaVuSans-48"/>
       <use x="63.623047" xlink:href="#DejaVuSans-46"/>
       <use x="95.410156" xlink:href="#DejaVuSans-53"/>
      </g>
     </g>
    </g>
    <g id="ytick_2">
     <g id="line2d_19">
      <path clip-path="url(#p3122448e4e)" d="M 57.6 264.728412 
L 414.72 264.728412 
" style="fill:none;stroke:#b0b0b0;stroke-linecap:square;stroke-width:0.8;"/>
     </g>
     <g id="line2d_20">
      <g>
       <use style="stroke:#000000;stroke-width:0.8;" x="57.6" xlink:href="#mae6da555fc" y="264.728412"/>
      </g>
     </g>
     <g id="text_11">
      <!-- 1.0 -->
      <g transform="translate(34.696875 268.527631)scale(0.1 -0.1)">
       <use xlink:href="#DejaVuSans-49"/>
       <use x="63.623047" xlink:href="#DejaVuSans-46"/>
       <use x="95.410156" xlink:href="#DejaVuSans-48"/>
      </g>
     </g>
    </g>
    <g id="ytick_3">
     <g id="line2d_21">
      <path clip-path="url(#p3122448e4e)" d="M 57.6 223.161402 
L 414.72 223.161402 
" style="fill:none;stroke:#b0b0b0;stroke-linecap:square;stroke-width:0.8;"/>
     </g>
     <g id="line2d_22">
      <g>
       <use style="stroke:#000000;stroke-width:0.8;" x="57.6" xlink:href="#mae6da555fc" y="223.161402"/>
      </g>
     </g>
     <g id="text_12">
      <!-- 1.5 -->
      <g transform="translate(34.696875 226.960621)scale(0.1 -0.1)">
       <use xlink:href="#DejaVuSans-49"/>
       <use x="63.623047" xlink:href="#DejaVuSans-46"/>
       <use x="95.410156" xlink:href="#DejaVuSans-53"/>
      </g>
     </g>
    </g>
    <g id="ytick_4">
     <g id="line2d_23">
      <path clip-path="url(#p3122448e4e)" d="M 57.6 181.594392 
L 414.72 181.594392 
" style="fill:none;stroke:#b0b0b0;stroke-linecap:square;stroke-width:0.8;"/>
     </g>
     <g id="line2d_24">
      <g>
       <use style="stroke:#000000;stroke-width:0.8;" x="57.6" xlink:href="#mae6da555fc" y="181.594392"/>
      </g>
     </g>
     <g id="text_13">
      <!-- 2.0 -->
      <g transform="translate(34.696875 185.393611)scale(0.1 -0.1)">
       <use xlink:href="#DejaVuSans-50"/>
       <use x="63.623047" xlink:href="#DejaVuSans-46"/>
       <use x="95.410156" xlink:href="#DejaVuSans-48"/>
      </g>
     </g>
    </g>
    <g id="ytick_5">
     <g id="line2d_25">
      <path clip-path="url(#p3122448e4e)" d="M 57.6 140.027381 
L 414.72 140.027381 
" style="fill:none;stroke:#b0b0b0;stroke-linecap:square;stroke-width:0.8;"/>
     </g>
     <g id="line2d_26">
      <g>
       <use style="stroke:#000000;stroke-width:0.8;" x="57.6" xlink:href="#mae6da555fc" y="140.027381"/>
      </g>
     </g>
     <g id="text_14">
      <!-- 2.5 -->
      <g transform="translate(34.696875 143.8266)scale(0.1 -0.1)">
       <use xlink:href="#DejaVuSans-50"/>
       <use x="63.623047" xlink:href="#DejaVuSans-46"/>
       <use x="95.410156" xlink:href="#DejaVuSans-53"/>
      </g>
     </g>
    </g>
    <g id="ytick_6">
     <g id="line2d_27">
      <path clip-path="url(#p3122448e4e)" d="M 57.6 98.460371 
L 414.72 98.460371 
" style="fill:none;stroke:#b0b0b0;stroke-linecap:square;stroke-width:0.8;"/>
     </g>
     <g id="line2d_28">
      <g>
       <use style="stroke:#000000;stroke-width:0.8;" x="57.6" xlink:href="#mae6da555fc" y="98.460371"/>
      </g>
     </g>
     <g id="text_15">
      <!-- 3.0 -->
      <g transform="translate(34.696875 102.25959)scale(0.1 -0.1)">
       <use xlink:href="#DejaVuSans-51"/>
       <use x="63.623047" xlink:href="#DejaVuSans-46"/>
       <use x="95.410156" xlink:href="#DejaVuSans-48"/>
      </g>
     </g>
    </g>
    <g id="ytick_7">
     <g id="line2d_29">
      <path clip-path="url(#p3122448e4e)" d="M 57.6 56.893361 
L 414.72 56.893361 
" style="fill:none;stroke:#b0b0b0;stroke-linecap:square;stroke-width:0.8;"/>
     </g>
     <g id="line2d_30">
      <g>
       <use style="stroke:#000000;stroke-width:0.8;" x="57.6" xlink:href="#mae6da555fc" y="56.893361"/>
      </g>
     </g>
     <g id="text_16">
      <!-- 3.5 -->
      <g transform="translate(34.696875 60.69258)scale(0.1 -0.1)">
       <use xlink:href="#DejaVuSans-51"/>
       <use x="63.623047" xlink:href="#DejaVuSans-46"/>
       <use x="95.410156" xlink:href="#DejaVuSans-53"/>
      </g>
     </g>
    </g>
    <g id="text_17">
     <!-- Thickness [mm] -->
     <g transform="translate(28.617187 214.470188)rotate(-90)scale(0.1 -0.1)">
      <defs>
       <path d="M -0.296875 72.90625 
L 61.375 72.90625 
L 61.375 64.59375 
L 35.5 64.59375 
L 35.5 0 
L 25.59375 0 
L 25.59375 64.59375 
L -0.296875 64.59375 
z
" id="DejaVuSans-84"/>
       <path d="M 54.890625 33.015625 
L 54.890625 0 
L 45.90625 0 
L 45.90625 32.71875 
Q 45.90625 40.484375 42.875 44.328125 
Q 39.84375 48.1875 33.796875 48.1875 
Q 26.515625 48.1875 22.3125 43.546875 
Q 18.109375 38.921875 18.109375 30.90625 
L 18.109375 0 
L 9.078125 0 
L 9.078125 75.984375 
L 18.109375 75.984375 
L 18.109375 46.1875 
Q 21.34375 51.125 25.703125 53.5625 
Q 30.078125 56 35.796875 56 
Q 45.21875 56 50.046875 50.171875 
Q 54.890625 44.34375 54.890625 33.015625 
z
" id="DejaVuSans-104"/>
       <path d="M 48.78125 52.59375 
L 48.78125 44.1875 
Q 44.96875 46.296875 41.140625 47.34375 
Q 37.3125 48.390625 33.40625 48.390625 
Q 24.65625 48.390625 19.8125 42.84375 
Q 14.984375 37.3125 14.984375 27.296875 
Q 14.984375 17.28125 19.8125 11.734375 
Q 24.65625 6.203125 33.40625 6.203125 
Q 37.3125 6.203125 41.140625 7.25 
Q 44.96875 8.296875 48.78125 10.40625 
L 48.78125 2.09375 
Q 45.015625 0.34375 40.984375 -0.53125 
Q 36.96875 -1.421875 32.421875 -1.421875 
Q 20.0625 -1.421875 12.78125 6.34375 
Q 5.515625 14.109375 5.515625 27.296875 
Q 5.515625 40.671875 12.859375 48.328125 
Q 20.21875 56 33.015625 56 
Q 37.15625 56 41.109375 55.140625 
Q 45.0625 54.296875 48.78125 52.59375 
z
" id="DejaVuSans-99"/>
       <path d="M 9.078125 75.984375 
L 18.109375 75.984375 
L 18.109375 31.109375 
L 44.921875 54.6875 
L 56.390625 54.6875 
L 27.390625 29.109375 
L 57.625 0 
L 45.90625 0 
L 18.109375 26.703125 
L 18.109375 0 
L 9.078125 0 
z
" id="DejaVuSans-107"/>
       <path d="M 54.890625 33.015625 
L 54.890625 0 
L 45.90625 0 
L 45.90625 32.71875 
Q 45.90625 40.484375 42.875 44.328125 
Q 39.84375 48.1875 33.796875 48.1875 
Q 26.515625 48.1875 22.3125 43.546875 
Q 18.109375 38.921875 18.109375 30.90625 
L 18.109375 0 
L 9.078125 0 
L 9.078125 54.6875 
L 18.109375 54.6875 
L 18.109375 46.1875 
Q 21.34375 51.125 25.703125 53.5625 
Q 30.078125 56 35.796875 56 
Q 45.21875 56 50.046875 50.171875 
Q 54.890625 44.34375 54.890625 33.015625 
z
" id="DejaVuSans-110"/>
       <path d="M 44.28125 53.078125 
L 44.28125 44.578125 
Q 40.484375 46.53125 36.375 47.5 
Q 32.28125 48.484375 27.875 48.484375 
Q 21.1875 48.484375 17.84375 46.4375 
Q 14.5 44.390625 14.5 40.28125 
Q 14.5 37.15625 16.890625 35.375 
Q 19.28125 33.59375 26.515625 31.984375 
L 29.59375 31.296875 
Q 39.15625 29.25 43.1875 25.515625 
Q 47.21875 21.78125 47.21875 15.09375 
Q 47.21875 7.46875 41.1875 3.015625 
Q 35.15625 -1.421875 24.609375 -1.421875 
Q 20.21875 -1.421875 15.453125 -0.5625 
Q 10.6875 0.296875 5.421875 2 
L 5.421875 11.28125 
Q 10.40625 8.6875 15.234375 7.390625 
Q 20.0625 6.109375 24.8125 6.109375 
Q 31.15625 6.109375 34.5625 8.28125 
Q 37.984375 10.453125 37.984375 14.40625 
Q 37.984375 18.0625 35.515625 20.015625 
Q 33.0625 21.96875 24.703125 23.78125 
L 21.578125 24.515625 
Q 13.234375 26.265625 9.515625 29.90625 
Q 5.8125 33.546875 5.8125 39.890625 
Q 5.8125 47.609375 11.28125 51.796875 
Q 16.75 56 26.8125 56 
Q 31.78125 56 36.171875 55.265625 
Q 40.578125 54.546875 44.28125 53.078125 
z
" id="DejaVuSans-115"/>
      </defs>
      <use xlink:href="#DejaVuSans-84"/>
      <use x="61.083984" xlink:href="#DejaVuSans-104"/>
      <use x="124.462891" xlink:href="#DejaVuSans-105"/>
      <use x="152.246094" xlink:href="#DejaVuSans-99"/>
      <use x="207.226562" xlink:href="#DejaVuSans-107"/>
      <use x="265.136719" xlink:href="#DejaVuSans-110"/>
      <use x="328.515625" xlink:href="#DejaVuSans-101"/>
      <use x="390.039062" xlink:href="#DejaVuSans-115"/>
      <use x="442.138672" xlink:href="#DejaVuSans-115"/>
      <use x="494.238281" xlink:href="#DejaVuSans-32"/>
      <use x="526.025391" xlink:href="#DejaVuSans-91"/>
      <use x="565.039062" xlink:href="#DejaVuSans-109"/>
      <use x="662.451172" xlink:href="#DejaVuSans-109"/>
      <use x="759.863281" xlink:href="#DejaVuSans-93"/>
     </g>
    </g>
   </g>
   <g id="line2d_31">
    <path clip-path="url(#p3122448e4e)" d="M 398.487273 53.568 
L 398.401882 56.062021 
L 398.06032 64.375423 
L 397.97493 66.869443 
L 397.718759 70.194804 
L 397.633368 73.520165 
L 397.462587 76.014186 
L 397.377197 78.508206 
L 397.377197 78.508206 
L 397.206416 81.002227 
L 397.121025 84.327588 
L 397.035635 84.327588 
L 396.950244 87.652948 
L 396.694073 90.978309 
L 396.608683 93.47233 
L 396.437902 95.966351 
L 396.352511 98.460371 
L 396.267121 98.460371 
L 396.18173 100.954392 
L 396.18173 100.954392 
L 395.925559 104.279753 
L 395.840168 106.773773 
L 395.583997 110.099134 
L 395.498606 111.761814 
L 395.498606 111.761814 
L 395.327826 114.255835 
L 395.242435 115.918515 
L 394.900873 120.075216 
L 394.815483 122.569237 
L 394.730092 122.569237 
L 394.644702 125.063258 
L 394.559311 125.063258 
L 394.473921 126.725938 
L 394.473921 126.725938 
L 394.046969 131.713979 
L 393.961578 133.37666 
L 393.961578 133.37666 
L 393.534626 138.364701 
L 393.534626 138.364701 
L 393.449235 140.027381 
L 393.363845 140.027381 
L 393.278454 142.521402 
L 393.193064 142.521402 
L 393.107673 144.184082 
L 393.022283 144.184082 
L 392.936893 145.846763 
L 392.936893 145.846763 
L 391.997597 155.822845 
L 391.997597 155.822845 
L 391.997597 156.654186 
L 391.912207 156.654186 
L 389.948226 174.94367 
L 389.948226 174.94367 
L 389.862836 174.94367 
L 389.777445 176.606351 
L 389.692055 176.606351 
L 389.008931 182.425732 
L 389.008931 182.425732 
L 388.923541 182.425732 
L 388.83815 184.088412 
L 388.75276 184.088412 
L 388.325807 187.413773 
L 388.325807 187.413773 
L 388.240417 187.413773 
L 388.240417 188.245113 
L 388.155027 188.245113 
L 387.813465 190.739134 
L 387.813465 190.739134 
L 387.728074 190.739134 
L 387.642684 192.401814 
L 387.557293 192.401814 
L 387.215731 194.895835 
L 387.215731 194.895835 
L 387.130341 194.895835 
L 387.130341 195.727175 
L 387.044951 195.727175 
L 386.703389 198.221196 
L 386.703389 198.221196 
L 386.617998 198.221196 
L 386.617998 199.052536 
L 386.532608 199.052536 
L 386.447217 199.052536 
L 386.361827 200.715216 
L 386.191046 200.715216 
L 386.191046 201.546557 
L 386.105655 201.546557 
L 385.849484 203.209237 
L 385.849484 203.209237 
L 385.764094 203.209237 
L 385.764094 204.040577 
L 385.678703 204.040577 
L 385.422532 205.703258 
L 385.422532 205.703258 
L 385.337141 205.703258 
L 385.337141 206.534598 
L 385.251751 206.534598 
L 385.16636 206.534598 
L 385.16636 207.365938 
L 385.08097 207.365938 
L 384.824798 209.028619 
L 384.824798 209.028619 
L 384.739408 209.028619 
L 384.739408 209.859959 
L 384.654018 209.859959 
L 384.568627 209.859959 
L 384.568627 210.691299 
L 384.483237 210.691299 
L 384.397846 210.691299 
L 384.397846 211.522639 
L 384.312456 211.522639 
L 384.141675 212.353979 
L 384.141675 212.353979 
L 384.056284 212.353979 
L 384.056284 213.18532 
L 383.970894 213.18532 
L 383.714722 214.848 
L 383.714722 214.848 
L 383.543941 214.848 
L 383.543941 215.67934 
L 383.458551 215.67934 
L 383.20238 217.342021 
L 383.20238 217.342021 
L 383.031599 217.342021 
L 383.031599 218.173361 
L 382.946208 218.173361 
L 382.860818 218.173361 
L 382.860818 219.004701 
L 382.775427 219.004701 
L 382.690037 219.004701 
L 382.690037 219.836041 
L 382.604646 219.836041 
L 382.519256 219.836041 
L 382.519256 220.667381 
L 382.433865 220.667381 
L 382.348475 220.667381 
L 382.092304 222.330062 
L 382.092304 222.330062 
L 382.006913 222.330062 
L 382.006913 222.330062 
L 381.836132 223.161402 
L 381.836132 223.161402 
L 381.750742 223.161402 
L 381.750742 223.992742 
L 381.665351 223.992742 
L 381.579961 223.992742 
L 381.323789 225.655423 
L 381.323789 225.655423 
L 381.153008 225.655423 
L 381.153008 226.486763 
L 381.067618 226.486763 
L 380.982228 226.486763 
L 380.811447 227.318103 
L 380.811447 227.318103 
L 380.726056 227.318103 
L 380.726056 228.149443 
L 380.640666 228.149443 
L 380.555275 228.149443 
L 380.555275 228.980784 
L 380.469885 228.980784 
L 380.384494 228.980784 
L 380.384494 228.980784 
L 380.213713 229.812124 
L 380.213713 229.812124 
L 380.128323 229.812124 
L 380.128323 229.812124 
L 380.128323 230.643464 
L 380.042932 230.643464 
L 379.872151 230.643464 
L 379.872151 231.474804 
L 379.786761 231.474804 
L 379.701371 231.474804 
L 379.53059 232.306144 
L 379.53059 232.306144 
L 379.445199 232.306144 
L 379.445199 233.137485 
L 379.359809 233.137485 
L 379.274418 233.137485 
L 379.274418 233.137485 
L 379.103637 233.968825 
L 379.103637 233.968825 
L 379.018247 233.968825 
L 378.847466 234.800165 
L 378.847466 234.800165 
L 378.762075 234.800165 
L 378.762075 235.631505 
L 378.676685 235.631505 
L 378.505904 235.631505 
L 378.505904 235.631505 
L 378.505904 236.462845 
L 378.420514 236.462845 
L 378.249733 236.462845 
L 378.249733 237.294186 
L 378.164342 237.294186 
L 377.993561 237.294186 
L 377.993561 238.125526 
L 377.908171 238.125526 
L 377.73739 238.125526 
L 377.73739 238.956866 
L 377.651999 238.956866 
L 377.481218 238.956866 
L 377.481218 239.788206 
L 377.395828 239.788206 
L 377.225047 239.788206 
L 377.225047 240.619546 
L 377.139657 240.619546 
L 376.968876 240.619546 
L 376.968876 241.450887 
L 376.883485 241.450887 
L 376.712704 241.450887 
L 376.712704 242.282227 
L 376.627314 242.282227 
L 376.456533 242.282227 
L 376.456533 243.113567 
L 376.371142 243.113567 
L 376.200362 243.113567 
L 376.200362 243.113567 
L 376.200362 243.944907 
L 376.114971 243.944907 
L 375.94419 243.944907 
L 375.94419 243.944907 
L 375.94419 244.776247 
L 375.8588 244.776247 
L 375.688019 244.776247 
L 375.688019 244.776247 
L 375.517238 245.607588 
L 375.517238 245.607588 
L 375.346457 245.607588 
L 375.346457 246.438928 
L 375.261066 246.438928 
L 375.090285 246.438928 
L 375.090285 246.438928 
L 374.919505 247.270268 
L 374.919505 247.270268 
L 374.748724 247.270268 
L 374.748724 248.101608 
L 374.663333 248.101608 
L 374.492552 248.101608 
L 374.492552 248.101608 
L 374.321771 248.932948 
L 374.321771 248.932948 
L 374.15099 248.932948 
L 374.15099 248.932948 
L 373.980209 249.764289 
L 373.980209 249.764289 
L 373.809429 249.764289 
L 373.809429 250.595629 
L 373.724038 250.595629 
L 373.553257 250.595629 
L 373.553257 250.595629 
L 373.382476 251.426969 
L 373.382476 251.426969 
L 373.211695 251.426969 
L 373.211695 251.426969 
L 373.040914 252.258309 
L 373.040914 252.258309 
L 372.870133 252.258309 
L 372.870133 252.258309 
L 372.699352 253.089649 
L 372.699352 253.089649 
L 372.528572 253.089649 
L 372.528572 253.089649 
L 372.528572 253.92099 
L 372.443181 253.92099 
L 372.18701 253.92099 
L 372.18701 254.75233 
L 372.101619 254.75233 
L 371.845448 254.75233 
L 371.845448 254.75233 
L 371.674667 255.58367 
L 371.674667 255.58367 
L 371.503886 255.58367 
L 371.503886 255.58367 
L 371.333105 256.41501 
L 371.333105 256.41501 
L 371.162324 256.41501 
L 371.162324 256.41501 
L 370.991543 257.246351 
L 370.991543 257.246351 
L 370.735372 257.246351 
L 370.735372 258.077691 
L 370.649981 258.077691 
L 370.39381 258.077691 
L 370.39381 258.077691 
L 370.39381 258.909031 
L 370.308419 258.909031 
L 369.966858 258.909031 
L 369.966858 259.740371 
L 369.881467 259.740371 
L 369.625296 259.740371 
L 369.625296 259.740371 
L 369.625296 260.571711 
L 369.539905 260.571711 
L 369.198343 260.571711 
L 369.198343 261.403052 
L 369.112953 261.403052 
L 368.771391 261.403052 
L 368.771391 262.234392 
L 368.686001 262.234392 
L 368.429829 262.234392 
L 368.429829 262.234392 
L 368.259048 263.065732 
L 368.259048 263.065732 
L 368.002877 263.065732 
L 368.002877 263.065732 
L 367.832096 263.897072 
L 367.832096 263.897072 
L 367.575925 263.897072 
L 367.575925 263.897072 
L 367.405144 264.728412 
L 367.405144 264.728412 
L 367.148972 264.728412 
L 367.148972 264.728412 
L 366.978191 265.559753 
L 366.978191 265.559753 
L 366.72202 265.559753 
L 366.72202 265.559753 
L 366.551239 266.391093 
L 366.551239 266.391093 
L 366.209677 266.391093 
L 366.209677 266.391093 
L 366.209677 267.222433 
L 366.124287 267.222433 
L 365.782725 267.222433 
L 365.782725 267.222433 
L 365.611944 268.053773 
L 365.611944 268.053773 
L 365.270382 268.053773 
L 365.270382 268.885113 
L 365.184992 268.885113 
L 364.758039 268.885113 
L 364.758039 269.716454 
L 364.672649 269.716454 
L 364.331087 269.716454 
L 364.331087 269.716454 
L 364.160306 270.547794 
L 364.160306 270.547794 
L 363.818744 270.547794 
L 363.818744 270.547794 
L 363.647963 271.379134 
L 363.647963 271.379134 
L 363.306401 271.379134 
L 363.306401 271.379134 
L 363.13562 272.210474 
L 363.13562 272.210474 
L 362.794059 272.210474 
L 362.794059 272.210474 
L 362.623278 273.041814 
L 362.623278 273.041814 
L 362.196325 273.041814 
L 362.196325 273.041814 
L 362.196325 273.873155 
L 362.110935 273.873155 
L 361.683983 273.873155 
L 361.683983 273.873155 
L 361.513202 274.704495 
L 361.513202 274.704495 
L 361.086249 274.704495 
L 361.086249 274.704495 
L 360.915468 275.535835 
L 360.915468 275.535835 
L 360.488516 275.535835 
L 360.488516 276.367175 
L 360.403126 276.367175 
L 359.890783 276.367175 
L 359.890783 276.367175 
L 359.890783 277.198515 
L 359.805392 277.198515 
L 359.29305 277.198515 
L 359.29305 277.198515 
L 359.29305 278.029856 
L 359.207659 278.029856 
L 358.695316 278.029856 
L 358.695316 278.029856 
L 358.524535 278.861196 
L 358.524535 278.861196 
L 358.012193 278.861196 
L 358.012193 279.692536 
L 357.926802 279.692536 
L 357.414459 279.692536 
L 357.414459 279.692536 
L 357.243678 280.523876 
L 357.243678 280.523876 
L 356.731336 280.523876 
L 356.731336 280.523876 
L 356.731336 281.355216 
L 356.645945 281.355216 
L 356.048212 281.355216 
L 356.048212 281.355216 
L 355.877431 282.186557 
L 355.877431 282.186557 
L 355.365088 282.186557 
L 355.365088 282.186557 
L 355.194307 283.017897 
L 355.194307 283.017897 
L 354.596574 283.017897 
L 354.596574 283.017897 
L 354.596574 283.849237 
L 354.511184 283.849237 
L 353.82806 283.849237 
L 353.82806 283.849237 
L 353.657279 284.680577 
L 353.657279 284.680577 
L 352.974155 284.680577 
L 352.974155 284.680577 
L 352.803374 285.511918 
L 352.803374 285.511918 
L 352.03486 285.511918 
L 352.03486 285.511918 
L 351.864079 286.343258 
L 351.864079 286.343258 
L 351.095565 286.343258 
L 351.095565 287.174598 
L 351.010175 287.174598 
L 350.15627 287.174598 
L 350.15627 287.174598 
L 350.15627 288.005938 
L 350.070879 288.005938 
L 349.216975 288.005938 
L 349.216975 288.005938 
L 349.046194 288.837278 
L 349.046194 288.837278 
L 348.192289 288.837278 
L 348.192289 288.837278 
L 348.021508 289.668619 
L 348.021508 289.668619 
L 347.167604 289.668619 
L 347.167604 289.668619 
L 346.996823 290.499959 
L 346.996823 290.499959 
L 346.057528 290.499959 
L 346.057528 291.331299 
L 345.972137 291.331299 
L 344.947452 291.331299 
L 344.947452 292.162639 
L 344.862061 292.162639 
L 343.837376 292.162639 
L 343.837376 292.162639 
L 343.837376 292.993979 
L 343.751985 292.993979 
L 342.641909 292.993979 
L 342.641909 292.993979 
L 342.471128 293.82532 
L 342.471128 293.82532 
L 341.446443 293.82532 
L 341.446443 293.82532 
L 341.275662 294.65666 
L 341.275662 294.65666 
L 340.165586 294.65666 
L 340.165586 294.65666 
L 339.994805 295.488 
L 339.994805 295.488 
L 78.10225 295.488 
L 78.10225 295.488 
L 77.93147 294.65666 
L 77.93147 294.65666 
L 77.675298 294.65666 
L 77.675298 293.82532 
L 77.589908 293.82532 
L 77.333736 293.82532 
L 77.333736 293.82532 
L 77.162955 292.993979 
L 77.162955 292.993979 
L 76.992174 292.993979 
L 76.992174 292.993979 
L 76.821394 292.162639 
L 76.821394 292.162639 
L 76.650613 292.162639 
L 76.650613 291.331299 
L 76.565222 291.331299 
L 76.394441 291.331299 
L 76.394441 291.331299 
L 76.394441 290.499959 
L 76.309051 290.499959 
L 76.13827 290.499959 
L 76.13827 290.499959 
L 76.13827 289.668619 
L 76.052879 289.668619 
L 75.882098 289.668619 
L 75.882098 288.837278 
L 75.796708 288.837278 
L 75.711317 288.837278 
L 75.540537 288.005938 
L 75.540537 288.005938 
L 75.455146 288.005938 
L 75.455146 287.174598 
L 75.369756 287.174598 
L 75.284365 287.174598 
L 75.284365 286.343258 
L 75.198975 286.343258 
L 75.113584 286.343258 
L 75.113584 285.511918 
L 75.028194 285.511918 
L 74.942803 285.511918 
L 74.686632 283.849237 
L 74.686632 283.849237 
L 74.601241 283.849237 
L 74.601241 283.017897 
L 74.515851 283.017897 
L 74.430461 283.017897 
L 74.430461 282.186557 
L 74.34507 282.186557 
L 73.918118 278.861196 
L 73.918118 278.861196 
L 73.832727 278.861196 
L 73.832727 278.861196 
" style="fill:none;stroke:#1f77b4;stroke-linecap:square;stroke-width:1.5;"/>
   </g>
   <g id="patch_3">
    <path d="M 57.6 307.584 
L 57.6 41.472 
" style="fill:none;stroke:#000000;stroke-linecap:square;stroke-linejoin:miter;stroke-width:0.8;"/>
   </g>
   <g id="patch_4">
    <path d="M 414.72 307.584 
L 414.72 41.472 
" style="fill:none;stroke:#000000;stroke-linecap:square;stroke-linejoin:miter;stroke-width:0.8;"/>
   </g>
   <g id="patch_5">
    <path d="M 57.6 307.584 
L 414.72 307.584 
" style="fill:none;stroke:#000000;stroke-linecap:square;stroke-linejoin:miter;stroke-width:0.8;"/>
   </g>
   <g id="patch_6">
    <path d="M 57.6 41.472 
L 414.72 41.472 
" style="fill:none;stroke:#000000;stroke-linecap:square;stroke-linejoin:miter;stroke-width:0.8;"/>
   </g>
   <g id="legend_1">
    <g id="patch_7">
     <path d="M 64.6 64.150125 
L 193.353125 64.150125 
Q 195.353125 64.150125 195.353125 62.150125 
L 195.353125 48.472 
Q 195.353125 46.472 193.353125 46.472 
L 64.6 46.472 
Q 62.6 46.472 62.6 48.472 
L 62.6 62.150125 
Q 62.6 64.150125 64.6 64.150125 
z
" style="fill:#ffffff;opacity:0.8;stroke:#cccccc;stroke-linejoin:miter;"/>
    </g>
    <g id="line2d_32">
     <path d="M 66.6 54.570438 
L 86.6 54.570438 
" style="fill:none;stroke:#1f77b4;stroke-linecap:square;stroke-width:1.5;"/>
    </g>
    <g id="line2d_33"/>
    <g id="text_18">
     <!-- Minimum thickness -->
     <g transform="translate(94.6 58.070438)scale(0.1 -0.1)">
      <defs>
       <path d="M 9.8125 72.90625 
L 24.515625 72.90625 
L 43.109375 23.296875 
L 61.8125 72.90625 
L 76.515625 72.90625 
L 76.515625 0 
L 66.890625 0 
L 66.890625 64.015625 
L 48.09375 14.015625 
L 38.1875 14.015625 
L 19.390625 64.015625 
L 19.390625 0 
L 9.8125 0 
z
" id="DejaVuSans-77"/>
       <path d="M 8.5 21.578125 
L 8.5 54.6875 
L 17.484375 54.6875 
L 17.484375 21.921875 
Q 17.484375 14.15625 20.5 10.265625 
Q 23.53125 6.390625 29.59375 6.390625 
Q 36.859375 6.390625 41.078125 11.03125 
Q 45.3125 15.671875 45.3125 23.6875 
L 45.3125 54.6875 
L 54.296875 54.6875 
L 54.296875 0 
L 45.3125 0 
L 45.3125 8.40625 
Q 42.046875 3.421875 37.71875 1 
Q 33.40625 -1.421875 27.6875 -1.421875 
Q 18.265625 -1.421875 13.375 4.4375 
Q 8.5 10.296875 8.5 21.578125 
z
M 31.109375 56 
z
" id="DejaVuSans-117"/>
      </defs>
      <use xlink:href="#DejaVuSans-77"/>
      <use x="86.279297" xlink:href="#DejaVuSans-105"/>
      <use x="114.0625" xlink:href="#DejaVuSans-110"/>
      <use x="177.441406" xlink:href="#DejaVuSans-105"/>
      <use x="205.224609" xlink:href="#DejaVuSans-109"/>
      <use x="302.636719" xlink:href="#DejaVuSans-117"/>
      <use x="366.015625" xlink:href="#DejaVuSans-109"/>
      <use x="463.427734" xlink:href="#DejaVuSans-32"/>
      <use x="495.214844" xlink:href="#DejaVuSans-116"/>
      <use x="534.423828" xlink:href="#DejaVuSans-104"/>
      <use x="597.802734" xlink:href="#DejaVuSans-105"/>
      <use x="625.585938" xlink:href="#DejaVuSans-99"/>
      <use x="680.566406" xlink:href="#DejaVuSans-107"/>
      <use x="738.476562" xlink:href="#DejaVuSans-110"/>
      <use x="801.855469" xlink:href="#DejaVuSans-101"/>
      <use x="863.378906" xlink:href="#DejaVuSans-115"/>
      <use x="915.478516" xlink:href="#DejaVuSans-115"/>
     </g>
    </g>
   </g>
  </g>
 </g>
 <defs>
  <clipPath id="p3122448e4e">
   <rect height="266.112" width="357.12" x="57.6" y="41.472"/>
  </clipPath>
 </defs>
</svg>
