<?xml version="1.0" encoding="utf-8" standalone="no"?>
<!DOCTYPE svg PUBLIC "-//W3C//DTD SVG 1.1//EN"
  "http://www.w3.org/Graphics/SVG/1.1/DTD/svg11.dtd">
<!-- Created with matplotlib (https://matplotlib.org/) -->
<svg height="697.68pt" version="1.1" viewBox="0 0 1382.4 697.68" width="1382.4pt" xmlns="http://www.w3.org/2000/svg" xmlns:xlink="http://www.w3.org/1999/xlink">
 <metadata>
  <rdf:RDF xmlns:cc="http://creativecommons.org/ns#" xmlns:dc="http://purl.org/dc/elements/1.1/" xmlns:rdf="http://www.w3.org/1999/02/22-rdf-syntax-ns#">
   <cc:Work>
    <dc:type rdf:resource="http://purl.org/dc/dcmitype/StillImage"/>
    <dc:date>2021-11-26T12:46:59.524306</dc:date>
    <dc:format>image/svg+xml</dc:format>
    <dc:creator>
     <cc:Agent>
      <dc:title>Matplotlib v3.3.2, https://matplotlib.org/</dc:title>
     </cc:Agent>
    </dc:creator>
   </cc:Work>
  </rdf:RDF>
 </metadata>
 <defs>
  <style type="text/css">*{stroke-linecap:butt;stroke-linejoin:round;}</style>
 </defs>
 <g id="figure_1">
  <g id="patch_1">
   <path d="M 0 697.68 
L 1382.4 697.68 
L 1382.4 0 
L 0 0 
z
" style="fill:#ffffff;"/>
  </g>
  <g id="axes_1">
   <g id="patch_2">
    <path d="M 172.8 620.9352 
L 1244.16 620.9352 
L 1244.16 83.7216 
L 172.8 83.7216 
z
" style="fill:#ffffff;"/>
   </g>
   <g id="matplotlib.axis_1">
    <g id="xtick_1">
     <g id="line2d_1">
      <path clip-path="url(#p8258b4f365)" d="M 235.32728 620.9352 
L 235.32728 83.7216 
" style="fill:none;stroke:#b0b0b0;stroke-linecap:square;stroke-width:0.8;"/>
     </g>
     <g id="line2d_2">
      <defs>
       <path d="M 0 0 
L 0 3.5 
" id="m7403dcdbf0" style="stroke:#000000;stroke-width:0.8;"/>
      </defs>
      <g>
       <use style="stroke:#000000;stroke-width:0.8;" x="235.32728" xlink:href="#m7403dcdbf0" y="620.9352"/>
      </g>
     </g>
     <g id="text_1">
      <!-- 5 -->
      <g transform="translate(232.14603 635.533637)scale(0.1 -0.1)">
       <defs>
        <path d="M 10.796875 72.90625 
L 49.515625 72.90625 
L 49.515625 64.59375 
L 19.828125 64.59375 
L 19.828125 46.734375 
Q 21.96875 47.46875 24.109375 47.828125 
Q 26.265625 48.1875 28.421875 48.1875 
Q 40.625 48.1875 47.75 41.5 
Q 54.890625 34.8125 54.890625 23.390625 
Q 54.890625 11.625 47.5625 5.09375 
Q 40.234375 -1.421875 26.90625 -1.421875 
Q 22.3125 -1.421875 17.546875 -0.640625 
Q 12.796875 0.140625 7.71875 1.703125 
L 7.71875 11.625 
Q 12.109375 9.234375 16.796875 8.0625 
Q 21.484375 6.890625 26.703125 6.890625 
Q 35.15625 6.890625 40.078125 11.328125 
Q 45.015625 15.765625 45.015625 23.390625 
Q 45.015625 31 40.078125 35.4375 
Q 35.15625 39.890625 26.703125 39.890625 
Q 22.75 39.890625 18.8125 39.015625 
Q 14.890625 38.140625 10.796875 36.28125 
z
" id="DejaVuSans-53"/>
       </defs>
       <use xlink:href="#DejaVuSans-53"/>
      </g>
     </g>
    </g>
    <g id="xtick_2">
     <g id="line2d_3">
      <path clip-path="url(#p8258b4f365)" d="M 358.801372 620.9352 
L 358.801372 83.7216 
" style="fill:none;stroke:#b0b0b0;stroke-linecap:square;stroke-width:0.8;"/>
     </g>
     <g id="line2d_4">
      <g>
       <use style="stroke:#000000;stroke-width:0.8;" x="358.801372" xlink:href="#m7403dcdbf0" y="620.9352"/>
      </g>
     </g>
     <g id="text_2">
      <!-- 10 -->
      <g transform="translate(352.438872 635.533637)scale(0.1 -0.1)">
       <defs>
        <path d="M 12.40625 8.296875 
L 28.515625 8.296875 
L 28.515625 63.921875 
L 10.984375 60.40625 
L 10.984375 69.390625 
L 28.421875 72.90625 
L 38.28125 72.90625 
L 38.28125 8.296875 
L 54.390625 8.296875 
L 54.390625 0 
L 12.40625 0 
z
" id="DejaVuSans-49"/>
        <path d="M 31.78125 66.40625 
Q 24.171875 66.40625 20.328125 58.90625 
Q 16.5 51.421875 16.5 36.375 
Q 16.5 21.390625 20.328125 13.890625 
Q 24.171875 6.390625 31.78125 6.390625 
Q 39.453125 6.390625 43.28125 13.890625 
Q 47.125 21.390625 47.125 36.375 
Q 47.125 51.421875 43.28125 58.90625 
Q 39.453125 66.40625 31.78125 66.40625 
z
M 31.78125 74.21875 
Q 44.046875 74.21875 50.515625 64.515625 
Q 56.984375 54.828125 56.984375 36.375 
Q 56.984375 17.96875 50.515625 8.265625 
Q 44.046875 -1.421875 31.78125 -1.421875 
Q 19.53125 -1.421875 13.0625 8.265625 
Q 6.59375 17.96875 6.59375 36.375 
Q 6.59375 54.828125 13.0625 64.515625 
Q 19.53125 74.21875 31.78125 74.21875 
z
" id="DejaVuSans-48"/>
       </defs>
       <use xlink:href="#DejaVuSans-49"/>
       <use x="63.623047" xlink:href="#DejaVuSans-48"/>
      </g>
     </g>
    </g>
    <g id="xtick_3">
     <g id="line2d_5">
      <path clip-path="url(#p8258b4f365)" d="M 482.275464 620.9352 
L 482.275464 83.7216 
" style="fill:none;stroke:#b0b0b0;stroke-linecap:square;stroke-width:0.8;"/>
     </g>
     <g id="line2d_6">
      <g>
       <use style="stroke:#000000;stroke-width:0.8;" x="482.275464" xlink:href="#m7403dcdbf0" y="620.9352"/>
      </g>
     </g>
     <g id="text_3">
      <!-- 15 -->
      <g transform="translate(475.912964 635.533637)scale(0.1 -0.1)">
       <use xlink:href="#DejaVuSans-49"/>
       <use x="63.623047" xlink:href="#DejaVuSans-53"/>
      </g>
     </g>
    </g>
    <g id="xtick_4">
     <g id="line2d_7">
      <path clip-path="url(#p8258b4f365)" d="M 605.749556 620.9352 
L 605.749556 83.7216 
" style="fill:none;stroke:#b0b0b0;stroke-linecap:square;stroke-width:0.8;"/>
     </g>
     <g id="line2d_8">
      <g>
       <use style="stroke:#000000;stroke-width:0.8;" x="605.749556" xlink:href="#m7403dcdbf0" y="620.9352"/>
      </g>
     </g>
     <g id="text_4">
      <!-- 20 -->
      <g transform="translate(599.387056 635.533637)scale(0.1 -0.1)">
       <defs>
        <path d="M 19.1875 8.296875 
L 53.609375 8.296875 
L 53.609375 0 
L 7.328125 0 
L 7.328125 8.296875 
Q 12.9375 14.109375 22.625 23.890625 
Q 32.328125 33.6875 34.8125 36.53125 
Q 39.546875 41.84375 41.421875 45.53125 
Q 43.3125 49.21875 43.3125 52.78125 
Q 43.3125 58.59375 39.234375 62.25 
Q 35.15625 65.921875 28.609375 65.921875 
Q 23.96875 65.921875 18.8125 64.3125 
Q 13.671875 62.703125 7.8125 59.421875 
L 7.8125 69.390625 
Q 13.765625 71.78125 18.9375 73 
Q 24.125 74.21875 28.421875 74.21875 
Q 39.75 74.21875 46.484375 68.546875 
Q 53.21875 62.890625 53.21875 53.421875 
Q 53.21875 48.921875 51.53125 44.890625 
Q 49.859375 40.875 45.40625 35.40625 
Q 44.1875 33.984375 37.640625 27.21875 
Q 31.109375 20.453125 19.1875 8.296875 
z
" id="DejaVuSans-50"/>
       </defs>
       <use xlink:href="#DejaVuSans-50"/>
       <use x="63.623047" xlink:href="#DejaVuSans-48"/>
      </g>
     </g>
    </g>
    <g id="xtick_5">
     <g id="line2d_9">
      <path clip-path="url(#p8258b4f365)" d="M 729.223647 620.9352 
L 729.223647 83.7216 
" style="fill:none;stroke:#b0b0b0;stroke-linecap:square;stroke-width:0.8;"/>
     </g>
     <g id="line2d_10">
      <g>
       <use style="stroke:#000000;stroke-width:0.8;" x="729.223647" xlink:href="#m7403dcdbf0" y="620.9352"/>
      </g>
     </g>
     <g id="text_5">
      <!-- 25 -->
      <g transform="translate(722.861147 635.533637)scale(0.1 -0.1)">
       <use xlink:href="#DejaVuSans-50"/>
       <use x="63.623047" xlink:href="#DejaVuSans-53"/>
      </g>
     </g>
    </g>
    <g id="xtick_6">
     <g id="line2d_11">
      <path clip-path="url(#p8258b4f365)" d="M 852.697739 620.9352 
L 852.697739 83.7216 
" style="fill:none;stroke:#b0b0b0;stroke-linecap:square;stroke-width:0.8;"/>
     </g>
     <g id="line2d_12">
      <g>
       <use style="stroke:#000000;stroke-width:0.8;" x="852.697739" xlink:href="#m7403dcdbf0" y="620.9352"/>
      </g>
     </g>
     <g id="text_6">
      <!-- 30 -->
      <g transform="translate(846.335239 635.533637)scale(0.1 -0.1)">
       <defs>
        <path d="M 40.578125 39.3125 
Q 47.65625 37.796875 51.625 33 
Q 55.609375 28.21875 55.609375 21.1875 
Q 55.609375 10.40625 48.1875 4.484375 
Q 40.765625 -1.421875 27.09375 -1.421875 
Q 22.515625 -1.421875 17.65625 -0.515625 
Q 12.796875 0.390625 7.625 2.203125 
L 7.625 11.71875 
Q 11.71875 9.328125 16.59375 8.109375 
Q 21.484375 6.890625 26.8125 6.890625 
Q 36.078125 6.890625 40.9375 10.546875 
Q 45.796875 14.203125 45.796875 21.1875 
Q 45.796875 27.640625 41.28125 31.265625 
Q 36.765625 34.90625 28.71875 34.90625 
L 20.21875 34.90625 
L 20.21875 43.015625 
L 29.109375 43.015625 
Q 36.375 43.015625 40.234375 45.921875 
Q 44.09375 48.828125 44.09375 54.296875 
Q 44.09375 59.90625 40.109375 62.90625 
Q 36.140625 65.921875 28.71875 65.921875 
Q 24.65625 65.921875 20.015625 65.03125 
Q 15.375 64.15625 9.8125 62.3125 
L 9.8125 71.09375 
Q 15.4375 72.65625 20.34375 73.4375 
Q 25.25 74.21875 29.59375 74.21875 
Q 40.828125 74.21875 47.359375 69.109375 
Q 53.90625 64.015625 53.90625 55.328125 
Q 53.90625 49.265625 50.4375 45.09375 
Q 46.96875 40.921875 40.578125 39.3125 
z
" id="DejaVuSans-51"/>
       </defs>
       <use xlink:href="#DejaVuSans-51"/>
       <use x="63.623047" xlink:href="#DejaVuSans-48"/>
      </g>
     </g>
    </g>
    <g id="xtick_7">
     <g id="line2d_13">
      <path clip-path="url(#p8258b4f365)" d="M 976.171831 620.9352 
L 976.171831 83.7216 
" style="fill:none;stroke:#b0b0b0;stroke-linecap:square;stroke-width:0.8;"/>
     </g>
     <g id="line2d_14">
      <g>
       <use style="stroke:#000000;stroke-width:0.8;" x="976.171831" xlink:href="#m7403dcdbf0" y="620.9352"/>
      </g>
     </g>
     <g id="text_7">
      <!-- 35 -->
      <g transform="translate(969.809331 635.533637)scale(0.1 -0.1)">
       <use xlink:href="#DejaVuSans-51"/>
       <use x="63.623047" xlink:href="#DejaVuSans-53"/>
      </g>
     </g>
    </g>
    <g id="xtick_8">
     <g id="line2d_15">
      <path clip-path="url(#p8258b4f365)" d="M 1099.645923 620.9352 
L 1099.645923 83.7216 
" style="fill:none;stroke:#b0b0b0;stroke-linecap:square;stroke-width:0.8;"/>
     </g>
     <g id="line2d_16">
      <g>
       <use style="stroke:#000000;stroke-width:0.8;" x="1099.645923" xlink:href="#m7403dcdbf0" y="620.9352"/>
      </g>
     </g>
     <g id="text_8">
      <!-- 40 -->
      <g transform="translate(1093.283423 635.533637)scale(0.1 -0.1)">
       <defs>
        <path d="M 37.796875 64.3125 
L 12.890625 25.390625 
L 37.796875 25.390625 
z
M 35.203125 72.90625 
L 47.609375 72.90625 
L 47.609375 25.390625 
L 58.015625 25.390625 
L 58.015625 17.1875 
L 47.609375 17.1875 
L 47.609375 0 
L 37.796875 0 
L 37.796875 17.1875 
L 4.890625 17.1875 
L 4.890625 26.703125 
z
" id="DejaVuSans-52"/>
       </defs>
       <use xlink:href="#DejaVuSans-52"/>
       <use x="63.623047" xlink:href="#DejaVuSans-48"/>
      </g>
     </g>
    </g>
    <g id="xtick_9">
     <g id="line2d_17">
      <path clip-path="url(#p8258b4f365)" d="M 1223.120015 620.9352 
L 1223.120015 83.7216 
" style="fill:none;stroke:#b0b0b0;stroke-linecap:square;stroke-width:0.8;"/>
     </g>
     <g id="line2d_18">
      <g>
       <use style="stroke:#000000;stroke-width:0.8;" x="1223.120015" xlink:href="#m7403dcdbf0" y="620.9352"/>
      </g>
     </g>
     <g id="text_9">
      <!-- 45 -->
      <g transform="translate(1216.757515 635.533637)scale(0.1 -0.1)">
       <use xlink:href="#DejaVuSans-52"/>
       <use x="63.623047" xlink:href="#DejaVuSans-53"/>
      </g>
     </g>
    </g>
    <g id="text_10">
     <!-- Diameter [mm] -->
     <g transform="translate(669.906562 649.211762)scale(0.1 -0.1)">
      <defs>
       <path d="M 19.671875 64.796875 
L 19.671875 8.109375 
L 31.59375 8.109375 
Q 46.6875 8.109375 53.6875 14.9375 
Q 60.6875 21.78125 60.6875 36.53125 
Q 60.6875 51.171875 53.6875 57.984375 
Q 46.6875 64.796875 31.59375 64.796875 
z
M 9.8125 72.90625 
L 30.078125 72.90625 
Q 51.265625 72.90625 61.171875 64.09375 
Q 71.09375 55.28125 71.09375 36.53125 
Q 71.09375 17.671875 61.125 8.828125 
Q 51.171875 0 30.078125 0 
L 9.8125 0 
z
" id="DejaVuSans-68"/>
       <path d="M 9.421875 54.6875 
L 18.40625 54.6875 
L 18.40625 0 
L 9.421875 0 
z
M 9.421875 75.984375 
L 18.40625 75.984375 
L 18.40625 64.59375 
L 9.421875 64.59375 
z
" id="DejaVuSans-105"/>
       <path d="M 34.28125 27.484375 
Q 23.390625 27.484375 19.1875 25 
Q 14.984375 22.515625 14.984375 16.5 
Q 14.984375 11.71875 18.140625 8.90625 
Q 21.296875 6.109375 26.703125 6.109375 
Q 34.1875 6.109375 38.703125 11.40625 
Q 43.21875 16.703125 43.21875 25.484375 
L 43.21875 27.484375 
z
M 52.203125 31.203125 
L 52.203125 0 
L 43.21875 0 
L 43.21875 8.296875 
Q 40.140625 3.328125 35.546875 0.953125 
Q 30.953125 -1.421875 24.3125 -1.421875 
Q 15.921875 -1.421875 10.953125 3.296875 
Q 6 8.015625 6 15.921875 
Q 6 25.140625 12.171875 29.828125 
Q 18.359375 34.515625 30.609375 34.515625 
L 43.21875 34.515625 
L 43.21875 35.40625 
Q 43.21875 41.609375 39.140625 45 
Q 35.0625 48.390625 27.6875 48.390625 
Q 23 48.390625 18.546875 47.265625 
Q 14.109375 46.140625 10.015625 43.890625 
L 10.015625 52.203125 
Q 14.9375 54.109375 19.578125 55.046875 
Q 24.21875 56 28.609375 56 
Q 40.484375 56 46.34375 49.84375 
Q 52.203125 43.703125 52.203125 31.203125 
z
" id="DejaVuSans-97"/>
       <path d="M 52 44.1875 
Q 55.375 50.25 60.0625 53.125 
Q 64.75 56 71.09375 56 
Q 79.640625 56 84.28125 50.015625 
Q 88.921875 44.046875 88.921875 33.015625 
L 88.921875 0 
L 79.890625 0 
L 79.890625 32.71875 
Q 79.890625 40.578125 77.09375 44.375 
Q 74.3125 48.1875 68.609375 48.1875 
Q 61.625 48.1875 57.5625 43.546875 
Q 53.515625 38.921875 53.515625 30.90625 
L 53.515625 0 
L 44.484375 0 
L 44.484375 32.71875 
Q 44.484375 40.625 41.703125 44.40625 
Q 38.921875 48.1875 33.109375 48.1875 
Q 26.21875 48.1875 22.15625 43.53125 
Q 18.109375 38.875 18.109375 30.90625 
L 18.109375 0 
L 9.078125 0 
L 9.078125 54.6875 
L 18.109375 54.6875 
L 18.109375 46.1875 
Q 21.1875 51.21875 25.484375 53.609375 
Q 29.78125 56 35.6875 56 
Q 41.65625 56 45.828125 52.96875 
Q 50 49.953125 52 44.1875 
z
" id="DejaVuSans-109"/>
       <path d="M 56.203125 29.59375 
L 56.203125 25.203125 
L 14.890625 25.203125 
Q 15.484375 15.921875 20.484375 11.0625 
Q 25.484375 6.203125 34.421875 6.203125 
Q 39.59375 6.203125 44.453125 7.46875 
Q 49.3125 8.734375 54.109375 11.28125 
L 54.109375 2.78125 
Q 49.265625 0.734375 44.1875 -0.34375 
Q 39.109375 -1.421875 33.890625 -1.421875 
Q 20.796875 -1.421875 13.15625 6.1875 
Q 5.515625 13.8125 5.515625 26.8125 
Q 5.515625 40.234375 12.765625 48.109375 
Q 20.015625 56 32.328125 56 
Q 43.359375 56 49.78125 48.890625 
Q 56.203125 41.796875 56.203125 29.59375 
z
M 47.21875 32.234375 
Q 47.125 39.59375 43.09375 43.984375 
Q 39.0625 48.390625 32.421875 48.390625 
Q 24.90625 48.390625 20.390625 44.140625 
Q 15.875 39.890625 15.1875 32.171875 
z
" id="DejaVuSans-101"/>
       <path d="M 18.3125 70.21875 
L 18.3125 54.6875 
L 36.8125 54.6875 
L 36.8125 47.703125 
L 18.3125 47.703125 
L 18.3125 18.015625 
Q 18.3125 11.328125 20.140625 9.421875 
Q 21.96875 7.515625 27.59375 7.515625 
L 36.8125 7.515625 
L 36.8125 0 
L 27.59375 0 
Q 17.1875 0 13.234375 3.875 
Q 9.28125 7.765625 9.28125 18.015625 
L 9.28125 47.703125 
L 2.6875 47.703125 
L 2.6875 54.6875 
L 9.28125 54.6875 
L 9.28125 70.21875 
z
" id="DejaVuSans-116"/>
       <path d="M 41.109375 46.296875 
Q 39.59375 47.171875 37.8125 47.578125 
Q 36.03125 48 33.890625 48 
Q 26.265625 48 22.1875 43.046875 
Q 18.109375 38.09375 18.109375 28.8125 
L 18.109375 0 
L 9.078125 0 
L 9.078125 54.6875 
L 18.109375 54.6875 
L 18.109375 46.1875 
Q 20.953125 51.171875 25.484375 53.578125 
Q 30.03125 56 36.53125 56 
Q 37.453125 56 38.578125 55.875 
Q 39.703125 55.765625 41.0625 55.515625 
z
" id="DejaVuSans-114"/>
       <path id="DejaVuSans-32"/>
       <path d="M 8.59375 75.984375 
L 29.296875 75.984375 
L 29.296875 69 
L 17.578125 69 
L 17.578125 -6.203125 
L 29.296875 -6.203125 
L 29.296875 -13.1875 
L 8.59375 -13.1875 
z
" id="DejaVuSans-91"/>
       <path d="M 30.421875 75.984375 
L 30.421875 -13.1875 
L 9.71875 -13.1875 
L 9.71875 -6.203125 
L 21.390625 -6.203125 
L 21.390625 69 
L 9.71875 69 
L 9.71875 75.984375 
z
" id="DejaVuSans-93"/>
      </defs>
      <use xlink:href="#DejaVuSans-68"/>
      <use x="77.001953" xlink:href="#DejaVuSans-105"/>
      <use x="104.785156" xlink:href="#DejaVuSans-97"/>
      <use x="166.064453" xlink:href="#DejaVuSans-109"/>
      <use x="263.476562" xlink:href="#DejaVuSans-101"/>
      <use x="325" xlink:href="#DejaVuSans-116"/>
      <use x="364.208984" xlink:href="#DejaVuSans-101"/>
      <use x="425.732422" xlink:href="#DejaVuSans-114"/>
      <use x="466.845703" xlink:href="#DejaVuSans-32"/>
      <use x="498.632812" xlink:href="#DejaVuSans-91"/>
      <use x="537.646484" xlink:href="#DejaVuSans-109"/>
      <use x="635.058594" xlink:href="#DejaVuSans-109"/>
      <use x="732.470703" xlink:href="#DejaVuSans-93"/>
     </g>
    </g>
   </g>
   <g id="matplotlib.axis_2">
    <g id="ytick_1">
     <g id="line2d_19">
      <path clip-path="url(#p8258b4f365)" d="M 172.8 603.000777 
L 1244.16 603.000777 
" style="fill:none;stroke:#b0b0b0;stroke-linecap:square;stroke-width:0.8;"/>
     </g>
     <g id="line2d_20">
      <defs>
       <path d="M 0 0 
L -3.5 0 
" id="m9ca289b9c5" style="stroke:#000000;stroke-width:0.8;"/>
      </defs>
      <g>
       <use style="stroke:#000000;stroke-width:0.8;" x="172.8" xlink:href="#m9ca289b9c5" y="603.000777"/>
      </g>
     </g>
     <g id="text_11">
      <!-- 0 -->
      <g transform="translate(159.4375 606.799996)scale(0.1 -0.1)">
       <use xlink:href="#DejaVuSans-48"/>
      </g>
     </g>
    </g>
    <g id="ytick_2">
     <g id="line2d_21">
      <path clip-path="url(#p8258b4f365)" d="M 172.8 517.680023 
L 1244.16 517.680023 
" style="fill:none;stroke:#b0b0b0;stroke-linecap:square;stroke-width:0.8;"/>
     </g>
     <g id="line2d_22">
      <g>
       <use style="stroke:#000000;stroke-width:0.8;" x="172.8" xlink:href="#m9ca289b9c5" y="517.680023"/>
      </g>
     </g>
     <g id="text_12">
      <!-- 5 -->
      <g transform="translate(159.4375 521.479241)scale(0.1 -0.1)">
       <use xlink:href="#DejaVuSans-53"/>
      </g>
     </g>
    </g>
    <g id="ytick_3">
     <g id="line2d_23">
      <path clip-path="url(#p8258b4f365)" d="M 172.8 432.359268 
L 1244.16 432.359268 
" style="fill:none;stroke:#b0b0b0;stroke-linecap:square;stroke-width:0.8;"/>
     </g>
     <g id="line2d_24">
      <g>
       <use style="stroke:#000000;stroke-width:0.8;" x="172.8" xlink:href="#m9ca289b9c5" y="432.359268"/>
      </g>
     </g>
     <g id="text_13">
      <!-- 10 -->
      <g transform="translate(153.075 436.158487)scale(0.1 -0.1)">
       <use xlink:href="#DejaVuSans-49"/>
       <use x="63.623047" xlink:href="#DejaVuSans-48"/>
      </g>
     </g>
    </g>
    <g id="ytick_4">
     <g id="line2d_25">
      <path clip-path="url(#p8258b4f365)" d="M 172.8 347.038513 
L 1244.16 347.038513 
" style="fill:none;stroke:#b0b0b0;stroke-linecap:square;stroke-width:0.8;"/>
     </g>
     <g id="line2d_26">
      <g>
       <use style="stroke:#000000;stroke-width:0.8;" x="172.8" xlink:href="#m9ca289b9c5" y="347.038513"/>
      </g>
     </g>
     <g id="text_14">
      <!-- 15 -->
      <g transform="translate(153.075 350.837732)scale(0.1 -0.1)">
       <use xlink:href="#DejaVuSans-49"/>
       <use x="63.623047" xlink:href="#DejaVuSans-53"/>
      </g>
     </g>
    </g>
    <g id="ytick_5">
     <g id="line2d_27">
      <path clip-path="url(#p8258b4f365)" d="M 172.8 261.717758 
L 1244.16 261.717758 
" style="fill:none;stroke:#b0b0b0;stroke-linecap:square;stroke-width:0.8;"/>
     </g>
     <g id="line2d_28">
      <g>
       <use style="stroke:#000000;stroke-width:0.8;" x="172.8" xlink:href="#m9ca289b9c5" y="261.717758"/>
      </g>
     </g>
     <g id="text_15">
      <!-- 20 -->
      <g transform="translate(153.075 265.516977)scale(0.1 -0.1)">
       <use xlink:href="#DejaVuSans-50"/>
       <use x="63.623047" xlink:href="#DejaVuSans-48"/>
      </g>
     </g>
    </g>
    <g id="ytick_6">
     <g id="line2d_29">
      <path clip-path="url(#p8258b4f365)" d="M 172.8 176.397004 
L 1244.16 176.397004 
" style="fill:none;stroke:#b0b0b0;stroke-linecap:square;stroke-width:0.8;"/>
     </g>
     <g id="line2d_30">
      <g>
       <use style="stroke:#000000;stroke-width:0.8;" x="172.8" xlink:href="#m9ca289b9c5" y="176.397004"/>
      </g>
     </g>
     <g id="text_16">
      <!-- 25 -->
      <g transform="translate(153.075 180.196223)scale(0.1 -0.1)">
       <use xlink:href="#DejaVuSans-50"/>
       <use x="63.623047" xlink:href="#DejaVuSans-53"/>
      </g>
     </g>
    </g>
    <g id="ytick_7">
     <g id="line2d_31">
      <path clip-path="url(#p8258b4f365)" d="M 172.8 91.076249 
L 1244.16 91.076249 
" style="fill:none;stroke:#b0b0b0;stroke-linecap:square;stroke-width:0.8;"/>
     </g>
     <g id="line2d_32">
      <g>
       <use style="stroke:#000000;stroke-width:0.8;" x="172.8" xlink:href="#m9ca289b9c5" y="91.076249"/>
      </g>
     </g>
     <g id="text_17">
      <!-- 30 -->
      <g transform="translate(153.075 94.875468)scale(0.1 -0.1)">
       <use xlink:href="#DejaVuSans-51"/>
       <use x="63.623047" xlink:href="#DejaVuSans-48"/>
      </g>
     </g>
    </g>
    <g id="text_18">
     <!-- Thickness [mm] -->
     <g transform="translate(146.995312 392.270587)rotate(-90)scale(0.1 -0.1)">
      <defs>
       <path d="M -0.296875 72.90625 
L 61.375 72.90625 
L 61.375 64.59375 
L 35.5 64.59375 
L 35.5 0 
L 25.59375 0 
L 25.59375 64.59375 
L -0.296875 64.59375 
z
" id="DejaVuSans-84"/>
       <path d="M 54.890625 33.015625 
L 54.890625 0 
L 45.90625 0 
L 45.90625 32.71875 
Q 45.90625 40.484375 42.875 44.328125 
Q 39.84375 48.1875 33.796875 48.1875 
Q 26.515625 48.1875 22.3125 43.546875 
Q 18.109375 38.921875 18.109375 30.90625 
L 18.109375 0 
L 9.078125 0 
L 9.078125 75.984375 
L 18.109375 75.984375 
L 18.109375 46.1875 
Q 21.34375 51.125 25.703125 53.5625 
Q 30.078125 56 35.796875 56 
Q 45.21875 56 50.046875 50.171875 
Q 54.890625 44.34375 54.890625 33.015625 
z
" id="DejaVuSans-104"/>
       <path d="M 48.78125 52.59375 
L 48.78125 44.1875 
Q 44.96875 46.296875 41.140625 47.34375 
Q 37.3125 48.390625 33.40625 48.390625 
Q 24.65625 48.390625 19.8125 42.84375 
Q 14.984375 37.3125 14.984375 27.296875 
Q 14.984375 17.28125 19.8125 11.734375 
Q 24.65625 6.203125 33.40625 6.203125 
Q 37.3125 6.203125 41.140625 7.25 
Q 44.96875 8.296875 48.78125 10.40625 
L 48.78125 2.09375 
Q 45.015625 0.34375 40.984375 -0.53125 
Q 36.96875 -1.421875 32.421875 -1.421875 
Q 20.0625 -1.421875 12.78125 6.34375 
Q 5.515625 14.109375 5.515625 27.296875 
Q 5.515625 40.671875 12.859375 48.328125 
Q 20.21875 56 33.015625 56 
Q 37.15625 56 41.109375 55.140625 
Q 45.0625 54.296875 48.78125 52.59375 
z
" id="DejaVuSans-99"/>
       <path d="M 9.078125 75.984375 
L 18.109375 75.984375 
L 18.109375 31.109375 
L 44.921875 54.6875 
L 56.390625 54.6875 
L 27.390625 29.109375 
L 57.625 0 
L 45.90625 0 
L 18.109375 26.703125 
L 18.109375 0 
L 9.078125 0 
z
" id="DejaVuSans-107"/>
       <path d="M 54.890625 33.015625 
L 54.890625 0 
L 45.90625 0 
L 45.90625 32.71875 
Q 45.90625 40.484375 42.875 44.328125 
Q 39.84375 48.1875 33.796875 48.1875 
Q 26.515625 48.1875 22.3125 43.546875 
Q 18.109375 38.921875 18.109375 30.90625 
L 18.109375 0 
L 9.078125 0 
L 9.078125 54.6875 
L 18.109375 54.6875 
L 18.109375 46.1875 
Q 21.34375 51.125 25.703125 53.5625 
Q 30.078125 56 35.796875 56 
Q 45.21875 56 50.046875 50.171875 
Q 54.890625 44.34375 54.890625 33.015625 
z
" id="DejaVuSans-110"/>
       <path d="M 44.28125 53.078125 
L 44.28125 44.578125 
Q 40.484375 46.53125 36.375 47.5 
Q 32.28125 48.484375 27.875 48.484375 
Q 21.1875 48.484375 17.84375 46.4375 
Q 14.5 44.390625 14.5 40.28125 
Q 14.5 37.15625 16.890625 35.375 
Q 19.28125 33.59375 26.515625 31.984375 
L 29.59375 31.296875 
Q 39.15625 29.25 43.1875 25.515625 
Q 47.21875 21.78125 47.21875 15.09375 
Q 47.21875 7.46875 41.1875 3.015625 
Q 35.15625 -1.421875 24.609375 -1.421875 
Q 20.21875 -1.421875 15.453125 -0.5625 
Q 10.6875 0.296875 5.421875 2 
L 5.421875 11.28125 
Q 10.40625 8.6875 15.234375 7.390625 
Q 20.0625 6.109375 24.8125 6.109375 
Q 31.15625 6.109375 34.5625 8.28125 
Q 37.984375 10.453125 37.984375 14.40625 
Q 37.984375 18.0625 35.515625 20.015625 
Q 33.0625 21.96875 24.703125 23.78125 
L 21.578125 24.515625 
Q 13.234375 26.265625 9.515625 29.90625 
Q 5.8125 33.546875 5.8125 39.890625 
Q 5.8125 47.609375 11.28125 51.796875 
Q 16.75 56 26.8125 56 
Q 31.78125 56 36.171875 55.265625 
Q 40.578125 54.546875 44.28125 53.078125 
z
" id="DejaVuSans-115"/>
      </defs>
      <use xlink:href="#DejaVuSans-84"/>
      <use x="61.083984" xlink:href="#DejaVuSans-104"/>
      <use x="124.462891" xlink:href="#DejaVuSans-105"/>
      <use x="152.246094" xlink:href="#DejaVuSans-99"/>
      <use x="207.226562" xlink:href="#DejaVuSans-107"/>
      <use x="265.136719" xlink:href="#DejaVuSans-110"/>
      <use x="328.515625" xlink:href="#DejaVuSans-101"/>
      <use x="390.039062" xlink:href="#DejaVuSans-115"/>
      <use x="442.138672" xlink:href="#DejaVuSans-115"/>
      <use x="494.238281" xlink:href="#DejaVuSans-32"/>
      <use x="526.025391" xlink:href="#DejaVuSans-91"/>
      <use x="565.039062" xlink:href="#DejaVuSans-109"/>
      <use x="662.451172" xlink:href="#DejaVuSans-109"/>
      <use x="759.863281" xlink:href="#DejaVuSans-93"/>
     </g>
    </g>
   </g>
   <g id="line2d_33">
    <path clip-path="url(#p8258b4f365)" d="M 1195.461818 108.1404 
L 1195.461818 117.013758 
L 1195.21487 121.279796 
L 1195.21487 125.545834 
L 1194.967922 129.811872 
L 1194.967922 133.907268 
L 1194.720974 138.002664 
L 1194.720974 142.09806 
L 1194.474025 146.022815 
L 1194.474025 153.701683 
L 1194.227077 157.455796 
L 1194.227077 161.209909 
L 1193.980129 164.964023 
L 1193.980129 168.547494 
L 1193.733181 172.130966 
L 1193.733181 175.714438 
L 1193.486233 179.127268 
L 1193.486233 185.952928 
L 1193.239285 189.195117 
L 1193.239285 192.437306 
L 1192.992336 195.679494 
L 1192.992336 198.921683 
L 1192.745388 202.163872 
L 1192.745388 208.306966 
L 1192.49844 211.207872 
L 1192.49844 214.279419 
L 1192.251492 217.180325 
L 1192.251492 220.08123 
L 1192.004544 222.982136 
L 1192.004544 225.883042 
L 1191.757595 228.613306 
L 1191.757595 234.073834 
L 1191.510647 236.804098 
L 1191.510647 239.363721 
L 1191.263699 242.093985 
L 1191.263699 244.653608 
L 1191.016751 247.21323 
L 1191.016751 252.161834 
L 1190.769803 254.721457 
L 1190.769803 257.110438 
L 1190.522855 259.499419 
L 1190.522855 261.8884 
L 1190.275906 264.277381 
L 1190.275906 266.495721 
L 1190.028958 268.884702 
L 1190.028958 273.321381 
L 1189.78201 275.539721 
L 1189.78201 277.75806 
L 1189.535062 279.9764 
L 1189.535062 282.024098 
L 1189.288114 284.242438 
L 1189.288114 286.290136 
L 1189.041165 288.337834 
L 1189.041165 292.43323 
L 1188.794217 294.310287 
L 1188.794217 296.357985 
L 1188.547269 298.235042 
L 1188.547269 300.28274 
L 1188.300321 302.159796 
L 1188.300321 305.913909 
L 1188.053373 307.790966 
L 1188.053373 309.668023 
L 1187.806424 311.374438 
L 1187.806424 313.251494 
L 1187.559476 314.957909 
L 1187.559476 316.664325 
L 1187.312528 318.541381 
L 1187.312528 321.954211 
L 1187.06558 323.489985 
L 1187.06558 325.1964 
L 1186.818632 326.902815 
L 1186.818632 328.438589 
L 1186.571684 330.145004 
L 1186.571684 333.387192 
L 1186.324735 334.922966 
L 1186.324735 336.45874 
L 1186.077787 337.994513 
L 1186.077787 339.530287 
L 1185.830839 341.06606 
L 1185.830839 342.431192 
L 1185.583891 343.966966 
L 1185.583891 346.867872 
L 1185.336943 348.403645 
L 1185.336943 349.768777 
L 1185.089994 351.133909 
L 1185.089994 352.499042 
L 1184.843046 353.864174 
L 1184.843046 356.594438 
L 1184.596098 357.95957 
L 1184.596098 359.324702 
L 1184.34915 360.689834 
L 1184.34915 361.884325 
L 1184.102202 363.249457 
L 1184.102202 364.614589 
L 1183.855254 365.809079 
L 1183.855254 368.368702 
L 1183.608305 369.563192 
L 1183.608305 370.757683 
L 1183.361357 371.952174 
L 1183.361357 373.146664 
L 1183.114409 374.341155 
L 1183.114409 375.535645 
L 1182.867461 376.730136 
L 1182.867461 379.119117 
L 1182.620513 380.142966 
L 1182.620513 381.337457 
L 1182.373564 382.531947 
L 1182.373564 383.555796 
L 1182.126616 384.750287 
L 1182.126616 386.797985 
L 1181.879668 387.992475 
L 1181.879668 389.016325 
L 1181.63272 390.040174 
L 1181.63272 391.064023 
L 1181.385772 392.087872 
L 1181.385772 393.111721 
L 1181.138824 394.13557 
L 1181.138824 396.183268 
L 1180.891875 397.207117 
L 1180.891875 398.230966 
L 1180.644927 399.254815 
L 1180.644927 400.108023 
L 1180.397979 401.131872 
L 1180.397979 403.008928 
L 1180.151031 404.032777 
L 1180.151031 404.885985 
L 1179.904083 405.909834 
L 1179.904083 406.763042 
L 1179.657134 407.616249 
L 1179.657134 408.640098 
L 1179.410186 409.493306 
L 1179.410186 411.199721 
L 1179.163238 412.052928 
L 1179.163238 413.076777 
L 1178.91629 413.929985 
L 1178.91629 414.783192 
L 1178.669342 415.6364 
L 1178.669342 416.489608 
L 1178.422394 417.342815 
L 1178.422394 418.878589 
L 1178.175445 419.731796 
L 1178.175445 420.585004 
L 1177.928497 421.438211 
L 1177.928497 422.120777 
L 1177.681549 422.973985 
L 1177.681549 424.509758 
L 1177.434601 425.362966 
L 1177.434601 426.045532 
L 1177.187653 426.89874 
L 1177.187653 427.581306 
L 1176.940704 428.434513 
L 1176.940704 429.117079 
L 1176.693756 429.799645 
L 1176.693756 431.335419 
L 1176.446808 432.017985 
L 1176.446808 432.700551 
L 1176.19986 433.553758 
L 1176.19986 434.236325 
L 1175.952912 434.918891 
L 1175.952912 436.284023 
L 1175.705963 436.966589 
L 1175.705963 437.649155 
L 1175.459015 438.331721 
L 1175.459015 439.014287 
L 1175.212067 439.696853 
L 1175.212067 440.379419 
L 1174.965119 441.061985 
L 1174.965119 442.427117 
L 1174.718171 443.109683 
L 1174.718171 443.621608 
L 1174.471223 444.304174 
L 1174.471223 444.98674 
L 1174.224274 445.669306 
L 1174.224274 446.18123 
L 1173.977326 446.863796 
L 1173.977326 448.058287 
L 1173.730378 448.740853 
L 1173.730378 449.252777 
L 1173.48343 449.935343 
L 1173.48343 450.447268 
L 1173.236482 451.129834 
L 1173.236482 452.324325 
L 1172.989533 452.836249 
L 1172.989533 453.518815 
L 1172.742585 454.03074 
L 1172.742585 454.542664 
L 1172.495637 455.22523 
L 1172.495637 455.737155 
L 1172.248689 456.249079 
L 1172.248689 457.44357 
L 1172.001741 457.955494 
L 1172.001741 458.467419 
L 1171.754793 459.149985 
L 1171.754793 459.661909 
L 1171.507844 460.173834 
L 1171.507844 461.197683 
L 1171.260896 461.709608 
L 1171.260896 462.221532 
L 1171.013948 462.733457 
L 1171.013948 463.245381 
L 1170.767 463.757306 
L 1170.767 464.26923 
L 1170.520052 464.781155 
L 1170.520052 465.805004 
L 1170.273103 466.316928 
L 1170.273103 466.828853 
L 1170.026155 467.340777 
L 1170.026155 467.852702 
L 1169.779207 468.364626 
L 1169.779207 469.217834 
L 1169.532259 469.729758 
L 1169.532259 470.241683 
L 1169.285311 470.753608 
L 1169.285311 471.265532 
L 1169.038363 471.606815 
L 1169.038363 472.11874 
L 1168.791414 472.630664 
L 1168.791414 473.483872 
L 1168.544466 473.995796 
L 1168.544466 474.337079 
L 1168.297518 474.849004 
L 1168.297518 475.360928 
L 1168.05057 475.702211 
L 1168.05057 476.214136 
L 1167.803622 476.555419 
L 1167.803622 477.408626 
L 1167.556673 477.920551 
L 1167.556673 478.432475 
L 1167.309725 478.773758 
L 1167.309725 479.115042 
L 1167.062777 479.626966 
L 1167.062777 480.480174 
L 1166.815829 480.821457 
L 1166.815829 481.333381 
L 1166.568881 481.674664 
L 1166.568881 482.015947 
L 1166.321933 482.527872 
L 1166.321933 482.869155 
L 1166.074984 483.381079 
L 1166.074984 484.063645 
L 1165.828036 484.404928 
L 1165.828036 484.916853 
L 1165.581088 485.258136 
L 1165.581088 485.599419 
L 1165.33414 486.111343 
L 1165.33414 486.793909 
L 1165.087192 487.135192 
L 1165.087192 487.476475 
L 1164.840243 487.9884 
L 1164.840243 488.329683 
L 1164.593295 488.670966 
L 1164.593295 489.012249 
L 1164.346347 489.353532 
L 1164.346347 490.20674 
L 1164.099399 490.548023 
L 1164.099399 490.889306 
L 1163.852451 491.230589 
L 1163.852451 491.571872 
L 1163.605502 491.913155 
L 1163.605502 492.254438 
L 1163.358554 492.595721 
L 1163.358554 493.278287 
L 1163.111606 493.61957 
L 1163.111606 493.960853 
L 1162.864658 494.302136 
L 1162.864658 494.643419 
L 1162.61771 494.984702 
L 1162.61771 495.667268 
L 1162.370762 496.008551 
L 1162.370762 496.349834 
L 1162.123813 496.691117 
L 1162.123813 497.0324 
L 1161.876865 497.373683 
L 1161.876865 497.714966 
L 1161.629917 497.885608 
L 1161.629917 498.568174 
L 1161.382969 498.909457 
L 1161.382969 499.25074 
L 1161.136021 499.592023 
L 1161.136021 499.933306 
L 1160.889072 500.103947 
L 1160.889072 500.786513 
L 1160.642124 501.127796 
L 1160.642124 501.469079 
L 1160.395176 501.639721 
L 1160.395176 501.981004 
L 1160.148228 502.322287 
L 1160.148228 502.66357 
L 1159.90128 502.834211 
L 1159.90128 503.516777 
L 1159.407383 504.369985 
L 1159.407383 504.711268 
L 1159.160435 504.881909 
L 1159.160435 505.223192 
L 1158.913487 505.735117 
L 1158.913487 506.0764 
L 1158.419591 506.929608 
L 1158.419591 507.100249 
L 1158.172642 507.441532 
L 1158.172642 507.953457 
L 1157.678746 508.806664 
L 1157.678746 509.147947 
L 1157.431798 509.318589 
L 1157.431798 509.659872 
L 1157.18485 509.830513 
L 1157.18485 510.342438 
L 1156.690953 511.195645 
L 1156.690953 511.366287 
L 1156.444005 511.878211 
L 1156.444005 512.219494 
L 1156.197057 512.390136 
L 1156.197057 512.731419 
L 1155.950109 512.90206 
L 1155.950109 513.243343 
L 1155.703161 513.413985 
L 1155.703161 513.755268 
L 1155.456212 513.925909 
L 1155.456212 514.437834 
L 1155.209264 514.608475 
L 1155.209264 514.949758 
L 1154.962316 515.1204 
L 1154.962316 515.291042 
L 1154.715368 515.802966 
L 1154.715368 516.144249 
L 1154.46842 516.314891 
L 1154.46842 516.485532 
L 1153.974523 517.168098 
L 1153.974523 517.509381 
L 1153.727575 517.680023 
L 1153.727575 518.191947 
L 1153.480627 518.362589 
L 1153.480627 518.53323 
L 1152.739782 519.727721 
L 1152.739782 520.069004 
L 1151.998938 521.263494 
L 1151.998938 521.604777 
L 1151.75199 521.775419 
L 1151.75199 521.94606 
L 1151.011145 522.969909 
L 1151.011145 523.481834 
L 1150.764197 523.652475 
L 1150.764197 523.823117 
L 1150.517249 523.993758 
L 1150.517249 524.335042 
L 1150.270301 524.505683 
L 1150.270301 524.846966 
L 1150.023352 525.017608 
L 1150.023352 525.188249 
L 1149.776404 525.358891 
L 1149.776404 525.700174 
L 1149.529456 525.870815 
L 1149.529456 526.041457 
L 1149.282508 526.212098 
L 1149.282508 526.553381 
L 1149.03556 526.724023 
L 1149.03556 526.894664 
L 1148.788611 527.065306 
L 1148.788611 527.406589 
L 1148.541663 527.57723 
L 1148.541663 527.747872 
L 1148.294715 527.918513 
L 1148.294715 528.259796 
L 1148.047767 528.430438 
L 1148.047767 528.601079 
L 1147.800819 528.771721 
L 1147.800819 528.942362 
L 1147.553871 529.113004 
L 1147.553871 529.454287 
L 1147.306922 529.624928 
L 1147.306922 529.79557 
L 1147.059974 529.966211 
L 1147.059974 530.136853 
L 1146.813026 530.307494 
L 1146.813026 530.648777 
L 1146.566078 530.819419 
L 1146.566078 531.160702 
L 1146.31913 531.331343 
L 1146.31913 531.501985 
L 1146.072181 531.672626 
L 1146.072181 531.843268 
L 1145.825233 531.843268 
L 1145.825233 532.184551 
L 1145.578285 532.355192 
L 1145.578285 532.525834 
L 1145.331337 532.696475 
L 1145.331337 532.867117 
L 1145.084389 533.037758 
L 1145.084389 533.2084 
L 1144.837441 533.379042 
L 1144.837441 533.720325 
L 1144.590492 533.890966 
L 1144.590492 534.061608 
L 1144.343544 534.232249 
L 1144.343544 534.402891 
L 1144.096596 534.573532 
L 1144.096596 534.744174 
L 1143.849648 534.914815 
L 1143.849648 534.914815 
L 1143.849648 535.085457 
L 1143.6027 535.256098 
L 1143.6027 535.42674 
L 1143.355751 535.597381 
L 1143.355751 535.768023 
L 1143.108803 535.938664 
L 1143.108803 536.279947 
L 1142.614907 536.62123 
L 1142.614907 536.791872 
L 1142.367959 536.962513 
L 1142.367959 537.133155 
L 1142.121011 537.303796 
L 1142.121011 537.645079 
L 1141.874062 537.645079 
L 1141.874062 537.815721 
L 1141.627114 537.986362 
L 1141.627114 538.157004 
L 1141.380166 538.327645 
L 1141.380166 538.498287 
L 1141.380166 538.498287 
L 1141.133218 538.668928 
L 1141.133218 538.83957 
L 1140.88627 539.010211 
L 1140.88627 539.180853 
L 1140.392373 539.522136 
L 1140.392373 539.863419 
L 1139.898477 540.204702 
L 1139.898477 540.375343 
L 1139.651529 540.545985 
L 1139.651529 540.716626 
L 1139.651529 540.716626 
L 1139.40458 540.887268 
L 1139.40458 541.057909 
L 1139.157632 541.228551 
L 1139.157632 541.399192 
L 1138.910684 541.399192 
L 1138.910684 541.569834 
L 1138.663736 541.740475 
L 1138.663736 541.911117 
L 1138.663736 541.911117 
L 1138.416788 542.081758 
L 1138.416788 542.2524 
L 1137.922891 542.593683 
L 1137.922891 542.764325 
L 1137.675943 542.934966 
L 1137.675943 542.934966 
L 1137.675943 543.105608 
L 1137.428995 543.276249 
L 1137.428995 543.446891 
L 1137.182047 543.446891 
L 1137.182047 543.617532 
L 1136.935099 543.788174 
L 1136.935099 543.958815 
L 1136.935099 543.958815 
L 1136.68815 544.129457 
L 1136.68815 544.300098 
L 1136.441202 544.300098 
L 1136.441202 544.47074 
L 1136.194254 544.641381 
L 1136.194254 544.812023 
L 1135.947306 544.812023 
L 1135.947306 545.153306 
L 1135.700358 545.153306 
L 1135.700358 545.323947 
L 1135.45341 545.494589 
L 1135.45341 545.66523 
L 1135.206461 545.66523 
L 1135.206461 546.006513 
L 1134.959513 546.006513 
L 1134.959513 546.177155 
L 1134.465617 546.518438 
L 1134.465617 546.689079 
L 1134.218669 546.689079 
L 1134.218669 547.030362 
L 1133.97172 547.030362 
L 1133.97172 547.201004 
L 1133.477824 547.542287 
L 1133.477824 547.712928 
L 1133.230876 547.712928 
L 1133.230876 548.054211 
L 1132.983928 548.054211 
L 1132.983928 548.224853 
L 1132.73698 548.224853 
L 1132.73698 548.395494 
L 1132.490031 548.566136 
L 1132.490031 548.566136 
L 1132.490031 548.736777 
L 1131.749187 549.248702 
L 1131.749187 549.419343 
L 1131.502239 549.419343 
L 1131.502239 549.760626 
L 1131.25529 549.760626 
L 1131.25529 549.931268 
L 1131.008342 549.931268 
L 1131.008342 550.101909 
L 1130.761394 550.272551 
L 1130.761394 550.272551 
L 1130.761394 550.443192 
L 1130.514446 550.443192 
L 1130.514446 550.613834 
L 1129.773601 551.125758 
L 1129.773601 551.2964 
L 1129.773601 551.2964 
L 1129.032757 551.808325 
L 1129.032757 551.978966 
L 1129.032757 551.978966 
L 1128.291912 552.490891 
L 1128.291912 552.661532 
L 1128.044964 552.661532 
L 1128.044964 552.832174 
L 1128.044964 552.832174 
L 1127.057171 553.51474 
L 1127.057171 553.685381 
L 1127.057171 553.685381 
L 1126.316327 554.197306 
L 1126.316327 554.197306 
L 1126.316327 554.367947 
L 1126.069379 554.367947 
L 1126.069379 554.538589 
L 1125.82243 554.538589 
L 1125.82243 554.70923 
L 1125.575482 554.70923 
L 1125.575482 554.879872 
L 1125.328534 554.879872 
L 1125.328534 555.221155 
L 1125.081586 555.221155 
L 1125.081586 555.391796 
L 1124.834638 555.391796 
L 1124.834638 555.562438 
L 1124.587689 555.562438 
L 1124.587689 555.733079 
L 1124.587689 555.733079 
L 1123.599897 556.415645 
L 1123.599897 556.415645 
L 1123.599897 556.586287 
L 1123.352949 556.586287 
L 1123.352949 556.756928 
L 1123.106 556.756928 
L 1123.106 556.756928 
L 1122.612104 557.098211 
L 1122.612104 557.098211 
L 1122.612104 557.268853 
L 1122.365156 557.268853 
L 1122.365156 557.439494 
L 1122.118208 557.439494 
L 1122.118208 557.610136 
L 1121.871259 557.610136 
L 1121.871259 557.780777 
L 1121.871259 557.780777 
L 1121.130415 558.292702 
L 1121.130415 558.292702 
L 1120.883467 558.292702 
L 1120.883467 558.463343 
L 1120.883467 558.463343 
L 1118.413985 560.169758 
L 1118.413985 560.169758 
L 1118.167037 560.169758 
L 1118.167037 560.3404 
L 1118.167037 560.3404 
L 1117.67314 560.681683 
L 1117.67314 560.681683 
L 1117.426192 560.681683 
L 1117.426192 560.852325 
L 1117.426192 560.852325 
L 1116.932296 561.193608 
L 1116.932296 561.193608 
L 1116.685348 561.193608 
L 1116.685348 561.364249 
L 1116.438399 561.364249 
L 1116.438399 561.534891 
L 1116.438399 561.534891 
L 1116.191451 561.534891 
L 1116.191451 561.705532 
L 1115.944503 561.705532 
L 1115.944503 561.876174 
L 1115.697555 561.876174 
L 1115.697555 561.876174 
L 1115.697555 562.046815 
L 1115.450607 562.046815 
L 1115.450607 562.217457 
L 1115.203658 562.217457 
L 1115.203658 562.217457 
L 1114.462814 562.729381 
L 1114.462814 562.729381 
L 1114.215866 562.729381 
L 1114.215866 562.900023 
L 1113.968918 562.900023 
L 1113.968918 563.070664 
L 1113.968918 563.070664 
L 1113.721969 563.070664 
L 1113.721969 563.241306 
L 1113.475021 563.241306 
L 1113.475021 563.411947 
L 1113.228073 563.411947 
L 1113.228073 563.411947 
L 1112.487228 563.923872 
L 1112.487228 563.923872 
L 1112.24028 563.923872 
L 1112.24028 564.094513 
L 1111.993332 564.094513 
L 1111.993332 564.094513 
L 1111.993332 564.265155 
L 1111.746384 564.265155 
L 1111.746384 564.265155 
L 1111.005539 564.777079 
L 1111.005539 564.777079 
L 1110.758591 564.777079 
L 1110.758591 564.947721 
L 1110.511643 564.947721 
L 1110.511643 564.947721 
L 1110.017747 565.289004 
L 1110.017747 565.289004 
L 1109.770798 565.289004 
L 1109.770798 565.459645 
L 1109.52385 565.459645 
L 1109.52385 565.630287 
L 1109.52385 565.630287 
L 1109.276902 565.630287 
L 1109.276902 565.800928 
L 1109.029954 565.800928 
L 1109.029954 565.800928 
L 1108.783006 565.97157 
L 1108.783006 565.97157 
L 1108.536058 565.97157 
L 1108.536058 566.142211 
L 1108.536058 566.142211 
L 1108.289109 566.142211 
L 1108.289109 566.312853 
L 1108.042161 566.312853 
L 1108.042161 566.312853 
L 1107.795213 566.483494 
L 1107.795213 566.483494 
L 1107.548265 566.483494 
L 1107.548265 566.654136 
L 1107.548265 566.654136 
L 1107.301317 566.654136 
L 1107.301317 566.824777 
L 1107.054368 566.824777 
L 1107.054368 566.824777 
L 1106.80742 566.995419 
L 1106.80742 566.995419 
L 1106.560472 566.995419 
L 1106.560472 567.16606 
L 1106.313524 567.16606 
L 1106.313524 567.16606 
L 1106.066576 567.336702 
L 1106.066576 567.336702 
L 1105.819628 567.336702 
L 1105.819628 567.507343 
L 1105.819628 567.507343 
L 1105.572679 567.507343 
L 1105.572679 567.677985 
L 1105.325731 567.677985 
L 1105.325731 567.677985 
L 1104.831835 568.019268 
L 1104.831835 568.019268 
L 1104.584887 568.019268 
L 1104.584887 568.019268 
L 1104.337938 568.189909 
L 1104.337938 568.189909 
L 1104.09099 568.189909 
L 1104.09099 568.360551 
L 1104.09099 568.360551 
L 1103.844042 568.360551 
L 1103.844042 568.531192 
L 1103.350146 568.531192 
L 1103.350146 568.701834 
L 1103.103197 568.701834 
L 1103.103197 568.701834 
L 1103.103197 568.872475 
L 1102.856249 568.872475 
L 1102.856249 568.872475 
L 1102.609301 569.043117 
L 1102.609301 569.043117 
L 1102.362353 569.043117 
L 1102.362353 569.043117 
L 1102.362353 569.213758 
L 1102.115405 569.213758 
L 1102.115405 569.213758 
L 1101.868457 569.3844 
L 1101.868457 569.3844 
L 1101.621508 569.3844 
L 1101.621508 569.3844 
L 1101.127612 569.725683 
L 1101.127612 569.725683 
L 1100.880664 569.725683 
L 1100.880664 569.725683 
L 1100.386767 570.066966 
L 1100.386767 570.066966 
L 1100.139819 570.066966 
L 1100.139819 570.066966 
L 1099.892871 570.237608 
L 1099.892871 570.237608 
L 1099.645923 570.237608 
L 1099.645923 570.408249 
L 1099.645923 570.408249 
L 1099.398975 570.408249 
L 1099.398975 570.408249 
L 1099.152027 570.578891 
L 1099.152027 570.578891 
L 1098.905078 570.578891 
L 1098.905078 570.578891 
L 1098.905078 570.749532 
L 1098.65813 570.749532 
L 1098.65813 570.749532 
L 1098.411182 570.920174 
L 1098.411182 570.920174 
L 1098.164234 570.920174 
L 1098.164234 570.920174 
L 1097.917286 571.090815 
L 1097.917286 571.090815 
L 1097.670337 571.090815 
L 1097.670337 571.261457 
L 1097.176441 571.261457 
L 1097.176441 571.432098 
L 1096.929493 571.432098 
L 1096.929493 571.432098 
L 1096.929493 571.60274 
L 1096.435597 571.60274 
L 1096.435597 571.773381 
L 1096.188648 571.773381 
L 1096.188648 571.773381 
L 1095.9417 571.944023 
L 1095.9417 571.944023 
L 1095.694752 571.944023 
L 1095.694752 571.944023 
L 1095.447804 572.114664 
L 1095.447804 572.114664 
L 1095.200856 572.114664 
L 1095.200856 572.114664 
L 1095.200856 572.285306 
L 1094.706959 572.285306 
L 1094.706959 572.455947 
L 1094.460011 572.455947 
L 1094.460011 572.455947 
L 1094.213063 572.626589 
L 1094.213063 572.626589 
L 1093.966115 572.626589 
L 1093.966115 572.626589 
L 1093.719167 572.79723 
L 1093.719167 572.79723 
L 1093.472218 572.79723 
L 1093.472218 572.79723 
L 1093.472218 572.967872 
L 1092.978322 572.967872 
L 1092.978322 573.138513 
L 1092.484426 573.138513 
L 1092.484426 573.138513 
L 1092.484426 573.309155 
L 1091.990529 573.309155 
L 1091.990529 573.479796 
L 1091.743581 573.479796 
L 1091.743581 573.479796 
L 1091.496633 573.650438 
L 1091.496633 573.650438 
L 1091.249685 573.650438 
L 1091.249685 573.650438 
L 1091.002736 573.821079 
L 1091.002736 573.821079 
L 1090.755788 573.821079 
L 1090.755788 573.821079 
L 1090.50884 573.991721 
L 1090.50884 573.991721 
L 1090.261892 573.991721 
L 1090.261892 573.991721 
L 1090.014944 574.162362 
L 1090.014944 574.162362 
L 1089.767996 574.162362 
L 1089.767996 574.162362 
L 1089.521047 574.333004 
L 1089.521047 574.333004 
L 1089.274099 574.333004 
L 1089.274099 574.333004 
L 1089.027151 574.503645 
L 1089.027151 574.503645 
L 1088.780203 574.503645 
L 1088.780203 574.503645 
L 1088.533255 574.674287 
L 1088.533255 574.674287 
L 1088.286306 574.674287 
L 1088.286306 574.674287 
L 1088.039358 574.844928 
L 1088.039358 574.844928 
L 1087.79241 574.844928 
L 1087.79241 574.844928 
L 1087.545462 575.01557 
L 1087.545462 575.01557 
L 1087.298514 575.01557 
L 1087.298514 575.01557 
L 1087.298514 575.186211 
L 1086.804617 575.186211 
L 1086.804617 575.186211 
L 1086.557669 575.356853 
L 1086.557669 575.356853 
L 1086.310721 575.356853 
L 1086.310721 575.356853 
L 1086.063773 575.527494 
L 1086.063773 575.527494 
L 1085.569876 575.527494 
L 1085.569876 575.698136 
L 1085.569876 575.698136 
L 1085.322928 575.698136 
L 1085.322928 575.698136 
L 1085.07598 575.868777 
L 1085.07598 575.868777 
L 1084.582084 575.868777 
L 1084.582084 576.039419 
L 1084.582084 576.039419 
L 1084.088187 576.039419 
L 1084.088187 576.21006 
L 1083.594291 576.21006 
L 1083.594291 576.380702 
L 1083.100395 576.380702 
L 1083.100395 576.380702 
L 1082.853446 576.551343 
L 1082.853446 576.551343 
L 1082.606498 576.551343 
L 1082.606498 576.551343 
L 1082.35955 576.721985 
L 1082.35955 576.721985 
L 1081.865654 576.721985 
L 1081.865654 576.892626 
L 1081.865654 576.892626 
L 1081.371757 576.892626 
L 1081.371757 576.892626 
L 1081.124809 577.063268 
L 1081.124809 577.063268 
L 1080.877861 577.063268 
L 1080.877861 577.063268 
L 1080.630913 577.233909 
L 1080.630913 577.233909 
L 1080.137016 577.233909 
L 1080.137016 577.404551 
L 1080.137016 577.404551 
L 1079.64312 577.404551 
L 1079.64312 577.404551 
L 1079.396172 577.575192 
L 1079.396172 577.575192 
L 1079.149224 577.575192 
L 1079.149224 577.575192 
L 1078.902275 577.745834 
L 1078.902275 577.745834 
L 1078.408379 577.745834 
L 1078.408379 577.916475 
L 1078.408379 577.916475 
L 1077.914483 577.916475 
L 1077.914483 577.916475 
L 1077.667535 578.087117 
L 1077.667535 578.087117 
L 1077.173638 578.087117 
L 1077.173638 578.257758 
L 1076.679742 578.257758 
L 1076.679742 578.257758 
L 1076.679742 578.4284 
L 1075.938897 578.4284 
L 1075.938897 578.599042 
L 1075.445001 578.599042 
L 1075.445001 578.599042 
L 1075.198053 578.769683 
L 1075.198053 578.769683 
L 1074.704156 578.769683 
L 1074.704156 578.940325 
L 1074.21026 578.940325 
L 1074.21026 578.940325 
L 1073.963312 579.110966 
L 1073.963312 579.110966 
L 1073.469415 579.110966 
L 1073.469415 579.281608 
L 1072.975519 579.281608 
L 1072.975519 579.281608 
L 1072.728571 579.452249 
L 1072.728571 579.452249 
L 1072.234675 579.452249 
L 1072.234675 579.452249 
L 1071.987726 579.622891 
L 1071.987726 579.622891 
L 1071.49383 579.622891 
L 1071.49383 579.622891 
L 1071.246882 579.793532 
L 1071.246882 579.793532 
L 1070.752985 579.793532 
L 1070.752985 579.964174 
L 1070.259089 579.964174 
L 1070.259089 579.964174 
L 1070.012141 580.134815 
L 1070.012141 580.134815 
L 1069.518245 580.134815 
L 1069.518245 580.134815 
L 1069.271296 580.305457 
L 1069.271296 580.305457 
L 1068.7774 580.305457 
L 1068.7774 580.305457 
L 1068.7774 580.476098 
L 1068.036555 580.476098 
L 1068.036555 580.476098 
L 1067.789607 580.64674 
L 1067.789607 580.64674 
L 1067.295711 580.64674 
L 1067.295711 580.817381 
L 1066.554866 580.817381 
L 1066.554866 580.988023 
L 1065.814022 580.988023 
L 1065.814022 581.158664 
L 1065.073177 581.158664 
L 1065.073177 581.158664 
L 1065.073177 581.329306 
L 1064.332333 581.329306 
L 1064.332333 581.329306 
L 1064.332333 581.499947 
L 1063.591488 581.499947 
L 1063.591488 581.499947 
L 1063.34454 581.670589 
L 1063.34454 581.670589 
L 1062.850644 581.670589 
L 1062.850644 581.670589 
L 1062.603695 581.84123 
L 1062.603695 581.84123 
L 1062.109799 581.84123 
L 1062.109799 581.84123 
L 1061.862851 582.011872 
L 1061.862851 582.011872 
L 1061.122006 582.011872 
L 1061.122006 582.182513 
L 1060.381162 582.182513 
L 1060.381162 582.353155 
L 1059.640317 582.353155 
L 1059.640317 582.353155 
L 1059.393369 582.523796 
L 1059.393369 582.523796 
L 1058.899473 582.523796 
L 1058.899473 582.523796 
L 1058.652524 582.694438 
L 1058.652524 582.694438 
L 1057.91168 582.694438 
L 1057.91168 582.865079 
L 1057.170835 582.865079 
L 1057.170835 582.865079 
L 1056.923887 583.035721 
L 1056.923887 583.035721 
L 1056.183043 583.035721 
L 1056.183043 583.035721 
L 1056.183043 583.206362 
L 1055.442198 583.206362 
L 1055.442198 583.206362 
L 1055.19525 583.377004 
L 1055.19525 583.377004 
L 1054.454405 583.377004 
L 1054.454405 583.377004 
L 1054.454405 583.547645 
L 1053.713561 583.547645 
L 1053.713561 583.547645 
L 1053.466613 583.718287 
L 1053.466613 583.718287 
L 1052.725768 583.718287 
L 1052.725768 583.718287 
L 1052.47882 583.888928 
L 1052.47882 583.888928 
L 1051.737975 583.888928 
L 1051.737975 583.888928 
L 1051.737975 584.05957 
L 1050.750183 584.05957 
L 1050.750183 584.230211 
L 1050.009338 584.230211 
L 1050.009338 584.230211 
L 1049.76239 584.400853 
L 1049.76239 584.400853 
L 1049.021545 584.400853 
L 1049.021545 584.400853 
L 1048.774597 584.571494 
L 1048.774597 584.571494 
L 1048.033753 584.571494 
L 1048.033753 584.571494 
L 1047.786804 584.742136 
L 1047.786804 584.742136 
L 1047.04596 584.742136 
L 1047.04596 584.742136 
L 1046.799012 584.912777 
L 1046.799012 584.912777 
L 1045.811219 584.912777 
L 1045.811219 585.083419 
L 1044.823426 585.083419 
L 1044.823426 585.25406 
L 1044.823426 585.25406 
L 1043.835633 585.25406 
L 1043.835633 585.25406 
L 1043.835633 585.424702 
L 1042.847841 585.424702 
L 1042.847841 585.595343 
L 1041.860048 585.595343 
L 1041.860048 585.595343 
L 1041.6131 585.765985 
L 1041.6131 585.765985 
L 1040.625307 585.765985 
L 1040.625307 585.936626 
L 1039.637514 585.936626 
L 1039.637514 585.936626 
L 1039.390566 586.107268 
L 1039.390566 586.107268 
L 1038.649722 586.107268 
L 1038.649722 586.107268 
L 1038.402773 586.277909 
L 1038.402773 586.277909 
L 1037.414981 586.277909 
L 1037.414981 586.277909 
L 1037.168032 586.448551 
L 1037.168032 586.448551 
L 1036.18024 586.448551 
L 1036.18024 586.448551 
L 1035.933292 586.619192 
L 1035.933292 586.619192 
L 1034.945499 586.619192 
L 1034.945499 586.789834 
L 1034.945499 586.789834 
L 1033.957706 586.789834 
L 1033.957706 586.789834 
L 1033.710758 586.960475 
L 1033.710758 586.960475 
L 1032.722965 586.960475 
L 1032.722965 586.960475 
L 1032.476017 587.131117 
L 1032.476017 587.131117 
L 1031.488224 587.131117 
L 1031.488224 587.131117 
L 1031.241276 587.301758 
L 1031.241276 587.301758 
L 1030.253483 587.301758 
L 1030.253483 587.301758 
L 1030.006535 587.4724 
L 1030.006535 587.4724 
L 1028.771794 587.4724 
L 1028.771794 587.643042 
L 1028.771794 587.643042 
L 1027.537053 587.643042 
L 1027.537053 587.813683 
L 1026.302312 587.813683 
L 1026.302312 587.813683 
L 1026.055364 587.984325 
L 1026.055364 587.984325 
L 1025.067571 587.984325 
L 1025.067571 587.984325 
L 1024.820623 588.154966 
L 1024.820623 588.154966 
L 1023.585882 588.154966 
L 1023.585882 588.154966 
L 1023.585882 588.325608 
L 1022.104193 588.325608 
L 1022.104193 588.496249 
L 1020.869452 588.496249 
L 1020.869452 588.496249 
L 1020.622504 588.666891 
L 1020.622504 588.666891 
L 1019.387763 588.666891 
L 1019.387763 588.666891 
L 1019.140815 588.837532 
L 1019.140815 588.837532 
L 1017.906074 588.837532 
L 1017.906074 588.837532 
L 1017.659126 589.008174 
L 1017.659126 589.008174 
L 1016.424385 589.008174 
L 1016.424385 589.008174 
L 1016.424385 589.178815 
L 1014.942696 589.178815 
L 1014.942696 589.178815 
L 1014.695748 589.349457 
L 1014.695748 589.349457 
L 1013.214059 589.349457 
L 1013.214059 589.520098 
L 1011.73237 589.520098 
L 1011.73237 589.69074 
L 1010.25068 589.69074 
L 1010.25068 589.69074 
L 1010.003732 589.861381 
L 1010.003732 589.861381 
L 1008.522043 589.861381 
L 1008.522043 589.861381 
L 1008.522043 590.032023 
L 1006.793406 590.032023 
L 1006.793406 590.032023 
L 1006.546458 590.202664 
L 1006.546458 590.202664 
L 1005.064769 590.202664 
L 1005.064769 590.373306 
L 1003.336131 590.373306 
L 1003.336131 590.543947 
L 1001.607494 590.543947 
L 1001.607494 590.543947 
L 1001.360546 590.714589 
L 1001.360546 590.714589 
L 999.631909 590.714589 
L 999.631909 590.88523 
L 999.631909 590.88523 
L 997.903271 590.88523 
L 997.903271 590.88523 
L 997.903271 591.055872 
L 995.927686 591.055872 
L 995.927686 591.226513 
L 995.927686 591.226513 
L 994.199048 591.226513 
L 994.199048 591.226513 
L 993.9521 591.397155 
L 993.9521 591.397155 
L 992.223463 591.397155 
L 992.223463 591.397155 
L 991.976515 591.567796 
L 991.976515 591.567796 
L 990.000929 591.567796 
L 990.000929 591.738438 
L 988.025344 591.738438 
L 988.025344 591.738438 
L 988.025344 591.909079 
L 985.80281 591.909079 
L 985.80281 592.079721 
L 983.580277 592.079721 
L 983.580277 592.250362 
L 983.580277 592.250362 
L 981.604691 592.250362 
L 981.604691 592.250362 
L 981.357743 592.421004 
L 981.357743 592.421004 
L 979.135209 592.421004 
L 979.135209 592.591645 
L 979.135209 592.591645 
L 976.912676 592.591645 
L 976.912676 592.591645 
L 976.665727 592.762287 
L 976.665727 592.762287 
L 974.443194 592.762287 
L 974.443194 592.932928 
L 972.22066 592.932928 
L 972.22066 592.932928 
L 971.973712 593.10357 
L 971.973712 593.10357 
L 969.50423 593.10357 
L 969.50423 593.274211 
L 969.50423 593.274211 
L 967.034748 593.274211 
L 967.034748 593.274211 
L 966.7878 593.444853 
L 966.7878 593.444853 
L 964.318318 593.444853 
L 964.318318 593.615494 
L 961.601888 593.615494 
L 961.601888 593.786136 
L 958.885458 593.786136 
L 958.885458 593.786136 
L 958.885458 593.956777 
L 955.92208 593.956777 
L 955.92208 594.127419 
L 952.958702 594.127419 
L 952.958702 594.29806 
L 949.995324 594.29806 
L 949.995324 594.29806 
L 949.995324 594.468702 
L 946.784997 594.468702 
L 946.784997 594.639343 
L 943.821619 594.639343 
L 943.821619 594.639343 
L 943.574671 594.809985 
L 943.574671 594.809985 
L 940.364344 594.809985 
L 940.364344 594.809985 
L 940.117396 594.980626 
L 940.117396 594.980626 
L 936.90707 594.980626 
L 936.90707 595.151268 
L 933.449795 595.151268 
L 933.449795 595.151268 
L 933.202847 595.321909 
L 933.202847 595.321909 
L 929.745573 595.321909 
L 929.745573 595.492551 
L 926.04135 595.492551 
L 926.04135 595.492551 
L 926.04135 595.663192 
L 922.090179 595.663192 
L 922.090179 595.833834 
L 918.139008 595.833834 
L 918.139008 595.833834 
L 918.139008 596.004475 
L 913.940889 596.004475 
L 913.940889 596.175117 
L 909.74277 596.175117 
L 909.74277 596.175117 
L 909.495822 596.345758 
L 909.495822 596.345758 
L 905.297702 596.345758 
L 905.297702 596.345758 
L 905.050754 596.5164 
L 905.050754 596.5164 
L 222.485975 596.5164 
L 222.485975 595.492551 
L 222.239026 594.639343 
L 222.239026 593.615494 
L 221.992078 592.250362 
L 221.992078 590.373306 
L 221.74513 587.813683 
L 221.74513 577.063268 
L 221.498182 562.388098 
L 221.498182 508.29474 
L 221.498182 508.29474 
" style="fill:none;stroke:#1f77b4;stroke-linecap:square;stroke-width:1.5;"/>
   </g>
   <g id="line2d_34">
    <path clip-path="url(#p8258b4f365)" d="M 1195.461818 108.1404 
L 1195.461818 117.013758 
L 1195.21487 121.279796 
L 1195.21487 125.545834 
L 1194.967922 129.811872 
L 1194.967922 133.907268 
L 1194.720974 138.002664 
L 1194.720974 142.09806 
L 1194.474025 146.022815 
L 1194.474025 153.701683 
L 1194.227077 157.455796 
L 1194.227077 161.209909 
L 1193.980129 164.964023 
L 1193.980129 168.547494 
L 1193.733181 172.130966 
L 1193.733181 175.714438 
L 1193.486233 179.127268 
L 1193.486233 185.952928 
L 1193.239285 189.195117 
L 1193.239285 192.437306 
L 1192.992336 195.679494 
L 1192.992336 198.921683 
L 1192.745388 202.163872 
L 1192.745388 208.306966 
L 1192.49844 211.207872 
L 1192.49844 214.279419 
L 1192.251492 217.180325 
L 1192.251492 220.08123 
L 1192.004544 222.982136 
L 1192.004544 225.883042 
L 1191.757595 228.613306 
L 1191.757595 234.073834 
L 1191.510647 236.804098 
L 1191.510647 239.363721 
L 1191.263699 242.093985 
L 1191.263699 244.653608 
L 1191.016751 247.21323 
L 1191.016751 252.161834 
L 1190.769803 254.721457 
L 1190.769803 257.110438 
L 1190.522855 259.499419 
L 1190.522855 261.8884 
L 1190.275906 264.277381 
L 1190.275906 266.495721 
L 1190.028958 268.884702 
L 1190.028958 273.321381 
L 1189.78201 275.539721 
L 1189.78201 277.75806 
L 1189.535062 279.9764 
L 1189.535062 282.024098 
L 1189.288114 284.242438 
L 1189.288114 286.290136 
L 1189.041165 288.337834 
L 1189.041165 292.43323 
L 1188.794217 294.310287 
L 1188.794217 296.357985 
L 1188.547269 298.235042 
L 1188.547269 300.28274 
L 1188.300321 302.159796 
L 1188.300321 305.913909 
L 1188.053373 307.790966 
L 1188.053373 309.668023 
L 1187.806424 311.374438 
L 1187.806424 313.251494 
L 1187.559476 314.957909 
L 1187.559476 316.664325 
L 1187.312528 318.541381 
L 1187.312528 321.954211 
L 1187.06558 323.489985 
L 1187.06558 325.1964 
L 1186.818632 326.902815 
L 1186.818632 328.438589 
L 1186.571684 330.145004 
L 1186.571684 333.387192 
L 1186.324735 334.922966 
L 1186.324735 336.45874 
L 1186.077787 337.994513 
L 1186.077787 339.530287 
L 1185.830839 341.06606 
L 1185.830839 342.431192 
L 1185.583891 343.966966 
L 1185.583891 346.867872 
L 1185.336943 348.403645 
L 1185.336943 349.768777 
L 1185.089994 351.133909 
L 1185.089994 352.499042 
L 1184.843046 353.864174 
L 1184.843046 356.594438 
L 1184.596098 357.95957 
L 1184.596098 359.324702 
L 1184.34915 360.689834 
L 1184.34915 361.884325 
L 1184.102202 363.249457 
L 1184.102202 364.614589 
L 1183.855254 365.809079 
L 1183.855254 368.368702 
L 1183.608305 369.563192 
L 1183.608305 370.757683 
L 1183.361357 371.952174 
L 1183.361357 373.146664 
L 1183.114409 374.341155 
L 1183.114409 375.535645 
L 1182.867461 376.730136 
L 1182.867461 379.119117 
L 1182.620513 380.142966 
L 1182.620513 381.337457 
L 1182.373564 382.531947 
L 1182.373564 383.555796 
L 1182.126616 384.750287 
L 1182.126616 386.797985 
L 1181.879668 387.992475 
L 1181.879668 389.016325 
L 1181.63272 390.040174 
L 1181.63272 391.064023 
L 1181.385772 392.087872 
L 1181.385772 393.111721 
L 1181.138824 394.13557 
L 1181.138824 396.183268 
L 1180.891875 397.207117 
L 1180.891875 398.230966 
L 1180.644927 399.254815 
L 1180.644927 400.108023 
L 1180.397979 401.131872 
L 1180.397979 403.008928 
L 1180.151031 404.032777 
L 1180.151031 404.885985 
L 1179.904083 405.909834 
L 1179.904083 406.763042 
L 1179.657134 407.616249 
L 1179.657134 408.640098 
L 1179.410186 409.493306 
L 1179.410186 411.199721 
L 1179.163238 412.052928 
L 1179.163238 413.076777 
L 1178.91629 413.929985 
L 1178.91629 414.783192 
L 1178.669342 415.6364 
L 1178.669342 416.489608 
L 1178.422394 417.342815 
L 1178.422394 418.878589 
L 1178.175445 419.731796 
L 1178.175445 420.585004 
L 1177.928497 421.438211 
L 1177.928497 422.120777 
L 1177.681549 422.973985 
L 1177.681549 424.509758 
L 1177.434601 425.362966 
L 1177.434601 426.045532 
L 1177.187653 426.89874 
L 1177.187653 427.581306 
L 1176.940704 428.434513 
L 1176.940704 429.117079 
L 1176.693756 429.799645 
L 1176.693756 431.335419 
L 1176.446808 432.017985 
L 1176.446808 432.700551 
L 1176.19986 433.553758 
L 1176.19986 434.236325 
L 1175.952912 434.918891 
L 1175.952912 436.284023 
L 1175.705963 436.966589 
L 1175.705963 437.649155 
L 1175.459015 438.331721 
L 1175.459015 439.014287 
L 1175.212067 439.696853 
L 1175.212067 440.379419 
L 1174.965119 441.061985 
L 1174.965119 442.427117 
L 1174.718171 443.109683 
L 1174.718171 443.621608 
L 1174.471223 444.304174 
L 1174.471223 444.98674 
L 1174.224274 445.669306 
L 1174.224274 446.18123 
L 1173.977326 446.863796 
L 1173.977326 448.058287 
L 1173.730378 448.740853 
L 1173.730378 449.252777 
L 1173.48343 449.935343 
L 1173.48343 450.447268 
L 1173.236482 451.129834 
L 1173.236482 452.324325 
L 1172.989533 452.836249 
L 1172.989533 453.518815 
L 1172.742585 454.03074 
L 1172.742585 454.542664 
L 1172.495637 455.22523 
L 1172.495637 455.737155 
L 1172.248689 456.249079 
L 1172.248689 457.44357 
L 1172.001741 457.955494 
L 1172.001741 458.467419 
L 1171.754793 459.149985 
L 1171.754793 459.661909 
L 1171.507844 460.173834 
L 1171.507844 461.197683 
L 1171.260896 461.709608 
L 1171.260896 462.221532 
L 1171.013948 462.733457 
L 1171.013948 463.245381 
L 1170.767 463.757306 
L 1170.767 464.26923 
L 1170.520052 464.781155 
L 1170.520052 465.805004 
L 1170.273103 466.316928 
L 1170.273103 466.828853 
L 1170.026155 467.340777 
L 1170.026155 467.852702 
L 1169.779207 468.364626 
L 1169.779207 469.217834 
L 1169.532259 469.729758 
L 1169.532259 470.241683 
L 1169.285311 470.753608 
L 1169.285311 471.265532 
L 1169.038363 471.606815 
L 1169.038363 472.11874 
L 1168.791414 472.630664 
L 1168.791414 473.483872 
L 1168.544466 473.995796 
L 1168.544466 474.337079 
L 1168.297518 474.849004 
L 1168.297518 475.360928 
L 1168.05057 475.702211 
L 1168.05057 476.214136 
L 1167.803622 476.555419 
L 1167.803622 477.408626 
L 1167.556673 477.920551 
L 1167.556673 478.432475 
L 1167.309725 478.773758 
L 1167.309725 479.115042 
L 1167.062777 479.626966 
L 1167.062777 480.480174 
L 1166.815829 480.821457 
L 1166.815829 481.333381 
L 1166.568881 481.674664 
L 1166.568881 482.015947 
L 1166.321933 482.527872 
L 1166.321933 482.869155 
L 1166.074984 483.381079 
L 1166.074984 484.063645 
L 1165.828036 484.404928 
L 1165.828036 484.916853 
L 1165.581088 485.258136 
L 1165.581088 485.599419 
L 1165.33414 486.111343 
L 1165.33414 486.793909 
L 1165.087192 487.135192 
L 1165.087192 487.476475 
L 1164.840243 487.9884 
L 1164.840243 488.329683 
L 1164.593295 488.670966 
L 1164.593295 489.012249 
L 1164.346347 489.353532 
L 1164.346347 490.20674 
L 1164.099399 490.548023 
L 1164.099399 490.889306 
L 1163.852451 491.230589 
L 1163.852451 491.571872 
L 1163.605502 491.913155 
L 1163.605502 492.254438 
L 1163.358554 492.595721 
L 1163.358554 493.278287 
L 1163.111606 493.61957 
L 1163.111606 493.960853 
L 1162.864658 494.302136 
L 1162.864658 494.643419 
L 1162.61771 494.984702 
L 1162.61771 495.667268 
L 1162.370762 496.008551 
L 1162.370762 496.349834 
L 1162.123813 496.691117 
L 1162.123813 497.0324 
L 1161.876865 497.373683 
L 1161.876865 497.714966 
L 1161.629917 497.885608 
L 1161.629917 498.568174 
L 1161.382969 498.909457 
L 1161.382969 499.25074 
L 1161.136021 499.592023 
L 1161.136021 499.933306 
L 1160.889072 500.103947 
L 1160.889072 500.786513 
L 1160.642124 501.127796 
L 1160.642124 501.469079 
L 1160.395176 501.639721 
L 1160.395176 501.981004 
L 1160.148228 502.322287 
L 1160.148228 502.66357 
L 1159.90128 502.834211 
L 1159.90128 503.516777 
L 1159.407383 504.369985 
L 1159.407383 504.711268 
L 1159.160435 504.881909 
L 1159.160435 505.223192 
L 1158.913487 505.735117 
L 1158.913487 506.0764 
L 1158.419591 506.929608 
L 1158.419591 507.100249 
L 1158.172642 507.441532 
L 1158.172642 507.953457 
L 1157.678746 508.806664 
L 1157.678746 509.147947 
L 1157.431798 509.318589 
L 1157.431798 509.659872 
L 1157.18485 509.830513 
L 1157.18485 510.342438 
L 1156.690953 511.195645 
L 1156.690953 511.366287 
L 1156.444005 511.878211 
L 1156.444005 512.219494 
L 1156.197057 512.390136 
L 1156.197057 512.731419 
L 1155.950109 512.90206 
L 1155.950109 513.243343 
L 1155.703161 513.413985 
L 1155.703161 513.755268 
L 1155.456212 513.925909 
L 1155.456212 514.437834 
L 1155.209264 514.608475 
L 1155.209264 514.949758 
L 1154.962316 515.1204 
L 1154.962316 515.291042 
L 1154.715368 515.802966 
L 1154.715368 516.144249 
L 1154.46842 516.314891 
L 1154.46842 516.485532 
L 1153.974523 517.168098 
L 1153.974523 517.509381 
L 1153.727575 517.680023 
L 1153.727575 518.191947 
L 1153.480627 518.362589 
L 1153.480627 518.53323 
L 1152.739782 519.727721 
L 1152.739782 520.069004 
L 1151.998938 521.263494 
L 1151.998938 521.604777 
L 1151.75199 521.775419 
L 1151.75199 521.94606 
L 1151.011145 522.969909 
L 1151.011145 523.481834 
L 1150.764197 523.652475 
L 1150.764197 523.823117 
L 1150.517249 523.993758 
L 1150.517249 524.335042 
L 1150.270301 524.505683 
L 1150.270301 524.846966 
L 1150.023352 525.017608 
L 1150.023352 525.188249 
L 1149.776404 525.358891 
L 1149.776404 525.700174 
L 1149.529456 525.870815 
L 1149.529456 526.041457 
L 1149.282508 526.212098 
L 1149.282508 526.553381 
L 1149.03556 526.724023 
L 1149.03556 526.894664 
L 1148.788611 527.065306 
L 1148.788611 527.406589 
L 1148.541663 527.57723 
L 1148.541663 527.747872 
L 1148.294715 527.918513 
L 1148.294715 528.259796 
L 1148.047767 528.430438 
L 1148.047767 528.601079 
L 1147.800819 528.771721 
L 1147.800819 528.942362 
L 1147.553871 529.113004 
L 1147.553871 529.454287 
L 1147.306922 529.624928 
L 1147.306922 529.79557 
L 1147.059974 529.966211 
L 1147.059974 530.136853 
L 1146.813026 530.307494 
L 1146.813026 530.648777 
L 1146.566078 530.819419 
L 1146.566078 531.160702 
L 1146.31913 531.331343 
L 1146.31913 531.501985 
L 1146.072181 531.672626 
L 1146.072181 531.843268 
L 1145.825233 531.843268 
L 1145.825233 532.184551 
L 1145.578285 532.355192 
L 1145.578285 532.525834 
L 1145.331337 532.696475 
L 1145.331337 532.867117 
L 1145.084389 533.037758 
L 1145.084389 533.2084 
L 1144.837441 533.379042 
L 1144.837441 533.720325 
L 1144.590492 533.890966 
L 1144.590492 534.061608 
L 1144.343544 534.232249 
L 1144.343544 534.402891 
L 1144.096596 534.573532 
L 1144.096596 534.744174 
L 1143.849648 534.914815 
L 1143.849648 534.914815 
L 1143.849648 535.085457 
L 1143.6027 535.256098 
L 1143.6027 535.42674 
L 1143.355751 535.597381 
L 1143.355751 535.768023 
L 1143.108803 535.938664 
L 1143.108803 536.279947 
L 1142.614907 536.62123 
L 1142.614907 536.791872 
L 1142.367959 536.962513 
L 1142.367959 537.133155 
L 1142.121011 537.303796 
L 1142.121011 537.645079 
L 1141.874062 537.645079 
L 1141.874062 537.815721 
L 1141.627114 537.986362 
L 1141.627114 538.157004 
L 1141.380166 538.327645 
L 1141.380166 538.498287 
L 1141.380166 538.498287 
L 1141.133218 538.668928 
L 1141.133218 538.83957 
L 1140.88627 539.010211 
L 1140.88627 539.180853 
L 1140.392373 539.522136 
L 1140.392373 539.863419 
L 1139.898477 540.204702 
L 1139.898477 540.375343 
L 1139.651529 540.545985 
L 1139.651529 540.716626 
L 1139.651529 540.716626 
L 1139.40458 540.887268 
L 1139.40458 541.057909 
L 1139.157632 541.228551 
L 1139.157632 541.399192 
L 1138.910684 541.399192 
L 1138.910684 541.569834 
L 1138.663736 541.740475 
L 1138.663736 541.911117 
L 1138.663736 541.911117 
L 1138.416788 542.081758 
L 1138.416788 542.2524 
L 1137.922891 542.593683 
L 1137.922891 542.764325 
L 1137.675943 542.934966 
L 1137.675943 542.934966 
L 1137.675943 543.105608 
L 1137.428995 543.276249 
L 1137.428995 543.446891 
L 1137.182047 543.446891 
L 1137.182047 543.617532 
L 1136.935099 543.788174 
L 1136.935099 543.958815 
L 1136.935099 543.958815 
L 1136.68815 544.129457 
L 1136.68815 544.300098 
L 1136.441202 544.300098 
L 1136.441202 544.47074 
L 1136.194254 544.641381 
L 1136.194254 544.812023 
L 1135.947306 544.812023 
L 1135.947306 545.153306 
L 1135.700358 545.153306 
L 1135.700358 545.323947 
L 1135.45341 545.494589 
L 1135.45341 545.66523 
L 1135.206461 545.66523 
L 1135.206461 546.006513 
L 1134.959513 546.006513 
L 1134.959513 546.177155 
L 1134.465617 546.518438 
L 1134.465617 546.689079 
L 1134.218669 546.689079 
L 1134.218669 547.030362 
L 1133.97172 547.030362 
L 1133.97172 547.201004 
L 1133.477824 547.542287 
L 1133.477824 547.712928 
L 1133.230876 547.712928 
L 1133.230876 548.054211 
L 1132.983928 548.054211 
L 1132.983928 548.224853 
L 1132.73698 548.224853 
L 1132.73698 548.395494 
L 1132.490031 548.566136 
L 1132.490031 548.566136 
L 1132.490031 548.736777 
L 1131.749187 549.248702 
L 1131.749187 549.419343 
L 1131.502239 549.419343 
L 1131.502239 549.760626 
L 1131.25529 549.760626 
L 1131.25529 549.931268 
L 1131.008342 549.931268 
L 1131.008342 550.101909 
L 1130.761394 550.272551 
L 1130.761394 550.272551 
L 1130.761394 550.443192 
L 1130.514446 550.443192 
L 1130.514446 550.613834 
L 1129.773601 551.125758 
L 1129.773601 551.2964 
L 1129.773601 551.2964 
L 1129.032757 551.808325 
L 1129.032757 551.978966 
L 1129.032757 551.978966 
L 1128.291912 552.490891 
L 1128.291912 552.661532 
L 1128.044964 552.661532 
L 1128.044964 552.832174 
L 1128.044964 552.832174 
L 1127.057171 553.51474 
L 1127.057171 553.685381 
L 1127.057171 553.685381 
L 1126.316327 554.197306 
L 1126.316327 554.197306 
L 1126.316327 554.367947 
L 1126.069379 554.367947 
L 1126.069379 554.538589 
L 1125.82243 554.538589 
L 1125.82243 554.70923 
L 1125.575482 554.70923 
L 1125.575482 554.879872 
L 1125.328534 554.879872 
L 1125.328534 555.221155 
L 1125.081586 555.221155 
L 1125.081586 555.391796 
L 1124.834638 555.391796 
L 1124.834638 555.562438 
L 1124.587689 555.562438 
L 1124.587689 555.733079 
L 1124.587689 555.733079 
L 1123.599897 556.415645 
L 1123.599897 556.415645 
L 1123.599897 556.586287 
L 1123.352949 556.586287 
L 1123.352949 556.756928 
L 1123.106 556.756928 
L 1123.106 556.756928 
L 1122.612104 557.098211 
L 1122.612104 557.098211 
L 1122.612104 557.268853 
L 1122.365156 557.268853 
L 1122.365156 557.439494 
L 1122.118208 557.439494 
L 1122.118208 557.610136 
L 1121.871259 557.610136 
L 1121.871259 557.780777 
L 1121.871259 557.780777 
L 1121.130415 558.292702 
L 1121.130415 558.292702 
L 1120.883467 558.292702 
L 1120.883467 558.463343 
L 1120.883467 558.463343 
L 1118.413985 560.169758 
L 1118.413985 560.169758 
L 1118.167037 560.169758 
L 1118.167037 560.3404 
L 1118.167037 560.3404 
L 1117.67314 560.681683 
L 1117.67314 560.681683 
L 1117.426192 560.681683 
L 1117.426192 560.852325 
L 1117.426192 560.852325 
L 1116.932296 561.193608 
L 1116.932296 561.193608 
L 1116.685348 561.193608 
L 1116.685348 561.364249 
L 1116.438399 561.364249 
L 1116.438399 561.534891 
L 1116.438399 561.534891 
L 1116.191451 561.534891 
L 1116.191451 561.705532 
L 1115.944503 561.705532 
L 1115.944503 561.876174 
L 1115.697555 561.876174 
L 1115.697555 561.876174 
L 1115.697555 562.046815 
L 1115.450607 562.046815 
L 1115.450607 562.217457 
L 1115.203658 562.217457 
L 1115.203658 562.217457 
L 1114.462814 562.729381 
L 1114.462814 562.729381 
L 1114.215866 562.729381 
L 1114.215866 562.900023 
L 1113.968918 562.900023 
L 1113.968918 563.070664 
L 1113.968918 563.070664 
L 1113.721969 563.070664 
L 1113.721969 563.241306 
L 1113.475021 563.241306 
L 1113.475021 563.411947 
L 1113.228073 563.411947 
L 1113.228073 563.411947 
L 1112.487228 563.923872 
L 1112.487228 563.923872 
L 1112.24028 563.923872 
L 1112.24028 564.094513 
L 1111.993332 564.094513 
L 1111.993332 564.094513 
L 1111.993332 564.265155 
L 1111.746384 564.265155 
L 1111.746384 564.265155 
L 1111.005539 564.777079 
L 1111.005539 564.777079 
L 1110.758591 564.777079 
L 1110.758591 564.947721 
L 1110.511643 564.947721 
L 1110.511643 564.947721 
L 1110.017747 565.289004 
L 1110.017747 565.289004 
L 1109.770798 565.289004 
L 1109.770798 565.459645 
L 1109.52385 565.459645 
L 1109.52385 565.630287 
L 1109.52385 565.630287 
L 1109.276902 565.630287 
L 1109.276902 565.800928 
L 1109.029954 565.800928 
L 1109.029954 565.800928 
L 1108.783006 565.97157 
L 1108.783006 565.97157 
L 1108.536058 565.97157 
L 1108.536058 566.142211 
L 1108.536058 566.142211 
L 1108.289109 566.142211 
L 1108.289109 566.312853 
L 1108.042161 566.312853 
L 1108.042161 566.312853 
L 1107.795213 566.483494 
L 1107.795213 566.483494 
L 1107.548265 566.483494 
L 1107.548265 566.654136 
L 1107.548265 566.654136 
L 1107.301317 566.654136 
L 1107.301317 566.824777 
L 1107.054368 566.824777 
L 1107.054368 566.824777 
L 1106.80742 566.995419 
L 1106.80742 566.995419 
L 1106.560472 566.995419 
L 1106.560472 567.16606 
L 1106.313524 567.16606 
L 1106.313524 567.16606 
L 1106.066576 567.336702 
L 1106.066576 567.336702 
L 1105.819628 567.336702 
L 1105.819628 567.507343 
L 1105.819628 567.507343 
L 1105.572679 567.507343 
L 1105.572679 567.677985 
L 1105.325731 567.677985 
L 1105.325731 567.677985 
L 1104.831835 568.019268 
L 1104.831835 568.019268 
L 1104.584887 568.019268 
L 1104.584887 568.019268 
L 1104.337938 568.189909 
L 1104.337938 568.189909 
L 1104.09099 568.189909 
L 1104.09099 568.360551 
L 1104.09099 568.360551 
L 1103.844042 568.360551 
L 1103.844042 568.531192 
L 1103.350146 568.531192 
L 1103.350146 568.701834 
L 1103.103197 568.701834 
L 1103.103197 568.701834 
L 1103.103197 568.872475 
L 1102.856249 568.872475 
L 1102.856249 568.872475 
L 1102.609301 569.043117 
L 1102.609301 569.043117 
L 1102.362353 569.043117 
L 1102.362353 569.043117 
L 1102.362353 569.213758 
L 1102.115405 569.213758 
L 1102.115405 569.213758 
L 1101.868457 569.3844 
L 1101.868457 569.3844 
L 1101.621508 569.3844 
L 1101.621508 569.3844 
L 1101.127612 569.725683 
L 1101.127612 569.725683 
L 1100.880664 569.725683 
L 1100.880664 569.725683 
L 1100.386767 570.066966 
L 1100.386767 570.066966 
L 1100.139819 570.066966 
L 1100.139819 570.066966 
L 1099.892871 570.237608 
L 1099.892871 570.237608 
L 1099.645923 570.237608 
L 1099.645923 570.408249 
L 1099.645923 570.408249 
L 1099.398975 570.408249 
L 1099.398975 570.408249 
L 1099.152027 570.578891 
L 1099.152027 570.578891 
L 1098.905078 570.578891 
L 1098.905078 570.578891 
L 1098.905078 570.749532 
L 1098.65813 570.749532 
L 1098.65813 570.749532 
L 1098.411182 570.920174 
L 1098.411182 570.920174 
L 1098.164234 570.920174 
L 1098.164234 570.920174 
L 1097.917286 571.090815 
L 1097.917286 571.090815 
L 1097.670337 571.090815 
L 1097.670337 571.261457 
L 1097.176441 571.261457 
L 1097.176441 571.432098 
L 1096.929493 571.432098 
L 1096.929493 571.432098 
L 1096.929493 571.60274 
L 1096.435597 571.60274 
L 1096.435597 571.773381 
L 1096.188648 571.773381 
L 1096.188648 571.773381 
L 1095.9417 571.944023 
L 1095.9417 571.944023 
L 1095.694752 571.944023 
L 1095.694752 571.944023 
L 1095.447804 572.114664 
L 1095.447804 572.114664 
L 1095.200856 572.114664 
L 1095.200856 572.114664 
L 1095.200856 572.285306 
L 1094.706959 572.285306 
L 1094.706959 572.455947 
L 1094.460011 572.455947 
L 1094.460011 572.455947 
L 1094.213063 572.626589 
L 1094.213063 572.626589 
L 1093.966115 572.626589 
L 1093.966115 572.626589 
L 1093.719167 572.79723 
L 1093.719167 572.79723 
L 1093.472218 572.79723 
L 1093.472218 572.79723 
L 1093.472218 572.967872 
L 1092.978322 572.967872 
L 1092.978322 573.138513 
L 1092.484426 573.138513 
L 1092.484426 573.138513 
L 1092.484426 573.309155 
L 1091.990529 573.309155 
L 1091.990529 573.479796 
L 1091.743581 573.479796 
L 1091.743581 573.479796 
L 1091.496633 573.650438 
L 1091.496633 573.650438 
L 1091.249685 573.650438 
L 1091.249685 573.650438 
L 1091.002736 573.821079 
L 1091.002736 573.821079 
L 1090.755788 573.821079 
L 1090.755788 573.821079 
L 1090.50884 573.991721 
L 1090.50884 573.991721 
L 1090.261892 573.991721 
L 1090.261892 573.991721 
L 1090.014944 574.162362 
L 1090.014944 574.162362 
L 1089.767996 574.162362 
L 1089.767996 574.162362 
L 1089.521047 574.333004 
L 1089.521047 574.333004 
L 1089.274099 574.333004 
L 1089.274099 574.333004 
L 1089.027151 574.503645 
L 1089.027151 574.503645 
L 1088.780203 574.503645 
L 1088.780203 574.503645 
L 1088.533255 574.674287 
L 1088.533255 574.674287 
L 1088.286306 574.674287 
L 1088.286306 574.674287 
L 1088.039358 574.844928 
L 1088.039358 574.844928 
L 1087.79241 574.844928 
L 1087.79241 574.844928 
L 1087.545462 575.01557 
L 1087.545462 575.01557 
L 1087.298514 575.01557 
L 1087.298514 575.01557 
L 1087.298514 575.186211 
L 1086.804617 575.186211 
L 1086.804617 575.186211 
L 1086.557669 575.356853 
L 1086.557669 575.356853 
L 1086.310721 575.356853 
L 1086.310721 575.356853 
L 1086.063773 575.527494 
L 1086.063773 575.527494 
L 1085.569876 575.527494 
L 1085.569876 575.698136 
L 1085.569876 575.698136 
L 1085.322928 575.698136 
L 1085.322928 575.698136 
L 1085.07598 575.868777 
L 1085.07598 575.868777 
L 1084.582084 575.868777 
L 1084.582084 576.039419 
L 1084.582084 576.039419 
L 1084.088187 576.039419 
L 1084.088187 576.21006 
L 1083.594291 576.21006 
L 1083.594291 576.380702 
L 1083.100395 576.380702 
L 1083.100395 576.380702 
L 1082.853446 576.551343 
L 1082.853446 576.551343 
L 1082.606498 576.551343 
L 1082.606498 576.551343 
L 1082.35955 576.721985 
L 1082.35955 576.721985 
L 1081.865654 576.721985 
L 1081.865654 576.892626 
L 1081.865654 576.892626 
L 1081.371757 576.892626 
L 1081.371757 576.892626 
L 1081.124809 577.063268 
L 1081.124809 577.063268 
L 1080.877861 577.063268 
L 1080.877861 577.063268 
L 1080.630913 577.233909 
L 1080.630913 577.233909 
L 1080.137016 577.233909 
L 1080.137016 577.404551 
L 1080.137016 577.404551 
L 1079.64312 577.404551 
L 1079.64312 577.404551 
L 1079.396172 577.575192 
L 1079.396172 577.575192 
L 1079.149224 577.575192 
L 1079.149224 577.575192 
L 1078.902275 577.745834 
L 1078.902275 577.745834 
L 1078.408379 577.745834 
L 1078.408379 577.916475 
L 1078.408379 577.916475 
L 1077.914483 577.916475 
L 1077.914483 577.916475 
L 1077.667535 578.087117 
L 1077.667535 578.087117 
L 1077.173638 578.087117 
L 1077.173638 578.257758 
L 1076.679742 578.257758 
L 1076.679742 578.257758 
L 1076.679742 578.4284 
L 1075.938897 578.4284 
L 1075.938897 578.599042 
L 1075.445001 578.599042 
L 1075.445001 578.599042 
L 1075.198053 578.769683 
L 1075.198053 578.769683 
L 1074.704156 578.769683 
L 1074.704156 578.940325 
L 1074.21026 578.940325 
L 1074.21026 578.940325 
L 1073.963312 579.110966 
L 1073.963312 579.110966 
L 1073.469415 579.110966 
L 1073.469415 579.281608 
L 1072.975519 579.281608 
L 1072.975519 579.281608 
L 1072.728571 579.452249 
L 1072.728571 579.452249 
L 1072.234675 579.452249 
L 1072.234675 579.452249 
L 1071.987726 579.622891 
L 1071.987726 579.622891 
L 1071.49383 579.622891 
L 1071.49383 579.622891 
L 1071.246882 579.793532 
L 1071.246882 579.793532 
L 1070.752985 579.793532 
L 1070.752985 579.964174 
L 1070.259089 579.964174 
L 1070.259089 579.964174 
L 1070.012141 580.134815 
L 1070.012141 580.134815 
L 1069.518245 580.134815 
L 1069.518245 580.134815 
L 1069.271296 580.305457 
L 1069.271296 580.305457 
L 1068.7774 580.305457 
L 1068.7774 580.305457 
L 1068.7774 580.476098 
L 1068.036555 580.476098 
L 1068.036555 580.476098 
L 1067.789607 580.64674 
L 1067.789607 580.64674 
L 1067.295711 580.64674 
L 1067.295711 580.817381 
L 1066.554866 580.817381 
L 1066.554866 580.988023 
L 1065.814022 580.988023 
L 1065.814022 581.158664 
L 1065.073177 581.158664 
L 1065.073177 581.158664 
L 1065.073177 581.329306 
L 1064.332333 581.329306 
L 1064.332333 581.329306 
L 1064.332333 581.499947 
L 1063.591488 581.499947 
L 1063.591488 581.499947 
L 1063.34454 581.670589 
L 1063.34454 581.670589 
L 1062.850644 581.670589 
L 1062.850644 581.670589 
L 1062.603695 581.84123 
L 1062.603695 581.84123 
L 1062.109799 581.84123 
L 1062.109799 581.84123 
L 1061.862851 582.011872 
L 1061.862851 582.011872 
L 1061.122006 582.011872 
L 1061.122006 582.182513 
L 1060.381162 582.182513 
L 1060.381162 582.353155 
L 1059.640317 582.353155 
L 1059.640317 582.353155 
L 1059.393369 582.523796 
L 1059.393369 582.523796 
L 1058.899473 582.523796 
L 1058.899473 582.523796 
L 1058.652524 582.694438 
L 1058.652524 582.694438 
L 1057.91168 582.694438 
L 1057.91168 582.865079 
L 1057.170835 582.865079 
L 1057.170835 582.865079 
L 1056.923887 583.035721 
L 1056.923887 583.035721 
L 1056.183043 583.035721 
L 1056.183043 583.035721 
L 1056.183043 583.206362 
L 1055.442198 583.206362 
L 1055.442198 583.206362 
L 1055.19525 583.377004 
L 1055.19525 583.377004 
L 1054.454405 583.377004 
L 1054.454405 583.377004 
L 1054.454405 583.547645 
L 1053.713561 583.547645 
L 1053.713561 583.547645 
L 1053.466613 583.718287 
L 1053.466613 583.718287 
L 1052.725768 583.718287 
L 1052.725768 583.718287 
L 1052.47882 583.888928 
L 1052.47882 583.888928 
L 1051.737975 583.888928 
L 1051.737975 583.888928 
L 1051.737975 584.05957 
L 1050.750183 584.05957 
L 1050.750183 584.230211 
L 1050.009338 584.230211 
L 1050.009338 584.230211 
L 1049.76239 584.400853 
L 1049.76239 584.400853 
L 1049.021545 584.400853 
L 1049.021545 584.400853 
L 1048.774597 584.571494 
L 1048.774597 584.571494 
L 1048.033753 584.571494 
L 1048.033753 584.571494 
L 1047.786804 584.742136 
L 1047.786804 584.742136 
L 1047.04596 584.742136 
L 1047.04596 584.742136 
L 1046.799012 584.912777 
L 1046.799012 584.912777 
L 1045.811219 584.912777 
L 1045.811219 585.083419 
L 1044.823426 585.083419 
L 1044.823426 585.25406 
L 1044.823426 585.25406 
L 1043.835633 585.25406 
L 1043.835633 585.25406 
L 1043.835633 585.424702 
L 1042.847841 585.424702 
L 1042.847841 585.595343 
L 1041.860048 585.595343 
L 1041.860048 585.595343 
L 1041.6131 585.765985 
L 1041.6131 585.765985 
L 1040.625307 585.765985 
L 1040.625307 585.936626 
L 1039.637514 585.936626 
L 1039.637514 585.936626 
L 1039.390566 586.107268 
L 1039.390566 586.107268 
L 1038.649722 586.107268 
L 1038.649722 586.107268 
L 1038.402773 586.277909 
L 1038.402773 586.277909 
L 1037.414981 586.277909 
L 1037.414981 586.277909 
L 1037.168032 586.448551 
L 1037.168032 586.448551 
L 1036.18024 586.448551 
L 1036.18024 586.448551 
L 1035.933292 586.619192 
L 1035.933292 586.619192 
L 1034.945499 586.619192 
L 1034.945499 586.789834 
L 1034.945499 586.789834 
L 1033.957706 586.789834 
L 1033.957706 586.789834 
L 1033.710758 586.960475 
L 1033.710758 586.960475 
L 1032.722965 586.960475 
L 1032.722965 586.960475 
L 1032.476017 587.131117 
L 1032.476017 587.131117 
L 1031.488224 587.131117 
L 1031.488224 587.131117 
L 1031.241276 587.301758 
L 1031.241276 587.301758 
L 1030.253483 587.301758 
L 1030.253483 587.301758 
L 1030.006535 587.4724 
L 1030.006535 587.4724 
L 1028.771794 587.4724 
L 1028.771794 587.643042 
L 1028.771794 587.643042 
L 1027.537053 587.643042 
L 1027.537053 587.813683 
L 1026.302312 587.813683 
L 1026.302312 587.813683 
L 1026.055364 587.984325 
L 1026.055364 587.984325 
L 1025.067571 587.984325 
L 1025.067571 587.984325 
L 1024.820623 588.154966 
L 1024.820623 588.154966 
L 1023.585882 588.154966 
L 1023.585882 588.154966 
L 1023.585882 588.325608 
L 1022.104193 588.325608 
L 1022.104193 588.496249 
L 1020.869452 588.496249 
L 1020.869452 588.496249 
L 1020.622504 588.666891 
L 1020.622504 588.666891 
L 1019.387763 588.666891 
L 1019.387763 588.666891 
L 1019.140815 588.837532 
L 1019.140815 588.837532 
L 1017.906074 588.837532 
L 1017.906074 588.837532 
L 1017.659126 589.008174 
L 1017.659126 589.008174 
L 1016.424385 589.008174 
L 1016.424385 589.008174 
L 1016.424385 589.178815 
L 1014.942696 589.178815 
L 1014.942696 589.178815 
L 1014.695748 589.349457 
L 1014.695748 589.349457 
L 1013.214059 589.349457 
L 1013.214059 589.520098 
L 1011.73237 589.520098 
L 1011.73237 589.69074 
L 1010.25068 589.69074 
L 1010.25068 589.69074 
L 1010.003732 589.861381 
L 1010.003732 589.861381 
L 1008.522043 589.861381 
L 1008.522043 589.861381 
L 1008.522043 590.032023 
L 1006.793406 590.032023 
L 1006.793406 590.032023 
L 1006.546458 590.202664 
L 1006.546458 590.202664 
L 1005.064769 590.202664 
L 1005.064769 590.373306 
L 1003.336131 590.373306 
L 1003.336131 590.543947 
L 1001.607494 590.543947 
L 1001.607494 590.543947 
L 1001.360546 590.714589 
L 1001.360546 590.714589 
L 999.631909 590.714589 
L 999.631909 590.88523 
L 999.631909 590.88523 
L 997.903271 590.88523 
L 997.903271 590.88523 
L 997.903271 591.055872 
L 995.927686 591.055872 
L 995.927686 591.226513 
L 995.927686 591.226513 
L 994.199048 591.226513 
L 994.199048 591.226513 
L 993.9521 591.397155 
L 993.9521 591.397155 
L 992.223463 591.397155 
L 992.223463 591.397155 
L 991.976515 591.567796 
L 991.976515 591.567796 
L 990.000929 591.567796 
L 990.000929 591.738438 
L 988.025344 591.738438 
L 988.025344 591.738438 
L 988.025344 591.909079 
L 985.80281 591.909079 
L 985.80281 592.079721 
L 983.580277 592.079721 
L 983.580277 592.250362 
L 983.580277 592.250362 
L 981.604691 592.250362 
L 981.604691 592.250362 
L 981.357743 592.421004 
L 981.357743 592.421004 
L 979.135209 592.421004 
L 979.135209 592.591645 
L 979.135209 592.591645 
L 976.912676 592.591645 
L 976.912676 592.591645 
L 976.665727 592.762287 
L 976.665727 592.762287 
L 974.443194 592.762287 
L 974.443194 592.932928 
L 972.22066 592.932928 
L 972.22066 592.932928 
L 971.973712 593.10357 
L 971.973712 593.10357 
L 969.50423 593.10357 
L 969.50423 593.274211 
L 969.50423 593.274211 
L 967.034748 593.274211 
L 967.034748 593.274211 
L 966.7878 593.444853 
L 966.7878 593.444853 
L 964.318318 593.444853 
L 964.318318 593.615494 
L 961.601888 593.615494 
L 961.601888 593.786136 
L 958.885458 593.786136 
L 958.885458 593.786136 
L 958.885458 593.956777 
L 955.92208 593.956777 
L 955.92208 594.127419 
L 952.958702 594.127419 
L 952.958702 594.29806 
L 949.995324 594.29806 
L 949.995324 594.29806 
L 949.995324 594.468702 
L 946.784997 594.468702 
L 946.784997 594.639343 
L 943.821619 594.639343 
L 943.821619 594.639343 
L 943.574671 594.809985 
L 943.574671 594.809985 
L 940.364344 594.809985 
L 940.364344 594.809985 
L 940.117396 594.980626 
L 940.117396 594.980626 
L 936.90707 594.980626 
L 936.90707 595.151268 
L 933.449795 595.151268 
L 933.449795 595.151268 
L 933.202847 595.321909 
L 933.202847 595.321909 
L 929.745573 595.321909 
L 929.745573 595.492551 
L 926.04135 595.492551 
L 926.04135 595.492551 
L 926.04135 595.663192 
L 922.090179 595.663192 
L 922.090179 595.833834 
L 918.139008 595.833834 
L 918.139008 595.833834 
L 918.139008 596.004475 
L 913.940889 596.004475 
L 913.940889 596.175117 
L 909.74277 596.175117 
L 909.74277 596.175117 
L 909.495822 596.345758 
L 909.495822 596.345758 
L 905.297702 596.345758 
L 905.297702 596.345758 
L 905.050754 596.5164 
L 905.050754 596.5164 
L 222.485975 596.5164 
L 222.485975 595.492551 
L 222.239026 594.639343 
L 222.239026 593.615494 
L 221.992078 592.250362 
L 221.992078 590.373306 
L 221.74513 587.813683 
L 221.74513 577.063268 
L 221.498182 562.388098 
L 221.498182 508.29474 
L 221.498182 508.29474 
" style="fill:none;stroke:#ff7f0e;stroke-linecap:square;stroke-width:1.5;"/>
   </g>
   <g id="patch_3">
    <path d="M 172.8 620.9352 
L 172.8 83.7216 
" style="fill:none;stroke:#000000;stroke-linecap:square;stroke-linejoin:miter;stroke-width:0.8;"/>
   </g>
   <g id="patch_4">
    <path d="M 1244.16 620.9352 
L 1244.16 83.7216 
" style="fill:none;stroke:#000000;stroke-linecap:square;stroke-linejoin:miter;stroke-width:0.8;"/>
   </g>
   <g id="patch_5">
    <path d="M 172.8 620.9352 
L 1244.16 620.9352 
" style="fill:none;stroke:#000000;stroke-linecap:square;stroke-linejoin:miter;stroke-width:0.8;"/>
   </g>
   <g id="patch_6">
    <path d="M 172.8 83.7216 
L 1244.16 83.7216 
" style="fill:none;stroke:#000000;stroke-linecap:square;stroke-linejoin:miter;stroke-width:0.8;"/>
   </g>
   <g id="legend_1">
    <g id="patch_7">
     <path d="M 179.8 121.07785 
L 366.540625 121.07785 
Q 368.540625 121.07785 368.540625 119.07785 
L 368.540625 90.7216 
Q 368.540625 88.7216 366.540625 88.7216 
L 179.8 88.7216 
Q 177.8 88.7216 177.8 90.7216 
L 177.8 119.07785 
Q 177.8 121.07785 179.8 121.07785 
z
" style="fill:#ffffff;opacity:0.8;stroke:#cccccc;stroke-linejoin:miter;"/>
    </g>
    <g id="line2d_35">
     <path d="M 181.8 96.820037 
L 201.8 96.820037 
" style="fill:none;stroke:#1f77b4;stroke-linecap:square;stroke-width:1.5;"/>
    </g>
    <g id="line2d_36"/>
    <g id="text_19">
     <!-- Minimum thickness top lug -->
     <g transform="translate(209.8 100.320037)scale(0.1 -0.1)">
      <defs>
       <path d="M 9.8125 72.90625 
L 24.515625 72.90625 
L 43.109375 23.296875 
L 61.8125 72.90625 
L 76.515625 72.90625 
L 76.515625 0 
L 66.890625 0 
L 66.890625 64.015625 
L 48.09375 14.015625 
L 38.1875 14.015625 
L 19.390625 64.015625 
L 19.390625 0 
L 9.8125 0 
z
" id="DejaVuSans-77"/>
       <path d="M 8.5 21.578125 
L 8.5 54.6875 
L 17.484375 54.6875 
L 17.484375 21.921875 
Q 17.484375 14.15625 20.5 10.265625 
Q 23.53125 6.390625 29.59375 6.390625 
Q 36.859375 6.390625 41.078125 11.03125 
Q 45.3125 15.671875 45.3125 23.6875 
L 45.3125 54.6875 
L 54.296875 54.6875 
L 54.296875 0 
L 45.3125 0 
L 45.3125 8.40625 
Q 42.046875 3.421875 37.71875 1 
Q 33.40625 -1.421875 27.6875 -1.421875 
Q 18.265625 -1.421875 13.375 4.4375 
Q 8.5 10.296875 8.5 21.578125 
z
M 31.109375 56 
z
" id="DejaVuSans-117"/>
       <path d="M 30.609375 48.390625 
Q 23.390625 48.390625 19.1875 42.75 
Q 14.984375 37.109375 14.984375 27.296875 
Q 14.984375 17.484375 19.15625 11.84375 
Q 23.34375 6.203125 30.609375 6.203125 
Q 37.796875 6.203125 41.984375 11.859375 
Q 46.1875 17.53125 46.1875 27.296875 
Q 46.1875 37.015625 41.984375 42.703125 
Q 37.796875 48.390625 30.609375 48.390625 
z
M 30.609375 56 
Q 42.328125 56 49.015625 48.375 
Q 55.71875 40.765625 55.71875 27.296875 
Q 55.71875 13.875 49.015625 6.21875 
Q 42.328125 -1.421875 30.609375 -1.421875 
Q 18.84375 -1.421875 12.171875 6.21875 
Q 5.515625 13.875 5.515625 27.296875 
Q 5.515625 40.765625 12.171875 48.375 
Q 18.84375 56 30.609375 56 
z
" id="DejaVuSans-111"/>
       <path d="M 18.109375 8.203125 
L 18.109375 -20.796875 
L 9.078125 -20.796875 
L 9.078125 54.6875 
L 18.109375 54.6875 
L 18.109375 46.390625 
Q 20.953125 51.265625 25.265625 53.625 
Q 29.59375 56 35.59375 56 
Q 45.5625 56 51.78125 48.09375 
Q 58.015625 40.1875 58.015625 27.296875 
Q 58.015625 14.40625 51.78125 6.484375 
Q 45.5625 -1.421875 35.59375 -1.421875 
Q 29.59375 -1.421875 25.265625 0.953125 
Q 20.953125 3.328125 18.109375 8.203125 
z
M 48.6875 27.296875 
Q 48.6875 37.203125 44.609375 42.84375 
Q 40.53125 48.484375 33.40625 48.484375 
Q 26.265625 48.484375 22.1875 42.84375 
Q 18.109375 37.203125 18.109375 27.296875 
Q 18.109375 17.390625 22.1875 11.75 
Q 26.265625 6.109375 33.40625 6.109375 
Q 40.53125 6.109375 44.609375 11.75 
Q 48.6875 17.390625 48.6875 27.296875 
z
" id="DejaVuSans-112"/>
       <path d="M 9.421875 75.984375 
L 18.40625 75.984375 
L 18.40625 0 
L 9.421875 0 
z
" id="DejaVuSans-108"/>
       <path d="M 45.40625 27.984375 
Q 45.40625 37.75 41.375 43.109375 
Q 37.359375 48.484375 30.078125 48.484375 
Q 22.859375 48.484375 18.828125 43.109375 
Q 14.796875 37.75 14.796875 27.984375 
Q 14.796875 18.265625 18.828125 12.890625 
Q 22.859375 7.515625 30.078125 7.515625 
Q 37.359375 7.515625 41.375 12.890625 
Q 45.40625 18.265625 45.40625 27.984375 
z
M 54.390625 6.78125 
Q 54.390625 -7.171875 48.1875 -13.984375 
Q 42 -20.796875 29.203125 -20.796875 
Q 24.46875 -20.796875 20.265625 -20.09375 
Q 16.0625 -19.390625 12.109375 -17.921875 
L 12.109375 -9.1875 
Q 16.0625 -11.328125 19.921875 -12.34375 
Q 23.78125 -13.375 27.78125 -13.375 
Q 36.625 -13.375 41.015625 -8.765625 
Q 45.40625 -4.15625 45.40625 5.171875 
L 45.40625 9.625 
Q 42.625 4.78125 38.28125 2.390625 
Q 33.9375 0 27.875 0 
Q 17.828125 0 11.671875 7.65625 
Q 5.515625 15.328125 5.515625 27.984375 
Q 5.515625 40.671875 11.671875 48.328125 
Q 17.828125 56 27.875 56 
Q 33.9375 56 38.28125 53.609375 
Q 42.625 51.21875 45.40625 46.390625 
L 45.40625 54.6875 
L 54.390625 54.6875 
z
" id="DejaVuSans-103"/>
      </defs>
      <use xlink:href="#DejaVuSans-77"/>
      <use x="86.279297" xlink:href="#DejaVuSans-105"/>
      <use x="114.0625" xlink:href="#DejaVuSans-110"/>
      <use x="177.441406" xlink:href="#DejaVuSans-105"/>
      <use x="205.224609" xlink:href="#DejaVuSans-109"/>
      <use x="302.636719" xlink:href="#DejaVuSans-117"/>
      <use x="366.015625" xlink:href="#DejaVuSans-109"/>
      <use x="463.427734" xlink:href="#DejaVuSans-32"/>
      <use x="495.214844" xlink:href="#DejaVuSans-116"/>
      <use x="534.423828" xlink:href="#DejaVuSans-104"/>
      <use x="597.802734" xlink:href="#DejaVuSans-105"/>
      <use x="625.585938" xlink:href="#DejaVuSans-99"/>
      <use x="680.566406" xlink:href="#DejaVuSans-107"/>
      <use x="738.476562" xlink:href="#DejaVuSans-110"/>
      <use x="801.855469" xlink:href="#DejaVuSans-101"/>
      <use x="863.378906" xlink:href="#DejaVuSans-115"/>
      <use x="915.478516" xlink:href="#DejaVuSans-115"/>
      <use x="967.578125" xlink:href="#DejaVuSans-32"/>
      <use x="999.365234" xlink:href="#DejaVuSans-116"/>
      <use x="1038.574219" xlink:href="#DejaVuSans-111"/>
      <use x="1099.755859" xlink:href="#DejaVuSans-112"/>
      <use x="1163.232422" xlink:href="#DejaVuSans-32"/>
      <use x="1195.019531" xlink:href="#DejaVuSans-108"/>
      <use x="1222.802734" xlink:href="#DejaVuSans-117"/>
      <use x="1286.181641" xlink:href="#DejaVuSans-103"/>
     </g>
    </g>
    <g id="line2d_37">
     <path d="M 181.8 111.498162 
L 201.8 111.498162 
" style="fill:none;stroke:#ff7f0e;stroke-linecap:square;stroke-width:1.5;"/>
    </g>
    <g id="line2d_38"/>
    <g id="text_20">
     <!-- Minimum thickness bottom lug -->
     <g transform="translate(209.8 114.998162)scale(0.1 -0.1)">
      <defs>
       <path d="M 48.6875 27.296875 
Q 48.6875 37.203125 44.609375 42.84375 
Q 40.53125 48.484375 33.40625 48.484375 
Q 26.265625 48.484375 22.1875 42.84375 
Q 18.109375 37.203125 18.109375 27.296875 
Q 18.109375 17.390625 22.1875 11.75 
Q 26.265625 6.109375 33.40625 6.109375 
Q 40.53125 6.109375 44.609375 11.75 
Q 48.6875 17.390625 48.6875 27.296875 
z
M 18.109375 46.390625 
Q 20.953125 51.265625 25.265625 53.625 
Q 29.59375 56 35.59375 56 
Q 45.5625 56 51.78125 48.09375 
Q 58.015625 40.1875 58.015625 27.296875 
Q 58.015625 14.40625 51.78125 6.484375 
Q 45.5625 -1.421875 35.59375 -1.421875 
Q 29.59375 -1.421875 25.265625 0.953125 
Q 20.953125 3.328125 18.109375 8.203125 
L 18.109375 0 
L 9.078125 0 
L 9.078125 75.984375 
L 18.109375 75.984375 
z
" id="DejaVuSans-98"/>
      </defs>
      <use xlink:href="#DejaVuSans-77"/>
      <use x="86.279297" xlink:href="#DejaVuSans-105"/>
      <use x="114.0625" xlink:href="#DejaVuSans-110"/>
      <use x="177.441406" xlink:href="#DejaVuSans-105"/>
      <use x="205.224609" xlink:href="#DejaVuSans-109"/>
      <use x="302.636719" xlink:href="#DejaVuSans-117"/>
      <use x="366.015625" xlink:href="#DejaVuSans-109"/>
      <use x="463.427734" xlink:href="#DejaVuSans-32"/>
      <use x="495.214844" xlink:href="#DejaVuSans-116"/>
      <use x="534.423828" xlink:href="#DejaVuSans-104"/>
      <use x="597.802734" xlink:href="#DejaVuSans-105"/>
      <use x="625.585938" xlink:href="#DejaVuSans-99"/>
      <use x="680.566406" xlink:href="#DejaVuSans-107"/>
      <use x="738.476562" xlink:href="#DejaVuSans-110"/>
      <use x="801.855469" xlink:href="#DejaVuSans-101"/>
      <use x="863.378906" xlink:href="#DejaVuSans-115"/>
      <use x="915.478516" xlink:href="#DejaVuSans-115"/>
      <use x="967.578125" xlink:href="#DejaVuSans-32"/>
      <use x="999.365234" xlink:href="#DejaVuSans-98"/>
      <use x="1062.841797" xlink:href="#DejaVuSans-111"/>
      <use x="1124.023438" xlink:href="#DejaVuSans-116"/>
      <use x="1163.232422" xlink:href="#DejaVuSans-116"/>
      <use x="1202.441406" xlink:href="#DejaVuSans-111"/>
      <use x="1263.623047" xlink:href="#DejaVuSans-109"/>
      <use x="1361.035156" xlink:href="#DejaVuSans-32"/>
      <use x="1392.822266" xlink:href="#DejaVuSans-108"/>
      <use x="1420.605469" xlink:href="#DejaVuSans-117"/>
      <use x="1483.984375" xlink:href="#DejaVuSans-103"/>
     </g>
    </g>
   </g>
  </g>
 </g>
 <defs>
  <clipPath id="p8258b4f365">
   <rect height="537.2136" width="1071.36" x="172.8" y="83.7216"/>
  </clipPath>
 </defs>
</svg>
